G75*
%MOIN*%
%OFA0B0*%
%FSLAX25Y25*%
%IPPOS*%
%LPD*%
%AMOC8*
5,1,8,0,0,1.08239X$1,22.5*
%
%ADD10C,0.00600*%
%ADD11C,0.00400*%
%ADD12C,0.00300*%
%ADD13C,0.00500*%
%ADD14C,0.00100*%
%ADD15R,0.00591X0.01181*%
%ADD16R,0.01181X0.01181*%
%ADD17R,0.01181X0.00591*%
%ADD18C,0.00700*%
%ADD19C,0.01000*%
%ADD20C,0.00200*%
%ADD21C,0.00800*%
%ADD22C,0.01181*%
%ADD23C,0.00787*%
%ADD24R,0.01181X0.08268*%
%ADD25C,0.01000*%
D10*
X0075788Y0032553D02*
X0075788Y0044953D01*
X0075790Y0045029D01*
X0075796Y0045105D01*
X0075805Y0045180D01*
X0075819Y0045255D01*
X0075836Y0045329D01*
X0075857Y0045402D01*
X0075881Y0045474D01*
X0075910Y0045545D01*
X0075941Y0045614D01*
X0075976Y0045681D01*
X0076015Y0045746D01*
X0076057Y0045810D01*
X0076102Y0045871D01*
X0076150Y0045930D01*
X0076201Y0045986D01*
X0076255Y0046040D01*
X0076311Y0046091D01*
X0076370Y0046139D01*
X0076431Y0046184D01*
X0076495Y0046226D01*
X0076560Y0046265D01*
X0076627Y0046300D01*
X0076696Y0046331D01*
X0076767Y0046360D01*
X0076839Y0046384D01*
X0076912Y0046405D01*
X0076986Y0046422D01*
X0077061Y0046436D01*
X0077136Y0046445D01*
X0077212Y0046451D01*
X0077288Y0046453D01*
X0114288Y0046453D01*
X0114364Y0046451D01*
X0114440Y0046445D01*
X0114515Y0046436D01*
X0114590Y0046422D01*
X0114664Y0046405D01*
X0114737Y0046384D01*
X0114809Y0046360D01*
X0114880Y0046331D01*
X0114949Y0046300D01*
X0115016Y0046265D01*
X0115081Y0046226D01*
X0115145Y0046184D01*
X0115206Y0046139D01*
X0115265Y0046091D01*
X0115321Y0046040D01*
X0115375Y0045986D01*
X0115426Y0045930D01*
X0115474Y0045871D01*
X0115519Y0045810D01*
X0115561Y0045746D01*
X0115600Y0045681D01*
X0115635Y0045614D01*
X0115666Y0045545D01*
X0115695Y0045474D01*
X0115719Y0045402D01*
X0115740Y0045329D01*
X0115757Y0045255D01*
X0115771Y0045180D01*
X0115780Y0045105D01*
X0115786Y0045029D01*
X0115788Y0044953D01*
X0115788Y0040753D01*
X0115788Y0036753D01*
X0115788Y0032553D01*
X0115786Y0032477D01*
X0115780Y0032401D01*
X0115771Y0032326D01*
X0115757Y0032251D01*
X0115740Y0032177D01*
X0115719Y0032104D01*
X0115695Y0032032D01*
X0115666Y0031961D01*
X0115635Y0031892D01*
X0115600Y0031825D01*
X0115561Y0031760D01*
X0115519Y0031696D01*
X0115474Y0031635D01*
X0115426Y0031576D01*
X0115375Y0031520D01*
X0115321Y0031466D01*
X0115265Y0031415D01*
X0115206Y0031367D01*
X0115145Y0031322D01*
X0115081Y0031280D01*
X0115016Y0031241D01*
X0114949Y0031206D01*
X0114880Y0031175D01*
X0114809Y0031146D01*
X0114737Y0031122D01*
X0114664Y0031101D01*
X0114590Y0031084D01*
X0114515Y0031070D01*
X0114440Y0031061D01*
X0114364Y0031055D01*
X0114288Y0031053D01*
X0077288Y0031053D01*
X0077212Y0031055D01*
X0077136Y0031061D01*
X0077061Y0031070D01*
X0076986Y0031084D01*
X0076912Y0031101D01*
X0076839Y0031122D01*
X0076767Y0031146D01*
X0076696Y0031175D01*
X0076627Y0031206D01*
X0076560Y0031241D01*
X0076495Y0031280D01*
X0076431Y0031322D01*
X0076370Y0031367D01*
X0076311Y0031415D01*
X0076255Y0031466D01*
X0076201Y0031520D01*
X0076150Y0031576D01*
X0076102Y0031635D01*
X0076057Y0031696D01*
X0076015Y0031760D01*
X0075976Y0031825D01*
X0075941Y0031892D01*
X0075910Y0031961D01*
X0075881Y0032032D01*
X0075857Y0032104D01*
X0075836Y0032177D01*
X0075819Y0032251D01*
X0075805Y0032326D01*
X0075796Y0032401D01*
X0075790Y0032477D01*
X0075788Y0032553D01*
X0115788Y0036753D02*
X0115700Y0036755D01*
X0115611Y0036761D01*
X0115523Y0036771D01*
X0115436Y0036784D01*
X0115349Y0036802D01*
X0115263Y0036823D01*
X0115178Y0036848D01*
X0115095Y0036877D01*
X0115012Y0036910D01*
X0114932Y0036946D01*
X0114853Y0036985D01*
X0114775Y0037028D01*
X0114700Y0037075D01*
X0114627Y0037125D01*
X0114556Y0037178D01*
X0114487Y0037234D01*
X0114421Y0037293D01*
X0114358Y0037355D01*
X0114298Y0037419D01*
X0114240Y0037486D01*
X0114186Y0037556D01*
X0114134Y0037628D01*
X0114086Y0037702D01*
X0114041Y0037779D01*
X0114000Y0037857D01*
X0113962Y0037937D01*
X0113928Y0038018D01*
X0113897Y0038101D01*
X0113870Y0038186D01*
X0113847Y0038271D01*
X0113828Y0038357D01*
X0113812Y0038445D01*
X0113800Y0038532D01*
X0113792Y0038620D01*
X0113788Y0038709D01*
X0113788Y0038797D01*
X0113792Y0038886D01*
X0113800Y0038974D01*
X0113812Y0039061D01*
X0113828Y0039149D01*
X0113847Y0039235D01*
X0113870Y0039320D01*
X0113897Y0039405D01*
X0113928Y0039488D01*
X0113962Y0039569D01*
X0114000Y0039649D01*
X0114041Y0039727D01*
X0114086Y0039804D01*
X0114134Y0039878D01*
X0114186Y0039950D01*
X0114240Y0040020D01*
X0114298Y0040087D01*
X0114358Y0040151D01*
X0114421Y0040213D01*
X0114487Y0040272D01*
X0114556Y0040328D01*
X0114627Y0040381D01*
X0114700Y0040431D01*
X0114775Y0040478D01*
X0114853Y0040521D01*
X0114932Y0040560D01*
X0115012Y0040596D01*
X0115095Y0040629D01*
X0115178Y0040658D01*
X0115263Y0040683D01*
X0115349Y0040704D01*
X0115436Y0040722D01*
X0115523Y0040735D01*
X0115611Y0040745D01*
X0115700Y0040751D01*
X0115788Y0040753D01*
X0114288Y0094045D02*
X0077288Y0094045D01*
X0077212Y0094047D01*
X0077136Y0094053D01*
X0077061Y0094062D01*
X0076986Y0094076D01*
X0076912Y0094093D01*
X0076839Y0094114D01*
X0076767Y0094138D01*
X0076696Y0094167D01*
X0076627Y0094198D01*
X0076560Y0094233D01*
X0076495Y0094272D01*
X0076431Y0094314D01*
X0076370Y0094359D01*
X0076311Y0094407D01*
X0076255Y0094458D01*
X0076201Y0094512D01*
X0076150Y0094568D01*
X0076102Y0094627D01*
X0076057Y0094688D01*
X0076015Y0094752D01*
X0075976Y0094817D01*
X0075941Y0094884D01*
X0075910Y0094953D01*
X0075881Y0095024D01*
X0075857Y0095096D01*
X0075836Y0095169D01*
X0075819Y0095243D01*
X0075805Y0095318D01*
X0075796Y0095393D01*
X0075790Y0095469D01*
X0075788Y0095545D01*
X0075788Y0099745D01*
X0075788Y0103745D01*
X0075788Y0107945D01*
X0075790Y0108021D01*
X0075796Y0108097D01*
X0075805Y0108172D01*
X0075819Y0108247D01*
X0075836Y0108321D01*
X0075857Y0108394D01*
X0075881Y0108466D01*
X0075910Y0108537D01*
X0075941Y0108606D01*
X0075976Y0108673D01*
X0076015Y0108738D01*
X0076057Y0108802D01*
X0076102Y0108863D01*
X0076150Y0108922D01*
X0076201Y0108978D01*
X0076255Y0109032D01*
X0076311Y0109083D01*
X0076370Y0109131D01*
X0076431Y0109176D01*
X0076495Y0109218D01*
X0076560Y0109257D01*
X0076627Y0109292D01*
X0076696Y0109323D01*
X0076767Y0109352D01*
X0076839Y0109376D01*
X0076912Y0109397D01*
X0076986Y0109414D01*
X0077061Y0109428D01*
X0077136Y0109437D01*
X0077212Y0109443D01*
X0077288Y0109445D01*
X0114288Y0109445D01*
X0114364Y0109443D01*
X0114440Y0109437D01*
X0114515Y0109428D01*
X0114590Y0109414D01*
X0114664Y0109397D01*
X0114737Y0109376D01*
X0114809Y0109352D01*
X0114880Y0109323D01*
X0114949Y0109292D01*
X0115016Y0109257D01*
X0115081Y0109218D01*
X0115145Y0109176D01*
X0115206Y0109131D01*
X0115265Y0109083D01*
X0115321Y0109032D01*
X0115375Y0108978D01*
X0115426Y0108922D01*
X0115474Y0108863D01*
X0115519Y0108802D01*
X0115561Y0108738D01*
X0115600Y0108673D01*
X0115635Y0108606D01*
X0115666Y0108537D01*
X0115695Y0108466D01*
X0115719Y0108394D01*
X0115740Y0108321D01*
X0115757Y0108247D01*
X0115771Y0108172D01*
X0115780Y0108097D01*
X0115786Y0108021D01*
X0115788Y0107945D01*
X0115788Y0095545D01*
X0115786Y0095469D01*
X0115780Y0095393D01*
X0115771Y0095318D01*
X0115757Y0095243D01*
X0115740Y0095169D01*
X0115719Y0095096D01*
X0115695Y0095024D01*
X0115666Y0094953D01*
X0115635Y0094884D01*
X0115600Y0094817D01*
X0115561Y0094752D01*
X0115519Y0094688D01*
X0115474Y0094627D01*
X0115426Y0094568D01*
X0115375Y0094512D01*
X0115321Y0094458D01*
X0115265Y0094407D01*
X0115206Y0094359D01*
X0115145Y0094314D01*
X0115081Y0094272D01*
X0115016Y0094233D01*
X0114949Y0094198D01*
X0114880Y0094167D01*
X0114809Y0094138D01*
X0114737Y0094114D01*
X0114664Y0094093D01*
X0114590Y0094076D01*
X0114515Y0094062D01*
X0114440Y0094053D01*
X0114364Y0094047D01*
X0114288Y0094045D01*
X0075788Y0099745D02*
X0075876Y0099747D01*
X0075965Y0099753D01*
X0076053Y0099763D01*
X0076140Y0099776D01*
X0076227Y0099794D01*
X0076313Y0099815D01*
X0076398Y0099840D01*
X0076481Y0099869D01*
X0076564Y0099902D01*
X0076644Y0099938D01*
X0076723Y0099977D01*
X0076801Y0100020D01*
X0076876Y0100067D01*
X0076949Y0100117D01*
X0077020Y0100170D01*
X0077089Y0100226D01*
X0077155Y0100285D01*
X0077218Y0100347D01*
X0077278Y0100411D01*
X0077336Y0100478D01*
X0077390Y0100548D01*
X0077442Y0100620D01*
X0077490Y0100694D01*
X0077535Y0100771D01*
X0077576Y0100849D01*
X0077614Y0100929D01*
X0077648Y0101010D01*
X0077679Y0101093D01*
X0077706Y0101178D01*
X0077729Y0101263D01*
X0077748Y0101349D01*
X0077764Y0101437D01*
X0077776Y0101524D01*
X0077784Y0101612D01*
X0077788Y0101701D01*
X0077788Y0101789D01*
X0077784Y0101878D01*
X0077776Y0101966D01*
X0077764Y0102053D01*
X0077748Y0102141D01*
X0077729Y0102227D01*
X0077706Y0102312D01*
X0077679Y0102397D01*
X0077648Y0102480D01*
X0077614Y0102561D01*
X0077576Y0102641D01*
X0077535Y0102719D01*
X0077490Y0102796D01*
X0077442Y0102870D01*
X0077390Y0102942D01*
X0077336Y0103012D01*
X0077278Y0103079D01*
X0077218Y0103143D01*
X0077155Y0103205D01*
X0077089Y0103264D01*
X0077020Y0103320D01*
X0076949Y0103373D01*
X0076876Y0103423D01*
X0076801Y0103470D01*
X0076723Y0103513D01*
X0076644Y0103552D01*
X0076564Y0103588D01*
X0076481Y0103621D01*
X0076398Y0103650D01*
X0076313Y0103675D01*
X0076227Y0103696D01*
X0076140Y0103714D01*
X0076053Y0103727D01*
X0075965Y0103737D01*
X0075876Y0103743D01*
X0075788Y0103745D01*
X0109036Y0171981D02*
X0106536Y0174481D01*
X0106536Y0179481D01*
X0109036Y0181981D01*
X0106536Y0184481D01*
X0106536Y0189481D01*
X0109036Y0191981D01*
X0106536Y0194481D01*
X0106536Y0199481D01*
X0109036Y0201981D01*
X0106536Y0204481D01*
X0106536Y0209481D01*
X0109036Y0211981D01*
X0106536Y0214481D01*
X0106536Y0219481D01*
X0109036Y0221981D01*
X0106536Y0224481D01*
X0106536Y0229481D01*
X0109036Y0231981D01*
X0106536Y0234481D01*
X0106536Y0239481D01*
X0109036Y0241981D01*
X0106536Y0244481D01*
X0106536Y0249481D01*
X0109036Y0251981D01*
X0114036Y0251981D01*
X0116536Y0249481D01*
X0116536Y0244481D01*
X0114036Y0241981D01*
X0116536Y0239481D01*
X0116536Y0234481D01*
X0114036Y0231981D01*
X0109036Y0231981D01*
X0114036Y0231981D02*
X0116536Y0229481D01*
X0116536Y0224481D01*
X0114036Y0221981D01*
X0116536Y0219481D01*
X0116536Y0214481D01*
X0114036Y0211981D01*
X0116536Y0209481D01*
X0116536Y0204481D01*
X0114036Y0201981D01*
X0109036Y0201981D01*
X0114036Y0201981D02*
X0116536Y0199481D01*
X0116536Y0194481D01*
X0114036Y0191981D01*
X0116536Y0189481D01*
X0116536Y0184481D01*
X0114036Y0181981D01*
X0116536Y0179481D01*
X0116536Y0174481D01*
X0114036Y0171981D01*
X0109036Y0171981D01*
X0109036Y0181981D02*
X0114036Y0181981D01*
X0114036Y0191981D02*
X0109036Y0191981D01*
X0109036Y0211981D02*
X0114036Y0211981D01*
X0114036Y0221981D02*
X0109036Y0221981D01*
X0109036Y0241981D02*
X0114036Y0241981D01*
X0131615Y0256883D02*
X0134115Y0254383D01*
X0139115Y0254383D01*
X0141615Y0256883D01*
X0144115Y0254383D01*
X0149115Y0254383D01*
X0151615Y0256883D01*
X0151615Y0261883D01*
X0149115Y0264383D01*
X0144115Y0264383D01*
X0141615Y0261883D01*
X0141615Y0256883D01*
X0141615Y0261883D02*
X0139115Y0264383D01*
X0134115Y0264383D01*
X0131615Y0261883D01*
X0131615Y0256883D01*
X0151615Y0256883D02*
X0154115Y0254383D01*
X0159115Y0254383D01*
X0161615Y0256883D01*
X0164115Y0254383D01*
X0169115Y0254383D01*
X0171615Y0256883D01*
X0171615Y0261883D01*
X0169115Y0264383D01*
X0164115Y0264383D01*
X0161615Y0261883D01*
X0161615Y0256883D01*
X0161615Y0261883D02*
X0159115Y0264383D01*
X0154115Y0264383D01*
X0151615Y0261883D01*
X0081814Y0260408D02*
X0081814Y0258206D01*
X0079612Y0258206D01*
X0078878Y0258940D01*
X0079612Y0259674D01*
X0081814Y0259674D01*
X0081814Y0260408D02*
X0081080Y0261142D01*
X0079612Y0261142D01*
X0077210Y0260408D02*
X0077210Y0258206D01*
X0077210Y0260408D02*
X0076476Y0261142D01*
X0074274Y0261142D01*
X0074274Y0258206D01*
X0072606Y0258206D02*
X0072606Y0260408D01*
X0071872Y0261142D01*
X0069670Y0261142D01*
X0069670Y0258206D01*
X0068002Y0259674D02*
X0065066Y0259674D01*
X0065066Y0258940D02*
X0065066Y0260408D01*
X0065800Y0261142D01*
X0067268Y0261142D01*
X0068002Y0260408D01*
X0068002Y0259674D01*
X0067268Y0258206D02*
X0065800Y0258206D01*
X0065066Y0258940D01*
X0063465Y0258206D02*
X0062731Y0258940D01*
X0062731Y0261876D01*
X0061997Y0261142D02*
X0063465Y0261142D01*
X0060329Y0260408D02*
X0060329Y0258206D01*
X0060329Y0260408D02*
X0059595Y0261142D01*
X0057393Y0261142D01*
X0057393Y0258206D01*
X0055725Y0258206D02*
X0055725Y0261142D01*
X0054257Y0262610D01*
X0052789Y0261142D01*
X0052789Y0258206D01*
X0052789Y0260408D02*
X0055725Y0260408D01*
X0029922Y0249481D02*
X0029922Y0244481D01*
X0027422Y0241981D01*
X0029922Y0239481D01*
X0029922Y0234481D01*
X0027422Y0231981D01*
X0022422Y0231981D01*
X0019922Y0234481D01*
X0019922Y0239481D01*
X0022422Y0241981D01*
X0019922Y0244481D01*
X0019922Y0249481D01*
X0022422Y0251981D01*
X0027422Y0251981D01*
X0029922Y0249481D01*
X0027422Y0241981D02*
X0022422Y0241981D01*
X0022422Y0231981D02*
X0019922Y0229481D01*
X0019922Y0224481D01*
X0022422Y0221981D01*
X0019922Y0219481D01*
X0019922Y0214481D01*
X0022422Y0211981D01*
X0019922Y0209481D01*
X0019922Y0204481D01*
X0022422Y0201981D01*
X0027422Y0201981D01*
X0029922Y0204481D01*
X0029922Y0209481D01*
X0027422Y0211981D01*
X0022422Y0211981D01*
X0027422Y0211981D02*
X0029922Y0214481D01*
X0029922Y0219481D01*
X0027422Y0221981D01*
X0022422Y0221981D01*
X0027422Y0221981D02*
X0029922Y0224481D01*
X0029922Y0229481D01*
X0027422Y0231981D01*
X0027422Y0201981D02*
X0029922Y0199481D01*
X0029922Y0194481D01*
X0027422Y0191981D01*
X0029922Y0189481D01*
X0029922Y0184481D01*
X0027422Y0181981D01*
X0029922Y0179481D01*
X0029922Y0174481D01*
X0027422Y0171981D01*
X0022422Y0171981D01*
X0019922Y0174481D01*
X0019922Y0179481D01*
X0022422Y0181981D01*
X0019922Y0184481D01*
X0019922Y0189481D01*
X0022422Y0191981D01*
X0019922Y0194481D01*
X0019922Y0199481D01*
X0022422Y0201981D01*
X0022422Y0191981D02*
X0027422Y0191981D01*
X0027422Y0181981D02*
X0022422Y0181981D01*
X0185487Y0168711D02*
X0189587Y0168711D01*
X0196187Y0166711D02*
X0200887Y0166711D01*
X0203287Y0166711D01*
X0207987Y0166711D01*
X0203287Y0166711D02*
X0203285Y0166780D01*
X0203279Y0166848D01*
X0203269Y0166916D01*
X0203256Y0166983D01*
X0203238Y0167049D01*
X0203217Y0167114D01*
X0203192Y0167178D01*
X0203164Y0167240D01*
X0203132Y0167301D01*
X0203097Y0167360D01*
X0203058Y0167416D01*
X0203016Y0167471D01*
X0202971Y0167522D01*
X0202923Y0167572D01*
X0202873Y0167618D01*
X0202820Y0167661D01*
X0202764Y0167702D01*
X0202707Y0167739D01*
X0202647Y0167772D01*
X0202585Y0167803D01*
X0202522Y0167829D01*
X0202458Y0167852D01*
X0202392Y0167872D01*
X0202325Y0167887D01*
X0202258Y0167899D01*
X0202190Y0167907D01*
X0202121Y0167911D01*
X0202053Y0167911D01*
X0201984Y0167907D01*
X0201916Y0167899D01*
X0201849Y0167887D01*
X0201782Y0167872D01*
X0201716Y0167852D01*
X0201652Y0167829D01*
X0201589Y0167803D01*
X0201527Y0167772D01*
X0201467Y0167739D01*
X0201410Y0167702D01*
X0201354Y0167661D01*
X0201301Y0167618D01*
X0201251Y0167572D01*
X0201203Y0167522D01*
X0201158Y0167471D01*
X0201116Y0167416D01*
X0201077Y0167360D01*
X0201042Y0167301D01*
X0201010Y0167240D01*
X0200982Y0167178D01*
X0200957Y0167114D01*
X0200936Y0167049D01*
X0200918Y0166983D01*
X0200905Y0166916D01*
X0200895Y0166848D01*
X0200889Y0166780D01*
X0200887Y0166711D01*
X0196187Y0178511D02*
X0207987Y0178511D01*
X0262317Y0165000D02*
X0262283Y0165006D01*
X0262250Y0165009D01*
X0262216Y0165008D01*
X0262182Y0165003D01*
X0262149Y0164995D01*
X0262117Y0164983D01*
X0262087Y0164967D01*
X0262059Y0164949D01*
X0262032Y0164927D01*
X0262009Y0164903D01*
X0261988Y0164876D01*
X0261970Y0164847D01*
X0261956Y0164816D01*
X0261945Y0164784D01*
X0261937Y0164751D01*
X0261933Y0164717D01*
X0261933Y0164683D01*
X0261937Y0164649D01*
X0261945Y0164616D01*
X0261956Y0164584D01*
X0261970Y0164553D01*
X0261988Y0164524D01*
X0262009Y0164497D01*
X0262032Y0164473D01*
X0262059Y0164451D01*
X0262087Y0164433D01*
X0262117Y0164417D01*
X0262149Y0164405D01*
X0262182Y0164397D01*
X0262216Y0164392D01*
X0262250Y0164391D01*
X0262283Y0164394D01*
X0262317Y0164400D01*
X0264417Y0166600D02*
X0264417Y0167400D01*
X0273617Y0167400D01*
X0273617Y0166600D01*
X0273617Y0155000D02*
X0273617Y0154200D01*
X0264417Y0154200D01*
X0264417Y0155000D01*
X0315030Y0125370D02*
X0319701Y0125370D01*
X0317365Y0127705D02*
X0317365Y0123035D01*
X0323072Y0121804D02*
X0323072Y0126804D01*
X0325572Y0129304D01*
X0323072Y0131804D01*
X0323072Y0136804D01*
X0325572Y0139304D01*
X0330572Y0139304D01*
X0333072Y0136804D01*
X0333072Y0131804D01*
X0330572Y0129304D01*
X0333072Y0126804D01*
X0333072Y0121804D01*
X0330572Y0119304D01*
X0325572Y0119304D01*
X0323072Y0121804D01*
X0325572Y0129304D02*
X0330572Y0129304D01*
X0293828Y0102776D02*
X0292828Y0102776D01*
X0292828Y0103776D01*
X0293828Y0102776D02*
X0293828Y0096776D01*
X0292828Y0096776D01*
X0292828Y0095776D01*
X0289328Y0087776D02*
X0285328Y0087776D01*
X0275828Y0087776D01*
X0272328Y0087776D01*
X0272328Y0082249D02*
X0276328Y0082249D01*
X0285828Y0082249D01*
X0289328Y0082249D01*
X0292828Y0074249D02*
X0292828Y0073249D01*
X0293828Y0073249D01*
X0293828Y0067249D01*
X0292828Y0067249D01*
X0292828Y0066249D01*
X0289328Y0058249D02*
X0285828Y0058249D01*
X0275828Y0058249D01*
X0272328Y0058249D01*
X0272328Y0050753D02*
X0275828Y0050753D01*
X0285828Y0050753D01*
X0289328Y0050753D01*
X0292828Y0042753D02*
X0292828Y0041753D01*
X0293828Y0041753D01*
X0293828Y0035753D01*
X0292828Y0035753D01*
X0292828Y0034753D01*
X0289328Y0026753D02*
X0285328Y0026753D01*
X0275828Y0026753D01*
X0272328Y0026753D01*
X0268828Y0034753D02*
X0268828Y0035753D01*
X0267828Y0035753D01*
X0267828Y0041753D01*
X0268828Y0041753D01*
X0268828Y0042753D01*
X0279828Y0038753D02*
X0279830Y0038816D01*
X0279836Y0038878D01*
X0279846Y0038940D01*
X0279859Y0039002D01*
X0279877Y0039062D01*
X0279898Y0039121D01*
X0279923Y0039179D01*
X0279952Y0039235D01*
X0279984Y0039289D01*
X0280019Y0039341D01*
X0280057Y0039390D01*
X0280099Y0039438D01*
X0280143Y0039482D01*
X0280191Y0039524D01*
X0280240Y0039562D01*
X0280292Y0039597D01*
X0280346Y0039629D01*
X0280402Y0039658D01*
X0280460Y0039683D01*
X0280519Y0039704D01*
X0280579Y0039722D01*
X0280641Y0039735D01*
X0280703Y0039745D01*
X0280765Y0039751D01*
X0280828Y0039753D01*
X0280891Y0039751D01*
X0280953Y0039745D01*
X0281015Y0039735D01*
X0281077Y0039722D01*
X0281137Y0039704D01*
X0281196Y0039683D01*
X0281254Y0039658D01*
X0281310Y0039629D01*
X0281364Y0039597D01*
X0281416Y0039562D01*
X0281465Y0039524D01*
X0281513Y0039482D01*
X0281557Y0039438D01*
X0281599Y0039390D01*
X0281637Y0039341D01*
X0281672Y0039289D01*
X0281704Y0039235D01*
X0281733Y0039179D01*
X0281758Y0039121D01*
X0281779Y0039062D01*
X0281797Y0039002D01*
X0281810Y0038940D01*
X0281820Y0038878D01*
X0281826Y0038816D01*
X0281828Y0038753D01*
X0281826Y0038690D01*
X0281820Y0038628D01*
X0281810Y0038566D01*
X0281797Y0038504D01*
X0281779Y0038444D01*
X0281758Y0038385D01*
X0281733Y0038327D01*
X0281704Y0038271D01*
X0281672Y0038217D01*
X0281637Y0038165D01*
X0281599Y0038116D01*
X0281557Y0038068D01*
X0281513Y0038024D01*
X0281465Y0037982D01*
X0281416Y0037944D01*
X0281364Y0037909D01*
X0281310Y0037877D01*
X0281254Y0037848D01*
X0281196Y0037823D01*
X0281137Y0037802D01*
X0281077Y0037784D01*
X0281015Y0037771D01*
X0280953Y0037761D01*
X0280891Y0037755D01*
X0280828Y0037753D01*
X0280765Y0037755D01*
X0280703Y0037761D01*
X0280641Y0037771D01*
X0280579Y0037784D01*
X0280519Y0037802D01*
X0280460Y0037823D01*
X0280402Y0037848D01*
X0280346Y0037877D01*
X0280292Y0037909D01*
X0280240Y0037944D01*
X0280191Y0037982D01*
X0280143Y0038024D01*
X0280099Y0038068D01*
X0280057Y0038116D01*
X0280019Y0038165D01*
X0279984Y0038217D01*
X0279952Y0038271D01*
X0279923Y0038327D01*
X0279898Y0038385D01*
X0279877Y0038444D01*
X0279859Y0038504D01*
X0279846Y0038566D01*
X0279836Y0038628D01*
X0279830Y0038690D01*
X0279828Y0038753D01*
X0273828Y0038753D02*
X0273830Y0038925D01*
X0273836Y0039096D01*
X0273847Y0039268D01*
X0273862Y0039439D01*
X0273881Y0039610D01*
X0273904Y0039780D01*
X0273931Y0039950D01*
X0273963Y0040119D01*
X0273998Y0040287D01*
X0274038Y0040454D01*
X0274082Y0040620D01*
X0274129Y0040785D01*
X0274181Y0040949D01*
X0274237Y0041111D01*
X0274297Y0041272D01*
X0274361Y0041432D01*
X0274429Y0041590D01*
X0274500Y0041746D01*
X0274575Y0041900D01*
X0274655Y0042053D01*
X0274737Y0042203D01*
X0274824Y0042352D01*
X0274914Y0042498D01*
X0275008Y0042642D01*
X0275105Y0042784D01*
X0275206Y0042923D01*
X0275310Y0043060D01*
X0275417Y0043194D01*
X0275528Y0043325D01*
X0275641Y0043454D01*
X0275758Y0043580D01*
X0275878Y0043703D01*
X0276001Y0043823D01*
X0276127Y0043940D01*
X0276256Y0044053D01*
X0276387Y0044164D01*
X0276521Y0044271D01*
X0276658Y0044375D01*
X0276797Y0044476D01*
X0276939Y0044573D01*
X0277083Y0044667D01*
X0277229Y0044757D01*
X0277378Y0044844D01*
X0277528Y0044926D01*
X0277681Y0045006D01*
X0277835Y0045081D01*
X0277991Y0045152D01*
X0278149Y0045220D01*
X0278309Y0045284D01*
X0278470Y0045344D01*
X0278632Y0045400D01*
X0278796Y0045452D01*
X0278961Y0045499D01*
X0279127Y0045543D01*
X0279294Y0045583D01*
X0279462Y0045618D01*
X0279631Y0045650D01*
X0279801Y0045677D01*
X0279971Y0045700D01*
X0280142Y0045719D01*
X0280313Y0045734D01*
X0280485Y0045745D01*
X0280656Y0045751D01*
X0280828Y0045753D01*
X0281000Y0045751D01*
X0281171Y0045745D01*
X0281343Y0045734D01*
X0281514Y0045719D01*
X0281685Y0045700D01*
X0281855Y0045677D01*
X0282025Y0045650D01*
X0282194Y0045618D01*
X0282362Y0045583D01*
X0282529Y0045543D01*
X0282695Y0045499D01*
X0282860Y0045452D01*
X0283024Y0045400D01*
X0283186Y0045344D01*
X0283347Y0045284D01*
X0283507Y0045220D01*
X0283665Y0045152D01*
X0283821Y0045081D01*
X0283975Y0045006D01*
X0284128Y0044926D01*
X0284278Y0044844D01*
X0284427Y0044757D01*
X0284573Y0044667D01*
X0284717Y0044573D01*
X0284859Y0044476D01*
X0284998Y0044375D01*
X0285135Y0044271D01*
X0285269Y0044164D01*
X0285400Y0044053D01*
X0285529Y0043940D01*
X0285655Y0043823D01*
X0285778Y0043703D01*
X0285898Y0043580D01*
X0286015Y0043454D01*
X0286128Y0043325D01*
X0286239Y0043194D01*
X0286346Y0043060D01*
X0286450Y0042923D01*
X0286551Y0042784D01*
X0286648Y0042642D01*
X0286742Y0042498D01*
X0286832Y0042352D01*
X0286919Y0042203D01*
X0287001Y0042053D01*
X0287081Y0041900D01*
X0287156Y0041746D01*
X0287227Y0041590D01*
X0287295Y0041432D01*
X0287359Y0041272D01*
X0287419Y0041111D01*
X0287475Y0040949D01*
X0287527Y0040785D01*
X0287574Y0040620D01*
X0287618Y0040454D01*
X0287658Y0040287D01*
X0287693Y0040119D01*
X0287725Y0039950D01*
X0287752Y0039780D01*
X0287775Y0039610D01*
X0287794Y0039439D01*
X0287809Y0039268D01*
X0287820Y0039096D01*
X0287826Y0038925D01*
X0287828Y0038753D01*
X0287826Y0038581D01*
X0287820Y0038410D01*
X0287809Y0038238D01*
X0287794Y0038067D01*
X0287775Y0037896D01*
X0287752Y0037726D01*
X0287725Y0037556D01*
X0287693Y0037387D01*
X0287658Y0037219D01*
X0287618Y0037052D01*
X0287574Y0036886D01*
X0287527Y0036721D01*
X0287475Y0036557D01*
X0287419Y0036395D01*
X0287359Y0036234D01*
X0287295Y0036074D01*
X0287227Y0035916D01*
X0287156Y0035760D01*
X0287081Y0035606D01*
X0287001Y0035453D01*
X0286919Y0035303D01*
X0286832Y0035154D01*
X0286742Y0035008D01*
X0286648Y0034864D01*
X0286551Y0034722D01*
X0286450Y0034583D01*
X0286346Y0034446D01*
X0286239Y0034312D01*
X0286128Y0034181D01*
X0286015Y0034052D01*
X0285898Y0033926D01*
X0285778Y0033803D01*
X0285655Y0033683D01*
X0285529Y0033566D01*
X0285400Y0033453D01*
X0285269Y0033342D01*
X0285135Y0033235D01*
X0284998Y0033131D01*
X0284859Y0033030D01*
X0284717Y0032933D01*
X0284573Y0032839D01*
X0284427Y0032749D01*
X0284278Y0032662D01*
X0284128Y0032580D01*
X0283975Y0032500D01*
X0283821Y0032425D01*
X0283665Y0032354D01*
X0283507Y0032286D01*
X0283347Y0032222D01*
X0283186Y0032162D01*
X0283024Y0032106D01*
X0282860Y0032054D01*
X0282695Y0032007D01*
X0282529Y0031963D01*
X0282362Y0031923D01*
X0282194Y0031888D01*
X0282025Y0031856D01*
X0281855Y0031829D01*
X0281685Y0031806D01*
X0281514Y0031787D01*
X0281343Y0031772D01*
X0281171Y0031761D01*
X0281000Y0031755D01*
X0280828Y0031753D01*
X0280656Y0031755D01*
X0280485Y0031761D01*
X0280313Y0031772D01*
X0280142Y0031787D01*
X0279971Y0031806D01*
X0279801Y0031829D01*
X0279631Y0031856D01*
X0279462Y0031888D01*
X0279294Y0031923D01*
X0279127Y0031963D01*
X0278961Y0032007D01*
X0278796Y0032054D01*
X0278632Y0032106D01*
X0278470Y0032162D01*
X0278309Y0032222D01*
X0278149Y0032286D01*
X0277991Y0032354D01*
X0277835Y0032425D01*
X0277681Y0032500D01*
X0277528Y0032580D01*
X0277378Y0032662D01*
X0277229Y0032749D01*
X0277083Y0032839D01*
X0276939Y0032933D01*
X0276797Y0033030D01*
X0276658Y0033131D01*
X0276521Y0033235D01*
X0276387Y0033342D01*
X0276256Y0033453D01*
X0276127Y0033566D01*
X0276001Y0033683D01*
X0275878Y0033803D01*
X0275758Y0033926D01*
X0275641Y0034052D01*
X0275528Y0034181D01*
X0275417Y0034312D01*
X0275310Y0034446D01*
X0275206Y0034583D01*
X0275105Y0034722D01*
X0275008Y0034864D01*
X0274914Y0035008D01*
X0274824Y0035154D01*
X0274737Y0035303D01*
X0274655Y0035453D01*
X0274575Y0035606D01*
X0274500Y0035760D01*
X0274429Y0035916D01*
X0274361Y0036074D01*
X0274297Y0036234D01*
X0274237Y0036395D01*
X0274181Y0036557D01*
X0274129Y0036721D01*
X0274082Y0036886D01*
X0274038Y0037052D01*
X0273998Y0037219D01*
X0273963Y0037387D01*
X0273931Y0037556D01*
X0273904Y0037726D01*
X0273881Y0037896D01*
X0273862Y0038067D01*
X0273847Y0038238D01*
X0273836Y0038410D01*
X0273830Y0038581D01*
X0273828Y0038753D01*
X0252442Y0033733D02*
X0252442Y0028733D01*
X0249942Y0026233D01*
X0244942Y0026233D01*
X0242442Y0028733D01*
X0239942Y0026233D01*
X0234942Y0026233D01*
X0232442Y0028733D01*
X0232442Y0033733D01*
X0234942Y0036233D01*
X0239942Y0036233D01*
X0242442Y0033733D01*
X0244942Y0036233D01*
X0249942Y0036233D01*
X0252442Y0033733D01*
X0242442Y0033733D02*
X0242442Y0028733D01*
X0246499Y0023375D02*
X0246499Y0018704D01*
X0244164Y0021039D02*
X0248835Y0021039D01*
X0248394Y0057249D02*
X0242394Y0057249D01*
X0242394Y0058249D01*
X0241394Y0058249D01*
X0248394Y0058249D02*
X0249394Y0058249D01*
X0248394Y0058249D02*
X0248394Y0057249D01*
X0257394Y0061749D02*
X0257394Y0065249D01*
X0257394Y0075249D01*
X0257394Y0078749D01*
X0249394Y0082249D02*
X0248394Y0082249D01*
X0248394Y0083249D01*
X0242394Y0083249D01*
X0242394Y0082249D01*
X0241394Y0082249D01*
X0233394Y0078749D02*
X0233394Y0075249D01*
X0233394Y0065749D01*
X0233394Y0061749D01*
X0244394Y0070249D02*
X0244396Y0070312D01*
X0244402Y0070374D01*
X0244412Y0070436D01*
X0244425Y0070498D01*
X0244443Y0070558D01*
X0244464Y0070617D01*
X0244489Y0070675D01*
X0244518Y0070731D01*
X0244550Y0070785D01*
X0244585Y0070837D01*
X0244623Y0070886D01*
X0244665Y0070934D01*
X0244709Y0070978D01*
X0244757Y0071020D01*
X0244806Y0071058D01*
X0244858Y0071093D01*
X0244912Y0071125D01*
X0244968Y0071154D01*
X0245026Y0071179D01*
X0245085Y0071200D01*
X0245145Y0071218D01*
X0245207Y0071231D01*
X0245269Y0071241D01*
X0245331Y0071247D01*
X0245394Y0071249D01*
X0245457Y0071247D01*
X0245519Y0071241D01*
X0245581Y0071231D01*
X0245643Y0071218D01*
X0245703Y0071200D01*
X0245762Y0071179D01*
X0245820Y0071154D01*
X0245876Y0071125D01*
X0245930Y0071093D01*
X0245982Y0071058D01*
X0246031Y0071020D01*
X0246079Y0070978D01*
X0246123Y0070934D01*
X0246165Y0070886D01*
X0246203Y0070837D01*
X0246238Y0070785D01*
X0246270Y0070731D01*
X0246299Y0070675D01*
X0246324Y0070617D01*
X0246345Y0070558D01*
X0246363Y0070498D01*
X0246376Y0070436D01*
X0246386Y0070374D01*
X0246392Y0070312D01*
X0246394Y0070249D01*
X0246392Y0070186D01*
X0246386Y0070124D01*
X0246376Y0070062D01*
X0246363Y0070000D01*
X0246345Y0069940D01*
X0246324Y0069881D01*
X0246299Y0069823D01*
X0246270Y0069767D01*
X0246238Y0069713D01*
X0246203Y0069661D01*
X0246165Y0069612D01*
X0246123Y0069564D01*
X0246079Y0069520D01*
X0246031Y0069478D01*
X0245982Y0069440D01*
X0245930Y0069405D01*
X0245876Y0069373D01*
X0245820Y0069344D01*
X0245762Y0069319D01*
X0245703Y0069298D01*
X0245643Y0069280D01*
X0245581Y0069267D01*
X0245519Y0069257D01*
X0245457Y0069251D01*
X0245394Y0069249D01*
X0245331Y0069251D01*
X0245269Y0069257D01*
X0245207Y0069267D01*
X0245145Y0069280D01*
X0245085Y0069298D01*
X0245026Y0069319D01*
X0244968Y0069344D01*
X0244912Y0069373D01*
X0244858Y0069405D01*
X0244806Y0069440D01*
X0244757Y0069478D01*
X0244709Y0069520D01*
X0244665Y0069564D01*
X0244623Y0069612D01*
X0244585Y0069661D01*
X0244550Y0069713D01*
X0244518Y0069767D01*
X0244489Y0069823D01*
X0244464Y0069881D01*
X0244443Y0069940D01*
X0244425Y0070000D01*
X0244412Y0070062D01*
X0244402Y0070124D01*
X0244396Y0070186D01*
X0244394Y0070249D01*
X0238394Y0070249D02*
X0238396Y0070421D01*
X0238402Y0070592D01*
X0238413Y0070764D01*
X0238428Y0070935D01*
X0238447Y0071106D01*
X0238470Y0071276D01*
X0238497Y0071446D01*
X0238529Y0071615D01*
X0238564Y0071783D01*
X0238604Y0071950D01*
X0238648Y0072116D01*
X0238695Y0072281D01*
X0238747Y0072445D01*
X0238803Y0072607D01*
X0238863Y0072768D01*
X0238927Y0072928D01*
X0238995Y0073086D01*
X0239066Y0073242D01*
X0239141Y0073396D01*
X0239221Y0073549D01*
X0239303Y0073699D01*
X0239390Y0073848D01*
X0239480Y0073994D01*
X0239574Y0074138D01*
X0239671Y0074280D01*
X0239772Y0074419D01*
X0239876Y0074556D01*
X0239983Y0074690D01*
X0240094Y0074821D01*
X0240207Y0074950D01*
X0240324Y0075076D01*
X0240444Y0075199D01*
X0240567Y0075319D01*
X0240693Y0075436D01*
X0240822Y0075549D01*
X0240953Y0075660D01*
X0241087Y0075767D01*
X0241224Y0075871D01*
X0241363Y0075972D01*
X0241505Y0076069D01*
X0241649Y0076163D01*
X0241795Y0076253D01*
X0241944Y0076340D01*
X0242094Y0076422D01*
X0242247Y0076502D01*
X0242401Y0076577D01*
X0242557Y0076648D01*
X0242715Y0076716D01*
X0242875Y0076780D01*
X0243036Y0076840D01*
X0243198Y0076896D01*
X0243362Y0076948D01*
X0243527Y0076995D01*
X0243693Y0077039D01*
X0243860Y0077079D01*
X0244028Y0077114D01*
X0244197Y0077146D01*
X0244367Y0077173D01*
X0244537Y0077196D01*
X0244708Y0077215D01*
X0244879Y0077230D01*
X0245051Y0077241D01*
X0245222Y0077247D01*
X0245394Y0077249D01*
X0245566Y0077247D01*
X0245737Y0077241D01*
X0245909Y0077230D01*
X0246080Y0077215D01*
X0246251Y0077196D01*
X0246421Y0077173D01*
X0246591Y0077146D01*
X0246760Y0077114D01*
X0246928Y0077079D01*
X0247095Y0077039D01*
X0247261Y0076995D01*
X0247426Y0076948D01*
X0247590Y0076896D01*
X0247752Y0076840D01*
X0247913Y0076780D01*
X0248073Y0076716D01*
X0248231Y0076648D01*
X0248387Y0076577D01*
X0248541Y0076502D01*
X0248694Y0076422D01*
X0248844Y0076340D01*
X0248993Y0076253D01*
X0249139Y0076163D01*
X0249283Y0076069D01*
X0249425Y0075972D01*
X0249564Y0075871D01*
X0249701Y0075767D01*
X0249835Y0075660D01*
X0249966Y0075549D01*
X0250095Y0075436D01*
X0250221Y0075319D01*
X0250344Y0075199D01*
X0250464Y0075076D01*
X0250581Y0074950D01*
X0250694Y0074821D01*
X0250805Y0074690D01*
X0250912Y0074556D01*
X0251016Y0074419D01*
X0251117Y0074280D01*
X0251214Y0074138D01*
X0251308Y0073994D01*
X0251398Y0073848D01*
X0251485Y0073699D01*
X0251567Y0073549D01*
X0251647Y0073396D01*
X0251722Y0073242D01*
X0251793Y0073086D01*
X0251861Y0072928D01*
X0251925Y0072768D01*
X0251985Y0072607D01*
X0252041Y0072445D01*
X0252093Y0072281D01*
X0252140Y0072116D01*
X0252184Y0071950D01*
X0252224Y0071783D01*
X0252259Y0071615D01*
X0252291Y0071446D01*
X0252318Y0071276D01*
X0252341Y0071106D01*
X0252360Y0070935D01*
X0252375Y0070764D01*
X0252386Y0070592D01*
X0252392Y0070421D01*
X0252394Y0070249D01*
X0252392Y0070077D01*
X0252386Y0069906D01*
X0252375Y0069734D01*
X0252360Y0069563D01*
X0252341Y0069392D01*
X0252318Y0069222D01*
X0252291Y0069052D01*
X0252259Y0068883D01*
X0252224Y0068715D01*
X0252184Y0068548D01*
X0252140Y0068382D01*
X0252093Y0068217D01*
X0252041Y0068053D01*
X0251985Y0067891D01*
X0251925Y0067730D01*
X0251861Y0067570D01*
X0251793Y0067412D01*
X0251722Y0067256D01*
X0251647Y0067102D01*
X0251567Y0066949D01*
X0251485Y0066799D01*
X0251398Y0066650D01*
X0251308Y0066504D01*
X0251214Y0066360D01*
X0251117Y0066218D01*
X0251016Y0066079D01*
X0250912Y0065942D01*
X0250805Y0065808D01*
X0250694Y0065677D01*
X0250581Y0065548D01*
X0250464Y0065422D01*
X0250344Y0065299D01*
X0250221Y0065179D01*
X0250095Y0065062D01*
X0249966Y0064949D01*
X0249835Y0064838D01*
X0249701Y0064731D01*
X0249564Y0064627D01*
X0249425Y0064526D01*
X0249283Y0064429D01*
X0249139Y0064335D01*
X0248993Y0064245D01*
X0248844Y0064158D01*
X0248694Y0064076D01*
X0248541Y0063996D01*
X0248387Y0063921D01*
X0248231Y0063850D01*
X0248073Y0063782D01*
X0247913Y0063718D01*
X0247752Y0063658D01*
X0247590Y0063602D01*
X0247426Y0063550D01*
X0247261Y0063503D01*
X0247095Y0063459D01*
X0246928Y0063419D01*
X0246760Y0063384D01*
X0246591Y0063352D01*
X0246421Y0063325D01*
X0246251Y0063302D01*
X0246080Y0063283D01*
X0245909Y0063268D01*
X0245737Y0063257D01*
X0245566Y0063251D01*
X0245394Y0063249D01*
X0245222Y0063251D01*
X0245051Y0063257D01*
X0244879Y0063268D01*
X0244708Y0063283D01*
X0244537Y0063302D01*
X0244367Y0063325D01*
X0244197Y0063352D01*
X0244028Y0063384D01*
X0243860Y0063419D01*
X0243693Y0063459D01*
X0243527Y0063503D01*
X0243362Y0063550D01*
X0243198Y0063602D01*
X0243036Y0063658D01*
X0242875Y0063718D01*
X0242715Y0063782D01*
X0242557Y0063850D01*
X0242401Y0063921D01*
X0242247Y0063996D01*
X0242094Y0064076D01*
X0241944Y0064158D01*
X0241795Y0064245D01*
X0241649Y0064335D01*
X0241505Y0064429D01*
X0241363Y0064526D01*
X0241224Y0064627D01*
X0241087Y0064731D01*
X0240953Y0064838D01*
X0240822Y0064949D01*
X0240693Y0065062D01*
X0240567Y0065179D01*
X0240444Y0065299D01*
X0240324Y0065422D01*
X0240207Y0065548D01*
X0240094Y0065677D01*
X0239983Y0065808D01*
X0239876Y0065942D01*
X0239772Y0066079D01*
X0239671Y0066218D01*
X0239574Y0066360D01*
X0239480Y0066504D01*
X0239390Y0066650D01*
X0239303Y0066799D01*
X0239221Y0066949D01*
X0239141Y0067102D01*
X0239066Y0067256D01*
X0238995Y0067412D01*
X0238927Y0067570D01*
X0238863Y0067730D01*
X0238803Y0067891D01*
X0238747Y0068053D01*
X0238695Y0068217D01*
X0238648Y0068382D01*
X0238604Y0068548D01*
X0238564Y0068715D01*
X0238529Y0068883D01*
X0238497Y0069052D01*
X0238470Y0069222D01*
X0238447Y0069392D01*
X0238428Y0069563D01*
X0238413Y0069734D01*
X0238402Y0069906D01*
X0238396Y0070077D01*
X0238394Y0070249D01*
X0267828Y0073249D02*
X0267828Y0067249D01*
X0268828Y0067249D01*
X0268828Y0066249D01*
X0268828Y0073249D02*
X0268828Y0074249D01*
X0268828Y0073249D02*
X0267828Y0073249D01*
X0279828Y0070249D02*
X0279830Y0070312D01*
X0279836Y0070374D01*
X0279846Y0070436D01*
X0279859Y0070498D01*
X0279877Y0070558D01*
X0279898Y0070617D01*
X0279923Y0070675D01*
X0279952Y0070731D01*
X0279984Y0070785D01*
X0280019Y0070837D01*
X0280057Y0070886D01*
X0280099Y0070934D01*
X0280143Y0070978D01*
X0280191Y0071020D01*
X0280240Y0071058D01*
X0280292Y0071093D01*
X0280346Y0071125D01*
X0280402Y0071154D01*
X0280460Y0071179D01*
X0280519Y0071200D01*
X0280579Y0071218D01*
X0280641Y0071231D01*
X0280703Y0071241D01*
X0280765Y0071247D01*
X0280828Y0071249D01*
X0280891Y0071247D01*
X0280953Y0071241D01*
X0281015Y0071231D01*
X0281077Y0071218D01*
X0281137Y0071200D01*
X0281196Y0071179D01*
X0281254Y0071154D01*
X0281310Y0071125D01*
X0281364Y0071093D01*
X0281416Y0071058D01*
X0281465Y0071020D01*
X0281513Y0070978D01*
X0281557Y0070934D01*
X0281599Y0070886D01*
X0281637Y0070837D01*
X0281672Y0070785D01*
X0281704Y0070731D01*
X0281733Y0070675D01*
X0281758Y0070617D01*
X0281779Y0070558D01*
X0281797Y0070498D01*
X0281810Y0070436D01*
X0281820Y0070374D01*
X0281826Y0070312D01*
X0281828Y0070249D01*
X0281826Y0070186D01*
X0281820Y0070124D01*
X0281810Y0070062D01*
X0281797Y0070000D01*
X0281779Y0069940D01*
X0281758Y0069881D01*
X0281733Y0069823D01*
X0281704Y0069767D01*
X0281672Y0069713D01*
X0281637Y0069661D01*
X0281599Y0069612D01*
X0281557Y0069564D01*
X0281513Y0069520D01*
X0281465Y0069478D01*
X0281416Y0069440D01*
X0281364Y0069405D01*
X0281310Y0069373D01*
X0281254Y0069344D01*
X0281196Y0069319D01*
X0281137Y0069298D01*
X0281077Y0069280D01*
X0281015Y0069267D01*
X0280953Y0069257D01*
X0280891Y0069251D01*
X0280828Y0069249D01*
X0280765Y0069251D01*
X0280703Y0069257D01*
X0280641Y0069267D01*
X0280579Y0069280D01*
X0280519Y0069298D01*
X0280460Y0069319D01*
X0280402Y0069344D01*
X0280346Y0069373D01*
X0280292Y0069405D01*
X0280240Y0069440D01*
X0280191Y0069478D01*
X0280143Y0069520D01*
X0280099Y0069564D01*
X0280057Y0069612D01*
X0280019Y0069661D01*
X0279984Y0069713D01*
X0279952Y0069767D01*
X0279923Y0069823D01*
X0279898Y0069881D01*
X0279877Y0069940D01*
X0279859Y0070000D01*
X0279846Y0070062D01*
X0279836Y0070124D01*
X0279830Y0070186D01*
X0279828Y0070249D01*
X0273828Y0070249D02*
X0273830Y0070421D01*
X0273836Y0070592D01*
X0273847Y0070764D01*
X0273862Y0070935D01*
X0273881Y0071106D01*
X0273904Y0071276D01*
X0273931Y0071446D01*
X0273963Y0071615D01*
X0273998Y0071783D01*
X0274038Y0071950D01*
X0274082Y0072116D01*
X0274129Y0072281D01*
X0274181Y0072445D01*
X0274237Y0072607D01*
X0274297Y0072768D01*
X0274361Y0072928D01*
X0274429Y0073086D01*
X0274500Y0073242D01*
X0274575Y0073396D01*
X0274655Y0073549D01*
X0274737Y0073699D01*
X0274824Y0073848D01*
X0274914Y0073994D01*
X0275008Y0074138D01*
X0275105Y0074280D01*
X0275206Y0074419D01*
X0275310Y0074556D01*
X0275417Y0074690D01*
X0275528Y0074821D01*
X0275641Y0074950D01*
X0275758Y0075076D01*
X0275878Y0075199D01*
X0276001Y0075319D01*
X0276127Y0075436D01*
X0276256Y0075549D01*
X0276387Y0075660D01*
X0276521Y0075767D01*
X0276658Y0075871D01*
X0276797Y0075972D01*
X0276939Y0076069D01*
X0277083Y0076163D01*
X0277229Y0076253D01*
X0277378Y0076340D01*
X0277528Y0076422D01*
X0277681Y0076502D01*
X0277835Y0076577D01*
X0277991Y0076648D01*
X0278149Y0076716D01*
X0278309Y0076780D01*
X0278470Y0076840D01*
X0278632Y0076896D01*
X0278796Y0076948D01*
X0278961Y0076995D01*
X0279127Y0077039D01*
X0279294Y0077079D01*
X0279462Y0077114D01*
X0279631Y0077146D01*
X0279801Y0077173D01*
X0279971Y0077196D01*
X0280142Y0077215D01*
X0280313Y0077230D01*
X0280485Y0077241D01*
X0280656Y0077247D01*
X0280828Y0077249D01*
X0281000Y0077247D01*
X0281171Y0077241D01*
X0281343Y0077230D01*
X0281514Y0077215D01*
X0281685Y0077196D01*
X0281855Y0077173D01*
X0282025Y0077146D01*
X0282194Y0077114D01*
X0282362Y0077079D01*
X0282529Y0077039D01*
X0282695Y0076995D01*
X0282860Y0076948D01*
X0283024Y0076896D01*
X0283186Y0076840D01*
X0283347Y0076780D01*
X0283507Y0076716D01*
X0283665Y0076648D01*
X0283821Y0076577D01*
X0283975Y0076502D01*
X0284128Y0076422D01*
X0284278Y0076340D01*
X0284427Y0076253D01*
X0284573Y0076163D01*
X0284717Y0076069D01*
X0284859Y0075972D01*
X0284998Y0075871D01*
X0285135Y0075767D01*
X0285269Y0075660D01*
X0285400Y0075549D01*
X0285529Y0075436D01*
X0285655Y0075319D01*
X0285778Y0075199D01*
X0285898Y0075076D01*
X0286015Y0074950D01*
X0286128Y0074821D01*
X0286239Y0074690D01*
X0286346Y0074556D01*
X0286450Y0074419D01*
X0286551Y0074280D01*
X0286648Y0074138D01*
X0286742Y0073994D01*
X0286832Y0073848D01*
X0286919Y0073699D01*
X0287001Y0073549D01*
X0287081Y0073396D01*
X0287156Y0073242D01*
X0287227Y0073086D01*
X0287295Y0072928D01*
X0287359Y0072768D01*
X0287419Y0072607D01*
X0287475Y0072445D01*
X0287527Y0072281D01*
X0287574Y0072116D01*
X0287618Y0071950D01*
X0287658Y0071783D01*
X0287693Y0071615D01*
X0287725Y0071446D01*
X0287752Y0071276D01*
X0287775Y0071106D01*
X0287794Y0070935D01*
X0287809Y0070764D01*
X0287820Y0070592D01*
X0287826Y0070421D01*
X0287828Y0070249D01*
X0287826Y0070077D01*
X0287820Y0069906D01*
X0287809Y0069734D01*
X0287794Y0069563D01*
X0287775Y0069392D01*
X0287752Y0069222D01*
X0287725Y0069052D01*
X0287693Y0068883D01*
X0287658Y0068715D01*
X0287618Y0068548D01*
X0287574Y0068382D01*
X0287527Y0068217D01*
X0287475Y0068053D01*
X0287419Y0067891D01*
X0287359Y0067730D01*
X0287295Y0067570D01*
X0287227Y0067412D01*
X0287156Y0067256D01*
X0287081Y0067102D01*
X0287001Y0066949D01*
X0286919Y0066799D01*
X0286832Y0066650D01*
X0286742Y0066504D01*
X0286648Y0066360D01*
X0286551Y0066218D01*
X0286450Y0066079D01*
X0286346Y0065942D01*
X0286239Y0065808D01*
X0286128Y0065677D01*
X0286015Y0065548D01*
X0285898Y0065422D01*
X0285778Y0065299D01*
X0285655Y0065179D01*
X0285529Y0065062D01*
X0285400Y0064949D01*
X0285269Y0064838D01*
X0285135Y0064731D01*
X0284998Y0064627D01*
X0284859Y0064526D01*
X0284717Y0064429D01*
X0284573Y0064335D01*
X0284427Y0064245D01*
X0284278Y0064158D01*
X0284128Y0064076D01*
X0283975Y0063996D01*
X0283821Y0063921D01*
X0283665Y0063850D01*
X0283507Y0063782D01*
X0283347Y0063718D01*
X0283186Y0063658D01*
X0283024Y0063602D01*
X0282860Y0063550D01*
X0282695Y0063503D01*
X0282529Y0063459D01*
X0282362Y0063419D01*
X0282194Y0063384D01*
X0282025Y0063352D01*
X0281855Y0063325D01*
X0281685Y0063302D01*
X0281514Y0063283D01*
X0281343Y0063268D01*
X0281171Y0063257D01*
X0281000Y0063251D01*
X0280828Y0063249D01*
X0280656Y0063251D01*
X0280485Y0063257D01*
X0280313Y0063268D01*
X0280142Y0063283D01*
X0279971Y0063302D01*
X0279801Y0063325D01*
X0279631Y0063352D01*
X0279462Y0063384D01*
X0279294Y0063419D01*
X0279127Y0063459D01*
X0278961Y0063503D01*
X0278796Y0063550D01*
X0278632Y0063602D01*
X0278470Y0063658D01*
X0278309Y0063718D01*
X0278149Y0063782D01*
X0277991Y0063850D01*
X0277835Y0063921D01*
X0277681Y0063996D01*
X0277528Y0064076D01*
X0277378Y0064158D01*
X0277229Y0064245D01*
X0277083Y0064335D01*
X0276939Y0064429D01*
X0276797Y0064526D01*
X0276658Y0064627D01*
X0276521Y0064731D01*
X0276387Y0064838D01*
X0276256Y0064949D01*
X0276127Y0065062D01*
X0276001Y0065179D01*
X0275878Y0065299D01*
X0275758Y0065422D01*
X0275641Y0065548D01*
X0275528Y0065677D01*
X0275417Y0065808D01*
X0275310Y0065942D01*
X0275206Y0066079D01*
X0275105Y0066218D01*
X0275008Y0066360D01*
X0274914Y0066504D01*
X0274824Y0066650D01*
X0274737Y0066799D01*
X0274655Y0066949D01*
X0274575Y0067102D01*
X0274500Y0067256D01*
X0274429Y0067412D01*
X0274361Y0067570D01*
X0274297Y0067730D01*
X0274237Y0067891D01*
X0274181Y0068053D01*
X0274129Y0068217D01*
X0274082Y0068382D01*
X0274038Y0068548D01*
X0273998Y0068715D01*
X0273963Y0068883D01*
X0273931Y0069052D01*
X0273904Y0069222D01*
X0273881Y0069392D01*
X0273862Y0069563D01*
X0273847Y0069734D01*
X0273836Y0069906D01*
X0273830Y0070077D01*
X0273828Y0070249D01*
X0304261Y0075249D02*
X0304261Y0065249D01*
X0304261Y0061749D01*
X0312261Y0058249D02*
X0313261Y0058249D01*
X0313261Y0057249D01*
X0319261Y0057249D01*
X0319261Y0058249D01*
X0320261Y0058249D01*
X0328261Y0061749D02*
X0328261Y0065249D01*
X0328261Y0074749D01*
X0328261Y0078749D01*
X0320261Y0082249D02*
X0319261Y0082249D01*
X0319261Y0083249D01*
X0313261Y0083249D01*
X0313261Y0082249D01*
X0312261Y0082249D01*
X0304261Y0078749D02*
X0304261Y0075249D01*
X0315261Y0070249D02*
X0315263Y0070312D01*
X0315269Y0070374D01*
X0315279Y0070436D01*
X0315292Y0070498D01*
X0315310Y0070558D01*
X0315331Y0070617D01*
X0315356Y0070675D01*
X0315385Y0070731D01*
X0315417Y0070785D01*
X0315452Y0070837D01*
X0315490Y0070886D01*
X0315532Y0070934D01*
X0315576Y0070978D01*
X0315624Y0071020D01*
X0315673Y0071058D01*
X0315725Y0071093D01*
X0315779Y0071125D01*
X0315835Y0071154D01*
X0315893Y0071179D01*
X0315952Y0071200D01*
X0316012Y0071218D01*
X0316074Y0071231D01*
X0316136Y0071241D01*
X0316198Y0071247D01*
X0316261Y0071249D01*
X0316324Y0071247D01*
X0316386Y0071241D01*
X0316448Y0071231D01*
X0316510Y0071218D01*
X0316570Y0071200D01*
X0316629Y0071179D01*
X0316687Y0071154D01*
X0316743Y0071125D01*
X0316797Y0071093D01*
X0316849Y0071058D01*
X0316898Y0071020D01*
X0316946Y0070978D01*
X0316990Y0070934D01*
X0317032Y0070886D01*
X0317070Y0070837D01*
X0317105Y0070785D01*
X0317137Y0070731D01*
X0317166Y0070675D01*
X0317191Y0070617D01*
X0317212Y0070558D01*
X0317230Y0070498D01*
X0317243Y0070436D01*
X0317253Y0070374D01*
X0317259Y0070312D01*
X0317261Y0070249D01*
X0317259Y0070186D01*
X0317253Y0070124D01*
X0317243Y0070062D01*
X0317230Y0070000D01*
X0317212Y0069940D01*
X0317191Y0069881D01*
X0317166Y0069823D01*
X0317137Y0069767D01*
X0317105Y0069713D01*
X0317070Y0069661D01*
X0317032Y0069612D01*
X0316990Y0069564D01*
X0316946Y0069520D01*
X0316898Y0069478D01*
X0316849Y0069440D01*
X0316797Y0069405D01*
X0316743Y0069373D01*
X0316687Y0069344D01*
X0316629Y0069319D01*
X0316570Y0069298D01*
X0316510Y0069280D01*
X0316448Y0069267D01*
X0316386Y0069257D01*
X0316324Y0069251D01*
X0316261Y0069249D01*
X0316198Y0069251D01*
X0316136Y0069257D01*
X0316074Y0069267D01*
X0316012Y0069280D01*
X0315952Y0069298D01*
X0315893Y0069319D01*
X0315835Y0069344D01*
X0315779Y0069373D01*
X0315725Y0069405D01*
X0315673Y0069440D01*
X0315624Y0069478D01*
X0315576Y0069520D01*
X0315532Y0069564D01*
X0315490Y0069612D01*
X0315452Y0069661D01*
X0315417Y0069713D01*
X0315385Y0069767D01*
X0315356Y0069823D01*
X0315331Y0069881D01*
X0315310Y0069940D01*
X0315292Y0070000D01*
X0315279Y0070062D01*
X0315269Y0070124D01*
X0315263Y0070186D01*
X0315261Y0070249D01*
X0309261Y0070249D02*
X0309263Y0070421D01*
X0309269Y0070592D01*
X0309280Y0070764D01*
X0309295Y0070935D01*
X0309314Y0071106D01*
X0309337Y0071276D01*
X0309364Y0071446D01*
X0309396Y0071615D01*
X0309431Y0071783D01*
X0309471Y0071950D01*
X0309515Y0072116D01*
X0309562Y0072281D01*
X0309614Y0072445D01*
X0309670Y0072607D01*
X0309730Y0072768D01*
X0309794Y0072928D01*
X0309862Y0073086D01*
X0309933Y0073242D01*
X0310008Y0073396D01*
X0310088Y0073549D01*
X0310170Y0073699D01*
X0310257Y0073848D01*
X0310347Y0073994D01*
X0310441Y0074138D01*
X0310538Y0074280D01*
X0310639Y0074419D01*
X0310743Y0074556D01*
X0310850Y0074690D01*
X0310961Y0074821D01*
X0311074Y0074950D01*
X0311191Y0075076D01*
X0311311Y0075199D01*
X0311434Y0075319D01*
X0311560Y0075436D01*
X0311689Y0075549D01*
X0311820Y0075660D01*
X0311954Y0075767D01*
X0312091Y0075871D01*
X0312230Y0075972D01*
X0312372Y0076069D01*
X0312516Y0076163D01*
X0312662Y0076253D01*
X0312811Y0076340D01*
X0312961Y0076422D01*
X0313114Y0076502D01*
X0313268Y0076577D01*
X0313424Y0076648D01*
X0313582Y0076716D01*
X0313742Y0076780D01*
X0313903Y0076840D01*
X0314065Y0076896D01*
X0314229Y0076948D01*
X0314394Y0076995D01*
X0314560Y0077039D01*
X0314727Y0077079D01*
X0314895Y0077114D01*
X0315064Y0077146D01*
X0315234Y0077173D01*
X0315404Y0077196D01*
X0315575Y0077215D01*
X0315746Y0077230D01*
X0315918Y0077241D01*
X0316089Y0077247D01*
X0316261Y0077249D01*
X0316433Y0077247D01*
X0316604Y0077241D01*
X0316776Y0077230D01*
X0316947Y0077215D01*
X0317118Y0077196D01*
X0317288Y0077173D01*
X0317458Y0077146D01*
X0317627Y0077114D01*
X0317795Y0077079D01*
X0317962Y0077039D01*
X0318128Y0076995D01*
X0318293Y0076948D01*
X0318457Y0076896D01*
X0318619Y0076840D01*
X0318780Y0076780D01*
X0318940Y0076716D01*
X0319098Y0076648D01*
X0319254Y0076577D01*
X0319408Y0076502D01*
X0319561Y0076422D01*
X0319711Y0076340D01*
X0319860Y0076253D01*
X0320006Y0076163D01*
X0320150Y0076069D01*
X0320292Y0075972D01*
X0320431Y0075871D01*
X0320568Y0075767D01*
X0320702Y0075660D01*
X0320833Y0075549D01*
X0320962Y0075436D01*
X0321088Y0075319D01*
X0321211Y0075199D01*
X0321331Y0075076D01*
X0321448Y0074950D01*
X0321561Y0074821D01*
X0321672Y0074690D01*
X0321779Y0074556D01*
X0321883Y0074419D01*
X0321984Y0074280D01*
X0322081Y0074138D01*
X0322175Y0073994D01*
X0322265Y0073848D01*
X0322352Y0073699D01*
X0322434Y0073549D01*
X0322514Y0073396D01*
X0322589Y0073242D01*
X0322660Y0073086D01*
X0322728Y0072928D01*
X0322792Y0072768D01*
X0322852Y0072607D01*
X0322908Y0072445D01*
X0322960Y0072281D01*
X0323007Y0072116D01*
X0323051Y0071950D01*
X0323091Y0071783D01*
X0323126Y0071615D01*
X0323158Y0071446D01*
X0323185Y0071276D01*
X0323208Y0071106D01*
X0323227Y0070935D01*
X0323242Y0070764D01*
X0323253Y0070592D01*
X0323259Y0070421D01*
X0323261Y0070249D01*
X0323259Y0070077D01*
X0323253Y0069906D01*
X0323242Y0069734D01*
X0323227Y0069563D01*
X0323208Y0069392D01*
X0323185Y0069222D01*
X0323158Y0069052D01*
X0323126Y0068883D01*
X0323091Y0068715D01*
X0323051Y0068548D01*
X0323007Y0068382D01*
X0322960Y0068217D01*
X0322908Y0068053D01*
X0322852Y0067891D01*
X0322792Y0067730D01*
X0322728Y0067570D01*
X0322660Y0067412D01*
X0322589Y0067256D01*
X0322514Y0067102D01*
X0322434Y0066949D01*
X0322352Y0066799D01*
X0322265Y0066650D01*
X0322175Y0066504D01*
X0322081Y0066360D01*
X0321984Y0066218D01*
X0321883Y0066079D01*
X0321779Y0065942D01*
X0321672Y0065808D01*
X0321561Y0065677D01*
X0321448Y0065548D01*
X0321331Y0065422D01*
X0321211Y0065299D01*
X0321088Y0065179D01*
X0320962Y0065062D01*
X0320833Y0064949D01*
X0320702Y0064838D01*
X0320568Y0064731D01*
X0320431Y0064627D01*
X0320292Y0064526D01*
X0320150Y0064429D01*
X0320006Y0064335D01*
X0319860Y0064245D01*
X0319711Y0064158D01*
X0319561Y0064076D01*
X0319408Y0063996D01*
X0319254Y0063921D01*
X0319098Y0063850D01*
X0318940Y0063782D01*
X0318780Y0063718D01*
X0318619Y0063658D01*
X0318457Y0063602D01*
X0318293Y0063550D01*
X0318128Y0063503D01*
X0317962Y0063459D01*
X0317795Y0063419D01*
X0317627Y0063384D01*
X0317458Y0063352D01*
X0317288Y0063325D01*
X0317118Y0063302D01*
X0316947Y0063283D01*
X0316776Y0063268D01*
X0316604Y0063257D01*
X0316433Y0063251D01*
X0316261Y0063249D01*
X0316089Y0063251D01*
X0315918Y0063257D01*
X0315746Y0063268D01*
X0315575Y0063283D01*
X0315404Y0063302D01*
X0315234Y0063325D01*
X0315064Y0063352D01*
X0314895Y0063384D01*
X0314727Y0063419D01*
X0314560Y0063459D01*
X0314394Y0063503D01*
X0314229Y0063550D01*
X0314065Y0063602D01*
X0313903Y0063658D01*
X0313742Y0063718D01*
X0313582Y0063782D01*
X0313424Y0063850D01*
X0313268Y0063921D01*
X0313114Y0063996D01*
X0312961Y0064076D01*
X0312811Y0064158D01*
X0312662Y0064245D01*
X0312516Y0064335D01*
X0312372Y0064429D01*
X0312230Y0064526D01*
X0312091Y0064627D01*
X0311954Y0064731D01*
X0311820Y0064838D01*
X0311689Y0064949D01*
X0311560Y0065062D01*
X0311434Y0065179D01*
X0311311Y0065299D01*
X0311191Y0065422D01*
X0311074Y0065548D01*
X0310961Y0065677D01*
X0310850Y0065808D01*
X0310743Y0065942D01*
X0310639Y0066079D01*
X0310538Y0066218D01*
X0310441Y0066360D01*
X0310347Y0066504D01*
X0310257Y0066650D01*
X0310170Y0066799D01*
X0310088Y0066949D01*
X0310008Y0067102D01*
X0309933Y0067256D01*
X0309862Y0067412D01*
X0309794Y0067570D01*
X0309730Y0067730D01*
X0309670Y0067891D01*
X0309614Y0068053D01*
X0309562Y0068217D01*
X0309515Y0068382D01*
X0309471Y0068548D01*
X0309431Y0068715D01*
X0309396Y0068883D01*
X0309364Y0069052D01*
X0309337Y0069222D01*
X0309314Y0069392D01*
X0309295Y0069563D01*
X0309280Y0069734D01*
X0309269Y0069906D01*
X0309263Y0070077D01*
X0309261Y0070249D01*
X0279828Y0099776D02*
X0279830Y0099839D01*
X0279836Y0099901D01*
X0279846Y0099963D01*
X0279859Y0100025D01*
X0279877Y0100085D01*
X0279898Y0100144D01*
X0279923Y0100202D01*
X0279952Y0100258D01*
X0279984Y0100312D01*
X0280019Y0100364D01*
X0280057Y0100413D01*
X0280099Y0100461D01*
X0280143Y0100505D01*
X0280191Y0100547D01*
X0280240Y0100585D01*
X0280292Y0100620D01*
X0280346Y0100652D01*
X0280402Y0100681D01*
X0280460Y0100706D01*
X0280519Y0100727D01*
X0280579Y0100745D01*
X0280641Y0100758D01*
X0280703Y0100768D01*
X0280765Y0100774D01*
X0280828Y0100776D01*
X0280891Y0100774D01*
X0280953Y0100768D01*
X0281015Y0100758D01*
X0281077Y0100745D01*
X0281137Y0100727D01*
X0281196Y0100706D01*
X0281254Y0100681D01*
X0281310Y0100652D01*
X0281364Y0100620D01*
X0281416Y0100585D01*
X0281465Y0100547D01*
X0281513Y0100505D01*
X0281557Y0100461D01*
X0281599Y0100413D01*
X0281637Y0100364D01*
X0281672Y0100312D01*
X0281704Y0100258D01*
X0281733Y0100202D01*
X0281758Y0100144D01*
X0281779Y0100085D01*
X0281797Y0100025D01*
X0281810Y0099963D01*
X0281820Y0099901D01*
X0281826Y0099839D01*
X0281828Y0099776D01*
X0281826Y0099713D01*
X0281820Y0099651D01*
X0281810Y0099589D01*
X0281797Y0099527D01*
X0281779Y0099467D01*
X0281758Y0099408D01*
X0281733Y0099350D01*
X0281704Y0099294D01*
X0281672Y0099240D01*
X0281637Y0099188D01*
X0281599Y0099139D01*
X0281557Y0099091D01*
X0281513Y0099047D01*
X0281465Y0099005D01*
X0281416Y0098967D01*
X0281364Y0098932D01*
X0281310Y0098900D01*
X0281254Y0098871D01*
X0281196Y0098846D01*
X0281137Y0098825D01*
X0281077Y0098807D01*
X0281015Y0098794D01*
X0280953Y0098784D01*
X0280891Y0098778D01*
X0280828Y0098776D01*
X0280765Y0098778D01*
X0280703Y0098784D01*
X0280641Y0098794D01*
X0280579Y0098807D01*
X0280519Y0098825D01*
X0280460Y0098846D01*
X0280402Y0098871D01*
X0280346Y0098900D01*
X0280292Y0098932D01*
X0280240Y0098967D01*
X0280191Y0099005D01*
X0280143Y0099047D01*
X0280099Y0099091D01*
X0280057Y0099139D01*
X0280019Y0099188D01*
X0279984Y0099240D01*
X0279952Y0099294D01*
X0279923Y0099350D01*
X0279898Y0099408D01*
X0279877Y0099467D01*
X0279859Y0099527D01*
X0279846Y0099589D01*
X0279836Y0099651D01*
X0279830Y0099713D01*
X0279828Y0099776D01*
X0273828Y0099776D02*
X0273830Y0099948D01*
X0273836Y0100119D01*
X0273847Y0100291D01*
X0273862Y0100462D01*
X0273881Y0100633D01*
X0273904Y0100803D01*
X0273931Y0100973D01*
X0273963Y0101142D01*
X0273998Y0101310D01*
X0274038Y0101477D01*
X0274082Y0101643D01*
X0274129Y0101808D01*
X0274181Y0101972D01*
X0274237Y0102134D01*
X0274297Y0102295D01*
X0274361Y0102455D01*
X0274429Y0102613D01*
X0274500Y0102769D01*
X0274575Y0102923D01*
X0274655Y0103076D01*
X0274737Y0103226D01*
X0274824Y0103375D01*
X0274914Y0103521D01*
X0275008Y0103665D01*
X0275105Y0103807D01*
X0275206Y0103946D01*
X0275310Y0104083D01*
X0275417Y0104217D01*
X0275528Y0104348D01*
X0275641Y0104477D01*
X0275758Y0104603D01*
X0275878Y0104726D01*
X0276001Y0104846D01*
X0276127Y0104963D01*
X0276256Y0105076D01*
X0276387Y0105187D01*
X0276521Y0105294D01*
X0276658Y0105398D01*
X0276797Y0105499D01*
X0276939Y0105596D01*
X0277083Y0105690D01*
X0277229Y0105780D01*
X0277378Y0105867D01*
X0277528Y0105949D01*
X0277681Y0106029D01*
X0277835Y0106104D01*
X0277991Y0106175D01*
X0278149Y0106243D01*
X0278309Y0106307D01*
X0278470Y0106367D01*
X0278632Y0106423D01*
X0278796Y0106475D01*
X0278961Y0106522D01*
X0279127Y0106566D01*
X0279294Y0106606D01*
X0279462Y0106641D01*
X0279631Y0106673D01*
X0279801Y0106700D01*
X0279971Y0106723D01*
X0280142Y0106742D01*
X0280313Y0106757D01*
X0280485Y0106768D01*
X0280656Y0106774D01*
X0280828Y0106776D01*
X0281000Y0106774D01*
X0281171Y0106768D01*
X0281343Y0106757D01*
X0281514Y0106742D01*
X0281685Y0106723D01*
X0281855Y0106700D01*
X0282025Y0106673D01*
X0282194Y0106641D01*
X0282362Y0106606D01*
X0282529Y0106566D01*
X0282695Y0106522D01*
X0282860Y0106475D01*
X0283024Y0106423D01*
X0283186Y0106367D01*
X0283347Y0106307D01*
X0283507Y0106243D01*
X0283665Y0106175D01*
X0283821Y0106104D01*
X0283975Y0106029D01*
X0284128Y0105949D01*
X0284278Y0105867D01*
X0284427Y0105780D01*
X0284573Y0105690D01*
X0284717Y0105596D01*
X0284859Y0105499D01*
X0284998Y0105398D01*
X0285135Y0105294D01*
X0285269Y0105187D01*
X0285400Y0105076D01*
X0285529Y0104963D01*
X0285655Y0104846D01*
X0285778Y0104726D01*
X0285898Y0104603D01*
X0286015Y0104477D01*
X0286128Y0104348D01*
X0286239Y0104217D01*
X0286346Y0104083D01*
X0286450Y0103946D01*
X0286551Y0103807D01*
X0286648Y0103665D01*
X0286742Y0103521D01*
X0286832Y0103375D01*
X0286919Y0103226D01*
X0287001Y0103076D01*
X0287081Y0102923D01*
X0287156Y0102769D01*
X0287227Y0102613D01*
X0287295Y0102455D01*
X0287359Y0102295D01*
X0287419Y0102134D01*
X0287475Y0101972D01*
X0287527Y0101808D01*
X0287574Y0101643D01*
X0287618Y0101477D01*
X0287658Y0101310D01*
X0287693Y0101142D01*
X0287725Y0100973D01*
X0287752Y0100803D01*
X0287775Y0100633D01*
X0287794Y0100462D01*
X0287809Y0100291D01*
X0287820Y0100119D01*
X0287826Y0099948D01*
X0287828Y0099776D01*
X0287826Y0099604D01*
X0287820Y0099433D01*
X0287809Y0099261D01*
X0287794Y0099090D01*
X0287775Y0098919D01*
X0287752Y0098749D01*
X0287725Y0098579D01*
X0287693Y0098410D01*
X0287658Y0098242D01*
X0287618Y0098075D01*
X0287574Y0097909D01*
X0287527Y0097744D01*
X0287475Y0097580D01*
X0287419Y0097418D01*
X0287359Y0097257D01*
X0287295Y0097097D01*
X0287227Y0096939D01*
X0287156Y0096783D01*
X0287081Y0096629D01*
X0287001Y0096476D01*
X0286919Y0096326D01*
X0286832Y0096177D01*
X0286742Y0096031D01*
X0286648Y0095887D01*
X0286551Y0095745D01*
X0286450Y0095606D01*
X0286346Y0095469D01*
X0286239Y0095335D01*
X0286128Y0095204D01*
X0286015Y0095075D01*
X0285898Y0094949D01*
X0285778Y0094826D01*
X0285655Y0094706D01*
X0285529Y0094589D01*
X0285400Y0094476D01*
X0285269Y0094365D01*
X0285135Y0094258D01*
X0284998Y0094154D01*
X0284859Y0094053D01*
X0284717Y0093956D01*
X0284573Y0093862D01*
X0284427Y0093772D01*
X0284278Y0093685D01*
X0284128Y0093603D01*
X0283975Y0093523D01*
X0283821Y0093448D01*
X0283665Y0093377D01*
X0283507Y0093309D01*
X0283347Y0093245D01*
X0283186Y0093185D01*
X0283024Y0093129D01*
X0282860Y0093077D01*
X0282695Y0093030D01*
X0282529Y0092986D01*
X0282362Y0092946D01*
X0282194Y0092911D01*
X0282025Y0092879D01*
X0281855Y0092852D01*
X0281685Y0092829D01*
X0281514Y0092810D01*
X0281343Y0092795D01*
X0281171Y0092784D01*
X0281000Y0092778D01*
X0280828Y0092776D01*
X0280656Y0092778D01*
X0280485Y0092784D01*
X0280313Y0092795D01*
X0280142Y0092810D01*
X0279971Y0092829D01*
X0279801Y0092852D01*
X0279631Y0092879D01*
X0279462Y0092911D01*
X0279294Y0092946D01*
X0279127Y0092986D01*
X0278961Y0093030D01*
X0278796Y0093077D01*
X0278632Y0093129D01*
X0278470Y0093185D01*
X0278309Y0093245D01*
X0278149Y0093309D01*
X0277991Y0093377D01*
X0277835Y0093448D01*
X0277681Y0093523D01*
X0277528Y0093603D01*
X0277378Y0093685D01*
X0277229Y0093772D01*
X0277083Y0093862D01*
X0276939Y0093956D01*
X0276797Y0094053D01*
X0276658Y0094154D01*
X0276521Y0094258D01*
X0276387Y0094365D01*
X0276256Y0094476D01*
X0276127Y0094589D01*
X0276001Y0094706D01*
X0275878Y0094826D01*
X0275758Y0094949D01*
X0275641Y0095075D01*
X0275528Y0095204D01*
X0275417Y0095335D01*
X0275310Y0095469D01*
X0275206Y0095606D01*
X0275105Y0095745D01*
X0275008Y0095887D01*
X0274914Y0096031D01*
X0274824Y0096177D01*
X0274737Y0096326D01*
X0274655Y0096476D01*
X0274575Y0096629D01*
X0274500Y0096783D01*
X0274429Y0096939D01*
X0274361Y0097097D01*
X0274297Y0097257D01*
X0274237Y0097418D01*
X0274181Y0097580D01*
X0274129Y0097744D01*
X0274082Y0097909D01*
X0274038Y0098075D01*
X0273998Y0098242D01*
X0273963Y0098410D01*
X0273931Y0098579D01*
X0273904Y0098749D01*
X0273881Y0098919D01*
X0273862Y0099090D01*
X0273847Y0099261D01*
X0273836Y0099433D01*
X0273830Y0099604D01*
X0273828Y0099776D01*
X0268828Y0096776D02*
X0268828Y0095776D01*
X0268828Y0096776D02*
X0267828Y0096776D01*
X0267828Y0102776D01*
X0268828Y0102776D01*
X0268828Y0103776D01*
X0272328Y0111776D02*
X0275828Y0111776D01*
X0285828Y0111776D01*
X0289328Y0111776D01*
X0283828Y0234414D02*
X0277828Y0234414D01*
X0277828Y0235414D01*
X0276828Y0235414D01*
X0283828Y0235414D02*
X0283828Y0234414D01*
X0283828Y0235414D02*
X0284828Y0235414D01*
X0292828Y0238914D02*
X0292828Y0242414D01*
X0292828Y0251914D01*
X0292828Y0255914D01*
X0300324Y0255914D02*
X0300324Y0252414D01*
X0300324Y0242914D01*
X0300324Y0238914D01*
X0308324Y0235414D02*
X0309324Y0235414D01*
X0309324Y0234414D01*
X0315324Y0234414D01*
X0315324Y0235414D01*
X0316324Y0235414D01*
X0324324Y0238914D02*
X0324324Y0242414D01*
X0324324Y0252414D01*
X0324324Y0255914D01*
X0316324Y0259414D02*
X0315324Y0259414D01*
X0315324Y0260414D01*
X0309324Y0260414D01*
X0309324Y0259414D01*
X0308324Y0259414D01*
X0307226Y0267399D02*
X0305091Y0269534D01*
X0306158Y0269534D02*
X0302955Y0269534D01*
X0302955Y0267399D02*
X0302955Y0273805D01*
X0306158Y0273805D01*
X0307226Y0272737D01*
X0307226Y0270602D01*
X0306158Y0269534D01*
X0309401Y0268467D02*
X0310468Y0267399D01*
X0312604Y0267399D01*
X0313671Y0268467D01*
X0313671Y0269534D01*
X0312604Y0270602D01*
X0310468Y0270602D01*
X0309401Y0271670D01*
X0309401Y0272737D01*
X0310468Y0273805D01*
X0312604Y0273805D01*
X0313671Y0272737D01*
X0315846Y0273805D02*
X0320117Y0273805D01*
X0317982Y0273805D02*
X0317982Y0267399D01*
X0293992Y0268467D02*
X0292924Y0267399D01*
X0290789Y0267399D01*
X0289722Y0268467D01*
X0293992Y0272737D01*
X0293992Y0268467D01*
X0289722Y0268467D02*
X0289722Y0272737D01*
X0290789Y0273805D01*
X0292924Y0273805D01*
X0293992Y0272737D01*
X0287546Y0272737D02*
X0286479Y0273805D01*
X0284344Y0273805D01*
X0283276Y0272737D01*
X0283276Y0268467D01*
X0284344Y0267399D01*
X0286479Y0267399D01*
X0287546Y0268467D01*
X0287546Y0272737D01*
X0281114Y0273805D02*
X0278979Y0273805D01*
X0280047Y0273805D02*
X0280047Y0267399D01*
X0281114Y0267399D02*
X0278979Y0267399D01*
X0276804Y0270602D02*
X0275736Y0269534D01*
X0272534Y0269534D01*
X0272534Y0267399D02*
X0272534Y0273805D01*
X0275736Y0273805D01*
X0276804Y0272737D01*
X0276804Y0270602D01*
X0270358Y0270602D02*
X0270358Y0268467D01*
X0269291Y0267399D01*
X0267156Y0267399D01*
X0266088Y0268467D01*
X0266088Y0272737D01*
X0267156Y0273805D01*
X0269291Y0273805D01*
X0270358Y0272737D01*
X0270358Y0270602D02*
X0268223Y0270602D01*
X0277828Y0260414D02*
X0277828Y0259414D01*
X0276828Y0259414D01*
X0277828Y0260414D02*
X0283828Y0260414D01*
X0283828Y0259414D01*
X0284828Y0259414D01*
X0279828Y0247414D02*
X0279830Y0247477D01*
X0279836Y0247539D01*
X0279846Y0247601D01*
X0279859Y0247663D01*
X0279877Y0247723D01*
X0279898Y0247782D01*
X0279923Y0247840D01*
X0279952Y0247896D01*
X0279984Y0247950D01*
X0280019Y0248002D01*
X0280057Y0248051D01*
X0280099Y0248099D01*
X0280143Y0248143D01*
X0280191Y0248185D01*
X0280240Y0248223D01*
X0280292Y0248258D01*
X0280346Y0248290D01*
X0280402Y0248319D01*
X0280460Y0248344D01*
X0280519Y0248365D01*
X0280579Y0248383D01*
X0280641Y0248396D01*
X0280703Y0248406D01*
X0280765Y0248412D01*
X0280828Y0248414D01*
X0280891Y0248412D01*
X0280953Y0248406D01*
X0281015Y0248396D01*
X0281077Y0248383D01*
X0281137Y0248365D01*
X0281196Y0248344D01*
X0281254Y0248319D01*
X0281310Y0248290D01*
X0281364Y0248258D01*
X0281416Y0248223D01*
X0281465Y0248185D01*
X0281513Y0248143D01*
X0281557Y0248099D01*
X0281599Y0248051D01*
X0281637Y0248002D01*
X0281672Y0247950D01*
X0281704Y0247896D01*
X0281733Y0247840D01*
X0281758Y0247782D01*
X0281779Y0247723D01*
X0281797Y0247663D01*
X0281810Y0247601D01*
X0281820Y0247539D01*
X0281826Y0247477D01*
X0281828Y0247414D01*
X0281826Y0247351D01*
X0281820Y0247289D01*
X0281810Y0247227D01*
X0281797Y0247165D01*
X0281779Y0247105D01*
X0281758Y0247046D01*
X0281733Y0246988D01*
X0281704Y0246932D01*
X0281672Y0246878D01*
X0281637Y0246826D01*
X0281599Y0246777D01*
X0281557Y0246729D01*
X0281513Y0246685D01*
X0281465Y0246643D01*
X0281416Y0246605D01*
X0281364Y0246570D01*
X0281310Y0246538D01*
X0281254Y0246509D01*
X0281196Y0246484D01*
X0281137Y0246463D01*
X0281077Y0246445D01*
X0281015Y0246432D01*
X0280953Y0246422D01*
X0280891Y0246416D01*
X0280828Y0246414D01*
X0280765Y0246416D01*
X0280703Y0246422D01*
X0280641Y0246432D01*
X0280579Y0246445D01*
X0280519Y0246463D01*
X0280460Y0246484D01*
X0280402Y0246509D01*
X0280346Y0246538D01*
X0280292Y0246570D01*
X0280240Y0246605D01*
X0280191Y0246643D01*
X0280143Y0246685D01*
X0280099Y0246729D01*
X0280057Y0246777D01*
X0280019Y0246826D01*
X0279984Y0246878D01*
X0279952Y0246932D01*
X0279923Y0246988D01*
X0279898Y0247046D01*
X0279877Y0247105D01*
X0279859Y0247165D01*
X0279846Y0247227D01*
X0279836Y0247289D01*
X0279830Y0247351D01*
X0279828Y0247414D01*
X0273828Y0247414D02*
X0273830Y0247586D01*
X0273836Y0247757D01*
X0273847Y0247929D01*
X0273862Y0248100D01*
X0273881Y0248271D01*
X0273904Y0248441D01*
X0273931Y0248611D01*
X0273963Y0248780D01*
X0273998Y0248948D01*
X0274038Y0249115D01*
X0274082Y0249281D01*
X0274129Y0249446D01*
X0274181Y0249610D01*
X0274237Y0249772D01*
X0274297Y0249933D01*
X0274361Y0250093D01*
X0274429Y0250251D01*
X0274500Y0250407D01*
X0274575Y0250561D01*
X0274655Y0250714D01*
X0274737Y0250864D01*
X0274824Y0251013D01*
X0274914Y0251159D01*
X0275008Y0251303D01*
X0275105Y0251445D01*
X0275206Y0251584D01*
X0275310Y0251721D01*
X0275417Y0251855D01*
X0275528Y0251986D01*
X0275641Y0252115D01*
X0275758Y0252241D01*
X0275878Y0252364D01*
X0276001Y0252484D01*
X0276127Y0252601D01*
X0276256Y0252714D01*
X0276387Y0252825D01*
X0276521Y0252932D01*
X0276658Y0253036D01*
X0276797Y0253137D01*
X0276939Y0253234D01*
X0277083Y0253328D01*
X0277229Y0253418D01*
X0277378Y0253505D01*
X0277528Y0253587D01*
X0277681Y0253667D01*
X0277835Y0253742D01*
X0277991Y0253813D01*
X0278149Y0253881D01*
X0278309Y0253945D01*
X0278470Y0254005D01*
X0278632Y0254061D01*
X0278796Y0254113D01*
X0278961Y0254160D01*
X0279127Y0254204D01*
X0279294Y0254244D01*
X0279462Y0254279D01*
X0279631Y0254311D01*
X0279801Y0254338D01*
X0279971Y0254361D01*
X0280142Y0254380D01*
X0280313Y0254395D01*
X0280485Y0254406D01*
X0280656Y0254412D01*
X0280828Y0254414D01*
X0281000Y0254412D01*
X0281171Y0254406D01*
X0281343Y0254395D01*
X0281514Y0254380D01*
X0281685Y0254361D01*
X0281855Y0254338D01*
X0282025Y0254311D01*
X0282194Y0254279D01*
X0282362Y0254244D01*
X0282529Y0254204D01*
X0282695Y0254160D01*
X0282860Y0254113D01*
X0283024Y0254061D01*
X0283186Y0254005D01*
X0283347Y0253945D01*
X0283507Y0253881D01*
X0283665Y0253813D01*
X0283821Y0253742D01*
X0283975Y0253667D01*
X0284128Y0253587D01*
X0284278Y0253505D01*
X0284427Y0253418D01*
X0284573Y0253328D01*
X0284717Y0253234D01*
X0284859Y0253137D01*
X0284998Y0253036D01*
X0285135Y0252932D01*
X0285269Y0252825D01*
X0285400Y0252714D01*
X0285529Y0252601D01*
X0285655Y0252484D01*
X0285778Y0252364D01*
X0285898Y0252241D01*
X0286015Y0252115D01*
X0286128Y0251986D01*
X0286239Y0251855D01*
X0286346Y0251721D01*
X0286450Y0251584D01*
X0286551Y0251445D01*
X0286648Y0251303D01*
X0286742Y0251159D01*
X0286832Y0251013D01*
X0286919Y0250864D01*
X0287001Y0250714D01*
X0287081Y0250561D01*
X0287156Y0250407D01*
X0287227Y0250251D01*
X0287295Y0250093D01*
X0287359Y0249933D01*
X0287419Y0249772D01*
X0287475Y0249610D01*
X0287527Y0249446D01*
X0287574Y0249281D01*
X0287618Y0249115D01*
X0287658Y0248948D01*
X0287693Y0248780D01*
X0287725Y0248611D01*
X0287752Y0248441D01*
X0287775Y0248271D01*
X0287794Y0248100D01*
X0287809Y0247929D01*
X0287820Y0247757D01*
X0287826Y0247586D01*
X0287828Y0247414D01*
X0287826Y0247242D01*
X0287820Y0247071D01*
X0287809Y0246899D01*
X0287794Y0246728D01*
X0287775Y0246557D01*
X0287752Y0246387D01*
X0287725Y0246217D01*
X0287693Y0246048D01*
X0287658Y0245880D01*
X0287618Y0245713D01*
X0287574Y0245547D01*
X0287527Y0245382D01*
X0287475Y0245218D01*
X0287419Y0245056D01*
X0287359Y0244895D01*
X0287295Y0244735D01*
X0287227Y0244577D01*
X0287156Y0244421D01*
X0287081Y0244267D01*
X0287001Y0244114D01*
X0286919Y0243964D01*
X0286832Y0243815D01*
X0286742Y0243669D01*
X0286648Y0243525D01*
X0286551Y0243383D01*
X0286450Y0243244D01*
X0286346Y0243107D01*
X0286239Y0242973D01*
X0286128Y0242842D01*
X0286015Y0242713D01*
X0285898Y0242587D01*
X0285778Y0242464D01*
X0285655Y0242344D01*
X0285529Y0242227D01*
X0285400Y0242114D01*
X0285269Y0242003D01*
X0285135Y0241896D01*
X0284998Y0241792D01*
X0284859Y0241691D01*
X0284717Y0241594D01*
X0284573Y0241500D01*
X0284427Y0241410D01*
X0284278Y0241323D01*
X0284128Y0241241D01*
X0283975Y0241161D01*
X0283821Y0241086D01*
X0283665Y0241015D01*
X0283507Y0240947D01*
X0283347Y0240883D01*
X0283186Y0240823D01*
X0283024Y0240767D01*
X0282860Y0240715D01*
X0282695Y0240668D01*
X0282529Y0240624D01*
X0282362Y0240584D01*
X0282194Y0240549D01*
X0282025Y0240517D01*
X0281855Y0240490D01*
X0281685Y0240467D01*
X0281514Y0240448D01*
X0281343Y0240433D01*
X0281171Y0240422D01*
X0281000Y0240416D01*
X0280828Y0240414D01*
X0280656Y0240416D01*
X0280485Y0240422D01*
X0280313Y0240433D01*
X0280142Y0240448D01*
X0279971Y0240467D01*
X0279801Y0240490D01*
X0279631Y0240517D01*
X0279462Y0240549D01*
X0279294Y0240584D01*
X0279127Y0240624D01*
X0278961Y0240668D01*
X0278796Y0240715D01*
X0278632Y0240767D01*
X0278470Y0240823D01*
X0278309Y0240883D01*
X0278149Y0240947D01*
X0277991Y0241015D01*
X0277835Y0241086D01*
X0277681Y0241161D01*
X0277528Y0241241D01*
X0277378Y0241323D01*
X0277229Y0241410D01*
X0277083Y0241500D01*
X0276939Y0241594D01*
X0276797Y0241691D01*
X0276658Y0241792D01*
X0276521Y0241896D01*
X0276387Y0242003D01*
X0276256Y0242114D01*
X0276127Y0242227D01*
X0276001Y0242344D01*
X0275878Y0242464D01*
X0275758Y0242587D01*
X0275641Y0242713D01*
X0275528Y0242842D01*
X0275417Y0242973D01*
X0275310Y0243107D01*
X0275206Y0243244D01*
X0275105Y0243383D01*
X0275008Y0243525D01*
X0274914Y0243669D01*
X0274824Y0243815D01*
X0274737Y0243964D01*
X0274655Y0244114D01*
X0274575Y0244267D01*
X0274500Y0244421D01*
X0274429Y0244577D01*
X0274361Y0244735D01*
X0274297Y0244895D01*
X0274237Y0245056D01*
X0274181Y0245218D01*
X0274129Y0245382D01*
X0274082Y0245547D01*
X0274038Y0245713D01*
X0273998Y0245880D01*
X0273963Y0246048D01*
X0273931Y0246217D01*
X0273904Y0246387D01*
X0273881Y0246557D01*
X0273862Y0246728D01*
X0273847Y0246899D01*
X0273836Y0247071D01*
X0273830Y0247242D01*
X0273828Y0247414D01*
X0268828Y0242414D02*
X0268828Y0238914D01*
X0268828Y0242414D02*
X0268828Y0252414D01*
X0268828Y0255914D01*
X0247520Y0264599D02*
X0247520Y0269599D01*
X0245020Y0272099D01*
X0240020Y0272099D01*
X0237520Y0269599D01*
X0235020Y0272099D01*
X0230020Y0272099D01*
X0227520Y0269599D01*
X0227520Y0264599D01*
X0230020Y0262099D01*
X0235020Y0262099D01*
X0237520Y0264599D01*
X0237520Y0269599D01*
X0237520Y0264599D02*
X0240020Y0262099D01*
X0245020Y0262099D01*
X0247520Y0264599D01*
X0241454Y0258728D02*
X0241454Y0254058D01*
X0239119Y0256393D02*
X0243790Y0256393D01*
X0311324Y0247414D02*
X0311326Y0247477D01*
X0311332Y0247539D01*
X0311342Y0247601D01*
X0311355Y0247663D01*
X0311373Y0247723D01*
X0311394Y0247782D01*
X0311419Y0247840D01*
X0311448Y0247896D01*
X0311480Y0247950D01*
X0311515Y0248002D01*
X0311553Y0248051D01*
X0311595Y0248099D01*
X0311639Y0248143D01*
X0311687Y0248185D01*
X0311736Y0248223D01*
X0311788Y0248258D01*
X0311842Y0248290D01*
X0311898Y0248319D01*
X0311956Y0248344D01*
X0312015Y0248365D01*
X0312075Y0248383D01*
X0312137Y0248396D01*
X0312199Y0248406D01*
X0312261Y0248412D01*
X0312324Y0248414D01*
X0312387Y0248412D01*
X0312449Y0248406D01*
X0312511Y0248396D01*
X0312573Y0248383D01*
X0312633Y0248365D01*
X0312692Y0248344D01*
X0312750Y0248319D01*
X0312806Y0248290D01*
X0312860Y0248258D01*
X0312912Y0248223D01*
X0312961Y0248185D01*
X0313009Y0248143D01*
X0313053Y0248099D01*
X0313095Y0248051D01*
X0313133Y0248002D01*
X0313168Y0247950D01*
X0313200Y0247896D01*
X0313229Y0247840D01*
X0313254Y0247782D01*
X0313275Y0247723D01*
X0313293Y0247663D01*
X0313306Y0247601D01*
X0313316Y0247539D01*
X0313322Y0247477D01*
X0313324Y0247414D01*
X0313322Y0247351D01*
X0313316Y0247289D01*
X0313306Y0247227D01*
X0313293Y0247165D01*
X0313275Y0247105D01*
X0313254Y0247046D01*
X0313229Y0246988D01*
X0313200Y0246932D01*
X0313168Y0246878D01*
X0313133Y0246826D01*
X0313095Y0246777D01*
X0313053Y0246729D01*
X0313009Y0246685D01*
X0312961Y0246643D01*
X0312912Y0246605D01*
X0312860Y0246570D01*
X0312806Y0246538D01*
X0312750Y0246509D01*
X0312692Y0246484D01*
X0312633Y0246463D01*
X0312573Y0246445D01*
X0312511Y0246432D01*
X0312449Y0246422D01*
X0312387Y0246416D01*
X0312324Y0246414D01*
X0312261Y0246416D01*
X0312199Y0246422D01*
X0312137Y0246432D01*
X0312075Y0246445D01*
X0312015Y0246463D01*
X0311956Y0246484D01*
X0311898Y0246509D01*
X0311842Y0246538D01*
X0311788Y0246570D01*
X0311736Y0246605D01*
X0311687Y0246643D01*
X0311639Y0246685D01*
X0311595Y0246729D01*
X0311553Y0246777D01*
X0311515Y0246826D01*
X0311480Y0246878D01*
X0311448Y0246932D01*
X0311419Y0246988D01*
X0311394Y0247046D01*
X0311373Y0247105D01*
X0311355Y0247165D01*
X0311342Y0247227D01*
X0311332Y0247289D01*
X0311326Y0247351D01*
X0311324Y0247414D01*
X0305324Y0247414D02*
X0305326Y0247586D01*
X0305332Y0247757D01*
X0305343Y0247929D01*
X0305358Y0248100D01*
X0305377Y0248271D01*
X0305400Y0248441D01*
X0305427Y0248611D01*
X0305459Y0248780D01*
X0305494Y0248948D01*
X0305534Y0249115D01*
X0305578Y0249281D01*
X0305625Y0249446D01*
X0305677Y0249610D01*
X0305733Y0249772D01*
X0305793Y0249933D01*
X0305857Y0250093D01*
X0305925Y0250251D01*
X0305996Y0250407D01*
X0306071Y0250561D01*
X0306151Y0250714D01*
X0306233Y0250864D01*
X0306320Y0251013D01*
X0306410Y0251159D01*
X0306504Y0251303D01*
X0306601Y0251445D01*
X0306702Y0251584D01*
X0306806Y0251721D01*
X0306913Y0251855D01*
X0307024Y0251986D01*
X0307137Y0252115D01*
X0307254Y0252241D01*
X0307374Y0252364D01*
X0307497Y0252484D01*
X0307623Y0252601D01*
X0307752Y0252714D01*
X0307883Y0252825D01*
X0308017Y0252932D01*
X0308154Y0253036D01*
X0308293Y0253137D01*
X0308435Y0253234D01*
X0308579Y0253328D01*
X0308725Y0253418D01*
X0308874Y0253505D01*
X0309024Y0253587D01*
X0309177Y0253667D01*
X0309331Y0253742D01*
X0309487Y0253813D01*
X0309645Y0253881D01*
X0309805Y0253945D01*
X0309966Y0254005D01*
X0310128Y0254061D01*
X0310292Y0254113D01*
X0310457Y0254160D01*
X0310623Y0254204D01*
X0310790Y0254244D01*
X0310958Y0254279D01*
X0311127Y0254311D01*
X0311297Y0254338D01*
X0311467Y0254361D01*
X0311638Y0254380D01*
X0311809Y0254395D01*
X0311981Y0254406D01*
X0312152Y0254412D01*
X0312324Y0254414D01*
X0312496Y0254412D01*
X0312667Y0254406D01*
X0312839Y0254395D01*
X0313010Y0254380D01*
X0313181Y0254361D01*
X0313351Y0254338D01*
X0313521Y0254311D01*
X0313690Y0254279D01*
X0313858Y0254244D01*
X0314025Y0254204D01*
X0314191Y0254160D01*
X0314356Y0254113D01*
X0314520Y0254061D01*
X0314682Y0254005D01*
X0314843Y0253945D01*
X0315003Y0253881D01*
X0315161Y0253813D01*
X0315317Y0253742D01*
X0315471Y0253667D01*
X0315624Y0253587D01*
X0315774Y0253505D01*
X0315923Y0253418D01*
X0316069Y0253328D01*
X0316213Y0253234D01*
X0316355Y0253137D01*
X0316494Y0253036D01*
X0316631Y0252932D01*
X0316765Y0252825D01*
X0316896Y0252714D01*
X0317025Y0252601D01*
X0317151Y0252484D01*
X0317274Y0252364D01*
X0317394Y0252241D01*
X0317511Y0252115D01*
X0317624Y0251986D01*
X0317735Y0251855D01*
X0317842Y0251721D01*
X0317946Y0251584D01*
X0318047Y0251445D01*
X0318144Y0251303D01*
X0318238Y0251159D01*
X0318328Y0251013D01*
X0318415Y0250864D01*
X0318497Y0250714D01*
X0318577Y0250561D01*
X0318652Y0250407D01*
X0318723Y0250251D01*
X0318791Y0250093D01*
X0318855Y0249933D01*
X0318915Y0249772D01*
X0318971Y0249610D01*
X0319023Y0249446D01*
X0319070Y0249281D01*
X0319114Y0249115D01*
X0319154Y0248948D01*
X0319189Y0248780D01*
X0319221Y0248611D01*
X0319248Y0248441D01*
X0319271Y0248271D01*
X0319290Y0248100D01*
X0319305Y0247929D01*
X0319316Y0247757D01*
X0319322Y0247586D01*
X0319324Y0247414D01*
X0319322Y0247242D01*
X0319316Y0247071D01*
X0319305Y0246899D01*
X0319290Y0246728D01*
X0319271Y0246557D01*
X0319248Y0246387D01*
X0319221Y0246217D01*
X0319189Y0246048D01*
X0319154Y0245880D01*
X0319114Y0245713D01*
X0319070Y0245547D01*
X0319023Y0245382D01*
X0318971Y0245218D01*
X0318915Y0245056D01*
X0318855Y0244895D01*
X0318791Y0244735D01*
X0318723Y0244577D01*
X0318652Y0244421D01*
X0318577Y0244267D01*
X0318497Y0244114D01*
X0318415Y0243964D01*
X0318328Y0243815D01*
X0318238Y0243669D01*
X0318144Y0243525D01*
X0318047Y0243383D01*
X0317946Y0243244D01*
X0317842Y0243107D01*
X0317735Y0242973D01*
X0317624Y0242842D01*
X0317511Y0242713D01*
X0317394Y0242587D01*
X0317274Y0242464D01*
X0317151Y0242344D01*
X0317025Y0242227D01*
X0316896Y0242114D01*
X0316765Y0242003D01*
X0316631Y0241896D01*
X0316494Y0241792D01*
X0316355Y0241691D01*
X0316213Y0241594D01*
X0316069Y0241500D01*
X0315923Y0241410D01*
X0315774Y0241323D01*
X0315624Y0241241D01*
X0315471Y0241161D01*
X0315317Y0241086D01*
X0315161Y0241015D01*
X0315003Y0240947D01*
X0314843Y0240883D01*
X0314682Y0240823D01*
X0314520Y0240767D01*
X0314356Y0240715D01*
X0314191Y0240668D01*
X0314025Y0240624D01*
X0313858Y0240584D01*
X0313690Y0240549D01*
X0313521Y0240517D01*
X0313351Y0240490D01*
X0313181Y0240467D01*
X0313010Y0240448D01*
X0312839Y0240433D01*
X0312667Y0240422D01*
X0312496Y0240416D01*
X0312324Y0240414D01*
X0312152Y0240416D01*
X0311981Y0240422D01*
X0311809Y0240433D01*
X0311638Y0240448D01*
X0311467Y0240467D01*
X0311297Y0240490D01*
X0311127Y0240517D01*
X0310958Y0240549D01*
X0310790Y0240584D01*
X0310623Y0240624D01*
X0310457Y0240668D01*
X0310292Y0240715D01*
X0310128Y0240767D01*
X0309966Y0240823D01*
X0309805Y0240883D01*
X0309645Y0240947D01*
X0309487Y0241015D01*
X0309331Y0241086D01*
X0309177Y0241161D01*
X0309024Y0241241D01*
X0308874Y0241323D01*
X0308725Y0241410D01*
X0308579Y0241500D01*
X0308435Y0241594D01*
X0308293Y0241691D01*
X0308154Y0241792D01*
X0308017Y0241896D01*
X0307883Y0242003D01*
X0307752Y0242114D01*
X0307623Y0242227D01*
X0307497Y0242344D01*
X0307374Y0242464D01*
X0307254Y0242587D01*
X0307137Y0242713D01*
X0307024Y0242842D01*
X0306913Y0242973D01*
X0306806Y0243107D01*
X0306702Y0243244D01*
X0306601Y0243383D01*
X0306504Y0243525D01*
X0306410Y0243669D01*
X0306320Y0243815D01*
X0306233Y0243964D01*
X0306151Y0244114D01*
X0306071Y0244267D01*
X0305996Y0244421D01*
X0305925Y0244577D01*
X0305857Y0244735D01*
X0305793Y0244895D01*
X0305733Y0245056D01*
X0305677Y0245218D01*
X0305625Y0245382D01*
X0305578Y0245547D01*
X0305534Y0245713D01*
X0305494Y0245880D01*
X0305459Y0246048D01*
X0305427Y0246217D01*
X0305400Y0246387D01*
X0305377Y0246557D01*
X0305358Y0246728D01*
X0305343Y0246899D01*
X0305332Y0247071D01*
X0305326Y0247242D01*
X0305324Y0247414D01*
D11*
X0299348Y0229659D02*
X0297814Y0229659D01*
X0297046Y0228892D01*
X0298581Y0227357D02*
X0299348Y0227357D01*
X0300116Y0226590D01*
X0300116Y0225822D01*
X0299348Y0225055D01*
X0297814Y0225055D01*
X0297046Y0225822D01*
X0295512Y0225055D02*
X0292443Y0225055D01*
X0293977Y0225055D02*
X0293977Y0229659D01*
X0292443Y0228124D01*
X0290908Y0227357D02*
X0290141Y0226590D01*
X0287839Y0226590D01*
X0289373Y0226590D02*
X0290908Y0225055D01*
X0290908Y0227357D02*
X0290908Y0228892D01*
X0290141Y0229659D01*
X0287839Y0229659D01*
X0287839Y0225055D01*
X0299348Y0227357D02*
X0300116Y0228124D01*
X0300116Y0228892D01*
X0299348Y0229659D01*
X0299348Y0213911D02*
X0297046Y0211609D01*
X0300116Y0211609D01*
X0299348Y0209307D02*
X0299348Y0213911D01*
X0305284Y0210348D02*
X0307586Y0210348D01*
X0308354Y0209581D01*
X0308354Y0206511D01*
X0307586Y0205744D01*
X0305284Y0205744D01*
X0305284Y0210348D01*
X0309888Y0209581D02*
X0309888Y0206511D01*
X0310655Y0205744D01*
X0312190Y0205744D01*
X0312957Y0206511D01*
X0312957Y0209581D01*
X0312190Y0210348D01*
X0310655Y0210348D01*
X0309888Y0209581D01*
X0314492Y0210348D02*
X0317561Y0205744D01*
X0317561Y0210348D01*
X0319096Y0210348D02*
X0319096Y0205744D01*
X0322165Y0205744D01*
X0320631Y0208046D02*
X0319096Y0208046D01*
X0319096Y0210348D02*
X0322165Y0210348D01*
X0314492Y0210348D02*
X0314492Y0205744D01*
X0314492Y0202474D02*
X0316794Y0202474D01*
X0317561Y0201707D01*
X0317561Y0200172D01*
X0316794Y0199405D01*
X0314492Y0199405D01*
X0316027Y0199405D02*
X0317561Y0197870D01*
X0319096Y0198637D02*
X0319096Y0201707D01*
X0319863Y0202474D01*
X0321398Y0202474D01*
X0322165Y0201707D01*
X0322165Y0200172D02*
X0320631Y0200172D01*
X0322165Y0200172D02*
X0322165Y0198637D01*
X0321398Y0197870D01*
X0319863Y0197870D01*
X0319096Y0198637D01*
X0319863Y0194600D02*
X0319096Y0193833D01*
X0319096Y0190763D01*
X0319863Y0189996D01*
X0321398Y0189996D01*
X0322165Y0190763D01*
X0322165Y0192298D01*
X0320631Y0192298D01*
X0322165Y0193833D02*
X0321398Y0194600D01*
X0319863Y0194600D01*
X0317561Y0193833D02*
X0317561Y0192298D01*
X0316794Y0191531D01*
X0314492Y0191531D01*
X0316027Y0191531D02*
X0317561Y0189996D01*
X0314492Y0189996D02*
X0314492Y0194600D01*
X0316794Y0194600D01*
X0317561Y0193833D01*
X0312957Y0194600D02*
X0312957Y0189996D01*
X0311423Y0191531D01*
X0309888Y0189996D01*
X0309888Y0194600D01*
X0308354Y0193833D02*
X0308354Y0192298D01*
X0307586Y0191531D01*
X0305284Y0191531D01*
X0305284Y0189996D02*
X0305284Y0194600D01*
X0307586Y0194600D01*
X0308354Y0193833D01*
X0307586Y0197870D02*
X0306052Y0197870D01*
X0305284Y0198637D01*
X0305284Y0201707D01*
X0306052Y0202474D01*
X0307586Y0202474D01*
X0308354Y0201707D01*
X0309888Y0202474D02*
X0309888Y0197870D01*
X0308354Y0198637D02*
X0307586Y0197870D01*
X0309888Y0200172D02*
X0312957Y0200172D01*
X0312957Y0202474D02*
X0312957Y0197870D01*
X0314492Y0197870D02*
X0314492Y0202474D01*
X0300116Y0197396D02*
X0300116Y0194326D01*
X0299348Y0193559D01*
X0297814Y0193559D01*
X0297046Y0194326D01*
X0300116Y0197396D01*
X0299348Y0198163D01*
X0297814Y0198163D01*
X0297046Y0197396D01*
X0297046Y0194326D01*
X0295512Y0193559D02*
X0292443Y0193559D01*
X0293977Y0193559D02*
X0293977Y0198163D01*
X0292443Y0196628D01*
X0290908Y0195861D02*
X0290908Y0197396D01*
X0290141Y0198163D01*
X0287839Y0198163D01*
X0287839Y0193559D01*
X0287839Y0195094D02*
X0290141Y0195094D01*
X0290908Y0195861D01*
X0289373Y0195094D02*
X0290908Y0193559D01*
X0275827Y0185085D02*
X0275059Y0185852D01*
X0273525Y0185852D01*
X0272757Y0185085D01*
X0272757Y0184317D01*
X0273525Y0183550D01*
X0275827Y0183550D01*
X0275827Y0182015D02*
X0275827Y0185085D01*
X0271223Y0185085D02*
X0270455Y0185852D01*
X0268921Y0185852D01*
X0268154Y0185085D01*
X0268154Y0182015D01*
X0268921Y0181248D01*
X0270455Y0181248D01*
X0271223Y0182015D01*
X0272757Y0182015D02*
X0273525Y0181248D01*
X0275059Y0181248D01*
X0275827Y0182015D01*
X0248569Y0182191D02*
X0247034Y0180657D01*
X0247034Y0181424D02*
X0247034Y0179122D01*
X0248569Y0179122D02*
X0243965Y0179122D01*
X0243965Y0181424D01*
X0244732Y0182191D01*
X0246267Y0182191D01*
X0247034Y0181424D01*
X0247801Y0183726D02*
X0248569Y0184493D01*
X0248569Y0186028D01*
X0247801Y0186795D01*
X0247034Y0186795D01*
X0246267Y0186028D01*
X0246267Y0185261D01*
X0246267Y0186028D02*
X0245499Y0186795D01*
X0244732Y0186795D01*
X0243965Y0186028D01*
X0243965Y0184493D01*
X0244732Y0183726D01*
X0246267Y0188330D02*
X0244732Y0189865D01*
X0243965Y0191399D01*
X0246267Y0190632D02*
X0246267Y0188330D01*
X0247801Y0188330D01*
X0248569Y0189097D01*
X0248569Y0190632D01*
X0247801Y0191399D01*
X0247034Y0191399D01*
X0246267Y0190632D01*
X0230305Y0207306D02*
X0227236Y0207306D01*
X0226469Y0208074D01*
X0226469Y0209608D01*
X0227236Y0210376D01*
X0228003Y0211910D02*
X0226469Y0213445D01*
X0231072Y0213445D01*
X0231072Y0211910D02*
X0231072Y0214980D01*
X0230305Y0216514D02*
X0228770Y0216514D01*
X0228770Y0218816D01*
X0229538Y0219583D01*
X0230305Y0219583D01*
X0231072Y0218816D01*
X0231072Y0217281D01*
X0230305Y0216514D01*
X0228770Y0216514D02*
X0227236Y0218049D01*
X0226469Y0219583D01*
X0236091Y0220593D02*
X0236091Y0222128D01*
X0236858Y0222895D01*
X0237625Y0222895D01*
X0238393Y0222128D01*
X0239160Y0222895D01*
X0239927Y0222895D01*
X0240694Y0222128D01*
X0240694Y0220593D01*
X0239927Y0219826D01*
X0240694Y0218291D02*
X0240694Y0215222D01*
X0237625Y0218291D01*
X0236858Y0218291D01*
X0236091Y0217524D01*
X0236091Y0215989D01*
X0236858Y0215222D01*
X0236858Y0213687D02*
X0238393Y0213687D01*
X0239160Y0212920D01*
X0239160Y0210618D01*
X0240694Y0210618D02*
X0236091Y0210618D01*
X0236091Y0212920D01*
X0236858Y0213687D01*
X0239160Y0212153D02*
X0240694Y0213687D01*
X0236858Y0219826D02*
X0236091Y0220593D01*
X0238393Y0221361D02*
X0238393Y0222128D01*
X0251839Y0221361D02*
X0256443Y0221361D01*
X0256443Y0222895D02*
X0256443Y0219826D01*
X0256443Y0218291D02*
X0256443Y0215222D01*
X0253373Y0218291D01*
X0252606Y0218291D01*
X0251839Y0217524D01*
X0251839Y0215989D01*
X0252606Y0215222D01*
X0252606Y0213687D02*
X0254141Y0213687D01*
X0254908Y0212920D01*
X0254908Y0210618D01*
X0256443Y0210618D02*
X0251839Y0210618D01*
X0251839Y0212920D01*
X0252606Y0213687D01*
X0254908Y0212153D02*
X0256443Y0213687D01*
X0253373Y0219826D02*
X0251839Y0221361D01*
X0231072Y0209608D02*
X0230305Y0210376D01*
X0231072Y0209608D02*
X0231072Y0208074D01*
X0230305Y0207306D01*
X0203513Y0207806D02*
X0198909Y0207806D01*
X0198909Y0210108D01*
X0199677Y0210876D01*
X0201211Y0210876D01*
X0201979Y0210108D01*
X0201979Y0207806D01*
X0201979Y0209341D02*
X0203513Y0210876D01*
X0203513Y0212410D02*
X0200444Y0215480D01*
X0199677Y0215480D01*
X0198909Y0214712D01*
X0198909Y0213178D01*
X0199677Y0212410D01*
X0203513Y0212410D02*
X0203513Y0215480D01*
X0203513Y0217014D02*
X0200444Y0220083D01*
X0199677Y0220083D01*
X0198909Y0219316D01*
X0198909Y0217781D01*
X0199677Y0217014D01*
X0203513Y0217014D02*
X0203513Y0220083D01*
X0205457Y0229366D02*
X0205457Y0233970D01*
X0203922Y0233970D02*
X0206992Y0233970D01*
X0208526Y0233970D02*
X0208526Y0229366D01*
X0211596Y0229366D01*
X0213130Y0229366D02*
X0213130Y0233970D01*
X0215432Y0233970D01*
X0216200Y0233203D01*
X0216200Y0231668D01*
X0215432Y0230901D01*
X0213130Y0230901D01*
X0214665Y0230901D02*
X0216200Y0229366D01*
X0219269Y0229366D02*
X0219269Y0231668D01*
X0220803Y0233203D01*
X0220803Y0233970D01*
X0219269Y0231668D02*
X0217734Y0233203D01*
X0217734Y0233970D01*
X0211596Y0233970D02*
X0208526Y0233970D01*
X0208526Y0231668D02*
X0210061Y0231668D01*
X0202388Y0233970D02*
X0199318Y0233970D01*
X0200853Y0233970D02*
X0200853Y0229366D01*
X0197784Y0229366D02*
X0197784Y0232435D01*
X0196249Y0233970D01*
X0194715Y0232435D01*
X0194715Y0229366D01*
X0193180Y0230133D02*
X0192413Y0229366D01*
X0190111Y0229366D01*
X0190111Y0233970D01*
X0192413Y0233970D01*
X0193180Y0233203D01*
X0193180Y0232435D01*
X0192413Y0231668D01*
X0190111Y0231668D01*
X0188265Y0230627D02*
X0188265Y0229092D01*
X0187498Y0228325D01*
X0186731Y0228325D01*
X0185963Y0229092D01*
X0185963Y0230627D01*
X0186731Y0231394D01*
X0187498Y0231394D01*
X0188265Y0230627D01*
X0185963Y0230627D02*
X0185196Y0231394D01*
X0184429Y0231394D01*
X0183661Y0230627D01*
X0183661Y0229092D01*
X0184429Y0228325D01*
X0185196Y0228325D01*
X0185963Y0229092D01*
X0185196Y0226791D02*
X0184429Y0226791D01*
X0183661Y0226023D01*
X0183661Y0224489D01*
X0184429Y0223721D01*
X0184429Y0222187D02*
X0185963Y0222187D01*
X0186731Y0221419D01*
X0186731Y0219117D01*
X0188265Y0219117D02*
X0183661Y0219117D01*
X0183661Y0221419D01*
X0184429Y0222187D01*
X0186731Y0220652D02*
X0188265Y0222187D01*
X0188265Y0223721D02*
X0185196Y0226791D01*
X0188265Y0226791D02*
X0188265Y0223721D01*
X0193180Y0230133D02*
X0193180Y0230901D01*
X0192413Y0231668D01*
X0194715Y0231668D02*
X0197784Y0231668D01*
X0188265Y0207772D02*
X0188265Y0204703D01*
X0185196Y0207772D01*
X0184429Y0207772D01*
X0183661Y0207005D01*
X0183661Y0205470D01*
X0184429Y0204703D01*
X0184429Y0203169D02*
X0185963Y0203169D01*
X0186731Y0202401D01*
X0186731Y0200099D01*
X0186913Y0200763D02*
X0187681Y0199996D01*
X0189215Y0199996D01*
X0189983Y0200763D01*
X0189983Y0203833D01*
X0189215Y0204600D01*
X0187681Y0204600D01*
X0186913Y0203833D01*
X0186913Y0200763D01*
X0186731Y0201634D02*
X0188265Y0203169D01*
X0188448Y0201531D02*
X0189983Y0199996D01*
X0191517Y0199996D02*
X0194587Y0199996D01*
X0193052Y0199996D02*
X0193052Y0204600D01*
X0191517Y0203065D01*
X0188265Y0200099D02*
X0183661Y0200099D01*
X0183661Y0202401D01*
X0184429Y0203169D01*
X0166257Y0203735D02*
X0163955Y0203735D01*
X0163188Y0204502D01*
X0163188Y0205270D01*
X0163955Y0206037D01*
X0165490Y0206037D01*
X0166257Y0205270D01*
X0166257Y0202200D01*
X0165490Y0201433D01*
X0163955Y0201433D01*
X0163188Y0202200D01*
X0161654Y0201433D02*
X0158584Y0201433D01*
X0161654Y0204502D01*
X0161654Y0205270D01*
X0160886Y0206037D01*
X0159352Y0206037D01*
X0158584Y0205270D01*
X0157050Y0205270D02*
X0157050Y0203735D01*
X0156282Y0202968D01*
X0153980Y0202968D01*
X0153980Y0201433D02*
X0153980Y0206037D01*
X0156282Y0206037D01*
X0157050Y0205270D01*
X0155515Y0202968D02*
X0157050Y0201433D01*
X0156774Y0217024D02*
X0155239Y0218558D01*
X0156007Y0218558D02*
X0153705Y0218558D01*
X0153705Y0217024D02*
X0153705Y0221628D01*
X0156007Y0221628D01*
X0156774Y0220860D01*
X0156774Y0219326D01*
X0156007Y0218558D01*
X0158309Y0217791D02*
X0159076Y0217024D01*
X0160611Y0217024D01*
X0161378Y0217791D01*
X0161378Y0218558D01*
X0160611Y0219326D01*
X0159843Y0219326D01*
X0160611Y0219326D02*
X0161378Y0220093D01*
X0161378Y0220860D01*
X0160611Y0221628D01*
X0159076Y0221628D01*
X0158309Y0220860D01*
X0162913Y0221628D02*
X0162913Y0219326D01*
X0164447Y0220093D01*
X0165215Y0220093D01*
X0165982Y0219326D01*
X0165982Y0217791D01*
X0165215Y0217024D01*
X0163680Y0217024D01*
X0162913Y0217791D01*
X0162913Y0221628D02*
X0165982Y0221628D01*
X0161063Y0232772D02*
X0157994Y0232772D01*
X0159528Y0232772D02*
X0159528Y0237376D01*
X0157994Y0235841D01*
X0156459Y0236608D02*
X0156459Y0235074D01*
X0155692Y0234306D01*
X0153390Y0234306D01*
X0153390Y0232772D02*
X0153390Y0237376D01*
X0155692Y0237376D01*
X0156459Y0236608D01*
X0154924Y0234306D02*
X0156459Y0232772D01*
X0156282Y0248177D02*
X0157050Y0248944D01*
X0156282Y0248177D02*
X0154748Y0248177D01*
X0153980Y0248944D01*
X0153980Y0252014D01*
X0154748Y0252781D01*
X0156282Y0252781D01*
X0157050Y0252014D01*
X0158584Y0252014D02*
X0159352Y0252781D01*
X0160886Y0252781D01*
X0161654Y0252014D01*
X0161654Y0251246D01*
X0160886Y0250479D01*
X0159352Y0250479D01*
X0158584Y0251246D01*
X0158584Y0252014D01*
X0159352Y0250479D02*
X0158584Y0249712D01*
X0158584Y0248944D01*
X0159352Y0248177D01*
X0160886Y0248177D01*
X0161654Y0248944D01*
X0161654Y0249712D01*
X0160886Y0250479D01*
X0133092Y0248793D02*
X0133092Y0245724D01*
X0132324Y0244957D01*
X0130022Y0244957D01*
X0130022Y0249561D01*
X0132324Y0249561D01*
X0133092Y0248793D01*
X0128488Y0249561D02*
X0125419Y0244957D01*
X0128488Y0244957D02*
X0125419Y0249561D01*
X0123884Y0249561D02*
X0120815Y0249561D01*
X0122349Y0249561D02*
X0122349Y0244957D01*
X0123117Y0239561D02*
X0120815Y0239561D01*
X0120815Y0234957D01*
X0120815Y0236491D02*
X0123117Y0236491D01*
X0123884Y0237259D01*
X0123884Y0238793D01*
X0123117Y0239561D01*
X0125419Y0239561D02*
X0128488Y0234957D01*
X0130022Y0234957D02*
X0132324Y0234957D01*
X0133092Y0235724D01*
X0133092Y0238793D01*
X0132324Y0239561D01*
X0130022Y0239561D01*
X0130022Y0234957D01*
X0125419Y0234957D02*
X0128488Y0239561D01*
X0123884Y0234957D02*
X0122349Y0236491D01*
X0123884Y0229561D02*
X0123117Y0228793D01*
X0123117Y0225724D01*
X0123884Y0224957D01*
X0125419Y0224957D01*
X0126186Y0225724D01*
X0126186Y0228793D01*
X0125419Y0229561D01*
X0123884Y0229561D01*
X0127720Y0229561D02*
X0127720Y0224957D01*
X0130790Y0224957D01*
X0129255Y0227259D02*
X0127720Y0227259D01*
X0127720Y0229561D02*
X0130790Y0229561D01*
X0127720Y0219561D02*
X0127720Y0214957D01*
X0130790Y0214957D01*
X0126186Y0215724D02*
X0125419Y0214957D01*
X0123884Y0214957D01*
X0123117Y0215724D01*
X0123117Y0218793D01*
X0123884Y0219561D01*
X0125419Y0219561D01*
X0126186Y0218793D01*
X0126186Y0209561D02*
X0127720Y0209561D01*
X0128488Y0208793D01*
X0125419Y0205724D01*
X0126186Y0204957D01*
X0127720Y0204957D01*
X0128488Y0205724D01*
X0128488Y0208793D01*
X0126186Y0209561D02*
X0125419Y0208793D01*
X0125419Y0205724D01*
X0124651Y0189561D02*
X0124651Y0184957D01*
X0123117Y0184957D02*
X0126186Y0184957D01*
X0127720Y0185724D02*
X0128488Y0184957D01*
X0130022Y0184957D01*
X0130790Y0185724D01*
X0130790Y0187259D01*
X0130022Y0188026D01*
X0129255Y0188026D01*
X0127720Y0187259D01*
X0127720Y0189561D01*
X0130790Y0189561D01*
X0124651Y0189561D02*
X0123117Y0188026D01*
X0123117Y0179561D02*
X0121582Y0179561D01*
X0120815Y0178793D01*
X0120815Y0175724D01*
X0121582Y0174957D01*
X0123117Y0174957D01*
X0123884Y0175724D01*
X0123884Y0177259D01*
X0122349Y0177259D01*
X0123884Y0178793D02*
X0123117Y0179561D01*
X0125419Y0179561D02*
X0128488Y0174957D01*
X0128488Y0179561D01*
X0130022Y0179561D02*
X0132324Y0179561D01*
X0133092Y0178793D01*
X0133092Y0175724D01*
X0132324Y0174957D01*
X0130022Y0174957D01*
X0130022Y0179561D01*
X0125419Y0179561D02*
X0125419Y0174957D01*
X0143831Y0176327D02*
X0144598Y0175560D01*
X0143831Y0176327D02*
X0143831Y0177862D01*
X0144598Y0178629D01*
X0145365Y0178629D01*
X0148435Y0175560D01*
X0148435Y0178629D01*
X0146133Y0180164D02*
X0146133Y0183233D01*
X0148435Y0182466D02*
X0143831Y0182466D01*
X0146133Y0180164D01*
X0146133Y0174025D02*
X0144598Y0174025D01*
X0143831Y0173258D01*
X0143831Y0170956D01*
X0148435Y0170956D01*
X0146900Y0170956D02*
X0146900Y0173258D01*
X0146133Y0174025D01*
X0146900Y0172491D02*
X0148435Y0174025D01*
X0183161Y0173307D02*
X0183929Y0172540D01*
X0186998Y0172540D01*
X0187765Y0173307D01*
X0187765Y0174842D01*
X0186998Y0175609D01*
X0187765Y0177144D02*
X0184696Y0180213D01*
X0183929Y0180213D01*
X0183161Y0179446D01*
X0183161Y0177911D01*
X0183929Y0177144D01*
X0183929Y0175609D02*
X0183161Y0174842D01*
X0183161Y0173307D01*
X0187765Y0177144D02*
X0187765Y0180213D01*
X0200095Y0175906D02*
X0203698Y0175906D01*
X0203698Y0174705D02*
X0203698Y0177107D01*
X0201296Y0174705D02*
X0200095Y0175906D01*
X0200095Y0173424D02*
X0203098Y0173424D01*
X0203698Y0172824D01*
X0203698Y0171623D01*
X0203098Y0171022D01*
X0200095Y0171022D01*
X0193450Y0155032D02*
X0188846Y0155032D01*
X0191148Y0152730D01*
X0191148Y0155799D01*
X0187765Y0155824D02*
X0187765Y0154289D01*
X0186998Y0153522D01*
X0186998Y0151987D02*
X0187765Y0151220D01*
X0187765Y0149685D01*
X0186998Y0148918D01*
X0183929Y0148918D01*
X0183161Y0149685D01*
X0183161Y0151220D01*
X0183929Y0151987D01*
X0183929Y0153522D02*
X0183161Y0154289D01*
X0183161Y0155824D01*
X0183929Y0156591D01*
X0184696Y0156591D01*
X0185463Y0155824D01*
X0186231Y0156591D01*
X0186998Y0156591D01*
X0187765Y0155824D01*
X0185463Y0155824D02*
X0185463Y0155057D01*
X0189614Y0151195D02*
X0188846Y0150428D01*
X0188846Y0148893D01*
X0189614Y0148126D01*
X0192683Y0148126D01*
X0193450Y0148893D01*
X0193450Y0150428D01*
X0192683Y0151195D01*
X0189115Y0143438D02*
X0189115Y0137300D01*
X0188348Y0138067D02*
X0189882Y0138067D01*
X0190650Y0138834D01*
X0190650Y0139602D01*
X0189882Y0140369D01*
X0188348Y0140369D01*
X0187580Y0141136D01*
X0187580Y0141904D01*
X0188348Y0142671D01*
X0189882Y0142671D01*
X0190650Y0141904D01*
X0192184Y0141904D02*
X0192952Y0142671D01*
X0194486Y0142671D01*
X0195254Y0141904D01*
X0195254Y0141136D01*
X0194486Y0140369D01*
X0195254Y0139602D01*
X0195254Y0138834D01*
X0194486Y0138067D01*
X0192952Y0138067D01*
X0192184Y0138834D01*
X0193719Y0140369D02*
X0194486Y0140369D01*
X0188348Y0138067D02*
X0187580Y0138834D01*
X0186046Y0138834D02*
X0186046Y0142671D01*
X0182976Y0142671D02*
X0182976Y0138834D01*
X0183744Y0138067D01*
X0185278Y0138067D01*
X0186046Y0138834D01*
X0161654Y0126130D02*
X0158584Y0126130D01*
X0160119Y0126130D02*
X0160119Y0130734D01*
X0158584Y0129199D01*
X0157050Y0129967D02*
X0156282Y0130734D01*
X0154748Y0130734D01*
X0153980Y0129967D01*
X0153980Y0126897D01*
X0154748Y0126130D01*
X0156282Y0126130D01*
X0157050Y0126897D01*
X0158084Y0114986D02*
X0158084Y0112684D01*
X0159619Y0113451D01*
X0160386Y0113451D01*
X0161154Y0112684D01*
X0161154Y0111149D01*
X0160386Y0110382D01*
X0158852Y0110382D01*
X0158084Y0111149D01*
X0156550Y0110382D02*
X0155015Y0111917D01*
X0155782Y0111917D02*
X0153480Y0111917D01*
X0153480Y0110382D02*
X0153480Y0114986D01*
X0155782Y0114986D01*
X0156550Y0114218D01*
X0156550Y0112684D01*
X0155782Y0111917D01*
X0158084Y0114986D02*
X0161154Y0114986D01*
X0160886Y0099738D02*
X0159352Y0099738D01*
X0158584Y0098970D01*
X0158584Y0098203D01*
X0159352Y0097436D01*
X0161654Y0097436D01*
X0161654Y0098970D02*
X0161654Y0095901D01*
X0160886Y0095134D01*
X0159352Y0095134D01*
X0158584Y0095901D01*
X0157050Y0095134D02*
X0155515Y0096668D01*
X0156282Y0096668D02*
X0153980Y0096668D01*
X0153980Y0095134D02*
X0153980Y0099738D01*
X0156282Y0099738D01*
X0157050Y0098970D01*
X0157050Y0097436D01*
X0156282Y0096668D01*
X0160886Y0099738D02*
X0161654Y0098970D01*
X0182976Y0108508D02*
X0184511Y0108508D01*
X0183744Y0108508D02*
X0183744Y0113112D01*
X0184511Y0113112D02*
X0182976Y0113112D01*
X0186046Y0112344D02*
X0186046Y0109275D01*
X0186813Y0108508D01*
X0188348Y0108508D01*
X0189115Y0109275D01*
X0190650Y0108508D02*
X0193719Y0111577D01*
X0193719Y0112344D01*
X0192952Y0113112D01*
X0191417Y0113112D01*
X0190650Y0112344D01*
X0189115Y0112344D02*
X0188348Y0113112D01*
X0186813Y0113112D01*
X0186046Y0112344D01*
X0190650Y0108508D02*
X0193719Y0108508D01*
X0183929Y0073914D02*
X0186998Y0070845D01*
X0187765Y0070845D01*
X0186998Y0069310D02*
X0187765Y0068543D01*
X0187765Y0067008D01*
X0186998Y0066241D01*
X0183929Y0066241D01*
X0183161Y0067008D01*
X0183161Y0068543D01*
X0183929Y0069310D01*
X0183161Y0070845D02*
X0183161Y0073914D01*
X0183929Y0073914D01*
X0181363Y0037494D02*
X0179829Y0037494D01*
X0179061Y0036726D01*
X0177527Y0036726D02*
X0177527Y0035959D01*
X0176759Y0035192D01*
X0177527Y0034424D01*
X0177527Y0033657D01*
X0176759Y0032890D01*
X0175225Y0032890D01*
X0174457Y0033657D01*
X0172923Y0032890D02*
X0171388Y0034424D01*
X0172156Y0034424D02*
X0169854Y0034424D01*
X0169854Y0032890D02*
X0169854Y0037494D01*
X0172156Y0037494D01*
X0172923Y0036726D01*
X0172923Y0035192D01*
X0172156Y0034424D01*
X0174457Y0036726D02*
X0175225Y0037494D01*
X0176759Y0037494D01*
X0177527Y0036726D01*
X0176759Y0035192D02*
X0175992Y0035192D01*
X0179061Y0032890D02*
X0182131Y0035959D01*
X0182131Y0036726D01*
X0181363Y0037494D01*
X0182131Y0032890D02*
X0179061Y0032890D01*
X0189539Y0032890D02*
X0189539Y0037494D01*
X0191841Y0037494D01*
X0192608Y0036726D01*
X0192608Y0035192D01*
X0191841Y0034424D01*
X0189539Y0034424D01*
X0191073Y0034424D02*
X0192608Y0032890D01*
X0194143Y0033657D02*
X0194910Y0032890D01*
X0196444Y0032890D01*
X0197212Y0033657D01*
X0197212Y0034424D01*
X0196444Y0035192D01*
X0195677Y0035192D01*
X0196444Y0035192D02*
X0197212Y0035959D01*
X0197212Y0036726D01*
X0196444Y0037494D01*
X0194910Y0037494D01*
X0194143Y0036726D01*
X0198746Y0036726D02*
X0199514Y0037494D01*
X0201048Y0037494D01*
X0201816Y0036726D01*
X0201816Y0035959D01*
X0201048Y0035192D01*
X0201816Y0034424D01*
X0201816Y0033657D01*
X0201048Y0032890D01*
X0199514Y0032890D01*
X0198746Y0033657D01*
X0200281Y0035192D02*
X0201048Y0035192D01*
X0209224Y0034424D02*
X0211526Y0034424D01*
X0212293Y0035192D01*
X0212293Y0036726D01*
X0211526Y0037494D01*
X0209224Y0037494D01*
X0209224Y0032890D01*
X0210758Y0034424D02*
X0212293Y0032890D01*
X0213828Y0033657D02*
X0214595Y0032890D01*
X0216130Y0032890D01*
X0216897Y0033657D01*
X0216897Y0034424D01*
X0216130Y0035192D01*
X0215362Y0035192D01*
X0216130Y0035192D02*
X0216897Y0035959D01*
X0216897Y0036726D01*
X0216130Y0037494D01*
X0214595Y0037494D01*
X0213828Y0036726D01*
X0218431Y0035192D02*
X0221501Y0035192D01*
X0220733Y0037494D02*
X0218431Y0035192D01*
X0220733Y0032890D02*
X0220733Y0037494D01*
X0162446Y0032890D02*
X0159376Y0032890D01*
X0160911Y0032890D02*
X0160911Y0037494D01*
X0159376Y0035959D01*
X0157842Y0035959D02*
X0157074Y0035192D01*
X0157842Y0034424D01*
X0157842Y0033657D01*
X0157074Y0032890D01*
X0155540Y0032890D01*
X0154772Y0033657D01*
X0153238Y0032890D02*
X0151703Y0034424D01*
X0152470Y0034424D02*
X0150169Y0034424D01*
X0150169Y0032890D02*
X0150169Y0037494D01*
X0152470Y0037494D01*
X0153238Y0036726D01*
X0153238Y0035192D01*
X0152470Y0034424D01*
X0154772Y0036726D02*
X0155540Y0037494D01*
X0157074Y0037494D01*
X0157842Y0036726D01*
X0157842Y0035959D01*
X0157074Y0035192D02*
X0156307Y0035192D01*
X0142761Y0036726D02*
X0142761Y0033657D01*
X0141993Y0032890D01*
X0140459Y0032890D01*
X0139691Y0033657D01*
X0142761Y0036726D01*
X0141993Y0037494D01*
X0140459Y0037494D01*
X0139691Y0036726D01*
X0139691Y0033657D01*
X0138157Y0033657D02*
X0137389Y0032890D01*
X0135855Y0032890D01*
X0135087Y0033657D01*
X0133553Y0032890D02*
X0132018Y0034424D01*
X0132785Y0034424D02*
X0130483Y0034424D01*
X0130483Y0032890D02*
X0130483Y0037494D01*
X0132785Y0037494D01*
X0133553Y0036726D01*
X0133553Y0035192D01*
X0132785Y0034424D01*
X0135087Y0036726D02*
X0135855Y0037494D01*
X0137389Y0037494D01*
X0138157Y0036726D01*
X0138157Y0035959D01*
X0137389Y0035192D01*
X0138157Y0034424D01*
X0138157Y0033657D01*
X0137389Y0035192D02*
X0136622Y0035192D01*
X0117754Y0064917D02*
X0113917Y0064917D01*
X0113917Y0067987D02*
X0117754Y0067987D01*
X0118521Y0067219D01*
X0118521Y0065685D01*
X0117754Y0064917D01*
X0117754Y0069521D02*
X0118521Y0070289D01*
X0118521Y0071823D01*
X0117754Y0072591D01*
X0116987Y0072591D01*
X0116219Y0071823D01*
X0116219Y0070289D01*
X0115452Y0069521D01*
X0114685Y0069521D01*
X0113917Y0070289D01*
X0113917Y0071823D01*
X0114685Y0072591D01*
X0114685Y0074125D02*
X0113917Y0074892D01*
X0113917Y0076427D01*
X0114685Y0077194D01*
X0115452Y0077194D01*
X0118521Y0074125D01*
X0118521Y0077194D01*
X0117754Y0078729D02*
X0118521Y0079496D01*
X0118521Y0081031D01*
X0117754Y0081798D01*
X0116987Y0081798D01*
X0116219Y0081031D01*
X0116219Y0080264D01*
X0116219Y0081031D02*
X0115452Y0081798D01*
X0114685Y0081798D01*
X0113917Y0081031D01*
X0113917Y0079496D01*
X0114685Y0078729D01*
X0113150Y0071056D02*
X0119289Y0071056D01*
X0067165Y0122960D02*
X0066398Y0122193D01*
X0064863Y0122193D01*
X0064096Y0122960D01*
X0062561Y0122960D02*
X0061794Y0122193D01*
X0060259Y0122193D01*
X0059492Y0122960D01*
X0059492Y0126030D01*
X0060259Y0126797D01*
X0061794Y0126797D01*
X0062561Y0126030D01*
X0064096Y0126797D02*
X0064096Y0124495D01*
X0065631Y0125262D01*
X0066398Y0125262D01*
X0067165Y0124495D01*
X0067165Y0122960D01*
X0067165Y0126797D02*
X0064096Y0126797D01*
X0063854Y0135752D02*
X0062319Y0137287D01*
X0063086Y0137287D02*
X0060784Y0137287D01*
X0060784Y0135752D02*
X0060784Y0140356D01*
X0063086Y0140356D01*
X0063854Y0139589D01*
X0063854Y0138054D01*
X0063086Y0137287D01*
X0065388Y0138054D02*
X0067690Y0138054D01*
X0068457Y0137287D01*
X0068457Y0136519D01*
X0067690Y0135752D01*
X0066155Y0135752D01*
X0065388Y0136519D01*
X0065388Y0138054D01*
X0066923Y0139589D01*
X0068457Y0140356D01*
X0083739Y0155437D02*
X0083739Y0160041D01*
X0086041Y0160041D01*
X0086809Y0159274D01*
X0086809Y0157739D01*
X0086041Y0156972D01*
X0083739Y0156972D01*
X0085274Y0156972D02*
X0086809Y0155437D01*
X0088343Y0155437D02*
X0091413Y0158506D01*
X0091413Y0159274D01*
X0090645Y0160041D01*
X0089111Y0160041D01*
X0088343Y0159274D01*
X0088343Y0155437D02*
X0091413Y0155437D01*
X0092947Y0156204D02*
X0093715Y0155437D01*
X0095249Y0155437D01*
X0096017Y0156204D01*
X0096017Y0157739D01*
X0095249Y0158506D01*
X0094482Y0158506D01*
X0092947Y0157739D01*
X0092947Y0160041D01*
X0096017Y0160041D01*
X0082913Y0159161D02*
X0082146Y0159928D01*
X0079844Y0159928D01*
X0079844Y0158393D01*
X0080611Y0157626D01*
X0082146Y0157626D01*
X0082913Y0158393D01*
X0082913Y0159161D01*
X0081379Y0161463D02*
X0079844Y0159928D01*
X0078309Y0161463D02*
X0077542Y0162230D01*
X0076007Y0162230D01*
X0075240Y0161463D01*
X0075240Y0158393D01*
X0076007Y0157626D01*
X0077542Y0157626D01*
X0078309Y0158393D01*
X0081379Y0161463D02*
X0082913Y0162230D01*
X0064520Y0171952D02*
X0063753Y0171185D01*
X0062218Y0171185D01*
X0061451Y0171952D01*
X0061451Y0172720D01*
X0062218Y0173487D01*
X0063753Y0173487D01*
X0064520Y0172720D01*
X0064520Y0171952D01*
X0063753Y0173487D02*
X0064520Y0174254D01*
X0064520Y0175022D01*
X0063753Y0175789D01*
X0062218Y0175789D01*
X0061451Y0175022D01*
X0061451Y0174254D01*
X0062218Y0173487D01*
X0059917Y0173487D02*
X0059917Y0175022D01*
X0059149Y0175789D01*
X0056847Y0175789D01*
X0056847Y0171185D01*
X0056847Y0172720D02*
X0059149Y0172720D01*
X0059917Y0173487D01*
X0058382Y0172720D02*
X0059917Y0171185D01*
X0038221Y0151360D02*
X0035152Y0148291D01*
X0035919Y0147524D01*
X0037454Y0147524D01*
X0038221Y0148291D01*
X0038221Y0151360D01*
X0037454Y0152128D01*
X0035919Y0152128D01*
X0035152Y0151360D01*
X0035152Y0148291D01*
X0033617Y0147524D02*
X0030548Y0147524D01*
X0033617Y0150593D01*
X0033617Y0151360D01*
X0032850Y0152128D01*
X0031315Y0152128D01*
X0030548Y0151360D01*
X0029013Y0151360D02*
X0029013Y0149826D01*
X0028246Y0149058D01*
X0025944Y0149058D01*
X0025944Y0147524D02*
X0025944Y0152128D01*
X0028246Y0152128D01*
X0029013Y0151360D01*
X0027479Y0149058D02*
X0029013Y0147524D01*
X0022411Y0144780D02*
X0022411Y0141711D01*
X0022411Y0140176D02*
X0022411Y0137107D01*
X0022411Y0138642D02*
X0017807Y0138642D01*
X0019342Y0137107D01*
X0018574Y0135572D02*
X0017807Y0134805D01*
X0017807Y0133270D01*
X0018574Y0132503D01*
X0021644Y0132503D01*
X0022411Y0133270D01*
X0022411Y0134805D01*
X0021644Y0135572D01*
X0025496Y0130860D02*
X0025496Y0127023D01*
X0026263Y0126256D01*
X0027798Y0126256D01*
X0028565Y0127023D01*
X0028565Y0130860D01*
X0030100Y0130093D02*
X0030867Y0130860D01*
X0032402Y0130860D01*
X0033169Y0130093D01*
X0034704Y0130093D02*
X0035471Y0130860D01*
X0037006Y0130860D01*
X0037773Y0130093D01*
X0037773Y0129325D01*
X0034704Y0126256D01*
X0037773Y0126256D01*
X0033169Y0127023D02*
X0033169Y0127791D01*
X0032402Y0128558D01*
X0030867Y0128558D01*
X0030100Y0129325D01*
X0030100Y0130093D01*
X0031635Y0131627D02*
X0031635Y0125489D01*
X0032402Y0126256D02*
X0030867Y0126256D01*
X0030100Y0127023D01*
X0032402Y0126256D02*
X0033169Y0127023D01*
X0019342Y0141711D02*
X0017807Y0143246D01*
X0022411Y0143246D01*
X0008411Y0128907D02*
X0008411Y0125838D01*
X0005342Y0128907D01*
X0004574Y0128907D01*
X0003807Y0128140D01*
X0003807Y0126605D01*
X0004574Y0125838D01*
X0003807Y0122768D02*
X0008411Y0122768D01*
X0008411Y0121234D02*
X0008411Y0124303D01*
X0005342Y0121234D02*
X0003807Y0122768D01*
X0004574Y0119699D02*
X0003807Y0118932D01*
X0003807Y0117397D01*
X0004574Y0116630D01*
X0007644Y0116630D01*
X0008411Y0117397D01*
X0008411Y0118932D01*
X0007644Y0119699D01*
X0007054Y0174957D02*
X0005519Y0174957D01*
X0004752Y0175724D01*
X0006286Y0177259D02*
X0007054Y0177259D01*
X0007821Y0176491D01*
X0007821Y0175724D01*
X0007054Y0174957D01*
X0007054Y0177259D02*
X0007821Y0178026D01*
X0007821Y0178793D01*
X0007054Y0179561D01*
X0005519Y0179561D01*
X0004752Y0178793D01*
X0009356Y0179561D02*
X0009356Y0176491D01*
X0010890Y0174957D01*
X0012425Y0176491D01*
X0012425Y0179561D01*
X0013959Y0178793D02*
X0014727Y0179561D01*
X0016261Y0179561D01*
X0017029Y0178793D01*
X0017029Y0178026D01*
X0016261Y0177259D01*
X0017029Y0176491D01*
X0017029Y0175724D01*
X0016261Y0174957D01*
X0014727Y0174957D01*
X0013959Y0175724D01*
X0015494Y0177259D02*
X0016261Y0177259D01*
X0013959Y0184957D02*
X0012425Y0184957D01*
X0011657Y0185724D01*
X0010123Y0184957D02*
X0007054Y0184957D01*
X0008588Y0184957D02*
X0008588Y0189561D01*
X0007054Y0188026D01*
X0011657Y0188793D02*
X0012425Y0189561D01*
X0013959Y0189561D01*
X0014727Y0188793D01*
X0014727Y0188026D01*
X0013959Y0187259D01*
X0014727Y0186491D01*
X0014727Y0185724D01*
X0013959Y0184957D01*
X0013959Y0187259D02*
X0013192Y0187259D01*
X0011657Y0194957D02*
X0014727Y0198026D01*
X0014727Y0198793D01*
X0013959Y0199561D01*
X0012425Y0199561D01*
X0011657Y0198793D01*
X0008588Y0199561D02*
X0008588Y0194957D01*
X0007054Y0194957D02*
X0010123Y0194957D01*
X0011657Y0194957D02*
X0014727Y0194957D01*
X0008588Y0199561D02*
X0007054Y0198026D01*
X0007054Y0204957D02*
X0010123Y0204957D01*
X0008588Y0204957D02*
X0008588Y0209561D01*
X0007054Y0208026D01*
X0011657Y0207259D02*
X0014727Y0207259D01*
X0013959Y0204957D02*
X0013959Y0209561D01*
X0011657Y0207259D01*
X0012425Y0214957D02*
X0011657Y0215724D01*
X0011657Y0217259D01*
X0013959Y0217259D01*
X0014727Y0216491D01*
X0014727Y0215724D01*
X0013959Y0214957D01*
X0012425Y0214957D01*
X0010123Y0214957D02*
X0007054Y0214957D01*
X0008588Y0214957D02*
X0008588Y0219561D01*
X0007054Y0218026D01*
X0011657Y0217259D02*
X0013192Y0218793D01*
X0014727Y0219561D01*
X0014727Y0234957D02*
X0016261Y0234957D01*
X0017029Y0235724D01*
X0014727Y0234957D02*
X0013959Y0235724D01*
X0013959Y0238793D01*
X0014727Y0239561D01*
X0016261Y0239561D01*
X0017029Y0238793D01*
X0012425Y0238793D02*
X0012425Y0235724D01*
X0011657Y0234957D01*
X0009356Y0234957D01*
X0009356Y0239561D01*
X0011657Y0239561D01*
X0012425Y0238793D01*
X0007821Y0238026D02*
X0007821Y0234957D01*
X0007821Y0237259D02*
X0004752Y0237259D01*
X0004752Y0238026D02*
X0006286Y0239561D01*
X0007821Y0238026D01*
X0004752Y0238026D02*
X0004752Y0234957D01*
X0004752Y0244957D02*
X0004752Y0249561D01*
X0007054Y0249561D01*
X0007821Y0248793D01*
X0007821Y0247259D01*
X0007054Y0246491D01*
X0004752Y0246491D01*
X0006286Y0246491D02*
X0007821Y0244957D01*
X0009356Y0245724D02*
X0010123Y0244957D01*
X0011657Y0244957D01*
X0012425Y0245724D01*
X0012425Y0246491D01*
X0011657Y0247259D01*
X0010123Y0247259D01*
X0009356Y0248026D01*
X0009356Y0248793D01*
X0010123Y0249561D01*
X0011657Y0249561D01*
X0012425Y0248793D01*
X0013959Y0249561D02*
X0017029Y0249561D01*
X0015494Y0249561D02*
X0015494Y0244957D01*
X0088673Y0141343D02*
X0089441Y0141343D01*
X0092510Y0138274D01*
X0093277Y0138274D01*
X0093277Y0136739D02*
X0091743Y0135205D01*
X0091743Y0135972D02*
X0091743Y0133670D01*
X0093277Y0133670D02*
X0088673Y0133670D01*
X0088673Y0135972D01*
X0089441Y0136739D01*
X0090975Y0136739D01*
X0091743Y0135972D01*
X0088673Y0138274D02*
X0088673Y0141343D01*
X0101583Y0128143D02*
X0103118Y0128143D01*
X0103885Y0127376D01*
X0103885Y0124307D01*
X0103118Y0123539D01*
X0101583Y0123539D01*
X0100816Y0124307D01*
X0100816Y0127376D01*
X0101583Y0128143D01*
X0102350Y0125074D02*
X0103885Y0123539D01*
X0105420Y0123539D02*
X0108489Y0126609D01*
X0108489Y0127376D01*
X0107722Y0128143D01*
X0106187Y0128143D01*
X0105420Y0127376D01*
X0105420Y0123539D02*
X0108489Y0123539D01*
X0234843Y0141044D02*
X0234843Y0143346D01*
X0235610Y0144113D01*
X0237145Y0144113D01*
X0237912Y0143346D01*
X0237912Y0141044D01*
X0239446Y0141044D02*
X0234843Y0141044D01*
X0237912Y0142579D02*
X0239446Y0144113D01*
X0238679Y0145648D02*
X0239446Y0146415D01*
X0239446Y0147950D01*
X0238679Y0148717D01*
X0237912Y0148717D01*
X0237145Y0147950D01*
X0237145Y0147183D01*
X0237145Y0147950D02*
X0236377Y0148717D01*
X0235610Y0148717D01*
X0234843Y0147950D01*
X0234843Y0146415D01*
X0235610Y0145648D01*
X0245933Y0144155D02*
X0245933Y0141086D01*
X0246700Y0139551D02*
X0247468Y0139551D01*
X0248235Y0138784D01*
X0249002Y0139551D01*
X0249770Y0139551D01*
X0250537Y0138784D01*
X0250537Y0137249D01*
X0249770Y0136482D01*
X0250537Y0134947D02*
X0249002Y0133413D01*
X0249002Y0134180D02*
X0249002Y0131878D01*
X0250537Y0131878D02*
X0245933Y0131878D01*
X0245933Y0134180D01*
X0246700Y0134947D01*
X0248235Y0134947D01*
X0249002Y0134180D01*
X0246700Y0136482D02*
X0245933Y0137249D01*
X0245933Y0138784D01*
X0246700Y0139551D01*
X0248235Y0138784D02*
X0248235Y0138017D01*
X0249770Y0141086D02*
X0250537Y0141086D01*
X0249770Y0141086D02*
X0246700Y0144155D01*
X0245933Y0144155D01*
X0247034Y0155500D02*
X0247034Y0157802D01*
X0246267Y0158569D01*
X0244732Y0158569D01*
X0243965Y0157802D01*
X0243965Y0155500D01*
X0248569Y0155500D01*
X0247034Y0157035D02*
X0248569Y0158569D01*
X0247801Y0160104D02*
X0248569Y0160871D01*
X0248569Y0162406D01*
X0247801Y0163173D01*
X0247034Y0163173D01*
X0246267Y0162406D01*
X0246267Y0161639D01*
X0246267Y0162406D02*
X0245499Y0163173D01*
X0244732Y0163173D01*
X0243965Y0162406D01*
X0243965Y0160871D01*
X0244732Y0160104D01*
X0244732Y0164708D02*
X0245499Y0164708D01*
X0246267Y0165475D01*
X0246267Y0167010D01*
X0247034Y0167777D01*
X0247801Y0167777D01*
X0248569Y0167010D01*
X0248569Y0165475D01*
X0247801Y0164708D01*
X0247034Y0164708D01*
X0246267Y0165475D01*
X0246267Y0167010D02*
X0245499Y0167777D01*
X0244732Y0167777D01*
X0243965Y0167010D01*
X0243965Y0165475D01*
X0244732Y0164708D01*
X0239446Y0168603D02*
X0234843Y0168603D01*
X0234843Y0170905D01*
X0235610Y0171672D01*
X0237145Y0171672D01*
X0237912Y0170905D01*
X0237912Y0168603D01*
X0237912Y0170138D02*
X0239446Y0171672D01*
X0237145Y0173207D02*
X0237145Y0176276D01*
X0239446Y0175509D02*
X0234843Y0175509D01*
X0237145Y0173207D01*
X0287839Y0209307D02*
X0287839Y0213911D01*
X0290141Y0213911D01*
X0290908Y0213144D01*
X0290908Y0211609D01*
X0290141Y0210842D01*
X0287839Y0210842D01*
X0289373Y0210842D02*
X0290908Y0209307D01*
X0292443Y0209307D02*
X0295512Y0209307D01*
X0293977Y0209307D02*
X0293977Y0213911D01*
X0292443Y0212376D01*
X0255569Y0246280D02*
X0250965Y0246280D01*
X0250965Y0248582D01*
X0251732Y0249350D01*
X0252499Y0249350D01*
X0253267Y0248582D01*
X0253267Y0246280D01*
X0255569Y0246280D02*
X0255569Y0248582D01*
X0254801Y0249350D01*
X0254034Y0249350D01*
X0253267Y0248582D01*
X0251732Y0250884D02*
X0254801Y0250884D01*
X0255569Y0251652D01*
X0255569Y0253186D01*
X0254801Y0253954D01*
X0251732Y0253954D01*
X0250965Y0253186D01*
X0250965Y0251652D01*
X0251732Y0250884D01*
X0251732Y0255488D02*
X0254801Y0255488D01*
X0255569Y0256255D01*
X0255569Y0257790D01*
X0254801Y0258557D01*
X0251732Y0258557D01*
X0250965Y0257790D01*
X0250965Y0256255D01*
X0251732Y0255488D01*
X0250965Y0260092D02*
X0250965Y0263161D01*
X0250965Y0261627D02*
X0255569Y0261627D01*
X0358765Y0194974D02*
X0358765Y0190370D01*
X0358765Y0191905D02*
X0361067Y0191905D01*
X0361835Y0192672D01*
X0361835Y0194207D01*
X0361067Y0194974D01*
X0358765Y0194974D01*
X0363369Y0194207D02*
X0363369Y0191137D01*
X0364137Y0190370D01*
X0365671Y0190370D01*
X0366439Y0191137D01*
X0366439Y0194207D01*
X0365671Y0194974D01*
X0364137Y0194974D01*
X0363369Y0194207D01*
X0367973Y0194974D02*
X0367973Y0190370D01*
X0369508Y0191905D01*
X0371043Y0190370D01*
X0371043Y0194974D01*
X0372577Y0194974D02*
X0372577Y0190370D01*
X0375646Y0190370D01*
X0377181Y0190370D02*
X0377181Y0194974D01*
X0379483Y0194974D01*
X0380250Y0194207D01*
X0380250Y0192672D01*
X0379483Y0191905D01*
X0377181Y0191905D01*
X0378716Y0191905D02*
X0380250Y0190370D01*
X0381785Y0191137D02*
X0382552Y0190370D01*
X0384087Y0190370D01*
X0384854Y0191137D01*
X0384854Y0192672D01*
X0383320Y0192672D01*
X0384854Y0194207D02*
X0384087Y0194974D01*
X0382552Y0194974D01*
X0381785Y0194207D01*
X0381785Y0191137D01*
X0386389Y0191137D02*
X0386389Y0194207D01*
X0387156Y0194974D01*
X0388691Y0194974D01*
X0389458Y0194207D01*
X0389458Y0191137D01*
X0388691Y0190370D01*
X0387156Y0190370D01*
X0386389Y0191137D01*
X0390993Y0191137D02*
X0391760Y0190370D01*
X0393295Y0190370D01*
X0394062Y0191137D01*
X0394062Y0194207D01*
X0393295Y0194974D01*
X0391760Y0194974D01*
X0390993Y0194207D01*
X0390993Y0191137D01*
X0395597Y0190370D02*
X0397899Y0190370D01*
X0398666Y0191137D01*
X0398666Y0194207D01*
X0397899Y0194974D01*
X0395597Y0194974D01*
X0395597Y0190370D01*
X0375646Y0194974D02*
X0372577Y0194974D01*
X0372577Y0192672D02*
X0374112Y0192672D01*
D12*
X0341241Y0196554D02*
X0338773Y0196554D01*
X0340007Y0195320D02*
X0340007Y0197789D01*
X0340007Y0203194D02*
X0340007Y0205663D01*
X0338773Y0204428D02*
X0341241Y0204428D01*
X0340007Y0189915D02*
X0340007Y0187446D01*
X0338773Y0188680D02*
X0341241Y0188680D01*
X0341969Y0141030D02*
X0341969Y0138561D01*
X0338266Y0138561D01*
X0338266Y0137347D02*
X0338266Y0134878D01*
X0341969Y0134878D01*
X0341969Y0137347D01*
X0340117Y0136113D02*
X0340117Y0134878D01*
X0338266Y0133664D02*
X0341969Y0133664D01*
X0338266Y0131195D01*
X0341969Y0131195D01*
X0341969Y0129981D02*
X0339500Y0129981D01*
X0338266Y0128746D01*
X0339500Y0127512D01*
X0341969Y0127512D01*
X0340117Y0127512D02*
X0340117Y0129981D01*
X0340117Y0126298D02*
X0340735Y0125680D01*
X0340735Y0123829D01*
X0341969Y0123829D02*
X0338266Y0123829D01*
X0338266Y0125680D01*
X0338883Y0126298D01*
X0340117Y0126298D01*
X0264006Y0158450D02*
X0260870Y0158450D01*
X0264006Y0161586D01*
X0264006Y0162370D01*
X0263222Y0163154D01*
X0261654Y0163154D01*
X0260870Y0162370D01*
X0259403Y0163154D02*
X0259403Y0159234D01*
X0258619Y0158450D01*
X0257051Y0158450D01*
X0256267Y0159234D01*
X0256267Y0163154D01*
X0213837Y0164041D02*
X0210701Y0167177D01*
X0210701Y0165609D02*
X0213837Y0165609D01*
X0213837Y0167177D02*
X0210701Y0164041D01*
X0212269Y0164041D02*
X0212269Y0167177D01*
X0142755Y0199496D02*
X0142138Y0198879D01*
X0140904Y0198879D01*
X0140287Y0199496D01*
X0139072Y0198879D02*
X0136603Y0198879D01*
X0137838Y0198879D02*
X0137838Y0202582D01*
X0136603Y0201348D01*
X0135389Y0201965D02*
X0134772Y0202582D01*
X0133537Y0202582D01*
X0132920Y0201965D01*
X0132920Y0201348D01*
X0133537Y0200731D01*
X0134772Y0200731D01*
X0135389Y0200114D01*
X0135389Y0199496D01*
X0134772Y0198879D01*
X0133537Y0198879D01*
X0132920Y0199496D01*
X0133822Y0199110D02*
X0133822Y0195407D01*
X0131354Y0199110D01*
X0131354Y0195407D01*
X0130139Y0195407D02*
X0127670Y0195407D01*
X0127670Y0199110D01*
X0130139Y0199110D01*
X0129854Y0198879D02*
X0129237Y0199496D01*
X0129237Y0202582D01*
X0131706Y0202582D02*
X0131706Y0199496D01*
X0131089Y0198879D01*
X0129854Y0198879D01*
X0128905Y0197258D02*
X0127670Y0197258D01*
X0126456Y0194790D02*
X0123987Y0194790D01*
X0122773Y0196024D02*
X0122156Y0195407D01*
X0120304Y0195407D01*
X0120304Y0199110D01*
X0122156Y0199110D01*
X0122773Y0198493D01*
X0122773Y0197875D01*
X0122156Y0197258D01*
X0120304Y0197258D01*
X0122156Y0197258D02*
X0122773Y0196641D01*
X0122773Y0196024D01*
X0134155Y0198262D02*
X0134155Y0203199D01*
X0140287Y0201965D02*
X0140904Y0202582D01*
X0142138Y0202582D01*
X0142755Y0201965D01*
X0142755Y0201348D01*
X0142138Y0200731D01*
X0142755Y0200114D01*
X0142755Y0199496D01*
X0142138Y0200731D02*
X0141521Y0200731D01*
X0262609Y0263290D02*
X0265078Y0263290D01*
X0263844Y0264524D02*
X0263844Y0262055D01*
X0017962Y0228225D02*
X0017962Y0226290D01*
X0017478Y0225807D01*
X0016027Y0225807D01*
X0016027Y0228709D01*
X0017478Y0228709D01*
X0017962Y0228225D01*
X0015016Y0228225D02*
X0015016Y0227258D01*
X0014532Y0226774D01*
X0013081Y0226774D01*
X0013081Y0225807D02*
X0013081Y0228709D01*
X0014532Y0228709D01*
X0015016Y0228225D01*
X0012069Y0225323D02*
X0010134Y0225323D01*
X0009123Y0225807D02*
X0009123Y0228709D01*
X0009123Y0227258D02*
X0007188Y0227258D01*
X0006176Y0228225D02*
X0005692Y0228709D01*
X0004725Y0228709D01*
X0004241Y0228225D01*
X0004241Y0226290D01*
X0004725Y0225807D01*
X0005692Y0225807D01*
X0006176Y0226290D01*
X0007188Y0225807D02*
X0007188Y0228709D01*
X0159817Y0060565D02*
X0159817Y0058138D01*
X0161030Y0056924D01*
X0162243Y0058138D01*
X0162243Y0060565D01*
X0163442Y0060565D02*
X0165262Y0060565D01*
X0165869Y0059958D01*
X0165869Y0058744D01*
X0165262Y0058138D01*
X0163442Y0058138D01*
X0164655Y0058138D02*
X0165869Y0056924D01*
X0167067Y0056924D02*
X0169494Y0056924D01*
X0168280Y0056924D02*
X0168280Y0060565D01*
X0167067Y0059351D01*
X0163442Y0060565D02*
X0163442Y0056924D01*
D13*
X0024922Y0049383D02*
X0024922Y0096627D01*
X0024924Y0096693D01*
X0024929Y0096759D01*
X0024939Y0096825D01*
X0024952Y0096890D01*
X0024968Y0096954D01*
X0024988Y0097017D01*
X0025012Y0097079D01*
X0025039Y0097139D01*
X0025069Y0097198D01*
X0025103Y0097255D01*
X0025140Y0097310D01*
X0025180Y0097363D01*
X0025222Y0097414D01*
X0025268Y0097462D01*
X0025316Y0097508D01*
X0025367Y0097550D01*
X0025420Y0097590D01*
X0025475Y0097627D01*
X0025532Y0097661D01*
X0025591Y0097691D01*
X0025651Y0097718D01*
X0025713Y0097742D01*
X0025776Y0097762D01*
X0025840Y0097778D01*
X0025905Y0097791D01*
X0025971Y0097801D01*
X0026037Y0097806D01*
X0026103Y0097808D01*
X0026891Y0097808D01*
X0031221Y0097808D02*
X0037127Y0097808D01*
X0037193Y0097806D01*
X0037259Y0097801D01*
X0037325Y0097791D01*
X0037390Y0097778D01*
X0037454Y0097762D01*
X0037517Y0097742D01*
X0037579Y0097718D01*
X0037639Y0097691D01*
X0037698Y0097661D01*
X0037755Y0097627D01*
X0037810Y0097590D01*
X0037863Y0097550D01*
X0037914Y0097508D01*
X0037962Y0097462D01*
X0038008Y0097414D01*
X0038050Y0097363D01*
X0038090Y0097310D01*
X0038127Y0097255D01*
X0038161Y0097198D01*
X0038191Y0097139D01*
X0038218Y0097079D01*
X0038242Y0097017D01*
X0038262Y0096954D01*
X0038278Y0096890D01*
X0038291Y0096825D01*
X0038301Y0096759D01*
X0038306Y0096693D01*
X0038308Y0096627D01*
X0038308Y0049383D01*
X0038306Y0049317D01*
X0038301Y0049251D01*
X0038291Y0049185D01*
X0038278Y0049120D01*
X0038262Y0049056D01*
X0038242Y0048993D01*
X0038218Y0048931D01*
X0038191Y0048871D01*
X0038161Y0048812D01*
X0038127Y0048755D01*
X0038090Y0048700D01*
X0038050Y0048647D01*
X0038008Y0048596D01*
X0037962Y0048548D01*
X0037914Y0048502D01*
X0037863Y0048460D01*
X0037810Y0048420D01*
X0037755Y0048383D01*
X0037698Y0048349D01*
X0037639Y0048319D01*
X0037579Y0048292D01*
X0037517Y0048268D01*
X0037454Y0048248D01*
X0037390Y0048232D01*
X0037325Y0048219D01*
X0037259Y0048209D01*
X0037193Y0048204D01*
X0037127Y0048202D01*
X0031221Y0048202D01*
X0026103Y0048202D02*
X0026037Y0048204D01*
X0025971Y0048209D01*
X0025905Y0048219D01*
X0025840Y0048232D01*
X0025776Y0048248D01*
X0025713Y0048268D01*
X0025651Y0048292D01*
X0025591Y0048319D01*
X0025532Y0048349D01*
X0025475Y0048383D01*
X0025420Y0048420D01*
X0025367Y0048460D01*
X0025316Y0048502D01*
X0025268Y0048548D01*
X0025222Y0048596D01*
X0025180Y0048647D01*
X0025140Y0048700D01*
X0025103Y0048755D01*
X0025069Y0048812D01*
X0025039Y0048871D01*
X0025012Y0048931D01*
X0024988Y0048993D01*
X0024968Y0049056D01*
X0024952Y0049120D01*
X0024939Y0049185D01*
X0024929Y0049251D01*
X0024924Y0049317D01*
X0024922Y0049383D01*
X0069534Y0093995D02*
X0073288Y0093995D01*
X0074038Y0094746D01*
X0074038Y0096247D01*
X0073288Y0096997D01*
X0069534Y0096997D01*
X0070285Y0098599D02*
X0069534Y0099349D01*
X0069534Y0100851D01*
X0070285Y0101601D01*
X0071786Y0100851D02*
X0072537Y0101601D01*
X0073288Y0101601D01*
X0074038Y0100851D01*
X0074038Y0099349D01*
X0073288Y0098599D01*
X0071786Y0099349D02*
X0071036Y0098599D01*
X0070285Y0098599D01*
X0071786Y0099349D02*
X0071786Y0100851D01*
X0071036Y0103203D02*
X0069534Y0104704D01*
X0074038Y0104704D01*
X0074038Y0103203D02*
X0074038Y0106205D01*
X0074038Y0107807D02*
X0071036Y0110809D01*
X0070285Y0110809D01*
X0069534Y0110059D01*
X0069534Y0108557D01*
X0070285Y0107807D01*
X0074038Y0107807D02*
X0074038Y0110809D01*
X0074789Y0100100D02*
X0068784Y0100100D01*
X0117141Y0132021D02*
X0117891Y0131270D01*
X0119392Y0131270D01*
X0120143Y0132021D01*
X0120143Y0135774D01*
X0121744Y0135024D02*
X0121744Y0134273D01*
X0122495Y0133522D01*
X0123996Y0133522D01*
X0124747Y0132772D01*
X0124747Y0132021D01*
X0123996Y0131270D01*
X0122495Y0131270D01*
X0121744Y0132021D01*
X0123246Y0130520D02*
X0123246Y0136525D01*
X0123996Y0135774D02*
X0124747Y0135024D01*
X0123996Y0135774D02*
X0122495Y0135774D01*
X0121744Y0135024D01*
X0117141Y0135774D02*
X0117141Y0132021D01*
X0126348Y0132021D02*
X0126348Y0131270D01*
X0126348Y0132021D02*
X0129351Y0135024D01*
X0129351Y0135774D01*
X0126348Y0135774D01*
X0123246Y0146268D02*
X0123246Y0152273D01*
X0123996Y0151522D02*
X0124747Y0150772D01*
X0123996Y0151522D02*
X0122495Y0151522D01*
X0121744Y0150772D01*
X0121744Y0150021D01*
X0122495Y0149270D01*
X0123996Y0149270D01*
X0124747Y0148520D01*
X0124747Y0147769D01*
X0123996Y0147019D01*
X0122495Y0147019D01*
X0121744Y0147769D01*
X0120143Y0147769D02*
X0120143Y0151522D01*
X0117141Y0151522D02*
X0117141Y0147769D01*
X0117891Y0147019D01*
X0119392Y0147019D01*
X0120143Y0147769D01*
X0126348Y0147769D02*
X0127099Y0147019D01*
X0128600Y0147019D01*
X0129351Y0147769D01*
X0129351Y0148520D01*
X0128600Y0149270D01*
X0126348Y0149270D01*
X0126348Y0147769D01*
X0126348Y0149270D02*
X0127850Y0150772D01*
X0129351Y0151522D01*
X0113603Y0155643D02*
X0112852Y0154893D01*
X0111351Y0154893D01*
X0110600Y0155643D01*
X0110600Y0156394D01*
X0111351Y0157144D01*
X0112852Y0157144D01*
X0113603Y0156394D01*
X0113603Y0155643D01*
X0112852Y0157144D02*
X0113603Y0157895D01*
X0113603Y0158646D01*
X0112852Y0159396D01*
X0111351Y0159396D01*
X0110600Y0158646D01*
X0110600Y0157895D01*
X0111351Y0157144D01*
X0108999Y0156394D02*
X0108248Y0157144D01*
X0106747Y0157144D01*
X0105996Y0157895D01*
X0105996Y0158646D01*
X0106747Y0159396D01*
X0108248Y0159396D01*
X0108999Y0158646D01*
X0107498Y0160147D02*
X0107498Y0154142D01*
X0108248Y0154893D02*
X0108999Y0155643D01*
X0108999Y0156394D01*
X0108248Y0154893D02*
X0106747Y0154893D01*
X0105996Y0155643D01*
X0104395Y0155643D02*
X0104395Y0159396D01*
X0101393Y0159396D02*
X0101393Y0155643D01*
X0102143Y0154893D01*
X0103644Y0154893D01*
X0104395Y0155643D01*
X0099725Y0184422D02*
X0036733Y0184422D01*
X0036733Y0278910D01*
X0099725Y0278910D01*
X0099725Y0184422D01*
X0091851Y0189146D02*
X0044607Y0189146D01*
X0044607Y0248202D01*
X0091851Y0248202D01*
X0091851Y0189146D01*
X0137828Y0223209D02*
X0137828Y0237209D01*
X0143828Y0237209D01*
X0143828Y0223209D01*
X0137828Y0223209D01*
X0182402Y0247414D02*
X0182402Y0263162D01*
X0185749Y0257257D02*
X0185749Y0247414D01*
X0182402Y0247414D01*
X0185749Y0257257D02*
X0191261Y0257257D01*
X0205040Y0257257D02*
X0210552Y0257257D01*
X0210552Y0247414D01*
X0213898Y0247414D01*
X0213898Y0263162D01*
X0207009Y0276942D02*
X0189292Y0276942D01*
X0143775Y0266833D02*
X0140773Y0266833D01*
X0142274Y0266833D02*
X0142274Y0271337D01*
X0140773Y0269835D01*
X0139171Y0269085D02*
X0138421Y0268334D01*
X0136169Y0268334D01*
X0136169Y0266833D02*
X0136169Y0271337D01*
X0138421Y0271337D01*
X0139171Y0270586D01*
X0139171Y0269085D01*
X0134568Y0271337D02*
X0133066Y0271337D01*
X0133817Y0271337D02*
X0133817Y0267583D01*
X0133066Y0266833D01*
X0132316Y0266833D01*
X0131565Y0267583D01*
X0206961Y0222918D02*
X0212961Y0222918D01*
X0212961Y0208918D01*
X0206961Y0208918D01*
X0206961Y0222918D01*
X0215930Y0197965D02*
X0215932Y0198004D01*
X0215938Y0198043D01*
X0215948Y0198081D01*
X0215961Y0198118D01*
X0215978Y0198153D01*
X0215998Y0198187D01*
X0216022Y0198218D01*
X0216049Y0198247D01*
X0216078Y0198273D01*
X0216110Y0198296D01*
X0216144Y0198316D01*
X0216180Y0198332D01*
X0216217Y0198344D01*
X0216256Y0198353D01*
X0216295Y0198358D01*
X0216334Y0198359D01*
X0216373Y0198356D01*
X0216412Y0198349D01*
X0216449Y0198338D01*
X0216486Y0198324D01*
X0216521Y0198306D01*
X0216554Y0198285D01*
X0216585Y0198260D01*
X0216613Y0198233D01*
X0216638Y0198203D01*
X0216660Y0198170D01*
X0216679Y0198136D01*
X0216694Y0198100D01*
X0216706Y0198062D01*
X0216714Y0198024D01*
X0216718Y0197985D01*
X0216718Y0197945D01*
X0216714Y0197906D01*
X0216706Y0197868D01*
X0216694Y0197830D01*
X0216679Y0197794D01*
X0216660Y0197760D01*
X0216638Y0197727D01*
X0216613Y0197697D01*
X0216585Y0197670D01*
X0216554Y0197645D01*
X0216521Y0197624D01*
X0216486Y0197606D01*
X0216449Y0197592D01*
X0216412Y0197581D01*
X0216373Y0197574D01*
X0216334Y0197571D01*
X0216295Y0197572D01*
X0216256Y0197577D01*
X0216217Y0197586D01*
X0216180Y0197598D01*
X0216144Y0197614D01*
X0216110Y0197634D01*
X0216078Y0197657D01*
X0216049Y0197683D01*
X0216022Y0197712D01*
X0215998Y0197743D01*
X0215978Y0197777D01*
X0215961Y0197812D01*
X0215948Y0197849D01*
X0215938Y0197887D01*
X0215932Y0197926D01*
X0215930Y0197965D01*
X0168426Y0186194D02*
X0168426Y0166902D01*
X0149135Y0166902D01*
X0149135Y0186194D01*
X0168426Y0186194D01*
X0168426Y0158635D02*
X0149135Y0158635D01*
X0149135Y0139343D01*
X0168426Y0139343D01*
X0168426Y0158635D01*
X0260141Y0080897D02*
X0260891Y0079396D01*
X0262393Y0077895D01*
X0262393Y0080147D01*
X0263143Y0080897D01*
X0263894Y0080897D01*
X0264644Y0080147D01*
X0264644Y0078646D01*
X0263894Y0077895D01*
X0262393Y0077895D01*
X0263143Y0076294D02*
X0263894Y0076294D01*
X0264644Y0075543D01*
X0264644Y0074042D01*
X0263894Y0073291D01*
X0262393Y0074042D02*
X0262393Y0075543D01*
X0263143Y0076294D01*
X0260891Y0076294D02*
X0260141Y0075543D01*
X0260141Y0074042D01*
X0260891Y0073291D01*
X0261642Y0073291D01*
X0262393Y0074042D01*
X0269828Y0058007D02*
X0269078Y0057256D01*
X0269078Y0056505D01*
X0269828Y0055755D01*
X0271329Y0055755D01*
X0272080Y0055004D01*
X0272080Y0054253D01*
X0271329Y0053503D01*
X0269828Y0053503D01*
X0269078Y0054253D01*
X0269828Y0058007D02*
X0271329Y0058007D01*
X0272080Y0057256D01*
X0273681Y0058007D02*
X0273681Y0055755D01*
X0275183Y0056505D01*
X0275933Y0056505D01*
X0276684Y0055755D01*
X0276684Y0054253D01*
X0275933Y0053503D01*
X0274432Y0053503D01*
X0273681Y0054253D01*
X0273681Y0058007D02*
X0276684Y0058007D01*
X0283870Y0054752D02*
X0283870Y0054001D01*
X0284620Y0053251D01*
X0286122Y0053251D01*
X0286872Y0052500D01*
X0286872Y0051749D01*
X0286122Y0050999D01*
X0284620Y0050999D01*
X0283870Y0051749D01*
X0283870Y0054752D02*
X0284620Y0055503D01*
X0286122Y0055503D01*
X0286872Y0054752D01*
X0288474Y0055503D02*
X0291476Y0055503D01*
X0291476Y0054752D01*
X0288474Y0051749D01*
X0288474Y0050999D01*
X0297007Y0059249D02*
X0297757Y0058499D01*
X0298508Y0058499D01*
X0299259Y0059249D01*
X0299259Y0060751D01*
X0300009Y0061501D01*
X0300760Y0061501D01*
X0301511Y0060751D01*
X0301511Y0059249D01*
X0300760Y0058499D01*
X0297007Y0059249D02*
X0297007Y0060751D01*
X0297757Y0061501D01*
X0299259Y0063103D02*
X0299259Y0066105D01*
X0301511Y0065355D02*
X0297007Y0065355D01*
X0299259Y0063103D01*
X0298889Y0098778D02*
X0297387Y0098778D01*
X0296637Y0099529D01*
X0297387Y0101030D02*
X0298889Y0101030D01*
X0299639Y0100280D01*
X0299639Y0099529D01*
X0298889Y0098778D01*
X0301241Y0099529D02*
X0301991Y0098778D01*
X0303492Y0098778D01*
X0304243Y0099529D01*
X0304243Y0100280D01*
X0303492Y0101030D01*
X0302742Y0101030D01*
X0303492Y0101030D02*
X0304243Y0101781D01*
X0304243Y0102532D01*
X0303492Y0103282D01*
X0301991Y0103282D01*
X0301241Y0102532D01*
X0299639Y0102532D02*
X0298889Y0103282D01*
X0297387Y0103282D01*
X0296637Y0102532D01*
X0296637Y0101781D01*
X0297387Y0101030D01*
X0310355Y0145052D02*
X0310355Y0148398D01*
X0320198Y0148398D01*
X0320198Y0153910D01*
X0326103Y0145052D02*
X0310355Y0145052D01*
X0298150Y0153713D02*
X0298150Y0154501D01*
X0298150Y0153713D02*
X0296182Y0153713D01*
X0298150Y0159225D02*
X0298150Y0160013D01*
X0296182Y0160013D01*
X0289095Y0160013D02*
X0287127Y0160013D01*
X0287127Y0159225D01*
X0287127Y0154501D02*
X0287127Y0153713D01*
X0289095Y0153713D01*
X0310355Y0173202D02*
X0310355Y0176548D01*
X0326103Y0176548D01*
X0320198Y0173202D02*
X0310355Y0173202D01*
X0320198Y0173202D02*
X0320198Y0167690D01*
X0339883Y0169658D02*
X0339883Y0151942D01*
X0299327Y0234708D02*
X0300078Y0235459D01*
X0300078Y0236960D01*
X0299327Y0237711D01*
X0298576Y0237711D01*
X0297826Y0236960D01*
X0297826Y0235459D01*
X0297075Y0234708D01*
X0296324Y0234708D01*
X0295574Y0235459D01*
X0295574Y0236960D01*
X0296324Y0237711D01*
X0297075Y0239312D02*
X0295574Y0240813D01*
X0300078Y0240813D01*
X0300078Y0239312D02*
X0300078Y0242315D01*
X0266078Y0243271D02*
X0266078Y0240268D01*
X0263075Y0243271D01*
X0262324Y0243271D01*
X0261574Y0242520D01*
X0261574Y0241019D01*
X0262324Y0240268D01*
X0262324Y0238667D02*
X0261574Y0237916D01*
X0261574Y0236415D01*
X0262324Y0235664D01*
X0263075Y0235664D01*
X0263826Y0236415D01*
X0263826Y0237916D01*
X0264576Y0238667D01*
X0265327Y0238667D01*
X0266078Y0237916D01*
X0266078Y0236415D01*
X0265327Y0235664D01*
X0161536Y0076154D02*
X0150906Y0076154D01*
X0150906Y0074580D01*
X0150906Y0065918D02*
X0150906Y0064343D01*
X0161536Y0064343D01*
X0122038Y0045401D02*
X0122038Y0042399D01*
X0122038Y0043900D02*
X0117534Y0043900D01*
X0119036Y0042399D01*
X0122038Y0040797D02*
X0122038Y0037795D01*
X0122038Y0039296D02*
X0117534Y0039296D01*
X0119036Y0037795D01*
X0118285Y0036194D02*
X0117534Y0035443D01*
X0117534Y0033942D01*
X0118285Y0033191D01*
X0119036Y0033191D01*
X0119786Y0033942D01*
X0119786Y0035443D01*
X0120537Y0036194D01*
X0121288Y0036194D01*
X0122038Y0035443D01*
X0122038Y0033942D01*
X0121288Y0033191D01*
X0121288Y0031590D02*
X0117534Y0031590D01*
X0117534Y0028587D02*
X0121288Y0028587D01*
X0122038Y0029338D01*
X0122038Y0030839D01*
X0121288Y0031590D01*
X0122789Y0034692D02*
X0116784Y0034692D01*
X0216644Y0007754D02*
X0218145Y0007754D01*
X0217394Y0007754D02*
X0217394Y0003250D01*
X0216644Y0003250D02*
X0218145Y0003250D01*
X0219713Y0003250D02*
X0219713Y0007754D01*
X0222716Y0003250D01*
X0222716Y0007754D01*
X0224317Y0007754D02*
X0226569Y0007754D01*
X0227319Y0007003D01*
X0227319Y0005502D01*
X0226569Y0004751D01*
X0224317Y0004751D01*
X0224317Y0003250D02*
X0224317Y0007754D01*
X0228921Y0007754D02*
X0228921Y0004001D01*
X0229671Y0003250D01*
X0231173Y0003250D01*
X0231923Y0004001D01*
X0231923Y0007754D01*
X0233525Y0007754D02*
X0236527Y0007754D01*
X0235026Y0007754D02*
X0235026Y0003250D01*
X0238129Y0003250D02*
X0238129Y0007754D01*
X0240381Y0007754D01*
X0241131Y0007003D01*
X0241131Y0006253D01*
X0240381Y0005502D01*
X0238129Y0005502D01*
X0240381Y0005502D02*
X0241131Y0004751D01*
X0241131Y0004001D01*
X0240381Y0003250D01*
X0238129Y0003250D01*
X0242733Y0004001D02*
X0242733Y0007754D01*
X0245735Y0007754D02*
X0245735Y0004001D01*
X0244985Y0003250D01*
X0243483Y0003250D01*
X0242733Y0004001D01*
X0247337Y0007754D02*
X0250339Y0007754D01*
X0248838Y0007754D02*
X0248838Y0003250D01*
X0253442Y0003250D02*
X0253442Y0007754D01*
X0254943Y0007754D02*
X0251940Y0007754D01*
X0256544Y0007003D02*
X0256544Y0004001D01*
X0257295Y0003250D01*
X0258796Y0003250D01*
X0259547Y0004001D01*
X0259547Y0007003D01*
X0258796Y0007754D01*
X0257295Y0007754D01*
X0256544Y0007003D01*
X0261148Y0007754D02*
X0261148Y0003250D01*
X0264151Y0003250D02*
X0261148Y0007754D01*
X0264151Y0007754D02*
X0264151Y0003250D01*
X0265752Y0003250D02*
X0265752Y0007754D01*
X0265752Y0005502D02*
X0268755Y0005502D01*
X0270356Y0005502D02*
X0271857Y0005502D01*
X0270356Y0007754D02*
X0270356Y0003250D01*
X0273359Y0003250D01*
X0274960Y0003250D02*
X0274960Y0006253D01*
X0276461Y0007754D01*
X0277963Y0006253D01*
X0277963Y0003250D01*
X0279564Y0003250D02*
X0279564Y0007754D01*
X0281816Y0007754D01*
X0282567Y0007003D01*
X0282567Y0004001D01*
X0281816Y0003250D01*
X0279564Y0003250D01*
X0277963Y0005502D02*
X0274960Y0005502D01*
X0273359Y0007754D02*
X0270356Y0007754D01*
X0268755Y0007754D02*
X0268755Y0003250D01*
X0284168Y0003250D02*
X0287170Y0003250D01*
X0288772Y0003250D02*
X0288772Y0007754D01*
X0291024Y0007754D01*
X0291774Y0007003D01*
X0291774Y0005502D01*
X0291024Y0004751D01*
X0288772Y0004751D01*
X0290273Y0004751D02*
X0291774Y0003250D01*
X0287170Y0007754D02*
X0284168Y0007754D01*
X0284168Y0003250D01*
X0284168Y0005502D02*
X0285669Y0005502D01*
D14*
X0287689Y0150913D02*
X0287689Y0152414D01*
X0288189Y0151914D01*
X0288689Y0152414D01*
X0288689Y0150913D01*
X0289162Y0150913D02*
X0289912Y0150913D01*
X0290163Y0151163D01*
X0290163Y0151413D01*
X0289912Y0151664D01*
X0289162Y0151664D01*
X0289162Y0152414D02*
X0289912Y0152414D01*
X0290163Y0152164D01*
X0290163Y0151914D01*
X0289912Y0151664D01*
X0290635Y0151413D02*
X0291386Y0151413D01*
X0291636Y0151664D01*
X0291636Y0152164D01*
X0291386Y0152414D01*
X0290635Y0152414D01*
X0290635Y0150913D01*
X0291136Y0151413D02*
X0291636Y0150913D01*
X0292108Y0150913D02*
X0293109Y0150913D01*
X0293582Y0150913D02*
X0294582Y0151914D01*
X0294582Y0152164D01*
X0294332Y0152414D01*
X0293832Y0152414D01*
X0293582Y0152164D01*
X0292609Y0152414D02*
X0292609Y0150913D01*
X0293582Y0150913D02*
X0294582Y0150913D01*
X0295055Y0151163D02*
X0296056Y0152164D01*
X0296056Y0151163D01*
X0295805Y0150913D01*
X0295305Y0150913D01*
X0295055Y0151163D01*
X0295055Y0152164D01*
X0295305Y0152414D01*
X0295805Y0152414D01*
X0296056Y0152164D01*
X0296528Y0152414D02*
X0296528Y0151413D01*
X0297029Y0150913D01*
X0297529Y0151413D01*
X0297529Y0152414D01*
X0298001Y0152414D02*
X0298001Y0150913D01*
X0299002Y0150913D01*
X0299475Y0151163D02*
X0299725Y0150913D01*
X0300225Y0150913D01*
X0300475Y0151163D01*
X0300475Y0151413D01*
X0300225Y0151664D01*
X0299725Y0151664D01*
X0299475Y0151914D01*
X0299475Y0152164D01*
X0299725Y0152414D01*
X0300225Y0152414D01*
X0300475Y0152164D01*
X0300948Y0152414D02*
X0301949Y0152414D01*
X0302421Y0152414D02*
X0303422Y0152414D01*
X0302922Y0152414D02*
X0302922Y0150913D01*
X0303894Y0150913D02*
X0304895Y0150913D01*
X0304395Y0150913D02*
X0304395Y0152414D01*
X0303894Y0151914D01*
X0305368Y0152164D02*
X0305368Y0151163D01*
X0305618Y0150913D01*
X0306118Y0150913D01*
X0306368Y0151163D01*
X0306368Y0151664D01*
X0305868Y0151664D01*
X0305368Y0152164D02*
X0305618Y0152414D01*
X0306118Y0152414D01*
X0306368Y0152164D01*
X0301448Y0151664D02*
X0300948Y0151664D01*
X0300948Y0152414D02*
X0300948Y0150913D01*
X0292609Y0152414D02*
X0292108Y0151914D01*
X0289162Y0152414D02*
X0289162Y0150913D01*
X0289162Y0161913D02*
X0290163Y0161913D01*
X0289662Y0161913D02*
X0289662Y0163414D01*
X0289162Y0162914D01*
X0288689Y0163164D02*
X0288439Y0163414D01*
X0287689Y0163414D01*
X0287689Y0161913D01*
X0288439Y0161913D01*
X0288689Y0162163D01*
X0288689Y0163164D01*
X0205974Y0211637D02*
X0205974Y0212388D01*
X0205724Y0212638D01*
X0204723Y0212638D01*
X0204473Y0212388D01*
X0204473Y0211637D01*
X0205974Y0211637D01*
X0205974Y0213111D02*
X0204974Y0214112D01*
X0204723Y0214112D01*
X0204473Y0213861D01*
X0204473Y0213361D01*
X0204723Y0213111D01*
X0205974Y0213111D02*
X0205974Y0214112D01*
X0169760Y0178099D02*
X0169009Y0178099D01*
X0169009Y0176598D01*
X0169760Y0176598D01*
X0170010Y0176848D01*
X0170010Y0177849D01*
X0169760Y0178099D01*
X0168537Y0178099D02*
X0168537Y0176598D01*
X0167536Y0178099D01*
X0167536Y0176598D01*
X0167064Y0177349D02*
X0166063Y0177349D01*
X0165590Y0176598D02*
X0164590Y0176598D01*
X0165090Y0176598D02*
X0165090Y0178099D01*
X0164590Y0177599D01*
X0164117Y0177349D02*
X0163116Y0177349D01*
X0162644Y0177599D02*
X0162394Y0177349D01*
X0162644Y0177098D01*
X0162644Y0176848D01*
X0162394Y0176598D01*
X0161893Y0176598D01*
X0161643Y0176848D01*
X0161171Y0176848D02*
X0160920Y0176598D01*
X0160420Y0176598D01*
X0160170Y0176848D01*
X0161171Y0177849D01*
X0161171Y0176848D01*
X0161171Y0177849D02*
X0160920Y0178099D01*
X0160420Y0178099D01*
X0160170Y0177849D01*
X0160170Y0176848D01*
X0159697Y0176598D02*
X0158697Y0176598D01*
X0158224Y0176598D02*
X0157223Y0176598D01*
X0158224Y0177599D01*
X0158224Y0177849D01*
X0157974Y0178099D01*
X0157474Y0178099D01*
X0157223Y0177849D01*
X0156751Y0177349D02*
X0155750Y0177349D01*
X0155278Y0177849D02*
X0154277Y0176848D01*
X0154277Y0176598D01*
X0153804Y0176848D02*
X0153554Y0176598D01*
X0153054Y0176598D01*
X0152804Y0176848D01*
X0152804Y0177098D01*
X0153054Y0177349D01*
X0153554Y0177349D01*
X0153804Y0177098D01*
X0153804Y0176848D01*
X0153554Y0177349D02*
X0153804Y0177599D01*
X0153804Y0177849D01*
X0153554Y0178099D01*
X0153054Y0178099D01*
X0152804Y0177849D01*
X0152804Y0177599D01*
X0153054Y0177349D01*
X0152331Y0177349D02*
X0152331Y0176848D01*
X0152081Y0176598D01*
X0151581Y0176598D01*
X0151330Y0176848D01*
X0151330Y0177349D02*
X0151831Y0177599D01*
X0152081Y0177599D01*
X0152331Y0177349D01*
X0152331Y0178099D02*
X0151330Y0178099D01*
X0151330Y0177349D01*
X0154277Y0178099D02*
X0155278Y0178099D01*
X0155278Y0177849D01*
X0158697Y0177599D02*
X0159197Y0178099D01*
X0159197Y0176598D01*
X0161643Y0177849D02*
X0161893Y0178099D01*
X0162394Y0178099D01*
X0162644Y0177849D01*
X0162644Y0177599D01*
X0162394Y0177349D02*
X0162144Y0177349D01*
X0162394Y0150540D02*
X0162644Y0150290D01*
X0162644Y0150040D01*
X0162394Y0149790D01*
X0162644Y0149539D01*
X0162644Y0149289D01*
X0162394Y0149039D01*
X0161893Y0149039D01*
X0161643Y0149289D01*
X0161171Y0149289D02*
X0160920Y0149039D01*
X0160420Y0149039D01*
X0160170Y0149289D01*
X0161171Y0150290D01*
X0161171Y0149289D01*
X0161171Y0150290D02*
X0160920Y0150540D01*
X0160420Y0150540D01*
X0160170Y0150290D01*
X0160170Y0149289D01*
X0159697Y0149039D02*
X0158697Y0149039D01*
X0158224Y0149039D02*
X0157223Y0149039D01*
X0158224Y0150040D01*
X0158224Y0150290D01*
X0157974Y0150540D01*
X0157474Y0150540D01*
X0157223Y0150290D01*
X0156751Y0149790D02*
X0155750Y0149790D01*
X0155278Y0150290D02*
X0154277Y0149289D01*
X0154277Y0149039D01*
X0153804Y0149289D02*
X0153554Y0149039D01*
X0153054Y0149039D01*
X0152804Y0149289D01*
X0152804Y0149539D01*
X0153054Y0149790D01*
X0153554Y0149790D01*
X0153804Y0149539D01*
X0153804Y0149289D01*
X0153554Y0149790D02*
X0153804Y0150040D01*
X0153804Y0150290D01*
X0153554Y0150540D01*
X0153054Y0150540D01*
X0152804Y0150290D01*
X0152804Y0150040D01*
X0153054Y0149790D01*
X0152331Y0149790D02*
X0152331Y0149289D01*
X0152081Y0149039D01*
X0151581Y0149039D01*
X0151330Y0149289D01*
X0151330Y0149790D02*
X0151831Y0150040D01*
X0152081Y0150040D01*
X0152331Y0149790D01*
X0152331Y0150540D02*
X0151330Y0150540D01*
X0151330Y0149790D01*
X0154277Y0150540D02*
X0155278Y0150540D01*
X0155278Y0150290D01*
X0158697Y0150040D02*
X0159197Y0150540D01*
X0159197Y0149039D01*
X0161643Y0150290D02*
X0161893Y0150540D01*
X0162394Y0150540D01*
X0162394Y0149790D02*
X0162144Y0149790D01*
X0163116Y0149790D02*
X0164117Y0149790D01*
X0164590Y0150040D02*
X0165090Y0150540D01*
X0165090Y0149039D01*
X0164590Y0149039D02*
X0165590Y0149039D01*
X0166063Y0149790D02*
X0167064Y0149790D01*
X0167536Y0150540D02*
X0168537Y0149039D01*
X0168537Y0150540D01*
X0169009Y0150540D02*
X0169760Y0150540D01*
X0170010Y0150290D01*
X0170010Y0149289D01*
X0169760Y0149039D01*
X0169009Y0149039D01*
X0169009Y0150540D01*
X0167536Y0150540D02*
X0167536Y0149039D01*
X0146315Y0231644D02*
X0144813Y0231644D01*
X0144813Y0232394D01*
X0145064Y0232644D01*
X0146064Y0232644D01*
X0146315Y0232394D01*
X0146315Y0231644D01*
X0146064Y0233117D02*
X0146315Y0233367D01*
X0146315Y0233868D01*
X0146064Y0234118D01*
X0145814Y0234118D01*
X0145564Y0233868D01*
X0145564Y0233617D01*
X0145564Y0233868D02*
X0145314Y0234118D01*
X0145064Y0234118D01*
X0144813Y0233868D01*
X0144813Y0233367D01*
X0145064Y0233117D01*
D15*
X0258780Y0254698D03*
X0263505Y0254698D03*
D16*
X0261143Y0254698D03*
X0331418Y0208044D03*
X0331418Y0200170D03*
X0331418Y0192296D03*
D17*
X0331418Y0189934D03*
X0331418Y0194658D03*
X0331418Y0197808D03*
X0331418Y0202532D03*
X0331418Y0205682D03*
X0331418Y0210406D03*
D18*
X0306870Y0172763D02*
X0306870Y0169494D01*
X0306870Y0150263D02*
X0306870Y0146994D01*
X0308504Y0148628D02*
X0305235Y0148628D01*
X0209135Y0242298D02*
X0209135Y0245568D01*
X0207500Y0243933D02*
X0210770Y0243933D01*
X0188270Y0243933D02*
X0185000Y0243933D01*
X0050529Y0182939D02*
X0050529Y0178035D01*
X0048894Y0178035D02*
X0052164Y0178035D01*
X0048894Y0181304D02*
X0050529Y0182939D01*
X0047007Y0182939D02*
X0043738Y0178035D01*
X0047007Y0178035D02*
X0043738Y0182939D01*
D19*
X0122560Y0156863D02*
X0127481Y0154107D01*
X0127481Y0159619D01*
X0122560Y0156863D01*
X0127481Y0143871D02*
X0127481Y0138359D01*
X0122560Y0141115D01*
X0127481Y0143871D01*
X0127481Y0128123D02*
X0127481Y0122611D01*
X0122560Y0125367D01*
X0127481Y0128123D01*
X0290670Y0153926D02*
X0290670Y0156863D01*
X0294607Y0153926D01*
X0294607Y0159800D01*
X0290670Y0156863D01*
X0290670Y0159800D01*
D20*
X0285828Y0111776D02*
X0285828Y0110776D01*
X0275828Y0110776D01*
X0275828Y0111776D01*
X0275828Y0088776D02*
X0275828Y0087776D01*
X0275828Y0088776D02*
X0285328Y0088776D01*
X0285328Y0087776D01*
X0285828Y0082249D02*
X0285828Y0081249D01*
X0276328Y0081249D01*
X0276328Y0082249D01*
X0257394Y0075249D02*
X0256394Y0075249D01*
X0256394Y0065249D01*
X0257394Y0065249D01*
X0275828Y0059249D02*
X0275828Y0058249D01*
X0275828Y0059249D02*
X0285828Y0059249D01*
X0285828Y0058249D01*
X0285828Y0050753D02*
X0285828Y0049753D01*
X0275828Y0049753D01*
X0275828Y0050753D01*
X0304261Y0065249D02*
X0305261Y0065249D01*
X0305261Y0075249D01*
X0304261Y0075249D01*
X0327261Y0074749D02*
X0327261Y0065249D01*
X0328261Y0065249D01*
X0328261Y0074749D02*
X0327261Y0074749D01*
X0285328Y0027753D02*
X0275828Y0027753D01*
X0275828Y0026753D01*
X0285328Y0026753D02*
X0285328Y0027753D01*
X0234394Y0065749D02*
X0233394Y0065749D01*
X0234394Y0065749D02*
X0234394Y0075249D01*
X0233394Y0075249D01*
X0115788Y0095445D02*
X0075788Y0095445D01*
X0075788Y0045053D02*
X0115788Y0045053D01*
X0218000Y0191198D02*
X0219835Y0191198D01*
X0220202Y0191565D01*
X0220202Y0192299D01*
X0219835Y0192666D01*
X0218000Y0192666D01*
X0218367Y0193408D02*
X0218000Y0193775D01*
X0218000Y0194509D01*
X0218367Y0194876D01*
X0219101Y0194509D02*
X0219101Y0193775D01*
X0218734Y0193408D01*
X0218367Y0193408D01*
X0217634Y0194142D02*
X0220569Y0194142D01*
X0220202Y0193775D02*
X0220202Y0194509D01*
X0219835Y0194876D01*
X0219468Y0194876D01*
X0219101Y0194509D01*
X0218734Y0195618D02*
X0218000Y0196352D01*
X0220202Y0196352D01*
X0220202Y0195618D02*
X0220202Y0197086D01*
X0219101Y0197828D02*
X0219101Y0199296D01*
X0218000Y0198929D02*
X0219101Y0197828D01*
X0220202Y0198929D02*
X0218000Y0198929D01*
X0220202Y0193775D02*
X0219835Y0193408D01*
X0268828Y0242414D02*
X0269828Y0242414D01*
X0269828Y0252414D01*
X0268828Y0252414D01*
X0291828Y0251914D02*
X0291828Y0242414D01*
X0292828Y0242414D01*
X0300324Y0242914D02*
X0301324Y0242914D01*
X0301324Y0252414D01*
X0300324Y0252414D01*
X0292828Y0251914D02*
X0291828Y0251914D01*
X0323324Y0252414D02*
X0323324Y0242414D01*
X0324324Y0242414D01*
X0324324Y0252414D02*
X0323324Y0252414D01*
D21*
X0143426Y0210013D02*
X0143426Y0206076D01*
X0134765Y0206076D02*
X0134765Y0210013D01*
D22*
X0141654Y0208831D03*
D23*
X0204253Y0193969D02*
X0204253Y0190623D01*
X0215670Y0190623D01*
X0215670Y0193969D01*
X0204253Y0193969D01*
D24*
X0122363Y0156863D03*
X0122363Y0141115D03*
X0122363Y0125367D03*
D25*
X0169017Y0062375D03*
M02*
