G75*
%MOIN*%
%OFA0B0*%
%FSLAX25Y25*%
%IPPOS*%
%LPD*%
%AMOC8*
5,1,8,0,0,1.08239X$1,22.5*
%
%ADD10C,0.06000*%
%ADD11R,0.05000X0.02500*%
%ADD12R,0.02500X0.05000*%
%ADD13C,0.00600*%
%ADD14C,0.02778*%
%ADD15C,0.02700*%
D10*
X0237442Y0028233D02*
X0237442Y0034233D01*
X0247442Y0034233D02*
X0247442Y0028233D01*
X0265028Y0029853D02*
X0271028Y0029853D01*
X0290628Y0029853D02*
X0296628Y0029853D01*
X0296628Y0047653D02*
X0290628Y0047653D01*
X0290628Y0061349D02*
X0296628Y0061349D01*
X0307361Y0060449D02*
X0307361Y0054449D01*
X0325161Y0054449D02*
X0325161Y0060449D01*
X0325161Y0080049D02*
X0325161Y0086049D01*
X0307361Y0086049D02*
X0307361Y0080049D01*
X0296628Y0079149D02*
X0290628Y0079149D01*
X0290628Y0090876D02*
X0296628Y0090876D01*
X0296628Y0108676D02*
X0290628Y0108676D01*
X0271028Y0108676D02*
X0265028Y0108676D01*
X0265028Y0090876D02*
X0271028Y0090876D01*
X0271028Y0079149D02*
X0265028Y0079149D01*
X0254294Y0080049D02*
X0254294Y0086049D01*
X0236494Y0086049D02*
X0236494Y0080049D01*
X0236494Y0060449D02*
X0236494Y0054449D01*
X0254294Y0054449D02*
X0254294Y0060449D01*
X0265028Y0061349D02*
X0271028Y0061349D01*
X0271028Y0047653D02*
X0265028Y0047653D01*
X0325072Y0124304D02*
X0331072Y0124304D01*
X0331072Y0134304D02*
X0325072Y0134304D01*
X0321224Y0231614D02*
X0321224Y0237614D01*
X0303424Y0237614D02*
X0303424Y0231614D01*
X0289728Y0231614D02*
X0289728Y0237614D01*
X0271928Y0237614D02*
X0271928Y0231614D01*
X0271928Y0257214D02*
X0271928Y0263214D01*
X0289728Y0263214D02*
X0289728Y0257214D01*
X0303424Y0257214D02*
X0303424Y0263214D01*
X0321224Y0263214D02*
X0321224Y0257214D01*
X0242520Y0264099D02*
X0242520Y0270099D01*
X0232520Y0270099D02*
X0232520Y0264099D01*
X0166615Y0262383D02*
X0166615Y0256383D01*
X0156615Y0256383D02*
X0156615Y0262383D01*
X0146615Y0262383D02*
X0146615Y0256383D01*
X0136615Y0256383D02*
X0136615Y0262383D01*
X0114536Y0246981D02*
X0108536Y0246981D01*
X0108536Y0236981D02*
X0114536Y0236981D01*
X0114536Y0226981D02*
X0108536Y0226981D01*
X0108536Y0216981D02*
X0114536Y0216981D01*
X0114536Y0206981D02*
X0108536Y0206981D01*
X0108536Y0196981D02*
X0114536Y0196981D01*
X0114536Y0186981D02*
X0108536Y0186981D01*
X0108536Y0176981D02*
X0114536Y0176981D01*
X0027922Y0176981D02*
X0021922Y0176981D01*
X0021922Y0186981D02*
X0027922Y0186981D01*
X0027922Y0196981D02*
X0021922Y0196981D01*
X0021922Y0206981D02*
X0027922Y0206981D01*
X0027922Y0216981D02*
X0021922Y0216981D01*
X0021922Y0226981D02*
X0027922Y0226981D01*
X0027922Y0236981D02*
X0021922Y0236981D01*
X0021922Y0246981D02*
X0027922Y0246981D01*
D11*
X0054686Y0216416D03*
X0054686Y0213216D03*
D12*
X0304700Y0139383D03*
X0307900Y0139383D03*
D13*
X0020989Y0018298D02*
X0016501Y0020157D01*
X0012461Y0022856D01*
X0009026Y0026292D01*
X0006326Y0030331D01*
X0004467Y0034820D01*
X0003519Y0039585D01*
X0003400Y0042014D01*
X0003400Y0252027D01*
X0003519Y0254456D01*
X0004467Y0259221D01*
X0006326Y0263710D01*
X0009026Y0267749D01*
X0012461Y0271185D01*
X0016501Y0273884D01*
X0020989Y0275743D01*
X0025754Y0276691D01*
X0028184Y0276810D01*
X0036433Y0276810D01*
X0036433Y0251227D01*
X0036609Y0251051D01*
X0099849Y0251051D01*
X0100025Y0251227D01*
X0100025Y0254024D01*
X0100300Y0253749D01*
X0100300Y0251428D01*
X0099803Y0250931D01*
X0059603Y0250931D01*
X0058900Y0250228D01*
X0042100Y0233428D01*
X0030992Y0244536D01*
X0031228Y0244772D01*
X0031822Y0246205D01*
X0031822Y0247757D01*
X0031228Y0249190D01*
X0030131Y0250287D01*
X0028698Y0250881D01*
X0021146Y0250881D01*
X0019713Y0250287D01*
X0018616Y0249190D01*
X0018022Y0247757D01*
X0018022Y0246205D01*
X0018616Y0244772D01*
X0019713Y0243675D01*
X0021146Y0243081D01*
X0028698Y0243081D01*
X0028949Y0243185D01*
X0040900Y0231234D01*
X0052900Y0219234D01*
X0052900Y0218566D01*
X0051813Y0218566D01*
X0051286Y0218039D01*
X0051286Y0214331D01*
X0047950Y0214331D01*
X0047950Y0214663D01*
X0046632Y0215981D01*
X0044768Y0215981D01*
X0043450Y0214663D01*
X0043450Y0214331D01*
X0032997Y0214331D01*
X0031617Y0215711D01*
X0031822Y0216205D01*
X0031822Y0217757D01*
X0031228Y0219190D01*
X0030131Y0220287D01*
X0028698Y0220881D01*
X0021146Y0220881D01*
X0019713Y0220287D01*
X0018616Y0219190D01*
X0018022Y0217757D01*
X0018022Y0216205D01*
X0018616Y0214772D01*
X0019713Y0213675D01*
X0021146Y0213081D01*
X0028698Y0213081D01*
X0030131Y0213675D01*
X0030195Y0213739D01*
X0032003Y0211931D01*
X0044318Y0211931D01*
X0044768Y0211481D01*
X0046632Y0211481D01*
X0047082Y0211931D01*
X0051286Y0211931D01*
X0051286Y0211593D01*
X0051813Y0211066D01*
X0057559Y0211066D01*
X0058086Y0211593D01*
X0058086Y0218039D01*
X0057559Y0218566D01*
X0055300Y0218566D01*
X0055300Y0220228D01*
X0043797Y0231731D01*
X0045250Y0233184D01*
X0045250Y0231999D01*
X0046568Y0230681D01*
X0048432Y0230681D01*
X0049482Y0231731D01*
X0074603Y0231731D01*
X0105100Y0201234D01*
X0105803Y0200531D01*
X0106915Y0200531D01*
X0106327Y0200287D01*
X0105230Y0199190D01*
X0104636Y0197757D01*
X0104636Y0196205D01*
X0105230Y0194772D01*
X0106327Y0193675D01*
X0107760Y0193081D01*
X0115312Y0193081D01*
X0116745Y0193675D01*
X0117842Y0194772D01*
X0118436Y0196205D01*
X0118436Y0197757D01*
X0117842Y0199190D01*
X0116745Y0200287D01*
X0116158Y0200531D01*
X0134003Y0200531D01*
X0136900Y0197634D01*
X0137603Y0196931D01*
X0156597Y0196931D01*
X0157947Y0198281D01*
X0159432Y0198281D01*
X0160750Y0199599D01*
X0160750Y0201084D01*
X0181947Y0222281D01*
X0231329Y0222281D01*
X0232032Y0222984D01*
X0232647Y0223599D01*
X0233350Y0224302D01*
X0233350Y0227160D01*
X0229379Y0231131D01*
X0174792Y0231131D01*
X0172880Y0233043D01*
X0172880Y0234583D01*
X0171539Y0235924D01*
X0169643Y0235924D01*
X0168302Y0234583D01*
X0168302Y0232687D01*
X0169643Y0231346D01*
X0171183Y0231346D01*
X0172598Y0229931D01*
X0137003Y0229931D01*
X0136300Y0229228D01*
X0117052Y0209980D01*
X0116745Y0210287D01*
X0115312Y0210881D01*
X0107760Y0210881D01*
X0106327Y0210287D01*
X0105230Y0209190D01*
X0104636Y0207757D01*
X0104636Y0206205D01*
X0105230Y0204772D01*
X0106327Y0203675D01*
X0107760Y0203081D01*
X0115312Y0203081D01*
X0116745Y0203675D01*
X0117842Y0204772D01*
X0118436Y0206205D01*
X0118436Y0207757D01*
X0118374Y0207907D01*
X0137997Y0227531D01*
X0226403Y0227531D01*
X0227650Y0226284D01*
X0227650Y0224799D01*
X0227768Y0224681D01*
X0180953Y0224681D01*
X0180250Y0223978D01*
X0180250Y0223978D01*
X0159053Y0202781D01*
X0157568Y0202781D01*
X0156250Y0201463D01*
X0156250Y0199978D01*
X0155603Y0199331D01*
X0140529Y0199331D01*
X0141132Y0199934D01*
X0148430Y0199934D01*
X0169999Y0221503D01*
X0171539Y0221503D01*
X0172880Y0222844D01*
X0172880Y0224740D01*
X0171539Y0226081D01*
X0169643Y0226081D01*
X0168302Y0224740D01*
X0168302Y0223200D01*
X0147436Y0202334D01*
X0141132Y0202334D01*
X0140043Y0203423D01*
X0138147Y0203423D01*
X0136806Y0202082D01*
X0136806Y0201121D01*
X0134997Y0202931D01*
X0106797Y0202931D01*
X0075597Y0234131D01*
X0049482Y0234131D01*
X0048432Y0235181D01*
X0047247Y0235181D01*
X0060597Y0248531D01*
X0100797Y0248531D01*
X0101997Y0249731D01*
X0102700Y0250434D01*
X0102700Y0253749D01*
X0103750Y0254799D01*
X0103750Y0256663D01*
X0102432Y0257981D01*
X0100568Y0257981D01*
X0100025Y0257438D01*
X0100025Y0276810D01*
X0225849Y0276810D01*
X0222541Y0273502D01*
X0222541Y0265628D01*
X0221275Y0264362D01*
X0184868Y0264362D01*
X0179420Y0269810D01*
X0179420Y0270650D01*
X0178079Y0271991D01*
X0176183Y0271991D01*
X0174842Y0270650D01*
X0174842Y0268754D01*
X0176183Y0267413D01*
X0178079Y0267413D01*
X0178251Y0267585D01*
X0183171Y0262665D01*
X0183874Y0261962D01*
X0222269Y0261962D01*
X0224238Y0263931D01*
X0224941Y0264634D01*
X0224941Y0272508D01*
X0228043Y0275610D01*
X0248966Y0275610D01*
X0249011Y0275565D01*
X0249011Y0274025D01*
X0250352Y0272684D01*
X0252248Y0272684D01*
X0253589Y0274025D01*
X0253589Y0275921D01*
X0252700Y0276810D01*
X0316936Y0276810D01*
X0319365Y0276691D01*
X0324130Y0275743D01*
X0328619Y0273884D01*
X0332659Y0271185D01*
X0336094Y0267749D01*
X0338793Y0263710D01*
X0340653Y0259221D01*
X0341600Y0254456D01*
X0341720Y0252027D01*
X0341720Y0042014D01*
X0341600Y0039585D01*
X0340653Y0034820D01*
X0338793Y0030331D01*
X0336094Y0026292D01*
X0332659Y0022856D01*
X0328619Y0020157D01*
X0324130Y0018298D01*
X0319365Y0017350D01*
X0316936Y0017231D01*
X0028184Y0017231D01*
X0025754Y0017350D01*
X0020989Y0018298D01*
X0021867Y0018123D02*
X0323253Y0018123D01*
X0325154Y0018722D02*
X0019966Y0018722D01*
X0018521Y0019320D02*
X0326599Y0019320D01*
X0328044Y0019919D02*
X0017076Y0019919D01*
X0015962Y0020517D02*
X0329158Y0020517D01*
X0330054Y0021116D02*
X0015066Y0021116D01*
X0014170Y0021714D02*
X0330950Y0021714D01*
X0331845Y0022313D02*
X0013274Y0022313D01*
X0012406Y0022911D02*
X0332714Y0022911D01*
X0333312Y0023510D02*
X0011807Y0023510D01*
X0011209Y0024108D02*
X0333911Y0024108D01*
X0334509Y0024707D02*
X0249120Y0024707D01*
X0249651Y0024927D02*
X0250748Y0026024D01*
X0251342Y0027457D01*
X0251342Y0035009D01*
X0250748Y0036442D01*
X0249651Y0037539D01*
X0248217Y0038133D01*
X0246666Y0038133D01*
X0245233Y0037539D01*
X0244135Y0036442D01*
X0243542Y0035009D01*
X0243542Y0027457D01*
X0244135Y0026024D01*
X0245233Y0024927D01*
X0246666Y0024333D01*
X0248217Y0024333D01*
X0249651Y0024927D01*
X0250029Y0025305D02*
X0335108Y0025305D01*
X0335706Y0025904D02*
X0250628Y0025904D01*
X0250946Y0026502D02*
X0262925Y0026502D01*
X0262818Y0026546D02*
X0264252Y0025953D01*
X0271803Y0025953D01*
X0273237Y0026546D01*
X0274334Y0027644D01*
X0274928Y0029077D01*
X0274928Y0030629D01*
X0274334Y0032062D01*
X0273237Y0033159D01*
X0271803Y0033753D01*
X0264252Y0033753D01*
X0262818Y0033159D01*
X0261721Y0032062D01*
X0261128Y0030629D01*
X0261128Y0029077D01*
X0261721Y0027644D01*
X0262818Y0026546D01*
X0262264Y0027101D02*
X0251194Y0027101D01*
X0251342Y0027699D02*
X0261698Y0027699D01*
X0261450Y0028298D02*
X0251342Y0028298D01*
X0251342Y0028896D02*
X0261202Y0028896D01*
X0261128Y0029495D02*
X0251342Y0029495D01*
X0251342Y0030093D02*
X0261128Y0030093D01*
X0261154Y0030692D02*
X0251342Y0030692D01*
X0251342Y0031291D02*
X0261402Y0031291D01*
X0261650Y0031889D02*
X0251342Y0031889D01*
X0251342Y0032488D02*
X0262147Y0032488D01*
X0262745Y0033086D02*
X0251342Y0033086D01*
X0251342Y0033685D02*
X0264087Y0033685D01*
X0271968Y0033685D02*
X0289687Y0033685D01*
X0289852Y0033753D02*
X0288418Y0033159D01*
X0287321Y0032062D01*
X0286728Y0030629D01*
X0286728Y0029077D01*
X0287321Y0027644D01*
X0288418Y0026546D01*
X0289852Y0025953D01*
X0297403Y0025953D01*
X0298837Y0026546D01*
X0299934Y0027644D01*
X0300528Y0029077D01*
X0300528Y0030629D01*
X0299934Y0032062D01*
X0298837Y0033159D01*
X0297403Y0033753D01*
X0289852Y0033753D01*
X0288345Y0033086D02*
X0273310Y0033086D01*
X0273908Y0032488D02*
X0287747Y0032488D01*
X0287250Y0031889D02*
X0274405Y0031889D01*
X0274653Y0031291D02*
X0287002Y0031291D01*
X0286754Y0030692D02*
X0274901Y0030692D01*
X0274928Y0030093D02*
X0286728Y0030093D01*
X0286728Y0029495D02*
X0274928Y0029495D01*
X0274853Y0028896D02*
X0286802Y0028896D01*
X0287050Y0028298D02*
X0274605Y0028298D01*
X0274357Y0027699D02*
X0287298Y0027699D01*
X0287864Y0027101D02*
X0273791Y0027101D01*
X0273130Y0026502D02*
X0288525Y0026502D01*
X0298730Y0026502D02*
X0336235Y0026502D01*
X0336635Y0027101D02*
X0299391Y0027101D01*
X0299957Y0027699D02*
X0337035Y0027699D01*
X0337435Y0028298D02*
X0300205Y0028298D01*
X0300453Y0028896D02*
X0337835Y0028896D01*
X0338234Y0029495D02*
X0300528Y0029495D01*
X0300528Y0030093D02*
X0338634Y0030093D01*
X0338943Y0030692D02*
X0300501Y0030692D01*
X0300253Y0031291D02*
X0339191Y0031291D01*
X0339438Y0031889D02*
X0300005Y0031889D01*
X0299508Y0032488D02*
X0339686Y0032488D01*
X0339934Y0033086D02*
X0298910Y0033086D01*
X0297568Y0033685D02*
X0340182Y0033685D01*
X0340430Y0034283D02*
X0251342Y0034283D01*
X0251342Y0034882D02*
X0340665Y0034882D01*
X0340784Y0035480D02*
X0251147Y0035480D01*
X0250899Y0036079D02*
X0340903Y0036079D01*
X0341022Y0036677D02*
X0250513Y0036677D01*
X0249915Y0037276D02*
X0341141Y0037276D01*
X0341260Y0037874D02*
X0248843Y0037874D01*
X0246041Y0037874D02*
X0238843Y0037874D01*
X0238217Y0038133D02*
X0236666Y0038133D01*
X0235233Y0037539D01*
X0234135Y0036442D01*
X0233542Y0035009D01*
X0233542Y0027457D01*
X0234135Y0026024D01*
X0235233Y0024927D01*
X0236666Y0024333D01*
X0238217Y0024333D01*
X0239651Y0024927D01*
X0240748Y0026024D01*
X0241342Y0027457D01*
X0241342Y0035009D01*
X0240748Y0036442D01*
X0239651Y0037539D01*
X0238217Y0038133D01*
X0239915Y0037276D02*
X0244969Y0037276D01*
X0244370Y0036677D02*
X0240513Y0036677D01*
X0240899Y0036079D02*
X0243985Y0036079D01*
X0243737Y0035480D02*
X0241147Y0035480D01*
X0241342Y0034882D02*
X0243542Y0034882D01*
X0243542Y0034283D02*
X0241342Y0034283D01*
X0241342Y0033685D02*
X0243542Y0033685D01*
X0243542Y0033086D02*
X0241342Y0033086D01*
X0241342Y0032488D02*
X0243542Y0032488D01*
X0243542Y0031889D02*
X0241342Y0031889D01*
X0241342Y0031291D02*
X0243542Y0031291D01*
X0243542Y0030692D02*
X0241342Y0030692D01*
X0241342Y0030093D02*
X0243542Y0030093D01*
X0243542Y0029495D02*
X0241342Y0029495D01*
X0241342Y0028896D02*
X0243542Y0028896D01*
X0243542Y0028298D02*
X0241342Y0028298D01*
X0241342Y0027699D02*
X0243542Y0027699D01*
X0243689Y0027101D02*
X0241194Y0027101D01*
X0240946Y0026502D02*
X0243937Y0026502D01*
X0244255Y0025904D02*
X0240628Y0025904D01*
X0240029Y0025305D02*
X0244854Y0025305D01*
X0245763Y0024707D02*
X0239120Y0024707D01*
X0235763Y0024707D02*
X0010610Y0024707D01*
X0010012Y0025305D02*
X0234854Y0025305D01*
X0234255Y0025904D02*
X0009413Y0025904D01*
X0008885Y0026502D02*
X0233937Y0026502D01*
X0233689Y0027101D02*
X0008485Y0027101D01*
X0008085Y0027699D02*
X0233542Y0027699D01*
X0233542Y0028298D02*
X0007685Y0028298D01*
X0007285Y0028896D02*
X0233542Y0028896D01*
X0233542Y0029495D02*
X0006885Y0029495D01*
X0006485Y0030093D02*
X0233542Y0030093D01*
X0233542Y0030692D02*
X0006177Y0030692D01*
X0005929Y0031291D02*
X0233542Y0031291D01*
X0233542Y0031889D02*
X0103440Y0031889D01*
X0103032Y0031481D02*
X0104350Y0032799D01*
X0104350Y0034663D01*
X0103032Y0035981D01*
X0101547Y0035981D01*
X0092950Y0044578D01*
X0092950Y0046063D01*
X0091632Y0047381D01*
X0089768Y0047381D01*
X0088450Y0046063D01*
X0088450Y0044199D01*
X0089768Y0042881D01*
X0091253Y0042881D01*
X0099850Y0034284D01*
X0099850Y0032799D01*
X0101168Y0031481D01*
X0103032Y0031481D01*
X0104039Y0032488D02*
X0233542Y0032488D01*
X0233542Y0033086D02*
X0104350Y0033086D01*
X0104350Y0033685D02*
X0233542Y0033685D01*
X0233542Y0034283D02*
X0104350Y0034283D01*
X0104131Y0034882D02*
X0233542Y0034882D01*
X0233737Y0035480D02*
X0103533Y0035480D01*
X0101449Y0036079D02*
X0233985Y0036079D01*
X0234370Y0036677D02*
X0128446Y0036677D01*
X0128232Y0036464D02*
X0129573Y0037805D01*
X0129573Y0039701D01*
X0128484Y0040790D01*
X0128484Y0050495D01*
X0129573Y0051584D01*
X0129573Y0053480D01*
X0128232Y0054821D01*
X0126336Y0054821D01*
X0124995Y0053480D01*
X0124995Y0051584D01*
X0126084Y0050495D01*
X0126084Y0040790D01*
X0124995Y0039701D01*
X0124995Y0037805D01*
X0126336Y0036464D01*
X0128232Y0036464D01*
X0129044Y0037276D02*
X0234969Y0037276D01*
X0236041Y0037874D02*
X0129573Y0037874D01*
X0129573Y0038473D02*
X0341379Y0038473D01*
X0341498Y0039071D02*
X0129573Y0039071D01*
X0129573Y0039670D02*
X0341605Y0039670D01*
X0341634Y0040268D02*
X0129006Y0040268D01*
X0128484Y0040867D02*
X0341663Y0040867D01*
X0341693Y0041465D02*
X0128484Y0041465D01*
X0128484Y0042064D02*
X0341720Y0042064D01*
X0341720Y0042662D02*
X0128484Y0042662D01*
X0128484Y0043261D02*
X0341720Y0043261D01*
X0341720Y0043859D02*
X0297660Y0043859D01*
X0297403Y0043753D02*
X0298837Y0044346D01*
X0299934Y0045444D01*
X0300528Y0046877D01*
X0300528Y0048429D01*
X0299934Y0049862D01*
X0298837Y0050959D01*
X0297403Y0051553D01*
X0289852Y0051553D01*
X0288418Y0050959D01*
X0287321Y0049862D01*
X0286728Y0048429D01*
X0286728Y0046877D01*
X0287321Y0045444D01*
X0288418Y0044346D01*
X0289852Y0043753D01*
X0297403Y0043753D01*
X0298948Y0044458D02*
X0341720Y0044458D01*
X0341720Y0045056D02*
X0299547Y0045056D01*
X0300021Y0045655D02*
X0341720Y0045655D01*
X0341720Y0046253D02*
X0300269Y0046253D01*
X0300517Y0046852D02*
X0341720Y0046852D01*
X0341720Y0047450D02*
X0300528Y0047450D01*
X0300528Y0048049D02*
X0341720Y0048049D01*
X0341720Y0048647D02*
X0300437Y0048647D01*
X0300189Y0049246D02*
X0341720Y0049246D01*
X0341720Y0049844D02*
X0299941Y0049844D01*
X0299353Y0050443D02*
X0341720Y0050443D01*
X0341720Y0051041D02*
X0327126Y0051041D01*
X0327370Y0051143D02*
X0328467Y0052240D01*
X0329061Y0053673D01*
X0329061Y0061225D01*
X0328467Y0062658D01*
X0327370Y0063755D01*
X0325936Y0064349D01*
X0324385Y0064349D01*
X0322951Y0063755D01*
X0321854Y0062658D01*
X0321261Y0061225D01*
X0321261Y0053673D01*
X0321854Y0052240D01*
X0322951Y0051143D01*
X0324385Y0050549D01*
X0325936Y0050549D01*
X0327370Y0051143D01*
X0327867Y0051640D02*
X0341720Y0051640D01*
X0341720Y0052238D02*
X0328466Y0052238D01*
X0328714Y0052837D02*
X0341720Y0052837D01*
X0341720Y0053435D02*
X0328962Y0053435D01*
X0329061Y0054034D02*
X0341720Y0054034D01*
X0341720Y0054632D02*
X0329061Y0054632D01*
X0329061Y0055231D02*
X0341720Y0055231D01*
X0341720Y0055829D02*
X0329061Y0055829D01*
X0329061Y0056428D02*
X0341720Y0056428D01*
X0341720Y0057027D02*
X0329061Y0057027D01*
X0329061Y0057625D02*
X0341720Y0057625D01*
X0341720Y0058224D02*
X0329061Y0058224D01*
X0329061Y0058822D02*
X0341720Y0058822D01*
X0341720Y0059421D02*
X0329061Y0059421D01*
X0329061Y0060019D02*
X0341720Y0060019D01*
X0341720Y0060618D02*
X0329061Y0060618D01*
X0329061Y0061216D02*
X0341720Y0061216D01*
X0341720Y0061815D02*
X0328816Y0061815D01*
X0328568Y0062413D02*
X0341720Y0062413D01*
X0341720Y0063012D02*
X0328113Y0063012D01*
X0327515Y0063610D02*
X0341720Y0063610D01*
X0341720Y0064209D02*
X0326275Y0064209D01*
X0324046Y0064209D02*
X0308475Y0064209D01*
X0308136Y0064349D02*
X0306585Y0064349D01*
X0305151Y0063755D01*
X0304054Y0062658D01*
X0303461Y0061225D01*
X0303461Y0053673D01*
X0304054Y0052240D01*
X0305151Y0051143D01*
X0306585Y0050549D01*
X0308136Y0050549D01*
X0309570Y0051143D01*
X0310667Y0052240D01*
X0311261Y0053673D01*
X0311261Y0061225D01*
X0310667Y0062658D01*
X0309570Y0063755D01*
X0308136Y0064349D01*
X0309715Y0063610D02*
X0322807Y0063610D01*
X0322208Y0063012D02*
X0310313Y0063012D01*
X0310768Y0062413D02*
X0321753Y0062413D01*
X0321505Y0061815D02*
X0311016Y0061815D01*
X0311261Y0061216D02*
X0321261Y0061216D01*
X0321261Y0060618D02*
X0311261Y0060618D01*
X0311261Y0060019D02*
X0321261Y0060019D01*
X0321261Y0059421D02*
X0311261Y0059421D01*
X0311261Y0058822D02*
X0321261Y0058822D01*
X0321261Y0058224D02*
X0311261Y0058224D01*
X0311261Y0057625D02*
X0321261Y0057625D01*
X0321261Y0057027D02*
X0311261Y0057027D01*
X0311261Y0056428D02*
X0321261Y0056428D01*
X0321261Y0055829D02*
X0311261Y0055829D01*
X0311261Y0055231D02*
X0321261Y0055231D01*
X0321261Y0054632D02*
X0311261Y0054632D01*
X0311261Y0054034D02*
X0321261Y0054034D01*
X0321359Y0053435D02*
X0311162Y0053435D01*
X0310914Y0052837D02*
X0321607Y0052837D01*
X0321856Y0052238D02*
X0310666Y0052238D01*
X0310067Y0051640D02*
X0322454Y0051640D01*
X0323196Y0051041D02*
X0309326Y0051041D01*
X0305396Y0051041D02*
X0298638Y0051041D01*
X0303807Y0052837D02*
X0257848Y0052837D01*
X0257601Y0052240D02*
X0258194Y0053673D01*
X0258194Y0061225D01*
X0257601Y0062658D01*
X0256504Y0063755D01*
X0255070Y0064349D01*
X0253519Y0064349D01*
X0252085Y0063755D01*
X0250988Y0062658D01*
X0250394Y0061225D01*
X0250394Y0053673D01*
X0250988Y0052240D01*
X0252085Y0051143D01*
X0253519Y0050549D01*
X0255070Y0050549D01*
X0256504Y0051143D01*
X0257601Y0052240D01*
X0257600Y0052238D02*
X0304056Y0052238D01*
X0304654Y0051640D02*
X0257001Y0051640D01*
X0256259Y0051041D02*
X0263017Y0051041D01*
X0262818Y0050959D02*
X0261721Y0049862D01*
X0261128Y0048429D01*
X0261128Y0046877D01*
X0261721Y0045444D01*
X0262818Y0044346D01*
X0264252Y0043753D01*
X0271803Y0043753D01*
X0273237Y0044346D01*
X0274334Y0045444D01*
X0274928Y0046877D01*
X0274928Y0048429D01*
X0274334Y0049862D01*
X0273237Y0050959D01*
X0271803Y0051553D01*
X0264252Y0051553D01*
X0262818Y0050959D01*
X0262302Y0050443D02*
X0128484Y0050443D01*
X0128484Y0049844D02*
X0261714Y0049844D01*
X0261466Y0049246D02*
X0128484Y0049246D01*
X0128484Y0048647D02*
X0261218Y0048647D01*
X0261128Y0048049D02*
X0128484Y0048049D01*
X0128484Y0047450D02*
X0261128Y0047450D01*
X0261138Y0046852D02*
X0128484Y0046852D01*
X0128484Y0046253D02*
X0261386Y0046253D01*
X0261634Y0045655D02*
X0128484Y0045655D01*
X0128484Y0045056D02*
X0262109Y0045056D01*
X0262707Y0044458D02*
X0128484Y0044458D01*
X0128484Y0043859D02*
X0263995Y0043859D01*
X0272060Y0043859D02*
X0289595Y0043859D01*
X0288307Y0044458D02*
X0273348Y0044458D01*
X0273947Y0045056D02*
X0287709Y0045056D01*
X0287234Y0045655D02*
X0274421Y0045655D01*
X0274669Y0046253D02*
X0286986Y0046253D01*
X0286738Y0046852D02*
X0274917Y0046852D01*
X0274928Y0047450D02*
X0286728Y0047450D01*
X0286728Y0048049D02*
X0274928Y0048049D01*
X0274837Y0048647D02*
X0286818Y0048647D01*
X0287066Y0049246D02*
X0274589Y0049246D01*
X0274341Y0049844D02*
X0287314Y0049844D01*
X0287902Y0050443D02*
X0273753Y0050443D01*
X0273038Y0051041D02*
X0288617Y0051041D01*
X0289852Y0057449D02*
X0288418Y0058043D01*
X0287321Y0059140D01*
X0286728Y0060573D01*
X0286728Y0062125D01*
X0287321Y0063558D01*
X0288418Y0064655D01*
X0289852Y0065249D01*
X0297403Y0065249D01*
X0298837Y0064655D01*
X0299934Y0063558D01*
X0300528Y0062125D01*
X0300528Y0060573D01*
X0299934Y0059140D01*
X0298837Y0058043D01*
X0297403Y0057449D01*
X0289852Y0057449D01*
X0289426Y0057625D02*
X0272229Y0057625D01*
X0271803Y0057449D02*
X0273237Y0058043D01*
X0274334Y0059140D01*
X0274928Y0060573D01*
X0274928Y0062125D01*
X0274334Y0063558D01*
X0273237Y0064655D01*
X0271803Y0065249D01*
X0264252Y0065249D01*
X0262818Y0064655D01*
X0261721Y0063558D01*
X0261128Y0062125D01*
X0261128Y0060573D01*
X0261721Y0059140D01*
X0262818Y0058043D01*
X0264252Y0057449D01*
X0271803Y0057449D01*
X0273418Y0058224D02*
X0288237Y0058224D01*
X0287639Y0058822D02*
X0274016Y0058822D01*
X0274450Y0059421D02*
X0287205Y0059421D01*
X0286957Y0060019D02*
X0274698Y0060019D01*
X0274928Y0060618D02*
X0286728Y0060618D01*
X0286728Y0061216D02*
X0274928Y0061216D01*
X0274928Y0061815D02*
X0286728Y0061815D01*
X0286847Y0062413D02*
X0274808Y0062413D01*
X0274560Y0063012D02*
X0287095Y0063012D01*
X0287373Y0063610D02*
X0274282Y0063610D01*
X0273683Y0064209D02*
X0287972Y0064209D01*
X0288786Y0064807D02*
X0272870Y0064807D01*
X0263186Y0064807D02*
X0104895Y0064807D01*
X0104297Y0065406D02*
X0341720Y0065406D01*
X0341720Y0066004D02*
X0103698Y0066004D01*
X0103100Y0066603D02*
X0341720Y0066603D01*
X0341720Y0067201D02*
X0102501Y0067201D01*
X0101903Y0067800D02*
X0341720Y0067800D01*
X0341720Y0068398D02*
X0104549Y0068398D01*
X0104232Y0068081D02*
X0105550Y0069399D01*
X0105550Y0070884D01*
X0107652Y0072986D01*
X0115405Y0072986D01*
X0116494Y0071897D01*
X0118390Y0071897D01*
X0119731Y0073238D01*
X0119731Y0075134D01*
X0118390Y0076475D01*
X0116494Y0076475D01*
X0115405Y0075386D01*
X0106658Y0075386D01*
X0103853Y0072581D01*
X0102747Y0072581D01*
X0101950Y0073378D01*
X0101950Y0074863D01*
X0100632Y0076181D01*
X0098768Y0076181D01*
X0097450Y0074863D01*
X0097450Y0073378D01*
X0075803Y0051731D01*
X0064797Y0051731D01*
X0106300Y0093234D01*
X0106300Y0093834D01*
X0109347Y0096881D01*
X0110832Y0096881D01*
X0112150Y0098199D01*
X0112150Y0100063D01*
X0110832Y0101381D01*
X0108968Y0101381D01*
X0107650Y0100063D01*
X0107650Y0098578D01*
X0105100Y0096028D01*
X0105100Y0103149D01*
X0106150Y0104199D01*
X0106150Y0106063D01*
X0104832Y0107381D01*
X0104247Y0107381D01*
X0114597Y0117731D01*
X0116918Y0117731D01*
X0117968Y0116681D01*
X0119453Y0116681D01*
X0120289Y0115845D01*
X0118462Y0115845D01*
X0117121Y0114504D01*
X0117121Y0112964D01*
X0116242Y0112084D01*
X0116242Y0107719D01*
X0115153Y0106630D01*
X0115153Y0104734D01*
X0116494Y0103393D01*
X0118390Y0103393D01*
X0119731Y0104734D01*
X0119731Y0106630D01*
X0118642Y0107719D01*
X0118642Y0111090D01*
X0118818Y0111267D01*
X0120358Y0111267D01*
X0121699Y0112608D01*
X0121699Y0114434D01*
X0125603Y0110531D01*
X0156803Y0110531D01*
X0131003Y0084731D01*
X0102882Y0084731D01*
X0101832Y0085781D01*
X0099968Y0085781D01*
X0098650Y0084463D01*
X0098650Y0082599D01*
X0099518Y0081731D01*
X0098650Y0080863D01*
X0098650Y0078999D01*
X0099968Y0077681D01*
X0101832Y0077681D01*
X0102882Y0078731D01*
X0131997Y0078731D01*
X0132700Y0079434D01*
X0166347Y0113081D01*
X0167832Y0113081D01*
X0169150Y0114399D01*
X0169150Y0116263D01*
X0167832Y0117581D01*
X0167247Y0117581D01*
X0183747Y0134081D01*
X0185232Y0134081D01*
X0186550Y0135399D01*
X0186550Y0137184D01*
X0202856Y0120878D01*
X0202856Y0095342D01*
X0203559Y0094639D01*
X0210468Y0087731D01*
X0232970Y0087731D01*
X0232594Y0086825D01*
X0232594Y0079273D01*
X0233188Y0077840D01*
X0234285Y0076743D01*
X0235719Y0076149D01*
X0237270Y0076149D01*
X0238704Y0076743D01*
X0239801Y0077840D01*
X0240394Y0079273D01*
X0240394Y0086825D01*
X0239801Y0088258D01*
X0238704Y0089355D01*
X0237270Y0089949D01*
X0237179Y0089949D01*
X0236997Y0090131D01*
X0235049Y0090131D01*
X0235872Y0090954D01*
X0235872Y0092494D01*
X0245609Y0102231D01*
X0246415Y0101424D01*
X0248311Y0101424D01*
X0249652Y0102765D01*
X0249652Y0104662D01*
X0248311Y0106002D01*
X0246415Y0106002D01*
X0245326Y0104913D01*
X0244897Y0104913D01*
X0234175Y0094191D01*
X0232635Y0094191D01*
X0231935Y0093491D01*
X0231935Y0094463D01*
X0249542Y0112070D01*
X0249542Y0124957D01*
X0250631Y0126046D01*
X0250631Y0127942D01*
X0249291Y0129283D01*
X0247394Y0129283D01*
X0246053Y0127942D01*
X0246053Y0126046D01*
X0247142Y0124957D01*
X0247142Y0113064D01*
X0230238Y0096160D01*
X0228698Y0096160D01*
X0227357Y0094819D01*
X0227357Y0092923D01*
X0228698Y0091582D01*
X0230595Y0091582D01*
X0231294Y0092282D01*
X0231294Y0090954D01*
X0232118Y0090131D01*
X0211462Y0090131D01*
X0205256Y0096336D01*
X0205256Y0121872D01*
X0148300Y0178828D01*
X0148300Y0189549D01*
X0149350Y0190599D01*
X0149350Y0192463D01*
X0148032Y0193781D01*
X0146168Y0193781D01*
X0144850Y0192463D01*
X0144850Y0190599D01*
X0145900Y0189549D01*
X0145900Y0188713D01*
X0145632Y0188981D01*
X0144147Y0188981D01*
X0143350Y0189778D01*
X0143350Y0191263D01*
X0142032Y0192581D01*
X0140168Y0192581D01*
X0138850Y0191263D01*
X0138850Y0189399D01*
X0140168Y0188081D01*
X0141653Y0188081D01*
X0142450Y0187284D01*
X0142450Y0185799D01*
X0143768Y0184481D01*
X0145632Y0184481D01*
X0145900Y0184749D01*
X0145900Y0177834D01*
X0146603Y0177131D01*
X0185153Y0138581D01*
X0183368Y0138581D01*
X0182050Y0137263D01*
X0182050Y0135778D01*
X0161950Y0115678D01*
X0161950Y0116263D01*
X0160632Y0117581D01*
X0158768Y0117581D01*
X0157450Y0116263D01*
X0157450Y0115363D01*
X0156432Y0116381D01*
X0154947Y0116381D01*
X0142197Y0129131D01*
X0148403Y0129131D01*
X0149650Y0127884D01*
X0149650Y0126399D01*
X0150968Y0125081D01*
X0152832Y0125081D01*
X0154150Y0126399D01*
X0154150Y0128263D01*
X0152832Y0129581D01*
X0151347Y0129581D01*
X0149397Y0131531D01*
X0050603Y0131531D01*
X0049900Y0130828D01*
X0025853Y0106781D01*
X0025647Y0106781D01*
X0052797Y0133931D01*
X0064718Y0133931D01*
X0065768Y0132881D01*
X0067632Y0132881D01*
X0068950Y0134199D01*
X0068950Y0136063D01*
X0067632Y0137381D01*
X0065768Y0137381D01*
X0064718Y0136331D01*
X0051803Y0136331D01*
X0051100Y0135628D01*
X0017500Y0102028D01*
X0017500Y0094513D01*
X0017500Y0094513D01*
X0017500Y0189834D01*
X0020864Y0193198D01*
X0021146Y0193081D01*
X0028698Y0193081D01*
X0030131Y0193675D01*
X0031228Y0194772D01*
X0031822Y0196205D01*
X0031822Y0197757D01*
X0031228Y0199190D01*
X0030131Y0200287D01*
X0028698Y0200881D01*
X0021146Y0200881D01*
X0019713Y0200287D01*
X0018616Y0199190D01*
X0018022Y0197757D01*
X0018022Y0196205D01*
X0018616Y0194772D01*
X0018830Y0194558D01*
X0016300Y0192028D01*
X0016300Y0198834D01*
X0020723Y0203257D01*
X0021146Y0203081D01*
X0028698Y0203081D01*
X0030131Y0203675D01*
X0031228Y0204772D01*
X0031822Y0206205D01*
X0031822Y0207757D01*
X0031228Y0209190D01*
X0030131Y0210287D01*
X0028698Y0210881D01*
X0021146Y0210881D01*
X0019713Y0210287D01*
X0018616Y0209190D01*
X0018022Y0207757D01*
X0018022Y0206205D01*
X0018616Y0204772D01*
X0018730Y0204658D01*
X0014603Y0200531D01*
X0013900Y0199828D01*
X0013900Y0076434D01*
X0014603Y0075731D01*
X0015021Y0075731D01*
X0032318Y0058434D01*
X0033021Y0057731D01*
X0043617Y0057731D01*
X0047050Y0054298D01*
X0047050Y0051502D01*
X0048518Y0050034D01*
X0048518Y0050034D01*
X0049221Y0049331D01*
X0076797Y0049331D01*
X0087594Y0060127D01*
X0087594Y0059458D01*
X0088935Y0058117D01*
X0090831Y0058117D01*
X0092172Y0059458D01*
X0092172Y0060998D01*
X0098254Y0067080D01*
X0098668Y0067080D01*
X0097450Y0065863D01*
X0097450Y0063999D01*
X0098768Y0062681D01*
X0100253Y0062681D01*
X0104650Y0058284D01*
X0104650Y0056799D01*
X0105968Y0055481D01*
X0107832Y0055481D01*
X0109150Y0056799D01*
X0109150Y0057158D01*
X0111039Y0055269D01*
X0115405Y0055269D01*
X0116494Y0054180D01*
X0118390Y0054180D01*
X0119731Y0055521D01*
X0119731Y0057417D01*
X0118390Y0058758D01*
X0116494Y0058758D01*
X0115405Y0057669D01*
X0112033Y0057669D01*
X0100925Y0068777D01*
X0100222Y0069480D01*
X0097260Y0069480D01*
X0090475Y0062695D01*
X0090162Y0062695D01*
X0099147Y0071681D01*
X0100253Y0071681D01*
X0101050Y0070884D01*
X0101050Y0069399D01*
X0102368Y0068081D01*
X0104232Y0068081D01*
X0105148Y0068997D02*
X0341720Y0068997D01*
X0341720Y0069595D02*
X0105550Y0069595D01*
X0105550Y0070194D02*
X0341720Y0070194D01*
X0341720Y0070792D02*
X0105550Y0070792D01*
X0106057Y0071391D02*
X0341720Y0071391D01*
X0341720Y0071989D02*
X0118482Y0071989D01*
X0119081Y0072588D02*
X0341720Y0072588D01*
X0341720Y0073186D02*
X0119679Y0073186D01*
X0119731Y0073785D02*
X0341720Y0073785D01*
X0341720Y0074383D02*
X0119731Y0074383D01*
X0119731Y0074982D02*
X0341720Y0074982D01*
X0341720Y0075580D02*
X0298204Y0075580D01*
X0298837Y0075843D02*
X0297403Y0075249D01*
X0289852Y0075249D01*
X0288418Y0075843D01*
X0287321Y0076940D01*
X0286728Y0078373D01*
X0286728Y0079925D01*
X0287321Y0081358D01*
X0288418Y0082455D01*
X0289852Y0083049D01*
X0297403Y0083049D01*
X0298837Y0082455D01*
X0299934Y0081358D01*
X0300528Y0079925D01*
X0300528Y0078373D01*
X0299934Y0076940D01*
X0298837Y0075843D01*
X0299173Y0076179D02*
X0306512Y0076179D01*
X0306585Y0076149D02*
X0308136Y0076149D01*
X0309570Y0076743D01*
X0310667Y0077840D01*
X0311261Y0079273D01*
X0311261Y0086825D01*
X0310667Y0088258D01*
X0309570Y0089355D01*
X0308136Y0089949D01*
X0306585Y0089949D01*
X0305151Y0089355D01*
X0304054Y0088258D01*
X0303461Y0086825D01*
X0303461Y0079273D01*
X0304054Y0077840D01*
X0305151Y0076743D01*
X0306585Y0076149D01*
X0305117Y0076777D02*
X0299772Y0076777D01*
X0300115Y0077376D02*
X0304518Y0077376D01*
X0303999Y0077974D02*
X0300362Y0077974D01*
X0300528Y0078573D02*
X0303751Y0078573D01*
X0303503Y0079171D02*
X0300528Y0079171D01*
X0300528Y0079770D02*
X0303461Y0079770D01*
X0303461Y0080368D02*
X0300344Y0080368D01*
X0300096Y0080967D02*
X0303461Y0080967D01*
X0303461Y0081565D02*
X0299726Y0081565D01*
X0299128Y0082164D02*
X0303461Y0082164D01*
X0303461Y0082762D02*
X0298095Y0082762D01*
X0297403Y0086976D02*
X0289852Y0086976D01*
X0288418Y0087570D01*
X0287321Y0088667D01*
X0286728Y0090101D01*
X0286728Y0091652D01*
X0287321Y0093086D01*
X0288418Y0094183D01*
X0289852Y0094776D01*
X0297403Y0094776D01*
X0298837Y0094183D01*
X0299934Y0093086D01*
X0300528Y0091652D01*
X0300528Y0090101D01*
X0299934Y0088667D01*
X0298837Y0087570D01*
X0297403Y0086976D01*
X0298790Y0087551D02*
X0303761Y0087551D01*
X0304009Y0088149D02*
X0299416Y0088149D01*
X0299967Y0088748D02*
X0304544Y0088748D01*
X0305142Y0089346D02*
X0300215Y0089346D01*
X0300463Y0089945D02*
X0306575Y0089945D01*
X0308146Y0089945D02*
X0324375Y0089945D01*
X0324385Y0089949D02*
X0322951Y0089355D01*
X0321854Y0088258D01*
X0321261Y0086825D01*
X0321261Y0079273D01*
X0321854Y0077840D01*
X0322951Y0076743D01*
X0324385Y0076149D01*
X0325936Y0076149D01*
X0327370Y0076743D01*
X0328467Y0077840D01*
X0329061Y0079273D01*
X0329061Y0086825D01*
X0328467Y0088258D01*
X0327370Y0089355D01*
X0325936Y0089949D01*
X0324385Y0089949D01*
X0325946Y0089945D02*
X0341720Y0089945D01*
X0341720Y0090543D02*
X0300528Y0090543D01*
X0300528Y0091142D02*
X0341720Y0091142D01*
X0341720Y0091740D02*
X0300491Y0091740D01*
X0300243Y0092339D02*
X0341720Y0092339D01*
X0341720Y0092937D02*
X0299995Y0092937D01*
X0299484Y0093536D02*
X0341720Y0093536D01*
X0341720Y0094134D02*
X0298885Y0094134D01*
X0297509Y0094733D02*
X0341720Y0094733D01*
X0341720Y0095331D02*
X0238709Y0095331D01*
X0238111Y0094733D02*
X0264146Y0094733D01*
X0264252Y0094776D02*
X0262818Y0094183D01*
X0261721Y0093086D01*
X0261128Y0091652D01*
X0261128Y0090101D01*
X0261721Y0088667D01*
X0262818Y0087570D01*
X0264252Y0086976D01*
X0271803Y0086976D01*
X0273237Y0087570D01*
X0274334Y0088667D01*
X0274928Y0090101D01*
X0274928Y0091652D01*
X0274334Y0093086D01*
X0273237Y0094183D01*
X0271803Y0094776D01*
X0264252Y0094776D01*
X0262770Y0094134D02*
X0237512Y0094134D01*
X0236914Y0093536D02*
X0262171Y0093536D01*
X0261660Y0092937D02*
X0236315Y0092937D01*
X0235872Y0092339D02*
X0261412Y0092339D01*
X0261164Y0091740D02*
X0235872Y0091740D01*
X0235872Y0091142D02*
X0261128Y0091142D01*
X0261128Y0090543D02*
X0235461Y0090543D01*
X0237280Y0089945D02*
X0253509Y0089945D01*
X0253519Y0089949D02*
X0252085Y0089355D01*
X0250988Y0088258D01*
X0250394Y0086825D01*
X0250394Y0079273D01*
X0250988Y0077840D01*
X0252085Y0076743D01*
X0253519Y0076149D01*
X0255070Y0076149D01*
X0256504Y0076743D01*
X0257601Y0077840D01*
X0258194Y0079273D01*
X0258194Y0086825D01*
X0257601Y0088258D01*
X0256504Y0089355D01*
X0255070Y0089949D01*
X0253519Y0089949D01*
X0255080Y0089945D02*
X0261192Y0089945D01*
X0261440Y0089346D02*
X0256513Y0089346D01*
X0257111Y0088748D02*
X0261688Y0088748D01*
X0262239Y0088149D02*
X0257646Y0088149D01*
X0257894Y0087551D02*
X0262866Y0087551D01*
X0258142Y0086952D02*
X0303513Y0086952D01*
X0303461Y0086354D02*
X0258194Y0086354D01*
X0258194Y0085755D02*
X0303461Y0085755D01*
X0303461Y0085157D02*
X0258194Y0085157D01*
X0258194Y0084558D02*
X0303461Y0084558D01*
X0303461Y0083960D02*
X0258194Y0083960D01*
X0258194Y0083361D02*
X0303461Y0083361D01*
X0311261Y0083361D02*
X0321261Y0083361D01*
X0321261Y0083960D02*
X0311261Y0083960D01*
X0311261Y0084558D02*
X0321261Y0084558D01*
X0321261Y0085157D02*
X0311261Y0085157D01*
X0311261Y0085755D02*
X0321261Y0085755D01*
X0321261Y0086354D02*
X0311261Y0086354D01*
X0311208Y0086952D02*
X0321313Y0086952D01*
X0321561Y0087551D02*
X0310960Y0087551D01*
X0310712Y0088149D02*
X0321809Y0088149D01*
X0322344Y0088748D02*
X0310177Y0088748D01*
X0309579Y0089346D02*
X0322942Y0089346D01*
X0327379Y0089346D02*
X0341720Y0089346D01*
X0341720Y0088748D02*
X0327977Y0088748D01*
X0328512Y0088149D02*
X0341720Y0088149D01*
X0341720Y0087551D02*
X0328760Y0087551D01*
X0329008Y0086952D02*
X0341720Y0086952D01*
X0341720Y0086354D02*
X0329061Y0086354D01*
X0329061Y0085755D02*
X0341720Y0085755D01*
X0341720Y0085157D02*
X0329061Y0085157D01*
X0329061Y0084558D02*
X0341720Y0084558D01*
X0341720Y0083960D02*
X0329061Y0083960D01*
X0329061Y0083361D02*
X0341720Y0083361D01*
X0341720Y0082762D02*
X0329061Y0082762D01*
X0329061Y0082164D02*
X0341720Y0082164D01*
X0341720Y0081565D02*
X0329061Y0081565D01*
X0329061Y0080967D02*
X0341720Y0080967D01*
X0341720Y0080368D02*
X0329061Y0080368D01*
X0329061Y0079770D02*
X0341720Y0079770D01*
X0341720Y0079171D02*
X0329019Y0079171D01*
X0328771Y0078573D02*
X0341720Y0078573D01*
X0341720Y0077974D02*
X0328523Y0077974D01*
X0328003Y0077376D02*
X0341720Y0077376D01*
X0341720Y0076777D02*
X0327405Y0076777D01*
X0326009Y0076179D02*
X0341720Y0076179D01*
X0341720Y0064807D02*
X0298470Y0064807D01*
X0299283Y0064209D02*
X0306246Y0064209D01*
X0305007Y0063610D02*
X0299882Y0063610D01*
X0300160Y0063012D02*
X0304408Y0063012D01*
X0303953Y0062413D02*
X0300408Y0062413D01*
X0300528Y0061815D02*
X0303705Y0061815D01*
X0303461Y0061216D02*
X0300528Y0061216D01*
X0300528Y0060618D02*
X0303461Y0060618D01*
X0303461Y0060019D02*
X0300298Y0060019D01*
X0300050Y0059421D02*
X0303461Y0059421D01*
X0303461Y0058822D02*
X0299616Y0058822D01*
X0299018Y0058224D02*
X0303461Y0058224D01*
X0303461Y0057625D02*
X0297829Y0057625D01*
X0303461Y0057027D02*
X0258194Y0057027D01*
X0258194Y0057625D02*
X0263826Y0057625D01*
X0262637Y0058224D02*
X0258194Y0058224D01*
X0258194Y0058822D02*
X0262039Y0058822D01*
X0261605Y0059421D02*
X0258194Y0059421D01*
X0258194Y0060019D02*
X0261357Y0060019D01*
X0261128Y0060618D02*
X0258194Y0060618D01*
X0258194Y0061216D02*
X0261128Y0061216D01*
X0261128Y0061815D02*
X0257950Y0061815D01*
X0257702Y0062413D02*
X0261247Y0062413D01*
X0261495Y0063012D02*
X0257247Y0063012D01*
X0256649Y0063610D02*
X0261773Y0063610D01*
X0262372Y0064209D02*
X0255409Y0064209D01*
X0253180Y0064209D02*
X0237609Y0064209D01*
X0237270Y0064349D02*
X0235719Y0064349D01*
X0234285Y0063755D01*
X0233188Y0062658D01*
X0232594Y0061225D01*
X0232594Y0053673D01*
X0233188Y0052240D01*
X0234285Y0051143D01*
X0235719Y0050549D01*
X0237270Y0050549D01*
X0238704Y0051143D01*
X0239801Y0052240D01*
X0240394Y0053673D01*
X0240394Y0061225D01*
X0239801Y0062658D01*
X0238704Y0063755D01*
X0237270Y0064349D01*
X0238849Y0063610D02*
X0251940Y0063610D01*
X0251342Y0063012D02*
X0239447Y0063012D01*
X0239902Y0062413D02*
X0250887Y0062413D01*
X0250639Y0061815D02*
X0240150Y0061815D01*
X0240394Y0061216D02*
X0250394Y0061216D01*
X0250394Y0060618D02*
X0240394Y0060618D01*
X0240394Y0060019D02*
X0250394Y0060019D01*
X0250394Y0059421D02*
X0240394Y0059421D01*
X0240394Y0058822D02*
X0250394Y0058822D01*
X0250394Y0058224D02*
X0240394Y0058224D01*
X0240394Y0057625D02*
X0250394Y0057625D01*
X0250394Y0057027D02*
X0240394Y0057027D01*
X0240394Y0056428D02*
X0250394Y0056428D01*
X0250394Y0055829D02*
X0240394Y0055829D01*
X0240394Y0055231D02*
X0250394Y0055231D01*
X0250394Y0054632D02*
X0240394Y0054632D01*
X0240394Y0054034D02*
X0250394Y0054034D01*
X0250493Y0053435D02*
X0240296Y0053435D01*
X0240048Y0052837D02*
X0250741Y0052837D01*
X0250989Y0052238D02*
X0239800Y0052238D01*
X0239201Y0051640D02*
X0251588Y0051640D01*
X0252330Y0051041D02*
X0238459Y0051041D01*
X0234530Y0051041D02*
X0129030Y0051041D01*
X0129573Y0051640D02*
X0233788Y0051640D01*
X0233189Y0052238D02*
X0129573Y0052238D01*
X0129573Y0052837D02*
X0232941Y0052837D01*
X0232693Y0053435D02*
X0129573Y0053435D01*
X0129020Y0054034D02*
X0232594Y0054034D01*
X0232594Y0054632D02*
X0128421Y0054632D01*
X0126147Y0054632D02*
X0118842Y0054632D01*
X0119441Y0055231D02*
X0232594Y0055231D01*
X0232594Y0055829D02*
X0119731Y0055829D01*
X0119731Y0056428D02*
X0232594Y0056428D01*
X0232594Y0057027D02*
X0119731Y0057027D01*
X0119523Y0057625D02*
X0232594Y0057625D01*
X0232594Y0058224D02*
X0118925Y0058224D01*
X0117442Y0056469D02*
X0111536Y0056469D01*
X0099725Y0068280D01*
X0097757Y0068280D01*
X0089883Y0060406D01*
X0091536Y0058822D02*
X0104112Y0058822D01*
X0104650Y0058224D02*
X0090937Y0058224D01*
X0092134Y0059421D02*
X0103513Y0059421D01*
X0102915Y0060019D02*
X0092172Y0060019D01*
X0092172Y0060618D02*
X0102316Y0060618D01*
X0101718Y0061216D02*
X0092390Y0061216D01*
X0092988Y0061815D02*
X0101119Y0061815D01*
X0100521Y0062413D02*
X0093587Y0062413D01*
X0094185Y0063012D02*
X0098437Y0063012D01*
X0097839Y0063610D02*
X0094784Y0063610D01*
X0095382Y0064209D02*
X0097450Y0064209D01*
X0097450Y0064807D02*
X0095981Y0064807D01*
X0096579Y0065406D02*
X0097450Y0065406D01*
X0097591Y0066004D02*
X0097178Y0066004D01*
X0097776Y0066603D02*
X0098190Y0066603D01*
X0099700Y0064931D02*
X0106900Y0057731D01*
X0104650Y0057625D02*
X0085091Y0057625D01*
X0084493Y0057027D02*
X0104650Y0057027D01*
X0105021Y0056428D02*
X0083894Y0056428D01*
X0083296Y0055829D02*
X0105619Y0055829D01*
X0108181Y0055829D02*
X0110479Y0055829D01*
X0109880Y0056428D02*
X0108779Y0056428D01*
X0109150Y0057027D02*
X0109282Y0057027D01*
X0110881Y0058822D02*
X0232594Y0058822D01*
X0232594Y0059421D02*
X0110282Y0059421D01*
X0109683Y0060019D02*
X0232594Y0060019D01*
X0232594Y0060618D02*
X0109085Y0060618D01*
X0108486Y0061216D02*
X0232594Y0061216D01*
X0232839Y0061815D02*
X0107888Y0061815D01*
X0107289Y0062413D02*
X0233087Y0062413D01*
X0233542Y0063012D02*
X0106691Y0063012D01*
X0106092Y0063610D02*
X0234140Y0063610D01*
X0235380Y0064209D02*
X0105494Y0064209D01*
X0102051Y0068398D02*
X0101304Y0068398D01*
X0101452Y0068997D02*
X0100706Y0068997D01*
X0101050Y0069595D02*
X0097062Y0069595D01*
X0096776Y0068997D02*
X0096463Y0068997D01*
X0096178Y0068398D02*
X0095865Y0068398D01*
X0095579Y0067800D02*
X0095266Y0067800D01*
X0094981Y0067201D02*
X0094668Y0067201D01*
X0094382Y0066603D02*
X0094069Y0066603D01*
X0093784Y0066004D02*
X0093470Y0066004D01*
X0093185Y0065406D02*
X0092872Y0065406D01*
X0092586Y0064807D02*
X0092273Y0064807D01*
X0091988Y0064209D02*
X0091675Y0064209D01*
X0091389Y0063610D02*
X0091076Y0063610D01*
X0090791Y0063012D02*
X0090478Y0063012D01*
X0088879Y0064807D02*
X0077873Y0064807D01*
X0077275Y0064209D02*
X0088281Y0064209D01*
X0087682Y0063610D02*
X0076676Y0063610D01*
X0076078Y0063012D02*
X0087084Y0063012D01*
X0086485Y0062413D02*
X0075479Y0062413D01*
X0074881Y0061815D02*
X0085887Y0061815D01*
X0085288Y0061216D02*
X0074282Y0061216D01*
X0073684Y0060618D02*
X0084690Y0060618D01*
X0084091Y0060019D02*
X0073085Y0060019D01*
X0072487Y0059421D02*
X0083493Y0059421D01*
X0082894Y0058822D02*
X0071888Y0058822D01*
X0071290Y0058224D02*
X0082296Y0058224D01*
X0081697Y0057625D02*
X0070691Y0057625D01*
X0070093Y0057027D02*
X0081099Y0057027D01*
X0080500Y0056428D02*
X0069494Y0056428D01*
X0068896Y0055829D02*
X0079902Y0055829D01*
X0079303Y0055231D02*
X0068297Y0055231D01*
X0067699Y0054632D02*
X0078705Y0054632D01*
X0078106Y0054034D02*
X0067100Y0054034D01*
X0066502Y0053435D02*
X0077508Y0053435D01*
X0076909Y0052837D02*
X0065903Y0052837D01*
X0065305Y0052238D02*
X0076311Y0052238D01*
X0076300Y0050531D02*
X0099700Y0073931D01*
X0103300Y0070331D01*
X0107155Y0074186D01*
X0117442Y0074186D01*
X0115803Y0072588D02*
X0107254Y0072588D01*
X0106656Y0071989D02*
X0116401Y0071989D01*
X0115599Y0075580D02*
X0101232Y0075580D01*
X0101831Y0074982D02*
X0106254Y0074982D01*
X0105656Y0074383D02*
X0101950Y0074383D01*
X0101950Y0073785D02*
X0105057Y0073785D01*
X0104459Y0073186D02*
X0102141Y0073186D01*
X0102740Y0072588D02*
X0103860Y0072588D01*
X0101050Y0070792D02*
X0098259Y0070792D01*
X0098857Y0071391D02*
X0100543Y0071391D01*
X0101050Y0070194D02*
X0097660Y0070194D01*
X0096062Y0071989D02*
X0085056Y0071989D01*
X0085654Y0072588D02*
X0096660Y0072588D01*
X0097259Y0073186D02*
X0086253Y0073186D01*
X0086851Y0073785D02*
X0097450Y0073785D01*
X0097450Y0074383D02*
X0087450Y0074383D01*
X0088048Y0074982D02*
X0097569Y0074982D01*
X0098168Y0075580D02*
X0088647Y0075580D01*
X0089245Y0076179D02*
X0098766Y0076179D01*
X0100634Y0076179D02*
X0116198Y0076179D01*
X0118686Y0076179D02*
X0235646Y0076179D01*
X0234250Y0076777D02*
X0089844Y0076777D01*
X0090442Y0077376D02*
X0233652Y0077376D01*
X0233132Y0077974D02*
X0102126Y0077974D01*
X0102724Y0078573D02*
X0232884Y0078573D01*
X0232637Y0079171D02*
X0132438Y0079171D01*
X0133036Y0079770D02*
X0232594Y0079770D01*
X0232594Y0080368D02*
X0133635Y0080368D01*
X0134233Y0080967D02*
X0232594Y0080967D01*
X0232594Y0081565D02*
X0134832Y0081565D01*
X0135430Y0082164D02*
X0232594Y0082164D01*
X0232594Y0082762D02*
X0136029Y0082762D01*
X0136627Y0083361D02*
X0232594Y0083361D01*
X0232594Y0083960D02*
X0137226Y0083960D01*
X0137824Y0084558D02*
X0232594Y0084558D01*
X0232594Y0085157D02*
X0138423Y0085157D01*
X0139021Y0085755D02*
X0232594Y0085755D01*
X0232594Y0086354D02*
X0139620Y0086354D01*
X0140218Y0086952D02*
X0232647Y0086952D01*
X0232895Y0087551D02*
X0140817Y0087551D01*
X0141415Y0088149D02*
X0210049Y0088149D01*
X0209451Y0088748D02*
X0142014Y0088748D01*
X0142612Y0089346D02*
X0208852Y0089346D01*
X0208254Y0089945D02*
X0143211Y0089945D01*
X0143809Y0090543D02*
X0207655Y0090543D01*
X0207057Y0091142D02*
X0144408Y0091142D01*
X0145006Y0091740D02*
X0206458Y0091740D01*
X0205860Y0092339D02*
X0145605Y0092339D01*
X0146204Y0092937D02*
X0205261Y0092937D01*
X0204663Y0093536D02*
X0146802Y0093536D01*
X0147401Y0094134D02*
X0204064Y0094134D01*
X0203466Y0094733D02*
X0147999Y0094733D01*
X0148598Y0095331D02*
X0202867Y0095331D01*
X0202856Y0095930D02*
X0149196Y0095930D01*
X0149795Y0096528D02*
X0202856Y0096528D01*
X0202856Y0097127D02*
X0150393Y0097127D01*
X0150992Y0097725D02*
X0202856Y0097725D01*
X0202856Y0098324D02*
X0151590Y0098324D01*
X0152189Y0098922D02*
X0202856Y0098922D01*
X0202856Y0099521D02*
X0152787Y0099521D01*
X0153386Y0100119D02*
X0202856Y0100119D01*
X0202856Y0100718D02*
X0153984Y0100718D01*
X0154583Y0101316D02*
X0202856Y0101316D01*
X0202856Y0101915D02*
X0155181Y0101915D01*
X0155780Y0102513D02*
X0202856Y0102513D01*
X0202856Y0103112D02*
X0156378Y0103112D01*
X0156977Y0103710D02*
X0202856Y0103710D01*
X0202856Y0104309D02*
X0157575Y0104309D01*
X0158174Y0104907D02*
X0202856Y0104907D01*
X0202856Y0105506D02*
X0158772Y0105506D01*
X0159371Y0106104D02*
X0202856Y0106104D01*
X0202856Y0106703D02*
X0159969Y0106703D01*
X0160568Y0107301D02*
X0202856Y0107301D01*
X0202856Y0107900D02*
X0161166Y0107900D01*
X0161765Y0108498D02*
X0202856Y0108498D01*
X0202856Y0109097D02*
X0162363Y0109097D01*
X0162962Y0109695D02*
X0202856Y0109695D01*
X0202856Y0110294D02*
X0163560Y0110294D01*
X0164159Y0110893D02*
X0202856Y0110893D01*
X0202856Y0111491D02*
X0164757Y0111491D01*
X0165356Y0112090D02*
X0202856Y0112090D01*
X0202856Y0112688D02*
X0165954Y0112688D01*
X0168038Y0113287D02*
X0202856Y0113287D01*
X0202856Y0113885D02*
X0168636Y0113885D01*
X0169150Y0114484D02*
X0202856Y0114484D01*
X0202856Y0115082D02*
X0169150Y0115082D01*
X0169150Y0115681D02*
X0202856Y0115681D01*
X0202856Y0116279D02*
X0169134Y0116279D01*
X0168535Y0116878D02*
X0202856Y0116878D01*
X0202856Y0117476D02*
X0167937Y0117476D01*
X0167741Y0118075D02*
X0202856Y0118075D01*
X0202856Y0118673D02*
X0168339Y0118673D01*
X0168938Y0119272D02*
X0202856Y0119272D01*
X0202856Y0119870D02*
X0169537Y0119870D01*
X0170135Y0120469D02*
X0202856Y0120469D01*
X0202666Y0121067D02*
X0170734Y0121067D01*
X0171332Y0121666D02*
X0202068Y0121666D01*
X0201469Y0122264D02*
X0171931Y0122264D01*
X0172529Y0122863D02*
X0200871Y0122863D01*
X0200272Y0123461D02*
X0173128Y0123461D01*
X0173726Y0124060D02*
X0199674Y0124060D01*
X0199075Y0124658D02*
X0174325Y0124658D01*
X0174923Y0125257D02*
X0198477Y0125257D01*
X0197878Y0125855D02*
X0175522Y0125855D01*
X0176120Y0126454D02*
X0197280Y0126454D01*
X0196681Y0127052D02*
X0176719Y0127052D01*
X0177317Y0127651D02*
X0196083Y0127651D01*
X0195484Y0128249D02*
X0177916Y0128249D01*
X0178514Y0128848D02*
X0194886Y0128848D01*
X0194287Y0129446D02*
X0179113Y0129446D01*
X0179711Y0130045D02*
X0193689Y0130045D01*
X0193090Y0130643D02*
X0180310Y0130643D01*
X0180908Y0131242D02*
X0192492Y0131242D01*
X0191893Y0131840D02*
X0181507Y0131840D01*
X0182105Y0132439D02*
X0191295Y0132439D01*
X0190696Y0133037D02*
X0182704Y0133037D01*
X0183302Y0133636D02*
X0190098Y0133636D01*
X0189499Y0134234D02*
X0185386Y0134234D01*
X0185984Y0134833D02*
X0188901Y0134833D01*
X0188302Y0135431D02*
X0186550Y0135431D01*
X0186550Y0136030D02*
X0187704Y0136030D01*
X0187105Y0136629D02*
X0186550Y0136629D01*
X0184300Y0136331D02*
X0131500Y0083531D01*
X0100900Y0083531D01*
X0102456Y0085157D02*
X0131429Y0085157D01*
X0132027Y0085755D02*
X0101858Y0085755D01*
X0099942Y0085755D02*
X0098821Y0085755D01*
X0099344Y0085157D02*
X0098223Y0085157D01*
X0098745Y0084558D02*
X0097624Y0084558D01*
X0097026Y0083960D02*
X0098650Y0083960D01*
X0098650Y0083361D02*
X0096427Y0083361D01*
X0095829Y0082762D02*
X0098650Y0082762D01*
X0099085Y0082164D02*
X0095230Y0082164D01*
X0094632Y0081565D02*
X0099353Y0081565D01*
X0098754Y0080967D02*
X0094033Y0080967D01*
X0093435Y0080368D02*
X0098650Y0080368D01*
X0098650Y0079770D02*
X0092836Y0079770D01*
X0092238Y0079171D02*
X0098650Y0079171D01*
X0099076Y0078573D02*
X0091639Y0078573D01*
X0091041Y0077974D02*
X0099674Y0077974D01*
X0100900Y0079931D02*
X0131500Y0079931D01*
X0166900Y0115331D01*
X0164347Y0118075D02*
X0153253Y0118075D01*
X0152655Y0118673D02*
X0164945Y0118673D01*
X0165544Y0119272D02*
X0152056Y0119272D01*
X0151458Y0119870D02*
X0166142Y0119870D01*
X0166741Y0120469D02*
X0150859Y0120469D01*
X0150261Y0121067D02*
X0167339Y0121067D01*
X0167938Y0121666D02*
X0149662Y0121666D01*
X0149063Y0122264D02*
X0168536Y0122264D01*
X0169135Y0122863D02*
X0148465Y0122863D01*
X0147866Y0123461D02*
X0169734Y0123461D01*
X0170332Y0124060D02*
X0147268Y0124060D01*
X0146669Y0124658D02*
X0170931Y0124658D01*
X0171529Y0125257D02*
X0153008Y0125257D01*
X0153607Y0125855D02*
X0172128Y0125855D01*
X0172726Y0126454D02*
X0154150Y0126454D01*
X0154150Y0127052D02*
X0173325Y0127052D01*
X0173923Y0127651D02*
X0154150Y0127651D01*
X0154150Y0128249D02*
X0174522Y0128249D01*
X0175120Y0128848D02*
X0153565Y0128848D01*
X0152966Y0129446D02*
X0175719Y0129446D01*
X0176317Y0130045D02*
X0150883Y0130045D01*
X0150284Y0130643D02*
X0176916Y0130643D01*
X0177514Y0131242D02*
X0149686Y0131242D01*
X0148900Y0130331D02*
X0151900Y0127331D01*
X0150193Y0125855D02*
X0145472Y0125855D01*
X0144874Y0126454D02*
X0149650Y0126454D01*
X0149650Y0127052D02*
X0144275Y0127052D01*
X0143677Y0127651D02*
X0149650Y0127651D01*
X0149284Y0128249D02*
X0143078Y0128249D01*
X0142480Y0128848D02*
X0148686Y0128848D01*
X0148900Y0130331D02*
X0051100Y0130331D01*
X0025300Y0104531D01*
X0027063Y0103112D02*
X0027137Y0103112D01*
X0027100Y0103149D02*
X0027518Y0102731D01*
X0026650Y0101863D01*
X0026650Y0099999D01*
X0027968Y0098681D01*
X0029453Y0098681D01*
X0030700Y0097434D01*
X0030700Y0077113D01*
X0029650Y0076063D01*
X0029650Y0074878D01*
X0026350Y0078178D01*
X0026350Y0079663D01*
X0025032Y0080981D01*
X0023168Y0080981D01*
X0021850Y0079663D01*
X0021850Y0079078D01*
X0017500Y0083428D01*
X0017500Y0090549D01*
X0017768Y0090281D01*
X0019632Y0090281D01*
X0020950Y0091599D01*
X0020950Y0093463D01*
X0019900Y0094513D01*
X0019900Y0101034D01*
X0023050Y0104184D01*
X0023050Y0103599D01*
X0024368Y0102281D01*
X0026232Y0102281D01*
X0027100Y0103149D01*
X0027301Y0102513D02*
X0026465Y0102513D01*
X0026702Y0101915D02*
X0020781Y0101915D01*
X0020183Y0101316D02*
X0026650Y0101316D01*
X0026650Y0100718D02*
X0019900Y0100718D01*
X0019900Y0100119D02*
X0026650Y0100119D01*
X0027128Y0099521D02*
X0019900Y0099521D01*
X0019900Y0098922D02*
X0027726Y0098922D01*
X0029810Y0098324D02*
X0019900Y0098324D01*
X0019900Y0097725D02*
X0030408Y0097725D01*
X0030700Y0097127D02*
X0019900Y0097127D01*
X0019900Y0096528D02*
X0030700Y0096528D01*
X0030700Y0095930D02*
X0019900Y0095930D01*
X0019900Y0095331D02*
X0030700Y0095331D01*
X0030700Y0094733D02*
X0019900Y0094733D01*
X0020278Y0094134D02*
X0030700Y0094134D01*
X0030700Y0093536D02*
X0020877Y0093536D01*
X0020950Y0092937D02*
X0030700Y0092937D01*
X0030700Y0092339D02*
X0020950Y0092339D01*
X0020950Y0091740D02*
X0030700Y0091740D01*
X0030700Y0091142D02*
X0020493Y0091142D01*
X0019894Y0090543D02*
X0030700Y0090543D01*
X0030700Y0089945D02*
X0017500Y0089945D01*
X0017500Y0090543D02*
X0017506Y0090543D01*
X0017500Y0089346D02*
X0030700Y0089346D01*
X0030700Y0088748D02*
X0017500Y0088748D01*
X0017500Y0088149D02*
X0030700Y0088149D01*
X0030700Y0087551D02*
X0017500Y0087551D01*
X0017500Y0086952D02*
X0030700Y0086952D01*
X0030700Y0086354D02*
X0017500Y0086354D01*
X0017500Y0085755D02*
X0030700Y0085755D01*
X0030700Y0085157D02*
X0017500Y0085157D01*
X0017500Y0084558D02*
X0030700Y0084558D01*
X0030700Y0083960D02*
X0017500Y0083960D01*
X0017567Y0083361D02*
X0030700Y0083361D01*
X0030700Y0082762D02*
X0018165Y0082762D01*
X0018764Y0082164D02*
X0030700Y0082164D01*
X0030700Y0081565D02*
X0019362Y0081565D01*
X0019961Y0080967D02*
X0023154Y0080967D01*
X0022556Y0080368D02*
X0020559Y0080368D01*
X0021158Y0079770D02*
X0021957Y0079770D01*
X0021850Y0079171D02*
X0021756Y0079171D01*
X0024100Y0078731D02*
X0039100Y0063731D01*
X0058900Y0063731D01*
X0060100Y0061331D02*
X0037900Y0061331D01*
X0016300Y0082931D01*
X0016300Y0190331D01*
X0022900Y0196931D01*
X0024700Y0196931D01*
X0024922Y0196981D01*
X0020635Y0200669D02*
X0018136Y0200669D01*
X0018734Y0201268D02*
X0105066Y0201268D01*
X0104467Y0201866D02*
X0019333Y0201866D01*
X0019931Y0202465D02*
X0103869Y0202465D01*
X0103270Y0203063D02*
X0020530Y0203063D01*
X0018333Y0204260D02*
X0003400Y0204260D01*
X0003400Y0203662D02*
X0017734Y0203662D01*
X0017136Y0203063D02*
X0003400Y0203063D01*
X0003400Y0202465D02*
X0016537Y0202465D01*
X0015938Y0201866D02*
X0003400Y0201866D01*
X0003400Y0201268D02*
X0015340Y0201268D01*
X0014741Y0200669D02*
X0003400Y0200669D01*
X0003400Y0200071D02*
X0014143Y0200071D01*
X0013900Y0199472D02*
X0003400Y0199472D01*
X0003400Y0198874D02*
X0013900Y0198874D01*
X0013900Y0198275D02*
X0003400Y0198275D01*
X0003400Y0197677D02*
X0013900Y0197677D01*
X0013900Y0197078D02*
X0003400Y0197078D01*
X0003400Y0196480D02*
X0013900Y0196480D01*
X0013900Y0195881D02*
X0003400Y0195881D01*
X0003400Y0195283D02*
X0013900Y0195283D01*
X0013900Y0194684D02*
X0003400Y0194684D01*
X0003400Y0194086D02*
X0013900Y0194086D01*
X0013900Y0193487D02*
X0003400Y0193487D01*
X0003400Y0192889D02*
X0013900Y0192889D01*
X0013900Y0192290D02*
X0003400Y0192290D01*
X0003400Y0191692D02*
X0013900Y0191692D01*
X0013900Y0191093D02*
X0003400Y0191093D01*
X0003400Y0190495D02*
X0013900Y0190495D01*
X0013900Y0189896D02*
X0003400Y0189896D01*
X0003400Y0189298D02*
X0013900Y0189298D01*
X0013900Y0188699D02*
X0003400Y0188699D01*
X0003400Y0188100D02*
X0013900Y0188100D01*
X0013900Y0187502D02*
X0003400Y0187502D01*
X0003400Y0186903D02*
X0013900Y0186903D01*
X0013900Y0186305D02*
X0003400Y0186305D01*
X0003400Y0185706D02*
X0013900Y0185706D01*
X0013900Y0185108D02*
X0003400Y0185108D01*
X0003400Y0184509D02*
X0013900Y0184509D01*
X0013900Y0183911D02*
X0003400Y0183911D01*
X0003400Y0183312D02*
X0013900Y0183312D01*
X0013900Y0182714D02*
X0003400Y0182714D01*
X0003400Y0182115D02*
X0013900Y0182115D01*
X0013900Y0181517D02*
X0003400Y0181517D01*
X0003400Y0180918D02*
X0013900Y0180918D01*
X0013900Y0180320D02*
X0003400Y0180320D01*
X0003400Y0179721D02*
X0013900Y0179721D01*
X0013900Y0179123D02*
X0003400Y0179123D01*
X0003400Y0178524D02*
X0013900Y0178524D01*
X0013900Y0177926D02*
X0003400Y0177926D01*
X0003400Y0177327D02*
X0013900Y0177327D01*
X0013900Y0176729D02*
X0003400Y0176729D01*
X0003400Y0176130D02*
X0013900Y0176130D01*
X0013900Y0175532D02*
X0003400Y0175532D01*
X0003400Y0174933D02*
X0013900Y0174933D01*
X0013900Y0174335D02*
X0003400Y0174335D01*
X0003400Y0173736D02*
X0013900Y0173736D01*
X0013900Y0173138D02*
X0003400Y0173138D01*
X0003400Y0172539D02*
X0013900Y0172539D01*
X0013900Y0171941D02*
X0003400Y0171941D01*
X0003400Y0171342D02*
X0013900Y0171342D01*
X0013900Y0170744D02*
X0003400Y0170744D01*
X0003400Y0170145D02*
X0013900Y0170145D01*
X0013900Y0169547D02*
X0003400Y0169547D01*
X0003400Y0168948D02*
X0013900Y0168948D01*
X0013900Y0168350D02*
X0003400Y0168350D01*
X0003400Y0167751D02*
X0013900Y0167751D01*
X0013900Y0167153D02*
X0003400Y0167153D01*
X0003400Y0166554D02*
X0013900Y0166554D01*
X0013900Y0165956D02*
X0003400Y0165956D01*
X0003400Y0165357D02*
X0013900Y0165357D01*
X0013900Y0164759D02*
X0003400Y0164759D01*
X0003400Y0164160D02*
X0013900Y0164160D01*
X0013900Y0163562D02*
X0003400Y0163562D01*
X0003400Y0162963D02*
X0013900Y0162963D01*
X0013900Y0162364D02*
X0003400Y0162364D01*
X0003400Y0161766D02*
X0013900Y0161766D01*
X0013900Y0161167D02*
X0003400Y0161167D01*
X0003400Y0160569D02*
X0013900Y0160569D01*
X0013900Y0159970D02*
X0003400Y0159970D01*
X0003400Y0159372D02*
X0013900Y0159372D01*
X0013900Y0158773D02*
X0003400Y0158773D01*
X0003400Y0158175D02*
X0013900Y0158175D01*
X0013900Y0157576D02*
X0003400Y0157576D01*
X0003400Y0156978D02*
X0013900Y0156978D01*
X0013900Y0156379D02*
X0003400Y0156379D01*
X0003400Y0155781D02*
X0013900Y0155781D01*
X0013900Y0155182D02*
X0003400Y0155182D01*
X0003400Y0154584D02*
X0013900Y0154584D01*
X0013900Y0153985D02*
X0003400Y0153985D01*
X0003400Y0153387D02*
X0013900Y0153387D01*
X0013900Y0152788D02*
X0003400Y0152788D01*
X0003400Y0152190D02*
X0013900Y0152190D01*
X0013900Y0151591D02*
X0003400Y0151591D01*
X0003400Y0150993D02*
X0013900Y0150993D01*
X0013900Y0150394D02*
X0003400Y0150394D01*
X0003400Y0149796D02*
X0013900Y0149796D01*
X0013900Y0149197D02*
X0003400Y0149197D01*
X0003400Y0148599D02*
X0013900Y0148599D01*
X0013900Y0148000D02*
X0003400Y0148000D01*
X0003400Y0147402D02*
X0013900Y0147402D01*
X0013900Y0146803D02*
X0003400Y0146803D01*
X0003400Y0146205D02*
X0013900Y0146205D01*
X0013900Y0145606D02*
X0003400Y0145606D01*
X0003400Y0145008D02*
X0013900Y0145008D01*
X0013900Y0144409D02*
X0003400Y0144409D01*
X0003400Y0143811D02*
X0013900Y0143811D01*
X0013900Y0143212D02*
X0003400Y0143212D01*
X0003400Y0142614D02*
X0013900Y0142614D01*
X0013900Y0142015D02*
X0003400Y0142015D01*
X0003400Y0141417D02*
X0013900Y0141417D01*
X0013900Y0140818D02*
X0003400Y0140818D01*
X0003400Y0140220D02*
X0013900Y0140220D01*
X0013900Y0139621D02*
X0003400Y0139621D01*
X0003400Y0139023D02*
X0013900Y0139023D01*
X0013900Y0138424D02*
X0003400Y0138424D01*
X0003400Y0137826D02*
X0013900Y0137826D01*
X0013900Y0137227D02*
X0003400Y0137227D01*
X0003400Y0136629D02*
X0013900Y0136629D01*
X0013900Y0136030D02*
X0003400Y0136030D01*
X0003400Y0135431D02*
X0013900Y0135431D01*
X0013900Y0134833D02*
X0003400Y0134833D01*
X0003400Y0134234D02*
X0013900Y0134234D01*
X0013900Y0133636D02*
X0003400Y0133636D01*
X0003400Y0133037D02*
X0013900Y0133037D01*
X0013900Y0132439D02*
X0003400Y0132439D01*
X0003400Y0131840D02*
X0013900Y0131840D01*
X0013900Y0131242D02*
X0003400Y0131242D01*
X0003400Y0130643D02*
X0013900Y0130643D01*
X0013900Y0130045D02*
X0003400Y0130045D01*
X0003400Y0129446D02*
X0013900Y0129446D01*
X0013900Y0128848D02*
X0003400Y0128848D01*
X0003400Y0128249D02*
X0013900Y0128249D01*
X0013900Y0127651D02*
X0003400Y0127651D01*
X0003400Y0127052D02*
X0013900Y0127052D01*
X0013900Y0126454D02*
X0003400Y0126454D01*
X0003400Y0125855D02*
X0013900Y0125855D01*
X0013900Y0125257D02*
X0003400Y0125257D01*
X0003400Y0124658D02*
X0013900Y0124658D01*
X0013900Y0124060D02*
X0003400Y0124060D01*
X0003400Y0123461D02*
X0013900Y0123461D01*
X0013900Y0122863D02*
X0003400Y0122863D01*
X0003400Y0122264D02*
X0013900Y0122264D01*
X0013900Y0121666D02*
X0003400Y0121666D01*
X0003400Y0121067D02*
X0013900Y0121067D01*
X0013900Y0120469D02*
X0003400Y0120469D01*
X0003400Y0119870D02*
X0013900Y0119870D01*
X0013900Y0119272D02*
X0003400Y0119272D01*
X0003400Y0118673D02*
X0013900Y0118673D01*
X0013900Y0118075D02*
X0003400Y0118075D01*
X0003400Y0117476D02*
X0013900Y0117476D01*
X0013900Y0116878D02*
X0003400Y0116878D01*
X0003400Y0116279D02*
X0013900Y0116279D01*
X0013900Y0115681D02*
X0003400Y0115681D01*
X0003400Y0115082D02*
X0013900Y0115082D01*
X0013900Y0114484D02*
X0003400Y0114484D01*
X0003400Y0113885D02*
X0013900Y0113885D01*
X0013900Y0113287D02*
X0003400Y0113287D01*
X0003400Y0112688D02*
X0013900Y0112688D01*
X0013900Y0112090D02*
X0003400Y0112090D01*
X0003400Y0111491D02*
X0013900Y0111491D01*
X0013900Y0110893D02*
X0003400Y0110893D01*
X0003400Y0110294D02*
X0013900Y0110294D01*
X0013900Y0109695D02*
X0003400Y0109695D01*
X0003400Y0109097D02*
X0013900Y0109097D01*
X0013900Y0108498D02*
X0003400Y0108498D01*
X0003400Y0107900D02*
X0013900Y0107900D01*
X0013900Y0107301D02*
X0003400Y0107301D01*
X0003400Y0106703D02*
X0013900Y0106703D01*
X0013900Y0106104D02*
X0003400Y0106104D01*
X0003400Y0105506D02*
X0013900Y0105506D01*
X0013900Y0104907D02*
X0003400Y0104907D01*
X0003400Y0104309D02*
X0013900Y0104309D01*
X0013900Y0103710D02*
X0003400Y0103710D01*
X0003400Y0103112D02*
X0013900Y0103112D01*
X0013900Y0102513D02*
X0003400Y0102513D01*
X0003400Y0101915D02*
X0013900Y0101915D01*
X0013900Y0101316D02*
X0003400Y0101316D01*
X0003400Y0100718D02*
X0013900Y0100718D01*
X0013900Y0100119D02*
X0003400Y0100119D01*
X0003400Y0099521D02*
X0013900Y0099521D01*
X0013900Y0098922D02*
X0003400Y0098922D01*
X0003400Y0098324D02*
X0013900Y0098324D01*
X0013900Y0097725D02*
X0003400Y0097725D01*
X0003400Y0097127D02*
X0013900Y0097127D01*
X0013900Y0096528D02*
X0003400Y0096528D01*
X0003400Y0095930D02*
X0013900Y0095930D01*
X0013900Y0095331D02*
X0003400Y0095331D01*
X0003400Y0094733D02*
X0013900Y0094733D01*
X0013900Y0094134D02*
X0003400Y0094134D01*
X0003400Y0093536D02*
X0013900Y0093536D01*
X0013900Y0092937D02*
X0003400Y0092937D01*
X0003400Y0092339D02*
X0013900Y0092339D01*
X0013900Y0091740D02*
X0003400Y0091740D01*
X0003400Y0091142D02*
X0013900Y0091142D01*
X0013900Y0090543D02*
X0003400Y0090543D01*
X0003400Y0089945D02*
X0013900Y0089945D01*
X0013900Y0089346D02*
X0003400Y0089346D01*
X0003400Y0088748D02*
X0013900Y0088748D01*
X0013900Y0088149D02*
X0003400Y0088149D01*
X0003400Y0087551D02*
X0013900Y0087551D01*
X0013900Y0086952D02*
X0003400Y0086952D01*
X0003400Y0086354D02*
X0013900Y0086354D01*
X0013900Y0085755D02*
X0003400Y0085755D01*
X0003400Y0085157D02*
X0013900Y0085157D01*
X0013900Y0084558D02*
X0003400Y0084558D01*
X0003400Y0083960D02*
X0013900Y0083960D01*
X0013900Y0083361D02*
X0003400Y0083361D01*
X0003400Y0082762D02*
X0013900Y0082762D01*
X0013900Y0082164D02*
X0003400Y0082164D01*
X0003400Y0081565D02*
X0013900Y0081565D01*
X0013900Y0080967D02*
X0003400Y0080967D01*
X0003400Y0080368D02*
X0013900Y0080368D01*
X0013900Y0079770D02*
X0003400Y0079770D01*
X0003400Y0079171D02*
X0013900Y0079171D01*
X0013900Y0078573D02*
X0003400Y0078573D01*
X0003400Y0077974D02*
X0013900Y0077974D01*
X0013900Y0077376D02*
X0003400Y0077376D01*
X0003400Y0076777D02*
X0013900Y0076777D01*
X0014155Y0076179D02*
X0003400Y0076179D01*
X0003400Y0075580D02*
X0015171Y0075580D01*
X0015770Y0074982D02*
X0003400Y0074982D01*
X0003400Y0074383D02*
X0016368Y0074383D01*
X0016967Y0073785D02*
X0003400Y0073785D01*
X0003400Y0073186D02*
X0017565Y0073186D01*
X0018164Y0072588D02*
X0003400Y0072588D01*
X0003400Y0071989D02*
X0018762Y0071989D01*
X0019361Y0071391D02*
X0003400Y0071391D01*
X0003400Y0070792D02*
X0019959Y0070792D01*
X0020558Y0070194D02*
X0003400Y0070194D01*
X0003400Y0069595D02*
X0021156Y0069595D01*
X0021755Y0068997D02*
X0003400Y0068997D01*
X0003400Y0068398D02*
X0022353Y0068398D01*
X0022952Y0067800D02*
X0003400Y0067800D01*
X0003400Y0067201D02*
X0023550Y0067201D01*
X0024149Y0066603D02*
X0003400Y0066603D01*
X0003400Y0066004D02*
X0024747Y0066004D01*
X0025346Y0065406D02*
X0003400Y0065406D01*
X0003400Y0064807D02*
X0025945Y0064807D01*
X0026543Y0064209D02*
X0003400Y0064209D01*
X0003400Y0063610D02*
X0027142Y0063610D01*
X0027740Y0063012D02*
X0003400Y0063012D01*
X0003400Y0062413D02*
X0028339Y0062413D01*
X0028937Y0061815D02*
X0003400Y0061815D01*
X0003400Y0061216D02*
X0029536Y0061216D01*
X0030134Y0060618D02*
X0003400Y0060618D01*
X0003400Y0060019D02*
X0030733Y0060019D01*
X0031331Y0059421D02*
X0003400Y0059421D01*
X0003400Y0058822D02*
X0031930Y0058822D01*
X0032528Y0058224D02*
X0003400Y0058224D01*
X0003400Y0057625D02*
X0043723Y0057625D01*
X0044321Y0057027D02*
X0003400Y0057027D01*
X0003400Y0056428D02*
X0044920Y0056428D01*
X0045518Y0055829D02*
X0003400Y0055829D01*
X0003400Y0055231D02*
X0046117Y0055231D01*
X0046715Y0054632D02*
X0016216Y0054632D01*
X0016028Y0054821D02*
X0017368Y0053480D01*
X0017368Y0051940D01*
X0018248Y0051061D01*
X0018248Y0049092D01*
X0023127Y0044214D01*
X0029114Y0044214D01*
X0030203Y0045303D01*
X0032099Y0045303D01*
X0033440Y0043962D01*
X0033440Y0042065D01*
X0032099Y0040725D01*
X0030203Y0040725D01*
X0029114Y0041814D01*
X0022133Y0041814D01*
X0016551Y0047395D01*
X0015848Y0048098D01*
X0015848Y0050067D01*
X0015671Y0050243D01*
X0014131Y0050243D01*
X0012791Y0051584D01*
X0012791Y0053480D01*
X0014131Y0054821D01*
X0016028Y0054821D01*
X0016815Y0054034D02*
X0047050Y0054034D01*
X0047050Y0053435D02*
X0017368Y0053435D01*
X0017368Y0052837D02*
X0047050Y0052837D01*
X0047050Y0052238D02*
X0017368Y0052238D01*
X0017669Y0051640D02*
X0047050Y0051640D01*
X0047510Y0051041D02*
X0018248Y0051041D01*
X0018248Y0050443D02*
X0048109Y0050443D01*
X0048707Y0049844D02*
X0018248Y0049844D01*
X0018248Y0049246D02*
X0126084Y0049246D01*
X0126084Y0049844D02*
X0077311Y0049844D01*
X0077909Y0050443D02*
X0126084Y0050443D01*
X0125538Y0051041D02*
X0078508Y0051041D01*
X0079106Y0051640D02*
X0124995Y0051640D01*
X0124995Y0052238D02*
X0079705Y0052238D01*
X0080303Y0052837D02*
X0124995Y0052837D01*
X0124995Y0053435D02*
X0080902Y0053435D01*
X0081500Y0054034D02*
X0125549Y0054034D01*
X0127284Y0052532D02*
X0127284Y0038753D01*
X0125563Y0040268D02*
X0097260Y0040268D01*
X0097568Y0040481D02*
X0099432Y0040481D01*
X0100482Y0041531D01*
X0103718Y0041531D01*
X0104768Y0040481D01*
X0106632Y0040481D01*
X0107950Y0041799D01*
X0107950Y0043663D01*
X0106632Y0044981D01*
X0104768Y0044981D01*
X0103718Y0043931D01*
X0100482Y0043931D01*
X0099432Y0044981D01*
X0097568Y0044981D01*
X0096250Y0043663D01*
X0096250Y0041799D01*
X0097568Y0040481D01*
X0097182Y0040867D02*
X0096661Y0040867D01*
X0096584Y0041465D02*
X0096063Y0041465D01*
X0096250Y0042064D02*
X0095464Y0042064D01*
X0094866Y0042662D02*
X0096250Y0042662D01*
X0096250Y0043261D02*
X0094267Y0043261D01*
X0093668Y0043859D02*
X0096447Y0043859D01*
X0097045Y0044458D02*
X0093070Y0044458D01*
X0092950Y0045056D02*
X0126084Y0045056D01*
X0126084Y0044458D02*
X0107155Y0044458D01*
X0107753Y0043859D02*
X0126084Y0043859D01*
X0126084Y0043261D02*
X0107950Y0043261D01*
X0107950Y0042662D02*
X0126084Y0042662D01*
X0126084Y0042064D02*
X0107950Y0042064D01*
X0107616Y0041465D02*
X0126084Y0041465D01*
X0126084Y0040867D02*
X0107018Y0040867D01*
X0105700Y0042731D02*
X0098500Y0042731D01*
X0099955Y0044458D02*
X0104245Y0044458D01*
X0103784Y0041465D02*
X0100416Y0041465D01*
X0099818Y0040867D02*
X0104382Y0040867D01*
X0100252Y0037276D02*
X0125524Y0037276D01*
X0124995Y0037874D02*
X0099654Y0037874D01*
X0099055Y0038473D02*
X0124995Y0038473D01*
X0124995Y0039071D02*
X0098457Y0039071D01*
X0097858Y0039670D02*
X0124995Y0039670D01*
X0126123Y0036677D02*
X0100851Y0036677D01*
X0099252Y0034882D02*
X0004455Y0034882D01*
X0004336Y0035480D02*
X0098654Y0035480D01*
X0098055Y0036079D02*
X0004217Y0036079D01*
X0004098Y0036677D02*
X0097457Y0036677D01*
X0096858Y0037276D02*
X0003979Y0037276D01*
X0003860Y0037874D02*
X0096260Y0037874D01*
X0095661Y0038473D02*
X0003741Y0038473D01*
X0003622Y0039071D02*
X0095062Y0039071D01*
X0094464Y0039670D02*
X0003515Y0039670D01*
X0003486Y0040268D02*
X0093865Y0040268D01*
X0093267Y0040867D02*
X0032242Y0040867D01*
X0032840Y0041465D02*
X0092668Y0041465D01*
X0092070Y0042064D02*
X0033439Y0042064D01*
X0033440Y0042662D02*
X0091471Y0042662D01*
X0089388Y0043261D02*
X0033440Y0043261D01*
X0033440Y0043859D02*
X0088789Y0043859D01*
X0088450Y0044458D02*
X0032944Y0044458D01*
X0032346Y0045056D02*
X0088450Y0045056D01*
X0088450Y0045655D02*
X0021686Y0045655D01*
X0022284Y0045056D02*
X0029957Y0045056D01*
X0029358Y0044458D02*
X0022883Y0044458D01*
X0022630Y0043014D02*
X0017048Y0048595D01*
X0017048Y0050564D01*
X0015080Y0052532D01*
X0013344Y0054034D02*
X0003400Y0054034D01*
X0003400Y0054632D02*
X0013943Y0054632D01*
X0012791Y0053435D02*
X0003400Y0053435D01*
X0003400Y0052837D02*
X0012791Y0052837D01*
X0012791Y0052238D02*
X0003400Y0052238D01*
X0003400Y0051640D02*
X0012791Y0051640D01*
X0013333Y0051041D02*
X0003400Y0051041D01*
X0003400Y0050443D02*
X0013932Y0050443D01*
X0015848Y0049844D02*
X0003400Y0049844D01*
X0003400Y0049246D02*
X0015848Y0049246D01*
X0015848Y0048647D02*
X0003400Y0048647D01*
X0003400Y0048049D02*
X0015897Y0048049D01*
X0016496Y0047450D02*
X0003400Y0047450D01*
X0003400Y0046852D02*
X0017094Y0046852D01*
X0017693Y0046253D02*
X0003400Y0046253D01*
X0003400Y0045655D02*
X0018291Y0045655D01*
X0018890Y0045056D02*
X0003400Y0045056D01*
X0003400Y0044458D02*
X0019488Y0044458D01*
X0020087Y0043859D02*
X0003400Y0043859D01*
X0003400Y0043261D02*
X0020686Y0043261D01*
X0021284Y0042662D02*
X0003400Y0042662D01*
X0003400Y0042064D02*
X0021883Y0042064D01*
X0022630Y0043014D02*
X0031151Y0043014D01*
X0029463Y0041465D02*
X0003427Y0041465D01*
X0003456Y0040867D02*
X0030061Y0040867D01*
X0021087Y0046253D02*
X0088641Y0046253D01*
X0089239Y0046852D02*
X0020489Y0046852D01*
X0019890Y0047450D02*
X0126084Y0047450D01*
X0126084Y0046852D02*
X0092161Y0046852D01*
X0092759Y0046253D02*
X0126084Y0046253D01*
X0126084Y0045655D02*
X0092950Y0045655D01*
X0090700Y0045131D02*
X0102100Y0033731D01*
X0099850Y0033685D02*
X0004937Y0033685D01*
X0004690Y0034283D02*
X0099850Y0034283D01*
X0099850Y0033086D02*
X0005185Y0033086D01*
X0005433Y0032488D02*
X0100161Y0032488D01*
X0100760Y0031889D02*
X0005681Y0031889D01*
X0024876Y0017525D02*
X0320244Y0017525D01*
X0303559Y0053435D02*
X0258096Y0053435D01*
X0258194Y0054034D02*
X0303461Y0054034D01*
X0303461Y0054632D02*
X0258194Y0054632D01*
X0258194Y0055231D02*
X0303461Y0055231D01*
X0303461Y0055829D02*
X0258194Y0055829D01*
X0258194Y0056428D02*
X0303461Y0056428D01*
X0289051Y0075580D02*
X0272604Y0075580D01*
X0273237Y0075843D02*
X0271803Y0075249D01*
X0264252Y0075249D01*
X0262818Y0075843D01*
X0261721Y0076940D01*
X0261128Y0078373D01*
X0261128Y0079925D01*
X0261721Y0081358D01*
X0262818Y0082455D01*
X0264252Y0083049D01*
X0271803Y0083049D01*
X0273237Y0082455D01*
X0274334Y0081358D01*
X0274928Y0079925D01*
X0274928Y0078373D01*
X0274334Y0076940D01*
X0273237Y0075843D01*
X0273573Y0076179D02*
X0288082Y0076179D01*
X0287484Y0076777D02*
X0274172Y0076777D01*
X0274515Y0077376D02*
X0287141Y0077376D01*
X0286893Y0077974D02*
X0274762Y0077974D01*
X0274928Y0078573D02*
X0286728Y0078573D01*
X0286728Y0079171D02*
X0274928Y0079171D01*
X0274928Y0079770D02*
X0286728Y0079770D01*
X0286911Y0080368D02*
X0274744Y0080368D01*
X0274496Y0080967D02*
X0287159Y0080967D01*
X0287529Y0081565D02*
X0274126Y0081565D01*
X0273528Y0082164D02*
X0288127Y0082164D01*
X0289161Y0082762D02*
X0272495Y0082762D01*
X0273190Y0087551D02*
X0288466Y0087551D01*
X0287839Y0088149D02*
X0273816Y0088149D01*
X0274367Y0088748D02*
X0287288Y0088748D01*
X0287040Y0089346D02*
X0274615Y0089346D01*
X0274863Y0089945D02*
X0286792Y0089945D01*
X0286728Y0090543D02*
X0274928Y0090543D01*
X0274928Y0091142D02*
X0286728Y0091142D01*
X0286764Y0091740D02*
X0274891Y0091740D01*
X0274643Y0092339D02*
X0287012Y0092339D01*
X0287260Y0092937D02*
X0274395Y0092937D01*
X0273884Y0093536D02*
X0287771Y0093536D01*
X0288370Y0094134D02*
X0273285Y0094134D01*
X0271909Y0094733D02*
X0289746Y0094733D01*
X0289852Y0104776D02*
X0297403Y0104776D01*
X0298837Y0105370D01*
X0299934Y0106467D01*
X0300528Y0107901D01*
X0300528Y0109452D01*
X0299934Y0110886D01*
X0298837Y0111983D01*
X0297403Y0112576D01*
X0289852Y0112576D01*
X0288418Y0111983D01*
X0287321Y0110886D01*
X0286728Y0109452D01*
X0286728Y0107901D01*
X0287321Y0106467D01*
X0288418Y0105370D01*
X0289852Y0104776D01*
X0289535Y0104907D02*
X0272120Y0104907D01*
X0271803Y0104776D02*
X0273237Y0105370D01*
X0274334Y0106467D01*
X0274928Y0107901D01*
X0274928Y0109452D01*
X0274334Y0110886D01*
X0273237Y0111983D01*
X0271803Y0112576D01*
X0264252Y0112576D01*
X0262818Y0111983D01*
X0261721Y0110886D01*
X0261128Y0109452D01*
X0261128Y0107901D01*
X0261721Y0106467D01*
X0262818Y0105370D01*
X0264252Y0104776D01*
X0271803Y0104776D01*
X0273373Y0105506D02*
X0288283Y0105506D01*
X0287684Y0106104D02*
X0273971Y0106104D01*
X0274431Y0106703D02*
X0287224Y0106703D01*
X0286976Y0107301D02*
X0274679Y0107301D01*
X0274927Y0107900D02*
X0286728Y0107900D01*
X0286728Y0108498D02*
X0274928Y0108498D01*
X0274928Y0109097D02*
X0286728Y0109097D01*
X0286828Y0109695D02*
X0274827Y0109695D01*
X0274579Y0110294D02*
X0287076Y0110294D01*
X0287328Y0110893D02*
X0274327Y0110893D01*
X0273728Y0111491D02*
X0287927Y0111491D01*
X0288677Y0112090D02*
X0272979Y0112090D01*
X0263077Y0112090D02*
X0249542Y0112090D01*
X0249542Y0112688D02*
X0341720Y0112688D01*
X0341720Y0112090D02*
X0298579Y0112090D01*
X0299328Y0111491D02*
X0341720Y0111491D01*
X0341720Y0110893D02*
X0299927Y0110893D01*
X0300179Y0110294D02*
X0341720Y0110294D01*
X0341720Y0109695D02*
X0300427Y0109695D01*
X0300528Y0109097D02*
X0341720Y0109097D01*
X0341720Y0108498D02*
X0300528Y0108498D01*
X0300527Y0107900D02*
X0341720Y0107900D01*
X0341720Y0107301D02*
X0300279Y0107301D01*
X0300031Y0106703D02*
X0341720Y0106703D01*
X0341720Y0106104D02*
X0299571Y0106104D01*
X0298973Y0105506D02*
X0341720Y0105506D01*
X0341720Y0104907D02*
X0297720Y0104907D01*
X0321765Y0122095D02*
X0322862Y0120998D01*
X0324296Y0120404D01*
X0331847Y0120404D01*
X0333281Y0120998D01*
X0334378Y0122095D01*
X0334972Y0123528D01*
X0334972Y0125080D01*
X0334378Y0126513D01*
X0333281Y0127610D01*
X0331847Y0128204D01*
X0324296Y0128204D01*
X0322862Y0127610D01*
X0321765Y0126513D01*
X0321172Y0125080D01*
X0321172Y0123528D01*
X0321765Y0122095D01*
X0321695Y0122264D02*
X0249542Y0122264D01*
X0249542Y0121666D02*
X0322194Y0121666D01*
X0322793Y0121067D02*
X0249542Y0121067D01*
X0249542Y0120469D02*
X0324140Y0120469D01*
X0321447Y0122863D02*
X0249542Y0122863D01*
X0249542Y0123461D02*
X0321199Y0123461D01*
X0321172Y0124060D02*
X0249542Y0124060D01*
X0249542Y0124658D02*
X0321172Y0124658D01*
X0321245Y0125257D02*
X0249842Y0125257D01*
X0250441Y0125855D02*
X0321493Y0125855D01*
X0321741Y0126454D02*
X0250631Y0126454D01*
X0250631Y0127052D02*
X0322305Y0127052D01*
X0322961Y0127651D02*
X0250631Y0127651D01*
X0250324Y0128249D02*
X0341720Y0128249D01*
X0341720Y0127651D02*
X0333183Y0127651D01*
X0333839Y0127052D02*
X0341720Y0127052D01*
X0341720Y0126454D02*
X0334402Y0126454D01*
X0334650Y0125855D02*
X0341720Y0125855D01*
X0341720Y0125257D02*
X0334898Y0125257D01*
X0334972Y0124658D02*
X0341720Y0124658D01*
X0341720Y0124060D02*
X0334972Y0124060D01*
X0334944Y0123461D02*
X0341720Y0123461D01*
X0341720Y0122863D02*
X0334696Y0122863D01*
X0334448Y0122264D02*
X0341720Y0122264D01*
X0341720Y0121666D02*
X0333949Y0121666D01*
X0333350Y0121067D02*
X0341720Y0121067D01*
X0341720Y0120469D02*
X0332004Y0120469D01*
X0341720Y0119870D02*
X0249542Y0119870D01*
X0249542Y0119272D02*
X0341720Y0119272D01*
X0341720Y0118673D02*
X0249542Y0118673D01*
X0249542Y0118075D02*
X0341720Y0118075D01*
X0341720Y0117476D02*
X0249542Y0117476D01*
X0249542Y0116878D02*
X0341720Y0116878D01*
X0341720Y0116279D02*
X0249542Y0116279D01*
X0249542Y0115681D02*
X0341720Y0115681D01*
X0341720Y0115082D02*
X0249542Y0115082D01*
X0249542Y0114484D02*
X0341720Y0114484D01*
X0341720Y0113885D02*
X0249542Y0113885D01*
X0249542Y0113287D02*
X0341720Y0113287D01*
X0341720Y0104309D02*
X0249652Y0104309D01*
X0249652Y0103710D02*
X0341720Y0103710D01*
X0341720Y0103112D02*
X0249652Y0103112D01*
X0249400Y0102513D02*
X0341720Y0102513D01*
X0341720Y0101915D02*
X0248802Y0101915D01*
X0247363Y0103713D02*
X0245394Y0103713D01*
X0233583Y0091902D01*
X0231980Y0093536D02*
X0231935Y0093536D01*
X0231935Y0094134D02*
X0232578Y0094134D01*
X0232205Y0094733D02*
X0234717Y0094733D01*
X0235315Y0095331D02*
X0232804Y0095331D01*
X0233402Y0095930D02*
X0235914Y0095930D01*
X0236512Y0096528D02*
X0234001Y0096528D01*
X0234599Y0097127D02*
X0237111Y0097127D01*
X0237709Y0097725D02*
X0235198Y0097725D01*
X0235796Y0098324D02*
X0238308Y0098324D01*
X0238906Y0098922D02*
X0236395Y0098922D01*
X0236993Y0099521D02*
X0239505Y0099521D01*
X0240103Y0100119D02*
X0237592Y0100119D01*
X0238190Y0100718D02*
X0240702Y0100718D01*
X0241300Y0101316D02*
X0238789Y0101316D01*
X0239387Y0101915D02*
X0241899Y0101915D01*
X0242497Y0102513D02*
X0239986Y0102513D01*
X0240585Y0103112D02*
X0243096Y0103112D01*
X0243694Y0103710D02*
X0241183Y0103710D01*
X0241782Y0104309D02*
X0244293Y0104309D01*
X0244891Y0104907D02*
X0242380Y0104907D01*
X0242979Y0105506D02*
X0245918Y0105506D01*
X0244176Y0106703D02*
X0261624Y0106703D01*
X0261376Y0107301D02*
X0244774Y0107301D01*
X0245373Y0107900D02*
X0261128Y0107900D01*
X0261128Y0108498D02*
X0245971Y0108498D01*
X0246570Y0109097D02*
X0261128Y0109097D01*
X0261228Y0109695D02*
X0247168Y0109695D01*
X0247767Y0110294D02*
X0261476Y0110294D01*
X0261728Y0110893D02*
X0248365Y0110893D01*
X0248964Y0111491D02*
X0262327Y0111491D01*
X0262084Y0106104D02*
X0243577Y0106104D01*
X0241979Y0107900D02*
X0205256Y0107900D01*
X0205256Y0108498D02*
X0242577Y0108498D01*
X0243176Y0109097D02*
X0205256Y0109097D01*
X0205256Y0109695D02*
X0243774Y0109695D01*
X0244373Y0110294D02*
X0205256Y0110294D01*
X0205256Y0110893D02*
X0244971Y0110893D01*
X0245570Y0111491D02*
X0205256Y0111491D01*
X0205256Y0112090D02*
X0246168Y0112090D01*
X0246767Y0112688D02*
X0205256Y0112688D01*
X0205256Y0113287D02*
X0247142Y0113287D01*
X0247142Y0113885D02*
X0205256Y0113885D01*
X0205256Y0114484D02*
X0247142Y0114484D01*
X0247142Y0115082D02*
X0205256Y0115082D01*
X0205256Y0115681D02*
X0247142Y0115681D01*
X0247142Y0116279D02*
X0205256Y0116279D01*
X0205256Y0116878D02*
X0247142Y0116878D01*
X0247142Y0117476D02*
X0205256Y0117476D01*
X0205256Y0118075D02*
X0247142Y0118075D01*
X0247142Y0118673D02*
X0205256Y0118673D01*
X0205256Y0119272D02*
X0247142Y0119272D01*
X0247142Y0119870D02*
X0205256Y0119870D01*
X0205256Y0120469D02*
X0247142Y0120469D01*
X0247142Y0121067D02*
X0205256Y0121067D01*
X0205256Y0121666D02*
X0247142Y0121666D01*
X0247142Y0122264D02*
X0204864Y0122264D01*
X0204265Y0122863D02*
X0247142Y0122863D01*
X0247142Y0123461D02*
X0203666Y0123461D01*
X0203068Y0124060D02*
X0247142Y0124060D01*
X0247142Y0124658D02*
X0202469Y0124658D01*
X0201871Y0125257D02*
X0246842Y0125257D01*
X0246244Y0125855D02*
X0201272Y0125855D01*
X0200674Y0126454D02*
X0246053Y0126454D01*
X0246053Y0127052D02*
X0200075Y0127052D01*
X0199477Y0127651D02*
X0246053Y0127651D01*
X0246361Y0128249D02*
X0198878Y0128249D01*
X0198280Y0128848D02*
X0246959Y0128848D01*
X0248342Y0126994D02*
X0248342Y0112567D01*
X0229646Y0093871D01*
X0227942Y0092339D02*
X0209254Y0092339D01*
X0209852Y0091740D02*
X0228540Y0091740D01*
X0227357Y0092937D02*
X0208655Y0092937D01*
X0208057Y0093536D02*
X0227357Y0093536D01*
X0227357Y0094134D02*
X0207458Y0094134D01*
X0206860Y0094733D02*
X0227357Y0094733D01*
X0227870Y0095331D02*
X0206261Y0095331D01*
X0205663Y0095930D02*
X0228468Y0095930D01*
X0230607Y0096528D02*
X0205256Y0096528D01*
X0205256Y0097127D02*
X0231205Y0097127D01*
X0231804Y0097725D02*
X0205256Y0097725D01*
X0205256Y0098324D02*
X0232402Y0098324D01*
X0233001Y0098922D02*
X0205256Y0098922D01*
X0205256Y0099521D02*
X0233599Y0099521D01*
X0234198Y0100119D02*
X0205256Y0100119D01*
X0205256Y0100718D02*
X0234796Y0100718D01*
X0235395Y0101316D02*
X0205256Y0101316D01*
X0205256Y0101915D02*
X0235993Y0101915D01*
X0236592Y0102513D02*
X0205256Y0102513D01*
X0205256Y0103112D02*
X0237190Y0103112D01*
X0237789Y0103710D02*
X0205256Y0103710D01*
X0205256Y0104309D02*
X0238387Y0104309D01*
X0238986Y0104907D02*
X0205256Y0104907D01*
X0205256Y0105506D02*
X0239584Y0105506D01*
X0240183Y0106104D02*
X0205256Y0106104D01*
X0205256Y0106703D02*
X0240781Y0106703D01*
X0241380Y0107301D02*
X0205256Y0107301D01*
X0204056Y0095839D02*
X0204056Y0121375D01*
X0147100Y0178331D01*
X0147100Y0191531D01*
X0148647Y0189896D02*
X0241900Y0189896D01*
X0241900Y0189298D02*
X0148300Y0189298D01*
X0148300Y0188699D02*
X0241900Y0188699D01*
X0241900Y0188100D02*
X0148300Y0188100D01*
X0148300Y0187502D02*
X0241900Y0187502D01*
X0241900Y0186903D02*
X0148300Y0186903D01*
X0148300Y0186305D02*
X0241900Y0186305D01*
X0241900Y0186234D02*
X0243850Y0184284D01*
X0243850Y0182799D01*
X0245168Y0181481D01*
X0247032Y0181481D01*
X0248082Y0182531D01*
X0258203Y0182531D01*
X0275650Y0165084D01*
X0275650Y0163599D01*
X0276968Y0162281D01*
X0278832Y0162281D01*
X0279882Y0163331D01*
X0289118Y0163331D01*
X0290168Y0162281D01*
X0292032Y0162281D01*
X0293350Y0163599D01*
X0293350Y0165463D01*
X0292032Y0166781D01*
X0290168Y0166781D01*
X0289118Y0165731D01*
X0279882Y0165731D01*
X0278832Y0166781D01*
X0277347Y0166781D01*
X0259197Y0184931D01*
X0248082Y0184931D01*
X0247032Y0185981D01*
X0245547Y0185981D01*
X0244300Y0187228D01*
X0244300Y0260615D01*
X0244730Y0260793D01*
X0245827Y0261890D01*
X0246420Y0263323D01*
X0246420Y0270875D01*
X0245827Y0272308D01*
X0244730Y0273405D01*
X0243296Y0273999D01*
X0241745Y0273999D01*
X0240311Y0273405D01*
X0239214Y0272308D01*
X0238620Y0270875D01*
X0238620Y0263323D01*
X0239214Y0261890D01*
X0240311Y0260793D01*
X0241745Y0260199D01*
X0241900Y0260199D01*
X0241900Y0186234D01*
X0242427Y0185706D02*
X0148300Y0185706D01*
X0148300Y0185108D02*
X0243026Y0185108D01*
X0243624Y0184509D02*
X0148300Y0184509D01*
X0148300Y0183911D02*
X0243850Y0183911D01*
X0243850Y0183312D02*
X0148300Y0183312D01*
X0148300Y0182714D02*
X0243935Y0182714D01*
X0244533Y0182115D02*
X0148300Y0182115D01*
X0148300Y0181517D02*
X0245132Y0181517D01*
X0247068Y0181517D02*
X0259217Y0181517D01*
X0259815Y0180918D02*
X0148300Y0180918D01*
X0148300Y0180320D02*
X0260414Y0180320D01*
X0261012Y0179721D02*
X0148300Y0179721D01*
X0148300Y0179123D02*
X0261611Y0179123D01*
X0262209Y0178524D02*
X0148603Y0178524D01*
X0149202Y0177926D02*
X0262808Y0177926D01*
X0263406Y0177327D02*
X0149800Y0177327D01*
X0150399Y0176729D02*
X0264005Y0176729D01*
X0264603Y0176130D02*
X0150997Y0176130D01*
X0151596Y0175532D02*
X0265202Y0175532D01*
X0265800Y0174933D02*
X0152195Y0174933D01*
X0152793Y0174335D02*
X0266399Y0174335D01*
X0266997Y0173736D02*
X0153392Y0173736D01*
X0153990Y0173138D02*
X0267596Y0173138D01*
X0268194Y0172539D02*
X0154589Y0172539D01*
X0155187Y0171941D02*
X0268793Y0171941D01*
X0269391Y0171342D02*
X0155786Y0171342D01*
X0156384Y0170744D02*
X0269990Y0170744D01*
X0270589Y0170145D02*
X0156983Y0170145D01*
X0157581Y0169547D02*
X0271187Y0169547D01*
X0271786Y0168948D02*
X0158180Y0168948D01*
X0158778Y0168350D02*
X0272384Y0168350D01*
X0272983Y0167751D02*
X0159377Y0167751D01*
X0159975Y0167153D02*
X0273581Y0167153D01*
X0274180Y0166554D02*
X0160574Y0166554D01*
X0161172Y0165956D02*
X0274778Y0165956D01*
X0275377Y0165357D02*
X0161771Y0165357D01*
X0162369Y0164759D02*
X0275650Y0164759D01*
X0275650Y0164160D02*
X0162968Y0164160D01*
X0163566Y0163562D02*
X0275687Y0163562D01*
X0276286Y0162963D02*
X0164165Y0162963D01*
X0164763Y0162364D02*
X0276884Y0162364D01*
X0278916Y0162364D02*
X0290084Y0162364D01*
X0289486Y0162963D02*
X0279514Y0162963D01*
X0277900Y0164531D02*
X0258700Y0183731D01*
X0246100Y0183731D01*
X0243100Y0186731D01*
X0243100Y0266531D01*
X0242520Y0267099D01*
X0238620Y0267104D02*
X0232821Y0267104D01*
X0232821Y0267399D02*
X0236820Y0267399D01*
X0236820Y0270438D01*
X0236715Y0271106D01*
X0236505Y0271750D01*
X0236198Y0272353D01*
X0235800Y0272900D01*
X0235322Y0273379D01*
X0234774Y0273777D01*
X0234171Y0274084D01*
X0233527Y0274293D01*
X0232859Y0274399D01*
X0232820Y0274399D01*
X0232820Y0267399D01*
X0232220Y0267399D01*
X0232220Y0266799D01*
X0228220Y0266799D01*
X0228220Y0263761D01*
X0228326Y0263092D01*
X0228536Y0262449D01*
X0228843Y0261846D01*
X0229241Y0261298D01*
X0229719Y0260819D01*
X0230267Y0260422D01*
X0230870Y0260114D01*
X0231514Y0259905D01*
X0232182Y0259799D01*
X0232220Y0259799D01*
X0232220Y0266799D01*
X0232820Y0266799D01*
X0232820Y0259799D01*
X0232859Y0259799D01*
X0233527Y0259905D01*
X0234171Y0260114D01*
X0234774Y0260422D01*
X0235322Y0260819D01*
X0235800Y0261298D01*
X0236198Y0261846D01*
X0236505Y0262449D01*
X0236715Y0263092D01*
X0236820Y0263761D01*
X0236820Y0266799D01*
X0232821Y0266799D01*
X0232821Y0267399D01*
X0232820Y0267702D02*
X0232220Y0267702D01*
X0232220Y0267399D02*
X0232220Y0274399D01*
X0232182Y0274399D01*
X0231514Y0274293D01*
X0230870Y0274084D01*
X0230267Y0273777D01*
X0229719Y0273379D01*
X0229241Y0272900D01*
X0228843Y0272353D01*
X0228536Y0271750D01*
X0228326Y0271106D01*
X0228220Y0270438D01*
X0228220Y0267399D01*
X0232220Y0267399D01*
X0232220Y0267104D02*
X0224941Y0267104D01*
X0224941Y0267702D02*
X0228220Y0267702D01*
X0228220Y0268301D02*
X0224941Y0268301D01*
X0224941Y0268900D02*
X0228220Y0268900D01*
X0228220Y0269498D02*
X0224941Y0269498D01*
X0224941Y0270097D02*
X0228220Y0270097D01*
X0228261Y0270695D02*
X0224941Y0270695D01*
X0224941Y0271294D02*
X0228387Y0271294D01*
X0228608Y0271892D02*
X0224941Y0271892D01*
X0224941Y0272491D02*
X0228943Y0272491D01*
X0229429Y0273089D02*
X0225522Y0273089D01*
X0226121Y0273688D02*
X0230144Y0273688D01*
X0231491Y0274286D02*
X0226719Y0274286D01*
X0227318Y0274885D02*
X0249011Y0274885D01*
X0249011Y0275483D02*
X0227916Y0275483D01*
X0227546Y0276810D02*
X0249463Y0276810D01*
X0251300Y0274973D01*
X0253589Y0274885D02*
X0326203Y0274885D01*
X0324758Y0275483D02*
X0253589Y0275483D01*
X0253429Y0276082D02*
X0322428Y0276082D01*
X0319419Y0276680D02*
X0252830Y0276680D01*
X0253589Y0274286D02*
X0327648Y0274286D01*
X0328913Y0273688D02*
X0253251Y0273688D01*
X0252653Y0273089D02*
X0329808Y0273089D01*
X0330704Y0272491D02*
X0245645Y0272491D01*
X0245999Y0271892D02*
X0331600Y0271892D01*
X0332496Y0271294D02*
X0246247Y0271294D01*
X0246420Y0270695D02*
X0333148Y0270695D01*
X0333747Y0270097D02*
X0246420Y0270097D01*
X0246420Y0269498D02*
X0334345Y0269498D01*
X0334944Y0268900D02*
X0246420Y0268900D01*
X0246420Y0268301D02*
X0335542Y0268301D01*
X0336125Y0267702D02*
X0246420Y0267702D01*
X0246420Y0267104D02*
X0271127Y0267104D01*
X0271152Y0267114D02*
X0269718Y0266520D01*
X0268621Y0265423D01*
X0268028Y0263990D01*
X0268028Y0256438D01*
X0268621Y0255005D01*
X0269718Y0253908D01*
X0271152Y0253314D01*
X0271300Y0253314D01*
X0271300Y0252234D01*
X0273700Y0249834D01*
X0273700Y0242428D01*
X0272762Y0241490D01*
X0272703Y0241514D01*
X0271152Y0241514D01*
X0269718Y0240920D01*
X0268621Y0239823D01*
X0268028Y0238390D01*
X0268028Y0230838D01*
X0268621Y0229405D01*
X0269718Y0228308D01*
X0271152Y0227714D01*
X0272703Y0227714D01*
X0274137Y0228308D01*
X0275234Y0229405D01*
X0275828Y0230838D01*
X0275828Y0238390D01*
X0275234Y0239823D01*
X0274862Y0240195D01*
X0276100Y0241434D01*
X0276100Y0250828D01*
X0275397Y0251531D01*
X0273700Y0253228D01*
X0273700Y0253727D01*
X0274137Y0253908D01*
X0275234Y0255005D01*
X0275828Y0256438D01*
X0275828Y0263990D01*
X0275234Y0265423D01*
X0274137Y0266520D01*
X0272703Y0267114D01*
X0271152Y0267114D01*
X0269703Y0266505D02*
X0246420Y0266505D01*
X0246420Y0265907D02*
X0269105Y0265907D01*
X0268574Y0265308D02*
X0246420Y0265308D01*
X0246420Y0264710D02*
X0268326Y0264710D01*
X0268078Y0264111D02*
X0246420Y0264111D01*
X0246420Y0263513D02*
X0268028Y0263513D01*
X0268028Y0262914D02*
X0246251Y0262914D01*
X0246003Y0262316D02*
X0268028Y0262316D01*
X0268028Y0261717D02*
X0245654Y0261717D01*
X0245056Y0261119D02*
X0268028Y0261119D01*
X0268028Y0260520D02*
X0244300Y0260520D01*
X0244300Y0259922D02*
X0268028Y0259922D01*
X0268028Y0259323D02*
X0244300Y0259323D01*
X0244300Y0258725D02*
X0268028Y0258725D01*
X0268028Y0258126D02*
X0244300Y0258126D01*
X0244300Y0257528D02*
X0268028Y0257528D01*
X0268028Y0256929D02*
X0244300Y0256929D01*
X0244300Y0256331D02*
X0268072Y0256331D01*
X0268320Y0255732D02*
X0244300Y0255732D01*
X0244300Y0255134D02*
X0268568Y0255134D01*
X0269091Y0254535D02*
X0244300Y0254535D01*
X0244300Y0253937D02*
X0269690Y0253937D01*
X0271094Y0253338D02*
X0244300Y0253338D01*
X0244300Y0252740D02*
X0271300Y0252740D01*
X0271392Y0252141D02*
X0244300Y0252141D01*
X0244300Y0251543D02*
X0271991Y0251543D01*
X0272589Y0250944D02*
X0244300Y0250944D01*
X0244300Y0250346D02*
X0273188Y0250346D01*
X0273700Y0249747D02*
X0244300Y0249747D01*
X0244300Y0249149D02*
X0273700Y0249149D01*
X0273700Y0248550D02*
X0244300Y0248550D01*
X0244300Y0247952D02*
X0273700Y0247952D01*
X0273700Y0247353D02*
X0244300Y0247353D01*
X0244300Y0246755D02*
X0273700Y0246755D01*
X0273700Y0246156D02*
X0244300Y0246156D01*
X0244300Y0245558D02*
X0273700Y0245558D01*
X0273700Y0244959D02*
X0244300Y0244959D01*
X0244300Y0244361D02*
X0273700Y0244361D01*
X0273700Y0243762D02*
X0244300Y0243762D01*
X0244300Y0243164D02*
X0273700Y0243164D01*
X0273700Y0242565D02*
X0244300Y0242565D01*
X0244300Y0241966D02*
X0273239Y0241966D01*
X0274900Y0241931D02*
X0272500Y0239531D01*
X0272500Y0234731D01*
X0271928Y0234614D01*
X0275828Y0234784D02*
X0289427Y0234784D01*
X0289427Y0234914D02*
X0289427Y0234314D01*
X0285428Y0234314D01*
X0285428Y0231276D01*
X0285533Y0230607D01*
X0285743Y0229964D01*
X0286050Y0229360D01*
X0286448Y0228813D01*
X0286926Y0228334D01*
X0287474Y0227936D01*
X0288077Y0227629D01*
X0288721Y0227420D01*
X0289389Y0227314D01*
X0289428Y0227314D01*
X0289428Y0234314D01*
X0290028Y0234314D01*
X0290028Y0234914D01*
X0294028Y0234914D01*
X0294028Y0237953D01*
X0293922Y0238621D01*
X0293713Y0239265D01*
X0293405Y0239868D01*
X0293007Y0240415D01*
X0292529Y0240894D01*
X0291981Y0241292D01*
X0291378Y0241599D01*
X0290734Y0241808D01*
X0290066Y0241914D01*
X0290028Y0241914D01*
X0290028Y0234914D01*
X0289428Y0234914D01*
X0289428Y0241914D01*
X0289389Y0241914D01*
X0288721Y0241808D01*
X0288077Y0241599D01*
X0287474Y0241292D01*
X0286926Y0240894D01*
X0286448Y0240415D01*
X0286050Y0239868D01*
X0285743Y0239265D01*
X0285533Y0238621D01*
X0285428Y0237953D01*
X0285428Y0234914D01*
X0289427Y0234914D01*
X0289428Y0235383D02*
X0290028Y0235383D01*
X0290028Y0235981D02*
X0289428Y0235981D01*
X0289428Y0236580D02*
X0290028Y0236580D01*
X0290028Y0237178D02*
X0289428Y0237178D01*
X0289428Y0237777D02*
X0290028Y0237777D01*
X0290028Y0238375D02*
X0289428Y0238375D01*
X0289428Y0238974D02*
X0290028Y0238974D01*
X0290028Y0239572D02*
X0289428Y0239572D01*
X0289428Y0240171D02*
X0290028Y0240171D01*
X0290028Y0240769D02*
X0289428Y0240769D01*
X0289428Y0241368D02*
X0290028Y0241368D01*
X0291832Y0241368D02*
X0301319Y0241368D01*
X0301170Y0241292D02*
X0300622Y0240894D01*
X0300144Y0240415D01*
X0299746Y0239868D01*
X0299439Y0239265D01*
X0299230Y0238621D01*
X0299124Y0237953D01*
X0299124Y0234914D01*
X0303124Y0234914D01*
X0303124Y0241914D01*
X0303085Y0241914D01*
X0302417Y0241808D01*
X0301773Y0241599D01*
X0301170Y0241292D01*
X0300498Y0240769D02*
X0292653Y0240769D01*
X0293185Y0240171D02*
X0299966Y0240171D01*
X0299595Y0239572D02*
X0293556Y0239572D01*
X0293807Y0238974D02*
X0299344Y0238974D01*
X0299191Y0238375D02*
X0293961Y0238375D01*
X0294028Y0237777D02*
X0299124Y0237777D01*
X0299124Y0237178D02*
X0294028Y0237178D01*
X0294028Y0236580D02*
X0299124Y0236580D01*
X0299124Y0235981D02*
X0294028Y0235981D01*
X0294028Y0235383D02*
X0299124Y0235383D01*
X0299124Y0234314D02*
X0299124Y0231276D01*
X0299230Y0230607D01*
X0299439Y0229964D01*
X0299746Y0229360D01*
X0300144Y0228813D01*
X0300622Y0228334D01*
X0301170Y0227936D01*
X0301773Y0227629D01*
X0302417Y0227420D01*
X0303085Y0227314D01*
X0303124Y0227314D01*
X0303124Y0234314D01*
X0303724Y0234314D01*
X0303724Y0234914D01*
X0307724Y0234914D01*
X0307724Y0237953D01*
X0307618Y0238621D01*
X0307409Y0239265D01*
X0307101Y0239868D01*
X0306703Y0240415D01*
X0306225Y0240894D01*
X0305677Y0241292D01*
X0305074Y0241599D01*
X0304431Y0241808D01*
X0303762Y0241914D01*
X0303724Y0241914D01*
X0303724Y0234914D01*
X0303124Y0234914D01*
X0303124Y0234314D01*
X0299124Y0234314D01*
X0299124Y0234186D02*
X0294028Y0234186D01*
X0294028Y0234314D02*
X0290028Y0234314D01*
X0290028Y0227314D01*
X0290066Y0227314D01*
X0290734Y0227420D01*
X0291378Y0227629D01*
X0291981Y0227936D01*
X0292529Y0228334D01*
X0293007Y0228813D01*
X0293405Y0229360D01*
X0293713Y0229964D01*
X0293922Y0230607D01*
X0294028Y0231276D01*
X0294028Y0234314D01*
X0294028Y0233587D02*
X0299124Y0233587D01*
X0299124Y0232989D02*
X0294028Y0232989D01*
X0294028Y0232390D02*
X0299124Y0232390D01*
X0299124Y0231792D02*
X0294028Y0231792D01*
X0294014Y0231193D02*
X0299137Y0231193D01*
X0299234Y0230595D02*
X0293918Y0230595D01*
X0293723Y0229996D02*
X0299428Y0229996D01*
X0299727Y0229398D02*
X0293424Y0229398D01*
X0292994Y0228799D02*
X0300157Y0228799D01*
X0300806Y0228201D02*
X0292345Y0228201D01*
X0291295Y0227602D02*
X0301856Y0227602D01*
X0303124Y0227602D02*
X0303724Y0227602D01*
X0303724Y0227314D02*
X0303762Y0227314D01*
X0304431Y0227420D01*
X0305074Y0227629D01*
X0305677Y0227936D01*
X0306225Y0228334D01*
X0306703Y0228813D01*
X0307101Y0229360D01*
X0307409Y0229964D01*
X0307618Y0230607D01*
X0307724Y0231276D01*
X0307724Y0234314D01*
X0303724Y0234314D01*
X0303724Y0227314D01*
X0303724Y0228201D02*
X0303124Y0228201D01*
X0303124Y0228799D02*
X0303724Y0228799D01*
X0303724Y0229398D02*
X0303124Y0229398D01*
X0303124Y0229996D02*
X0303724Y0229996D01*
X0303724Y0230595D02*
X0303124Y0230595D01*
X0303124Y0231193D02*
X0303724Y0231193D01*
X0303724Y0231792D02*
X0303124Y0231792D01*
X0303124Y0232390D02*
X0303724Y0232390D01*
X0303724Y0232989D02*
X0303124Y0232989D01*
X0303124Y0233587D02*
X0303724Y0233587D01*
X0303724Y0234186D02*
X0303124Y0234186D01*
X0303124Y0234784D02*
X0290028Y0234784D01*
X0290028Y0234186D02*
X0289428Y0234186D01*
X0289428Y0233587D02*
X0290028Y0233587D01*
X0290028Y0232989D02*
X0289428Y0232989D01*
X0289428Y0232390D02*
X0290028Y0232390D01*
X0290028Y0231792D02*
X0289428Y0231792D01*
X0289428Y0231193D02*
X0290028Y0231193D01*
X0290028Y0230595D02*
X0289428Y0230595D01*
X0289428Y0229996D02*
X0290028Y0229996D01*
X0290028Y0229398D02*
X0289428Y0229398D01*
X0289428Y0228799D02*
X0290028Y0228799D01*
X0290028Y0228201D02*
X0289428Y0228201D01*
X0289428Y0227602D02*
X0290028Y0227602D01*
X0288160Y0227602D02*
X0244300Y0227602D01*
X0244300Y0227004D02*
X0341720Y0227004D01*
X0341720Y0227602D02*
X0304991Y0227602D01*
X0306041Y0228201D02*
X0319273Y0228201D01*
X0319014Y0228308D02*
X0320448Y0227714D01*
X0321999Y0227714D01*
X0323433Y0228308D01*
X0324530Y0229405D01*
X0325124Y0230838D01*
X0325124Y0238390D01*
X0324530Y0239823D01*
X0323433Y0240920D01*
X0321999Y0241514D01*
X0320448Y0241514D01*
X0319014Y0240920D01*
X0317917Y0239823D01*
X0317324Y0238390D01*
X0317324Y0230838D01*
X0317917Y0229405D01*
X0319014Y0228308D01*
X0318523Y0228799D02*
X0306690Y0228799D01*
X0307120Y0229398D02*
X0317925Y0229398D01*
X0317672Y0229996D02*
X0307419Y0229996D01*
X0307614Y0230595D02*
X0317425Y0230595D01*
X0317324Y0231193D02*
X0307711Y0231193D01*
X0307724Y0231792D02*
X0317324Y0231792D01*
X0317324Y0232390D02*
X0307724Y0232390D01*
X0307724Y0232989D02*
X0317324Y0232989D01*
X0317324Y0233587D02*
X0307724Y0233587D01*
X0307724Y0234186D02*
X0317324Y0234186D01*
X0317324Y0234784D02*
X0303724Y0234784D01*
X0303724Y0235383D02*
X0303124Y0235383D01*
X0303124Y0235981D02*
X0303724Y0235981D01*
X0303724Y0236580D02*
X0303124Y0236580D01*
X0303124Y0237178D02*
X0303724Y0237178D01*
X0303724Y0237777D02*
X0303124Y0237777D01*
X0303124Y0238375D02*
X0303724Y0238375D01*
X0303724Y0238974D02*
X0303124Y0238974D01*
X0303124Y0239572D02*
X0303724Y0239572D01*
X0303724Y0240171D02*
X0303124Y0240171D01*
X0303124Y0240769D02*
X0303724Y0240769D01*
X0303724Y0241368D02*
X0303124Y0241368D01*
X0305528Y0241368D02*
X0320095Y0241368D01*
X0318863Y0240769D02*
X0306349Y0240769D01*
X0306881Y0240171D02*
X0318265Y0240171D01*
X0317813Y0239572D02*
X0307252Y0239572D01*
X0307503Y0238974D02*
X0317566Y0238974D01*
X0317324Y0238375D02*
X0307657Y0238375D01*
X0307724Y0237777D02*
X0317324Y0237777D01*
X0317324Y0237178D02*
X0307724Y0237178D01*
X0307724Y0236580D02*
X0317324Y0236580D01*
X0317324Y0235981D02*
X0307724Y0235981D01*
X0307724Y0235383D02*
X0317324Y0235383D01*
X0325124Y0235383D02*
X0341720Y0235383D01*
X0341720Y0235981D02*
X0325124Y0235981D01*
X0325124Y0236580D02*
X0341720Y0236580D01*
X0341720Y0237178D02*
X0325124Y0237178D01*
X0325124Y0237777D02*
X0341720Y0237777D01*
X0341720Y0238375D02*
X0325124Y0238375D01*
X0324882Y0238974D02*
X0341720Y0238974D01*
X0341720Y0239572D02*
X0324634Y0239572D01*
X0324182Y0240171D02*
X0341720Y0240171D01*
X0341720Y0240769D02*
X0323584Y0240769D01*
X0322352Y0241368D02*
X0341720Y0241368D01*
X0341720Y0241966D02*
X0276100Y0241966D01*
X0276100Y0242565D02*
X0341720Y0242565D01*
X0341720Y0243164D02*
X0276100Y0243164D01*
X0276100Y0243762D02*
X0341720Y0243762D01*
X0341720Y0244361D02*
X0276100Y0244361D01*
X0276100Y0244959D02*
X0341720Y0244959D01*
X0341720Y0245558D02*
X0276100Y0245558D01*
X0276100Y0246156D02*
X0341720Y0246156D01*
X0341720Y0246755D02*
X0276100Y0246755D01*
X0276100Y0247353D02*
X0341720Y0247353D01*
X0341720Y0247952D02*
X0276100Y0247952D01*
X0276100Y0248550D02*
X0341720Y0248550D01*
X0341720Y0249149D02*
X0276100Y0249149D01*
X0276100Y0249747D02*
X0341720Y0249747D01*
X0341720Y0250346D02*
X0276100Y0250346D01*
X0275984Y0250944D02*
X0341720Y0250944D01*
X0341720Y0251543D02*
X0275385Y0251543D01*
X0274787Y0252141D02*
X0341714Y0252141D01*
X0341685Y0252740D02*
X0274188Y0252740D01*
X0273700Y0253338D02*
X0287863Y0253338D01*
X0288077Y0253229D02*
X0288721Y0253020D01*
X0289389Y0252914D01*
X0289428Y0252914D01*
X0289428Y0259914D01*
X0290028Y0259914D01*
X0290028Y0260514D01*
X0294028Y0260514D01*
X0294028Y0263553D01*
X0293922Y0264221D01*
X0293713Y0264865D01*
X0293405Y0265468D01*
X0293007Y0266015D01*
X0292529Y0266494D01*
X0291981Y0266892D01*
X0291378Y0267199D01*
X0290734Y0267408D01*
X0290066Y0267514D01*
X0290028Y0267514D01*
X0290028Y0260514D01*
X0289428Y0260514D01*
X0289428Y0267514D01*
X0289389Y0267514D01*
X0288721Y0267408D01*
X0288077Y0267199D01*
X0287474Y0266892D01*
X0286926Y0266494D01*
X0286448Y0266015D01*
X0286050Y0265468D01*
X0285743Y0264865D01*
X0285533Y0264221D01*
X0285428Y0263553D01*
X0285428Y0260514D01*
X0289427Y0260514D01*
X0289427Y0259914D01*
X0285428Y0259914D01*
X0285428Y0256876D01*
X0285533Y0256207D01*
X0285743Y0255564D01*
X0286050Y0254960D01*
X0286448Y0254413D01*
X0286926Y0253934D01*
X0287474Y0253536D01*
X0288077Y0253229D01*
X0286924Y0253937D02*
X0274166Y0253937D01*
X0274764Y0254535D02*
X0286359Y0254535D01*
X0285962Y0255134D02*
X0275287Y0255134D01*
X0275535Y0255732D02*
X0285688Y0255732D01*
X0285514Y0256331D02*
X0275783Y0256331D01*
X0275828Y0256929D02*
X0285428Y0256929D01*
X0285428Y0257528D02*
X0275828Y0257528D01*
X0275828Y0258126D02*
X0285428Y0258126D01*
X0285428Y0258725D02*
X0275828Y0258725D01*
X0275828Y0259323D02*
X0285428Y0259323D01*
X0285428Y0260520D02*
X0275828Y0260520D01*
X0275828Y0259922D02*
X0289427Y0259922D01*
X0289428Y0260520D02*
X0290028Y0260520D01*
X0290028Y0259922D02*
X0303124Y0259922D01*
X0303124Y0259914D02*
X0299124Y0259914D01*
X0299124Y0256876D01*
X0299230Y0256207D01*
X0299439Y0255564D01*
X0299746Y0254960D01*
X0300144Y0254413D01*
X0300622Y0253934D01*
X0301170Y0253536D01*
X0301773Y0253229D01*
X0302417Y0253020D01*
X0303085Y0252914D01*
X0303124Y0252914D01*
X0303124Y0259914D01*
X0303724Y0259914D01*
X0303724Y0260514D01*
X0307724Y0260514D01*
X0307724Y0263553D01*
X0307618Y0264221D01*
X0307409Y0264865D01*
X0307101Y0265468D01*
X0306703Y0266015D01*
X0306225Y0266494D01*
X0305677Y0266892D01*
X0305074Y0267199D01*
X0304431Y0267408D01*
X0303762Y0267514D01*
X0303724Y0267514D01*
X0303724Y0260514D01*
X0303124Y0260514D01*
X0303124Y0267514D01*
X0303085Y0267514D01*
X0302417Y0267408D01*
X0301773Y0267199D01*
X0301170Y0266892D01*
X0300622Y0266494D01*
X0300144Y0266015D01*
X0299746Y0265468D01*
X0299439Y0264865D01*
X0299230Y0264221D01*
X0299124Y0263553D01*
X0299124Y0260514D01*
X0303124Y0260514D01*
X0303124Y0259914D01*
X0303124Y0259323D02*
X0303724Y0259323D01*
X0303724Y0259914D02*
X0303724Y0252914D01*
X0303762Y0252914D01*
X0304431Y0253020D01*
X0305074Y0253229D01*
X0305677Y0253536D01*
X0306225Y0253934D01*
X0306703Y0254413D01*
X0307101Y0254960D01*
X0307409Y0255564D01*
X0307618Y0256207D01*
X0307724Y0256876D01*
X0307724Y0259914D01*
X0303724Y0259914D01*
X0303724Y0259922D02*
X0317324Y0259922D01*
X0317324Y0260520D02*
X0307724Y0260520D01*
X0307724Y0261119D02*
X0317324Y0261119D01*
X0317324Y0261717D02*
X0307724Y0261717D01*
X0307724Y0262316D02*
X0317324Y0262316D01*
X0317324Y0262914D02*
X0307724Y0262914D01*
X0307724Y0263513D02*
X0317324Y0263513D01*
X0317324Y0263990D02*
X0317324Y0256438D01*
X0317917Y0255005D01*
X0319014Y0253908D01*
X0320448Y0253314D01*
X0321999Y0253314D01*
X0323433Y0253908D01*
X0324530Y0255005D01*
X0325124Y0256438D01*
X0325124Y0263990D01*
X0324530Y0265423D01*
X0323433Y0266520D01*
X0321999Y0267114D01*
X0320448Y0267114D01*
X0319014Y0266520D01*
X0317917Y0265423D01*
X0317324Y0263990D01*
X0317374Y0264111D02*
X0307635Y0264111D01*
X0307459Y0264710D02*
X0317622Y0264710D01*
X0317870Y0265308D02*
X0307183Y0265308D01*
X0306782Y0265907D02*
X0318401Y0265907D01*
X0318999Y0266505D02*
X0306209Y0266505D01*
X0305261Y0267104D02*
X0320423Y0267104D01*
X0322024Y0267104D02*
X0336525Y0267104D01*
X0336925Y0266505D02*
X0323448Y0266505D01*
X0324046Y0265907D02*
X0337325Y0265907D01*
X0337725Y0265308D02*
X0324577Y0265308D01*
X0324825Y0264710D02*
X0338125Y0264710D01*
X0338525Y0264111D02*
X0325073Y0264111D01*
X0325124Y0263513D02*
X0338875Y0263513D01*
X0339123Y0262914D02*
X0325124Y0262914D01*
X0325124Y0262316D02*
X0339371Y0262316D01*
X0339618Y0261717D02*
X0325124Y0261717D01*
X0325124Y0261119D02*
X0339866Y0261119D01*
X0340114Y0260520D02*
X0325124Y0260520D01*
X0325124Y0259922D02*
X0340362Y0259922D01*
X0340610Y0259323D02*
X0325124Y0259323D01*
X0325124Y0258725D02*
X0340751Y0258725D01*
X0340870Y0258126D02*
X0325124Y0258126D01*
X0325124Y0257528D02*
X0340989Y0257528D01*
X0341108Y0256929D02*
X0325124Y0256929D01*
X0325079Y0256331D02*
X0341227Y0256331D01*
X0341346Y0255732D02*
X0324831Y0255732D01*
X0324583Y0255134D02*
X0341466Y0255134D01*
X0341585Y0254535D02*
X0324060Y0254535D01*
X0323462Y0253937D02*
X0341626Y0253937D01*
X0341655Y0253338D02*
X0322057Y0253338D01*
X0320390Y0253338D02*
X0305288Y0253338D01*
X0306227Y0253937D02*
X0318986Y0253937D01*
X0318387Y0254535D02*
X0306792Y0254535D01*
X0307190Y0255134D02*
X0317864Y0255134D01*
X0317616Y0255732D02*
X0307463Y0255732D01*
X0307637Y0256331D02*
X0317368Y0256331D01*
X0317324Y0256929D02*
X0307724Y0256929D01*
X0307724Y0257528D02*
X0317324Y0257528D01*
X0317324Y0258126D02*
X0307724Y0258126D01*
X0307724Y0258725D02*
X0317324Y0258725D01*
X0317324Y0259323D02*
X0307724Y0259323D01*
X0303724Y0258725D02*
X0303124Y0258725D01*
X0303124Y0258126D02*
X0303724Y0258126D01*
X0303724Y0257528D02*
X0303124Y0257528D01*
X0303124Y0256929D02*
X0303724Y0256929D01*
X0303724Y0256331D02*
X0303124Y0256331D01*
X0303124Y0255732D02*
X0303724Y0255732D01*
X0303724Y0255134D02*
X0303124Y0255134D01*
X0303124Y0254535D02*
X0303724Y0254535D01*
X0303724Y0253937D02*
X0303124Y0253937D01*
X0303124Y0253338D02*
X0303724Y0253338D01*
X0301559Y0253338D02*
X0291592Y0253338D01*
X0291378Y0253229D02*
X0291981Y0253536D01*
X0292529Y0253934D01*
X0293007Y0254413D01*
X0293405Y0254960D01*
X0293713Y0255564D01*
X0293922Y0256207D01*
X0294028Y0256876D01*
X0294028Y0259914D01*
X0290028Y0259914D01*
X0290028Y0252914D01*
X0290066Y0252914D01*
X0290734Y0253020D01*
X0291378Y0253229D01*
X0292531Y0253937D02*
X0300620Y0253937D01*
X0300055Y0254535D02*
X0293096Y0254535D01*
X0293494Y0255134D02*
X0299658Y0255134D01*
X0299384Y0255732D02*
X0293767Y0255732D01*
X0293941Y0256331D02*
X0299210Y0256331D01*
X0299124Y0256929D02*
X0294028Y0256929D01*
X0294028Y0257528D02*
X0299124Y0257528D01*
X0299124Y0258126D02*
X0294028Y0258126D01*
X0294028Y0258725D02*
X0299124Y0258725D01*
X0299124Y0259323D02*
X0294028Y0259323D01*
X0294028Y0260520D02*
X0299124Y0260520D01*
X0299124Y0261119D02*
X0294028Y0261119D01*
X0294028Y0261717D02*
X0299124Y0261717D01*
X0299124Y0262316D02*
X0294028Y0262316D01*
X0294028Y0262914D02*
X0299124Y0262914D01*
X0299124Y0263513D02*
X0294028Y0263513D01*
X0293939Y0264111D02*
X0299212Y0264111D01*
X0299388Y0264710D02*
X0293763Y0264710D01*
X0293486Y0265308D02*
X0299665Y0265308D01*
X0300065Y0265907D02*
X0293086Y0265907D01*
X0292513Y0266505D02*
X0300638Y0266505D01*
X0301586Y0267104D02*
X0291565Y0267104D01*
X0290028Y0267104D02*
X0289428Y0267104D01*
X0289428Y0266505D02*
X0290028Y0266505D01*
X0290028Y0265907D02*
X0289428Y0265907D01*
X0289428Y0265308D02*
X0290028Y0265308D01*
X0290028Y0264710D02*
X0289428Y0264710D01*
X0289428Y0264111D02*
X0290028Y0264111D01*
X0290028Y0263513D02*
X0289428Y0263513D01*
X0289428Y0262914D02*
X0290028Y0262914D01*
X0290028Y0262316D02*
X0289428Y0262316D01*
X0289428Y0261717D02*
X0290028Y0261717D01*
X0290028Y0261119D02*
X0289428Y0261119D01*
X0289428Y0259323D02*
X0290028Y0259323D01*
X0290028Y0258725D02*
X0289428Y0258725D01*
X0289428Y0258126D02*
X0290028Y0258126D01*
X0290028Y0257528D02*
X0289428Y0257528D01*
X0289428Y0256929D02*
X0290028Y0256929D01*
X0290028Y0256331D02*
X0289428Y0256331D01*
X0289428Y0255732D02*
X0290028Y0255732D01*
X0290028Y0255134D02*
X0289428Y0255134D01*
X0289428Y0254535D02*
X0290028Y0254535D01*
X0290028Y0253937D02*
X0289428Y0253937D01*
X0289428Y0253338D02*
X0290028Y0253338D01*
X0285428Y0261119D02*
X0275828Y0261119D01*
X0275828Y0261717D02*
X0285428Y0261717D01*
X0285428Y0262316D02*
X0275828Y0262316D01*
X0275828Y0262914D02*
X0285428Y0262914D01*
X0285428Y0263513D02*
X0275828Y0263513D01*
X0275777Y0264111D02*
X0285516Y0264111D01*
X0285692Y0264710D02*
X0275529Y0264710D01*
X0275281Y0265308D02*
X0285969Y0265308D01*
X0286369Y0265907D02*
X0274750Y0265907D01*
X0274152Y0266505D02*
X0286942Y0266505D01*
X0287890Y0267104D02*
X0272728Y0267104D01*
X0271928Y0260214D02*
X0272500Y0259931D01*
X0272500Y0252731D01*
X0274900Y0250331D01*
X0274900Y0241931D01*
X0276034Y0241368D02*
X0287623Y0241368D01*
X0286802Y0240769D02*
X0275436Y0240769D01*
X0274886Y0240171D02*
X0286270Y0240171D01*
X0285899Y0239572D02*
X0275338Y0239572D01*
X0275586Y0238974D02*
X0285648Y0238974D01*
X0285495Y0238375D02*
X0275828Y0238375D01*
X0275828Y0237777D02*
X0285428Y0237777D01*
X0285428Y0237178D02*
X0275828Y0237178D01*
X0275828Y0236580D02*
X0285428Y0236580D01*
X0285428Y0235981D02*
X0275828Y0235981D01*
X0275828Y0235383D02*
X0285428Y0235383D01*
X0285428Y0234186D02*
X0275828Y0234186D01*
X0275828Y0233587D02*
X0285428Y0233587D01*
X0285428Y0232989D02*
X0275828Y0232989D01*
X0275828Y0232390D02*
X0285428Y0232390D01*
X0285428Y0231792D02*
X0275828Y0231792D01*
X0275828Y0231193D02*
X0285441Y0231193D01*
X0285537Y0230595D02*
X0275727Y0230595D01*
X0275479Y0229996D02*
X0285732Y0229996D01*
X0286031Y0229398D02*
X0275227Y0229398D01*
X0274628Y0228799D02*
X0286461Y0228799D01*
X0287110Y0228201D02*
X0273878Y0228201D01*
X0269977Y0228201D02*
X0244300Y0228201D01*
X0244300Y0228799D02*
X0269227Y0228799D01*
X0268629Y0229398D02*
X0244300Y0229398D01*
X0244300Y0229996D02*
X0268376Y0229996D01*
X0268128Y0230595D02*
X0244300Y0230595D01*
X0244300Y0231193D02*
X0268028Y0231193D01*
X0268028Y0231792D02*
X0244300Y0231792D01*
X0244300Y0232390D02*
X0268028Y0232390D01*
X0268028Y0232989D02*
X0244300Y0232989D01*
X0244300Y0233587D02*
X0268028Y0233587D01*
X0268028Y0234186D02*
X0244300Y0234186D01*
X0244300Y0234784D02*
X0268028Y0234784D01*
X0268028Y0235383D02*
X0244300Y0235383D01*
X0244300Y0235981D02*
X0268028Y0235981D01*
X0268028Y0236580D02*
X0244300Y0236580D01*
X0244300Y0237178D02*
X0268028Y0237178D01*
X0268028Y0237777D02*
X0244300Y0237777D01*
X0244300Y0238375D02*
X0268028Y0238375D01*
X0268269Y0238974D02*
X0244300Y0238974D01*
X0244300Y0239572D02*
X0268517Y0239572D01*
X0268969Y0240171D02*
X0244300Y0240171D01*
X0244300Y0240769D02*
X0269567Y0240769D01*
X0270799Y0241368D02*
X0244300Y0241368D01*
X0241900Y0241368D02*
X0053434Y0241368D01*
X0052836Y0240769D02*
X0107491Y0240769D01*
X0107760Y0240881D02*
X0106327Y0240287D01*
X0105230Y0239190D01*
X0104636Y0237757D01*
X0104636Y0236205D01*
X0105230Y0234772D01*
X0106327Y0233675D01*
X0107760Y0233081D01*
X0115312Y0233081D01*
X0116745Y0233675D01*
X0117842Y0234772D01*
X0118436Y0236205D01*
X0118436Y0237757D01*
X0117842Y0239190D01*
X0116745Y0240287D01*
X0115312Y0240881D01*
X0107760Y0240881D01*
X0106211Y0240171D02*
X0052237Y0240171D01*
X0051639Y0239572D02*
X0105612Y0239572D01*
X0105140Y0238974D02*
X0051040Y0238974D01*
X0050442Y0238375D02*
X0104892Y0238375D01*
X0104645Y0237777D02*
X0049843Y0237777D01*
X0049245Y0237178D02*
X0104636Y0237178D01*
X0104636Y0236580D02*
X0048646Y0236580D01*
X0048048Y0235981D02*
X0104729Y0235981D01*
X0104977Y0235383D02*
X0047449Y0235383D01*
X0048828Y0234784D02*
X0105225Y0234784D01*
X0105816Y0234186D02*
X0049427Y0234186D01*
X0047500Y0232931D02*
X0075100Y0232931D01*
X0106300Y0201731D01*
X0134500Y0201731D01*
X0138100Y0198131D01*
X0156100Y0198131D01*
X0158500Y0200531D01*
X0181450Y0223481D01*
X0230832Y0223481D01*
X0232150Y0224799D01*
X0232150Y0226663D01*
X0228882Y0229931D01*
X0174295Y0229931D01*
X0170591Y0233635D01*
X0168302Y0233587D02*
X0116534Y0233587D01*
X0117256Y0234186D02*
X0168302Y0234186D01*
X0168504Y0234784D02*
X0117848Y0234784D01*
X0118096Y0235383D02*
X0169102Y0235383D01*
X0168302Y0232989D02*
X0076739Y0232989D01*
X0076140Y0233587D02*
X0106538Y0233587D01*
X0107760Y0230881D02*
X0106327Y0230287D01*
X0105230Y0229190D01*
X0104636Y0227757D01*
X0104636Y0226205D01*
X0105230Y0224772D01*
X0106327Y0223675D01*
X0107760Y0223081D01*
X0115312Y0223081D01*
X0116745Y0223675D01*
X0117842Y0224772D01*
X0118436Y0226205D01*
X0118436Y0227757D01*
X0117842Y0229190D01*
X0116745Y0230287D01*
X0115312Y0230881D01*
X0107760Y0230881D01*
X0107069Y0230595D02*
X0079133Y0230595D01*
X0078534Y0231193D02*
X0171336Y0231193D01*
X0171934Y0230595D02*
X0116003Y0230595D01*
X0117036Y0229996D02*
X0172533Y0229996D01*
X0174131Y0231792D02*
X0241900Y0231792D01*
X0241900Y0232390D02*
X0173533Y0232390D01*
X0172934Y0232989D02*
X0241900Y0232989D01*
X0241900Y0233587D02*
X0172880Y0233587D01*
X0172880Y0234186D02*
X0241900Y0234186D01*
X0241900Y0234784D02*
X0172679Y0234784D01*
X0172080Y0235383D02*
X0241900Y0235383D01*
X0241900Y0235981D02*
X0118343Y0235981D01*
X0118436Y0236580D02*
X0241900Y0236580D01*
X0241900Y0237178D02*
X0118436Y0237178D01*
X0118428Y0237777D02*
X0241900Y0237777D01*
X0241900Y0238375D02*
X0118180Y0238375D01*
X0117932Y0238974D02*
X0241900Y0238974D01*
X0241900Y0239572D02*
X0117460Y0239572D01*
X0116862Y0240171D02*
X0241900Y0240171D01*
X0241900Y0240769D02*
X0115581Y0240769D01*
X0115312Y0243081D02*
X0116745Y0243675D01*
X0117842Y0244772D01*
X0118436Y0246205D01*
X0118436Y0247757D01*
X0117842Y0249190D01*
X0116745Y0250287D01*
X0115312Y0250881D01*
X0107760Y0250881D01*
X0106327Y0250287D01*
X0105230Y0249190D01*
X0104636Y0247757D01*
X0104636Y0246205D01*
X0105230Y0244772D01*
X0106327Y0243675D01*
X0107760Y0243081D01*
X0115312Y0243081D01*
X0115511Y0243164D02*
X0226723Y0243164D01*
X0226730Y0243157D02*
X0228626Y0243157D01*
X0229967Y0244498D01*
X0229967Y0246394D01*
X0228626Y0247735D01*
X0227086Y0247735D01*
X0222093Y0252728D01*
X0222093Y0254268D01*
X0220752Y0255609D01*
X0218856Y0255609D01*
X0217515Y0254268D01*
X0217515Y0252372D01*
X0218856Y0251031D01*
X0220396Y0251031D01*
X0225389Y0246038D01*
X0225389Y0244498D01*
X0226730Y0243157D01*
X0226124Y0243762D02*
X0116833Y0243762D01*
X0117431Y0244361D02*
X0225526Y0244361D01*
X0225389Y0244959D02*
X0117920Y0244959D01*
X0118168Y0245558D02*
X0225389Y0245558D01*
X0225270Y0246156D02*
X0118416Y0246156D01*
X0118436Y0246755D02*
X0224672Y0246755D01*
X0224073Y0247353D02*
X0118436Y0247353D01*
X0118356Y0247952D02*
X0223475Y0247952D01*
X0222876Y0248550D02*
X0118108Y0248550D01*
X0117860Y0249149D02*
X0222278Y0249149D01*
X0221679Y0249747D02*
X0117286Y0249747D01*
X0116605Y0250346D02*
X0221081Y0250346D01*
X0220482Y0250944D02*
X0102700Y0250944D01*
X0102700Y0251543D02*
X0218344Y0251543D01*
X0217745Y0252141D02*
X0167323Y0252141D01*
X0167622Y0252189D02*
X0166953Y0252083D01*
X0166915Y0252083D01*
X0166915Y0259083D01*
X0166915Y0259683D01*
X0166315Y0259683D01*
X0166315Y0266683D01*
X0166277Y0266683D01*
X0165608Y0266577D01*
X0164964Y0266368D01*
X0164361Y0266060D01*
X0163814Y0265663D01*
X0163335Y0265184D01*
X0162937Y0264636D01*
X0162630Y0264033D01*
X0162421Y0263390D01*
X0162315Y0262721D01*
X0162315Y0259683D01*
X0166315Y0259683D01*
X0166315Y0259083D01*
X0162315Y0259083D01*
X0162315Y0256044D01*
X0162421Y0255376D01*
X0162630Y0254732D01*
X0162937Y0254129D01*
X0163335Y0253581D01*
X0163814Y0253103D01*
X0164361Y0252705D01*
X0164964Y0252398D01*
X0165608Y0252189D01*
X0166277Y0252083D01*
X0166315Y0252083D01*
X0166315Y0259083D01*
X0166915Y0259083D01*
X0170915Y0259083D01*
X0170915Y0256044D01*
X0170809Y0255376D01*
X0170600Y0254732D01*
X0170293Y0254129D01*
X0169895Y0253581D01*
X0169416Y0253103D01*
X0168869Y0252705D01*
X0168266Y0252398D01*
X0167622Y0252189D01*
X0166915Y0252141D02*
X0166315Y0252141D01*
X0165907Y0252141D02*
X0102700Y0252141D01*
X0102700Y0252740D02*
X0135219Y0252740D01*
X0135839Y0252483D02*
X0137391Y0252483D01*
X0138824Y0253076D01*
X0139921Y0254173D01*
X0140515Y0255607D01*
X0140515Y0263158D01*
X0139921Y0264592D01*
X0138824Y0265689D01*
X0137391Y0266283D01*
X0135839Y0266283D01*
X0134406Y0265689D01*
X0133309Y0264592D01*
X0132715Y0263158D01*
X0132715Y0255607D01*
X0133309Y0254173D01*
X0134406Y0253076D01*
X0135839Y0252483D01*
X0134144Y0253338D02*
X0102700Y0253338D01*
X0102888Y0253937D02*
X0133545Y0253937D01*
X0133159Y0254535D02*
X0103487Y0254535D01*
X0103750Y0255134D02*
X0132911Y0255134D01*
X0132715Y0255732D02*
X0103750Y0255732D01*
X0103750Y0256331D02*
X0132715Y0256331D01*
X0132715Y0256929D02*
X0103483Y0256929D01*
X0102885Y0257528D02*
X0132715Y0257528D01*
X0132715Y0258126D02*
X0100025Y0258126D01*
X0100025Y0257528D02*
X0100115Y0257528D01*
X0100025Y0258725D02*
X0132715Y0258725D01*
X0132715Y0259323D02*
X0100025Y0259323D01*
X0100025Y0259922D02*
X0132715Y0259922D01*
X0132715Y0260520D02*
X0100025Y0260520D01*
X0100025Y0261119D02*
X0132715Y0261119D01*
X0132715Y0261717D02*
X0100025Y0261717D01*
X0100025Y0262316D02*
X0132715Y0262316D01*
X0132715Y0262914D02*
X0100025Y0262914D01*
X0100025Y0263513D02*
X0132862Y0263513D01*
X0133110Y0264111D02*
X0100025Y0264111D01*
X0100025Y0264710D02*
X0133427Y0264710D01*
X0134025Y0265308D02*
X0100025Y0265308D01*
X0100025Y0265907D02*
X0134932Y0265907D01*
X0138298Y0265907D02*
X0144932Y0265907D01*
X0144406Y0265689D02*
X0143309Y0264592D01*
X0142715Y0263158D01*
X0142715Y0255607D01*
X0143309Y0254173D01*
X0144406Y0253076D01*
X0145839Y0252483D01*
X0147391Y0252483D01*
X0148824Y0253076D01*
X0149921Y0254173D01*
X0150515Y0255607D01*
X0150515Y0263158D01*
X0149921Y0264592D01*
X0148824Y0265689D01*
X0147391Y0266283D01*
X0145839Y0266283D01*
X0144406Y0265689D01*
X0144025Y0265308D02*
X0139205Y0265308D01*
X0139803Y0264710D02*
X0143427Y0264710D01*
X0143110Y0264111D02*
X0140120Y0264111D01*
X0140368Y0263513D02*
X0142862Y0263513D01*
X0142715Y0262914D02*
X0140515Y0262914D01*
X0140515Y0262316D02*
X0142715Y0262316D01*
X0142715Y0261717D02*
X0140515Y0261717D01*
X0140515Y0261119D02*
X0142715Y0261119D01*
X0142715Y0260520D02*
X0140515Y0260520D01*
X0140515Y0259922D02*
X0142715Y0259922D01*
X0142715Y0259323D02*
X0140515Y0259323D01*
X0140515Y0258725D02*
X0142715Y0258725D01*
X0142715Y0258126D02*
X0140515Y0258126D01*
X0140515Y0257528D02*
X0142715Y0257528D01*
X0142715Y0256929D02*
X0140515Y0256929D01*
X0140515Y0256331D02*
X0142715Y0256331D01*
X0142715Y0255732D02*
X0140515Y0255732D01*
X0140319Y0255134D02*
X0142911Y0255134D01*
X0143159Y0254535D02*
X0140071Y0254535D01*
X0139684Y0253937D02*
X0143545Y0253937D01*
X0144144Y0253338D02*
X0139086Y0253338D01*
X0138011Y0252740D02*
X0145219Y0252740D01*
X0148011Y0252740D02*
X0155219Y0252740D01*
X0155839Y0252483D02*
X0157391Y0252483D01*
X0158824Y0253076D01*
X0159921Y0254173D01*
X0160515Y0255607D01*
X0160515Y0263158D01*
X0159921Y0264592D01*
X0158824Y0265689D01*
X0157391Y0266283D01*
X0155839Y0266283D01*
X0154406Y0265689D01*
X0153309Y0264592D01*
X0152715Y0263158D01*
X0152715Y0255607D01*
X0153309Y0254173D01*
X0154406Y0253076D01*
X0155839Y0252483D01*
X0154144Y0253338D02*
X0149086Y0253338D01*
X0149684Y0253937D02*
X0153545Y0253937D01*
X0153159Y0254535D02*
X0150071Y0254535D01*
X0150319Y0255134D02*
X0152911Y0255134D01*
X0152715Y0255732D02*
X0150515Y0255732D01*
X0150515Y0256331D02*
X0152715Y0256331D01*
X0152715Y0256929D02*
X0150515Y0256929D01*
X0150515Y0257528D02*
X0152715Y0257528D01*
X0152715Y0258126D02*
X0150515Y0258126D01*
X0150515Y0258725D02*
X0152715Y0258725D01*
X0152715Y0259323D02*
X0150515Y0259323D01*
X0150515Y0259922D02*
X0152715Y0259922D01*
X0152715Y0260520D02*
X0150515Y0260520D01*
X0150515Y0261119D02*
X0152715Y0261119D01*
X0152715Y0261717D02*
X0150515Y0261717D01*
X0150515Y0262316D02*
X0152715Y0262316D01*
X0152715Y0262914D02*
X0150515Y0262914D01*
X0150368Y0263513D02*
X0152862Y0263513D01*
X0153110Y0264111D02*
X0150120Y0264111D01*
X0149803Y0264710D02*
X0153427Y0264710D01*
X0154025Y0265308D02*
X0149205Y0265308D01*
X0148298Y0265907D02*
X0154932Y0265907D01*
X0158298Y0265907D02*
X0164150Y0265907D01*
X0163460Y0265308D02*
X0159205Y0265308D01*
X0159803Y0264710D02*
X0162991Y0264710D01*
X0162670Y0264111D02*
X0160120Y0264111D01*
X0160368Y0263513D02*
X0162461Y0263513D01*
X0162346Y0262914D02*
X0160515Y0262914D01*
X0160515Y0262316D02*
X0162315Y0262316D01*
X0162315Y0261717D02*
X0160515Y0261717D01*
X0160515Y0261119D02*
X0162315Y0261119D01*
X0162315Y0260520D02*
X0160515Y0260520D01*
X0160515Y0259922D02*
X0162315Y0259922D01*
X0162315Y0258725D02*
X0160515Y0258725D01*
X0160515Y0259323D02*
X0166315Y0259323D01*
X0166315Y0258725D02*
X0166915Y0258725D01*
X0166915Y0259323D02*
X0241900Y0259323D01*
X0241900Y0258725D02*
X0170915Y0258725D01*
X0170915Y0258126D02*
X0241900Y0258126D01*
X0241900Y0257528D02*
X0170915Y0257528D01*
X0170915Y0256929D02*
X0241900Y0256929D01*
X0241900Y0256331D02*
X0170915Y0256331D01*
X0170866Y0255732D02*
X0241900Y0255732D01*
X0241900Y0255134D02*
X0221227Y0255134D01*
X0221825Y0254535D02*
X0241900Y0254535D01*
X0241900Y0253937D02*
X0222093Y0253937D01*
X0222093Y0253338D02*
X0241900Y0253338D01*
X0241900Y0252740D02*
X0222093Y0252740D01*
X0222679Y0252141D02*
X0241900Y0252141D01*
X0241900Y0251543D02*
X0223278Y0251543D01*
X0223876Y0250944D02*
X0241900Y0250944D01*
X0241900Y0250346D02*
X0224475Y0250346D01*
X0225074Y0249747D02*
X0241900Y0249747D01*
X0241900Y0249149D02*
X0225672Y0249149D01*
X0226271Y0248550D02*
X0241900Y0248550D01*
X0241900Y0247952D02*
X0226869Y0247952D01*
X0229008Y0247353D02*
X0241900Y0247353D01*
X0241900Y0246755D02*
X0229606Y0246755D01*
X0229967Y0246156D02*
X0241900Y0246156D01*
X0241900Y0245558D02*
X0229967Y0245558D01*
X0229967Y0244959D02*
X0241900Y0244959D01*
X0241900Y0244361D02*
X0229830Y0244361D01*
X0229231Y0243762D02*
X0241900Y0243762D01*
X0241900Y0243164D02*
X0228633Y0243164D01*
X0227678Y0245446D02*
X0219804Y0253320D01*
X0217515Y0253338D02*
X0169652Y0253338D01*
X0170153Y0253937D02*
X0217515Y0253937D01*
X0217782Y0254535D02*
X0170500Y0254535D01*
X0170730Y0255134D02*
X0218381Y0255134D01*
X0217515Y0252740D02*
X0168916Y0252740D01*
X0166915Y0252740D02*
X0166315Y0252740D01*
X0166315Y0253338D02*
X0166915Y0253338D01*
X0166915Y0253937D02*
X0166315Y0253937D01*
X0166315Y0254535D02*
X0166915Y0254535D01*
X0166915Y0255134D02*
X0166315Y0255134D01*
X0166315Y0255732D02*
X0166915Y0255732D01*
X0166915Y0256331D02*
X0166315Y0256331D01*
X0166315Y0256929D02*
X0166915Y0256929D01*
X0166915Y0257528D02*
X0166315Y0257528D01*
X0166315Y0258126D02*
X0166915Y0258126D01*
X0166915Y0259683D02*
X0170915Y0259683D01*
X0170915Y0262721D01*
X0170809Y0263390D01*
X0170600Y0264033D01*
X0170293Y0264636D01*
X0169895Y0265184D01*
X0169416Y0265663D01*
X0168869Y0266060D01*
X0168266Y0266368D01*
X0167622Y0266577D01*
X0166953Y0266683D01*
X0166915Y0266683D01*
X0166915Y0259683D01*
X0166915Y0259922D02*
X0166315Y0259922D01*
X0166315Y0260520D02*
X0166915Y0260520D01*
X0166915Y0261119D02*
X0166315Y0261119D01*
X0166315Y0261717D02*
X0166915Y0261717D01*
X0166915Y0262316D02*
X0166315Y0262316D01*
X0166315Y0262914D02*
X0166915Y0262914D01*
X0166915Y0263513D02*
X0166315Y0263513D01*
X0166315Y0264111D02*
X0166915Y0264111D01*
X0166915Y0264710D02*
X0166315Y0264710D01*
X0166315Y0265308D02*
X0166915Y0265308D01*
X0166915Y0265907D02*
X0166315Y0265907D01*
X0166315Y0266505D02*
X0166915Y0266505D01*
X0167841Y0266505D02*
X0179331Y0266505D01*
X0179929Y0265907D02*
X0169080Y0265907D01*
X0169770Y0265308D02*
X0180528Y0265308D01*
X0181126Y0264710D02*
X0170239Y0264710D01*
X0170560Y0264111D02*
X0181725Y0264111D01*
X0182323Y0263513D02*
X0170769Y0263513D01*
X0170884Y0262914D02*
X0182922Y0262914D01*
X0183520Y0262316D02*
X0170915Y0262316D01*
X0170915Y0261717D02*
X0228936Y0261717D01*
X0228603Y0262316D02*
X0222623Y0262316D01*
X0223222Y0262914D02*
X0228384Y0262914D01*
X0228260Y0263513D02*
X0223820Y0263513D01*
X0224419Y0264111D02*
X0228220Y0264111D01*
X0228220Y0264710D02*
X0224941Y0264710D01*
X0224941Y0265308D02*
X0228220Y0265308D01*
X0228220Y0265907D02*
X0224941Y0265907D01*
X0224941Y0266505D02*
X0228220Y0266505D01*
X0232220Y0266505D02*
X0232820Y0266505D01*
X0232820Y0265907D02*
X0232220Y0265907D01*
X0232220Y0265308D02*
X0232820Y0265308D01*
X0232820Y0264710D02*
X0232220Y0264710D01*
X0232220Y0264111D02*
X0232820Y0264111D01*
X0232820Y0263513D02*
X0232220Y0263513D01*
X0232220Y0262914D02*
X0232820Y0262914D01*
X0232820Y0262316D02*
X0232220Y0262316D01*
X0232220Y0261717D02*
X0232820Y0261717D01*
X0232820Y0261119D02*
X0232220Y0261119D01*
X0232220Y0260520D02*
X0232820Y0260520D01*
X0232820Y0259922D02*
X0232220Y0259922D01*
X0231462Y0259922D02*
X0170915Y0259922D01*
X0170915Y0260520D02*
X0230131Y0260520D01*
X0229420Y0261119D02*
X0170915Y0261119D01*
X0165389Y0266505D02*
X0100025Y0266505D01*
X0100025Y0267104D02*
X0178732Y0267104D01*
X0180331Y0268900D02*
X0222541Y0268900D01*
X0222541Y0269498D02*
X0179732Y0269498D01*
X0179420Y0270097D02*
X0222541Y0270097D01*
X0222541Y0270695D02*
X0179375Y0270695D01*
X0178777Y0271294D02*
X0222541Y0271294D01*
X0222541Y0271892D02*
X0178178Y0271892D01*
X0176084Y0271892D02*
X0100025Y0271892D01*
X0100025Y0271294D02*
X0175486Y0271294D01*
X0174887Y0270695D02*
X0100025Y0270695D01*
X0100025Y0270097D02*
X0174842Y0270097D01*
X0174842Y0269498D02*
X0100025Y0269498D01*
X0100025Y0268900D02*
X0174842Y0268900D01*
X0175295Y0268301D02*
X0100025Y0268301D01*
X0100025Y0267702D02*
X0175894Y0267702D01*
X0177131Y0269702D02*
X0177831Y0269702D01*
X0184371Y0263162D01*
X0221772Y0263162D01*
X0223741Y0265131D01*
X0223741Y0273005D01*
X0227546Y0276810D01*
X0225719Y0276680D02*
X0100025Y0276680D01*
X0100025Y0276082D02*
X0225121Y0276082D01*
X0224522Y0275483D02*
X0100025Y0275483D01*
X0100025Y0274885D02*
X0223924Y0274885D01*
X0223325Y0274286D02*
X0100025Y0274286D01*
X0100025Y0273688D02*
X0222727Y0273688D01*
X0222541Y0273089D02*
X0100025Y0273089D01*
X0100025Y0272491D02*
X0222541Y0272491D01*
X0222541Y0268301D02*
X0180929Y0268301D01*
X0181528Y0267702D02*
X0222541Y0267702D01*
X0222541Y0267104D02*
X0182126Y0267104D01*
X0182725Y0266505D02*
X0222541Y0266505D01*
X0222541Y0265907D02*
X0183323Y0265907D01*
X0183922Y0265308D02*
X0222222Y0265308D01*
X0221623Y0264710D02*
X0184520Y0264710D01*
X0162315Y0258126D02*
X0160515Y0258126D01*
X0160515Y0257528D02*
X0162315Y0257528D01*
X0162315Y0256929D02*
X0160515Y0256929D01*
X0160515Y0256331D02*
X0162315Y0256331D01*
X0162364Y0255732D02*
X0160515Y0255732D01*
X0160319Y0255134D02*
X0162499Y0255134D01*
X0162730Y0254535D02*
X0160071Y0254535D01*
X0159684Y0253937D02*
X0163077Y0253937D01*
X0163578Y0253338D02*
X0159086Y0253338D01*
X0158011Y0252740D02*
X0164313Y0252740D01*
X0170554Y0243440D02*
X0174528Y0247414D01*
X0188308Y0247414D01*
X0174730Y0231193D02*
X0241900Y0231193D01*
X0241900Y0230595D02*
X0229915Y0230595D01*
X0230513Y0229996D02*
X0241900Y0229996D01*
X0241900Y0229398D02*
X0231112Y0229398D01*
X0231710Y0228799D02*
X0241900Y0228799D01*
X0241900Y0228201D02*
X0232309Y0228201D01*
X0232908Y0227602D02*
X0241900Y0227602D01*
X0241900Y0227004D02*
X0233350Y0227004D01*
X0233350Y0226405D02*
X0241900Y0226405D01*
X0241900Y0225807D02*
X0233350Y0225807D01*
X0233350Y0225208D02*
X0241900Y0225208D01*
X0241900Y0224610D02*
X0233350Y0224610D01*
X0233059Y0224011D02*
X0241900Y0224011D01*
X0241900Y0223413D02*
X0232461Y0223413D01*
X0231862Y0222814D02*
X0241900Y0222814D01*
X0241900Y0222216D02*
X0181882Y0222216D01*
X0181283Y0221617D02*
X0241900Y0221617D01*
X0241900Y0221019D02*
X0180685Y0221019D01*
X0180086Y0220420D02*
X0241900Y0220420D01*
X0241900Y0219822D02*
X0179488Y0219822D01*
X0178889Y0219223D02*
X0241900Y0219223D01*
X0241900Y0218625D02*
X0178291Y0218625D01*
X0177692Y0218026D02*
X0241900Y0218026D01*
X0241900Y0217428D02*
X0177094Y0217428D01*
X0176495Y0216829D02*
X0241900Y0216829D01*
X0241900Y0216231D02*
X0175897Y0216231D01*
X0175298Y0215632D02*
X0241900Y0215632D01*
X0241900Y0215033D02*
X0174700Y0215033D01*
X0174101Y0214435D02*
X0241900Y0214435D01*
X0241900Y0213836D02*
X0173503Y0213836D01*
X0172904Y0213238D02*
X0241900Y0213238D01*
X0241900Y0212639D02*
X0172306Y0212639D01*
X0171707Y0212041D02*
X0241900Y0212041D01*
X0241900Y0211442D02*
X0171109Y0211442D01*
X0170510Y0210844D02*
X0241900Y0210844D01*
X0241900Y0210245D02*
X0169912Y0210245D01*
X0169313Y0209647D02*
X0241900Y0209647D01*
X0241900Y0209048D02*
X0168715Y0209048D01*
X0168116Y0208450D02*
X0241900Y0208450D01*
X0241900Y0207851D02*
X0167518Y0207851D01*
X0166919Y0207253D02*
X0241900Y0207253D01*
X0241900Y0206654D02*
X0166321Y0206654D01*
X0165722Y0206056D02*
X0241900Y0206056D01*
X0241900Y0205457D02*
X0165124Y0205457D01*
X0164525Y0204859D02*
X0241900Y0204859D01*
X0241900Y0204260D02*
X0163927Y0204260D01*
X0163328Y0203662D02*
X0241900Y0203662D01*
X0241900Y0203063D02*
X0162730Y0203063D01*
X0162131Y0202465D02*
X0241900Y0202465D01*
X0241900Y0201866D02*
X0161533Y0201866D01*
X0160934Y0201268D02*
X0241900Y0201268D01*
X0241900Y0200669D02*
X0160750Y0200669D01*
X0160750Y0200071D02*
X0241900Y0200071D01*
X0241900Y0199472D02*
X0160623Y0199472D01*
X0160025Y0198874D02*
X0241900Y0198874D01*
X0241900Y0198275D02*
X0157942Y0198275D01*
X0157343Y0197677D02*
X0241900Y0197677D01*
X0241900Y0197078D02*
X0156744Y0197078D01*
X0155744Y0199472D02*
X0140671Y0199472D01*
X0139095Y0201134D02*
X0147933Y0201134D01*
X0170591Y0223792D01*
X0172252Y0222216D02*
X0178488Y0222216D01*
X0179086Y0222814D02*
X0172850Y0222814D01*
X0172880Y0223413D02*
X0179685Y0223413D01*
X0180283Y0224011D02*
X0172880Y0224011D01*
X0172880Y0224610D02*
X0180882Y0224610D01*
X0177889Y0221617D02*
X0171653Y0221617D01*
X0169515Y0221019D02*
X0177291Y0221019D01*
X0176692Y0220420D02*
X0168916Y0220420D01*
X0168318Y0219822D02*
X0176094Y0219822D01*
X0175495Y0219223D02*
X0167719Y0219223D01*
X0167121Y0218625D02*
X0174897Y0218625D01*
X0174298Y0218026D02*
X0166522Y0218026D01*
X0165924Y0217428D02*
X0173700Y0217428D01*
X0173101Y0216829D02*
X0165325Y0216829D01*
X0164727Y0216231D02*
X0172503Y0216231D01*
X0171904Y0215632D02*
X0164128Y0215632D01*
X0163530Y0215033D02*
X0171306Y0215033D01*
X0170707Y0214435D02*
X0162931Y0214435D01*
X0162333Y0213836D02*
X0170109Y0213836D01*
X0169510Y0213238D02*
X0161734Y0213238D01*
X0161136Y0212639D02*
X0168912Y0212639D01*
X0168313Y0212041D02*
X0160537Y0212041D01*
X0159939Y0211442D02*
X0167715Y0211442D01*
X0167116Y0210844D02*
X0159340Y0210844D01*
X0158742Y0210245D02*
X0166518Y0210245D01*
X0165919Y0209647D02*
X0158143Y0209647D01*
X0157545Y0209048D02*
X0165321Y0209048D01*
X0164722Y0208450D02*
X0156946Y0208450D01*
X0156348Y0207851D02*
X0164124Y0207851D01*
X0163525Y0207253D02*
X0155749Y0207253D01*
X0155151Y0206654D02*
X0162927Y0206654D01*
X0162328Y0206056D02*
X0154552Y0206056D01*
X0153954Y0205457D02*
X0161730Y0205457D01*
X0161131Y0204859D02*
X0153355Y0204859D01*
X0152757Y0204260D02*
X0160533Y0204260D01*
X0159934Y0203662D02*
X0152158Y0203662D01*
X0151560Y0203063D02*
X0159336Y0203063D01*
X0157252Y0202465D02*
X0150961Y0202465D01*
X0150363Y0201866D02*
X0156654Y0201866D01*
X0156250Y0201268D02*
X0149764Y0201268D01*
X0149165Y0200669D02*
X0156250Y0200669D01*
X0156250Y0200071D02*
X0148567Y0200071D01*
X0147567Y0202465D02*
X0141001Y0202465D01*
X0140403Y0203063D02*
X0148165Y0203063D01*
X0148764Y0203662D02*
X0116714Y0203662D01*
X0117331Y0204260D02*
X0149362Y0204260D01*
X0149961Y0204859D02*
X0117878Y0204859D01*
X0118126Y0205457D02*
X0150559Y0205457D01*
X0151158Y0206056D02*
X0118374Y0206056D01*
X0118436Y0206654D02*
X0151756Y0206654D01*
X0152355Y0207253D02*
X0118436Y0207253D01*
X0118397Y0207851D02*
X0152954Y0207851D01*
X0153552Y0208450D02*
X0118916Y0208450D01*
X0119515Y0209048D02*
X0154151Y0209048D01*
X0154749Y0209647D02*
X0120113Y0209647D01*
X0120712Y0210245D02*
X0155348Y0210245D01*
X0155946Y0210844D02*
X0121310Y0210844D01*
X0121909Y0211442D02*
X0156545Y0211442D01*
X0157143Y0212041D02*
X0122507Y0212041D01*
X0123106Y0212639D02*
X0157742Y0212639D01*
X0158340Y0213238D02*
X0123704Y0213238D01*
X0124303Y0213836D02*
X0158939Y0213836D01*
X0159537Y0214435D02*
X0124901Y0214435D01*
X0125500Y0215033D02*
X0160136Y0215033D01*
X0160734Y0215632D02*
X0126098Y0215632D01*
X0126697Y0216231D02*
X0161333Y0216231D01*
X0161931Y0216829D02*
X0127295Y0216829D01*
X0127894Y0217428D02*
X0162530Y0217428D01*
X0163128Y0218026D02*
X0128492Y0218026D01*
X0129091Y0218625D02*
X0163727Y0218625D01*
X0164325Y0219223D02*
X0129689Y0219223D01*
X0130288Y0219822D02*
X0164924Y0219822D01*
X0165522Y0220420D02*
X0130886Y0220420D01*
X0131485Y0221019D02*
X0166121Y0221019D01*
X0166719Y0221617D02*
X0132083Y0221617D01*
X0132682Y0222216D02*
X0167318Y0222216D01*
X0167916Y0222814D02*
X0133280Y0222814D01*
X0133879Y0223413D02*
X0168302Y0223413D01*
X0168302Y0224011D02*
X0134477Y0224011D01*
X0135076Y0224610D02*
X0168302Y0224610D01*
X0168770Y0225208D02*
X0135675Y0225208D01*
X0136273Y0225807D02*
X0169369Y0225807D01*
X0171814Y0225807D02*
X0227650Y0225807D01*
X0227650Y0225208D02*
X0172412Y0225208D01*
X0169197Y0231792D02*
X0077936Y0231792D01*
X0077337Y0232390D02*
X0168599Y0232390D01*
X0137500Y0228731D02*
X0226900Y0228731D01*
X0229900Y0225731D01*
X0227528Y0226405D02*
X0136872Y0226405D01*
X0137470Y0227004D02*
X0226930Y0227004D01*
X0244300Y0226405D02*
X0341720Y0226405D01*
X0341720Y0225807D02*
X0244300Y0225807D01*
X0244300Y0225208D02*
X0341720Y0225208D01*
X0341720Y0224610D02*
X0244300Y0224610D01*
X0244300Y0224011D02*
X0341720Y0224011D01*
X0341720Y0223413D02*
X0244300Y0223413D01*
X0244300Y0222814D02*
X0341720Y0222814D01*
X0341720Y0222216D02*
X0244300Y0222216D01*
X0244300Y0221617D02*
X0341720Y0221617D01*
X0341720Y0221019D02*
X0244300Y0221019D01*
X0244300Y0220420D02*
X0341720Y0220420D01*
X0341720Y0219822D02*
X0244300Y0219822D01*
X0244300Y0219223D02*
X0341720Y0219223D01*
X0341720Y0218625D02*
X0244300Y0218625D01*
X0244300Y0218026D02*
X0341720Y0218026D01*
X0341720Y0217428D02*
X0244300Y0217428D01*
X0244300Y0216829D02*
X0341720Y0216829D01*
X0341720Y0216231D02*
X0244300Y0216231D01*
X0244300Y0215632D02*
X0341720Y0215632D01*
X0341720Y0215033D02*
X0244300Y0215033D01*
X0244300Y0214435D02*
X0341720Y0214435D01*
X0341720Y0213836D02*
X0244300Y0213836D01*
X0244300Y0213238D02*
X0341720Y0213238D01*
X0341720Y0212639D02*
X0244300Y0212639D01*
X0244300Y0212041D02*
X0341720Y0212041D01*
X0341720Y0211442D02*
X0244300Y0211442D01*
X0244300Y0210844D02*
X0341720Y0210844D01*
X0341720Y0210245D02*
X0244300Y0210245D01*
X0244300Y0209647D02*
X0341720Y0209647D01*
X0341720Y0209048D02*
X0244300Y0209048D01*
X0244300Y0208450D02*
X0341720Y0208450D01*
X0341720Y0207851D02*
X0244300Y0207851D01*
X0244300Y0207253D02*
X0341720Y0207253D01*
X0341720Y0206654D02*
X0244300Y0206654D01*
X0244300Y0206056D02*
X0341720Y0206056D01*
X0341720Y0205457D02*
X0244300Y0205457D01*
X0244300Y0204859D02*
X0341720Y0204859D01*
X0341720Y0204260D02*
X0244300Y0204260D01*
X0244300Y0203662D02*
X0341720Y0203662D01*
X0341720Y0203063D02*
X0244300Y0203063D01*
X0244300Y0202465D02*
X0341720Y0202465D01*
X0341720Y0201866D02*
X0244300Y0201866D01*
X0244300Y0201268D02*
X0341720Y0201268D01*
X0341720Y0200669D02*
X0244300Y0200669D01*
X0244300Y0200071D02*
X0341720Y0200071D01*
X0341720Y0199472D02*
X0244300Y0199472D01*
X0244300Y0198874D02*
X0341720Y0198874D01*
X0341720Y0198275D02*
X0244300Y0198275D01*
X0244300Y0197677D02*
X0341720Y0197677D01*
X0341720Y0197078D02*
X0244300Y0197078D01*
X0244300Y0196480D02*
X0341720Y0196480D01*
X0341720Y0195881D02*
X0244300Y0195881D01*
X0244300Y0195283D02*
X0341720Y0195283D01*
X0341720Y0194684D02*
X0244300Y0194684D01*
X0244300Y0194086D02*
X0341720Y0194086D01*
X0341720Y0193487D02*
X0244300Y0193487D01*
X0244300Y0192889D02*
X0341720Y0192889D01*
X0341720Y0192290D02*
X0244300Y0192290D01*
X0244300Y0191692D02*
X0341720Y0191692D01*
X0341720Y0191093D02*
X0244300Y0191093D01*
X0244300Y0190495D02*
X0341720Y0190495D01*
X0341720Y0189896D02*
X0244300Y0189896D01*
X0244300Y0189298D02*
X0341720Y0189298D01*
X0341720Y0188699D02*
X0244300Y0188699D01*
X0244300Y0188100D02*
X0341720Y0188100D01*
X0341720Y0187502D02*
X0244300Y0187502D01*
X0244624Y0186903D02*
X0341720Y0186903D01*
X0341720Y0186305D02*
X0245223Y0186305D01*
X0247306Y0185706D02*
X0341720Y0185706D01*
X0341720Y0185108D02*
X0247905Y0185108D01*
X0241900Y0190495D02*
X0149246Y0190495D01*
X0149350Y0191093D02*
X0241900Y0191093D01*
X0241900Y0191692D02*
X0149350Y0191692D01*
X0149350Y0192290D02*
X0241900Y0192290D01*
X0241900Y0192889D02*
X0148924Y0192889D01*
X0148326Y0193487D02*
X0241900Y0193487D01*
X0241900Y0194086D02*
X0117156Y0194086D01*
X0117755Y0194684D02*
X0241900Y0194684D01*
X0241900Y0195283D02*
X0118054Y0195283D01*
X0118302Y0195881D02*
X0241900Y0195881D01*
X0241900Y0196480D02*
X0118436Y0196480D01*
X0118436Y0197078D02*
X0137455Y0197078D01*
X0136857Y0197677D02*
X0118436Y0197677D01*
X0118222Y0198275D02*
X0136258Y0198275D01*
X0135660Y0198874D02*
X0117974Y0198874D01*
X0117561Y0199472D02*
X0135061Y0199472D01*
X0134463Y0200071D02*
X0116962Y0200071D01*
X0116292Y0193487D02*
X0145874Y0193487D01*
X0145276Y0192889D02*
X0020555Y0192889D01*
X0019956Y0192290D02*
X0139877Y0192290D01*
X0139279Y0191692D02*
X0019358Y0191692D01*
X0018759Y0191093D02*
X0138850Y0191093D01*
X0138850Y0190495D02*
X0116245Y0190495D01*
X0116745Y0190287D02*
X0115312Y0190881D01*
X0107760Y0190881D01*
X0106327Y0190287D01*
X0105230Y0189190D01*
X0104636Y0187757D01*
X0104636Y0186205D01*
X0105230Y0184772D01*
X0106327Y0183675D01*
X0107760Y0183081D01*
X0115312Y0183081D01*
X0116745Y0183675D01*
X0117842Y0184772D01*
X0118436Y0186205D01*
X0118436Y0187757D01*
X0117842Y0189190D01*
X0116745Y0190287D01*
X0117137Y0189896D02*
X0138850Y0189896D01*
X0138951Y0189298D02*
X0117735Y0189298D01*
X0118046Y0188699D02*
X0139550Y0188699D01*
X0140148Y0188100D02*
X0118294Y0188100D01*
X0118436Y0187502D02*
X0142232Y0187502D01*
X0142450Y0186903D02*
X0118436Y0186903D01*
X0118436Y0186305D02*
X0142450Y0186305D01*
X0142542Y0185706D02*
X0118230Y0185706D01*
X0117982Y0185108D02*
X0143141Y0185108D01*
X0143739Y0184509D02*
X0117580Y0184509D01*
X0116981Y0183911D02*
X0145900Y0183911D01*
X0145900Y0184509D02*
X0145661Y0184509D01*
X0145900Y0183312D02*
X0115870Y0183312D01*
X0115543Y0181175D02*
X0114875Y0181281D01*
X0111836Y0181281D01*
X0111836Y0177281D01*
X0111236Y0177281D01*
X0111236Y0176681D01*
X0104236Y0176681D01*
X0104236Y0176643D01*
X0104342Y0175974D01*
X0104551Y0175330D01*
X0104859Y0174727D01*
X0105256Y0174180D01*
X0105735Y0173701D01*
X0106283Y0173303D01*
X0106886Y0172996D01*
X0107529Y0172787D01*
X0108198Y0172681D01*
X0111236Y0172681D01*
X0111236Y0176681D01*
X0111836Y0176681D01*
X0111836Y0172681D01*
X0114875Y0172681D01*
X0115543Y0172787D01*
X0116187Y0172996D01*
X0116790Y0173303D01*
X0117337Y0173701D01*
X0117816Y0174180D01*
X0118214Y0174727D01*
X0118521Y0175330D01*
X0118730Y0175974D01*
X0118836Y0176643D01*
X0118836Y0176681D01*
X0111836Y0176681D01*
X0111836Y0177281D01*
X0118836Y0177281D01*
X0118836Y0177320D01*
X0118730Y0177988D01*
X0118521Y0178632D01*
X0118214Y0179235D01*
X0117816Y0179782D01*
X0117337Y0180261D01*
X0116790Y0180659D01*
X0116187Y0180966D01*
X0115543Y0181175D01*
X0116280Y0180918D02*
X0145900Y0180918D01*
X0145900Y0180320D02*
X0117256Y0180320D01*
X0117860Y0179721D02*
X0145900Y0179721D01*
X0145900Y0179123D02*
X0118271Y0179123D01*
X0118556Y0178524D02*
X0145900Y0178524D01*
X0145900Y0177926D02*
X0118740Y0177926D01*
X0118835Y0177327D02*
X0146406Y0177327D01*
X0146603Y0177131D02*
X0146603Y0177131D01*
X0147005Y0176729D02*
X0111836Y0176729D01*
X0111836Y0177327D02*
X0111236Y0177327D01*
X0111236Y0177281D02*
X0111236Y0181281D01*
X0108198Y0181281D01*
X0107529Y0181175D01*
X0106886Y0180966D01*
X0106283Y0180659D01*
X0105735Y0180261D01*
X0105256Y0179782D01*
X0104859Y0179235D01*
X0104551Y0178632D01*
X0104342Y0177988D01*
X0104236Y0177320D01*
X0104236Y0177281D01*
X0111236Y0177281D01*
X0111236Y0176729D02*
X0031822Y0176729D01*
X0031822Y0176205D02*
X0031822Y0177757D01*
X0031228Y0179190D01*
X0030131Y0180287D01*
X0029723Y0180457D01*
X0029997Y0180731D01*
X0031197Y0180731D01*
X0033747Y0183281D01*
X0035232Y0183281D01*
X0036550Y0184599D01*
X0036550Y0186463D01*
X0035232Y0187781D01*
X0033368Y0187781D01*
X0032050Y0186463D01*
X0032050Y0184978D01*
X0030203Y0183131D01*
X0029003Y0183131D01*
X0028300Y0182428D01*
X0026753Y0180881D01*
X0021146Y0180881D01*
X0019713Y0180287D01*
X0018616Y0179190D01*
X0018022Y0177757D01*
X0018022Y0176205D01*
X0018616Y0174772D01*
X0019713Y0173675D01*
X0021146Y0173081D01*
X0028698Y0173081D01*
X0030131Y0173675D01*
X0031228Y0174772D01*
X0031822Y0176205D01*
X0031791Y0176130D02*
X0104317Y0176130D01*
X0104486Y0175532D02*
X0031543Y0175532D01*
X0031295Y0174933D02*
X0104754Y0174933D01*
X0105144Y0174335D02*
X0030791Y0174335D01*
X0030193Y0173736D02*
X0105700Y0173736D01*
X0106608Y0173138D02*
X0028834Y0173138D01*
X0031822Y0177327D02*
X0104237Y0177327D01*
X0104332Y0177926D02*
X0031752Y0177926D01*
X0031504Y0178524D02*
X0104516Y0178524D01*
X0104801Y0179123D02*
X0031256Y0179123D01*
X0030697Y0179721D02*
X0105212Y0179721D01*
X0105816Y0180320D02*
X0030053Y0180320D01*
X0031385Y0180918D02*
X0106792Y0180918D01*
X0107202Y0183312D02*
X0035264Y0183312D01*
X0035862Y0183911D02*
X0106091Y0183911D01*
X0105492Y0184509D02*
X0036461Y0184509D01*
X0036550Y0185108D02*
X0105091Y0185108D01*
X0104843Y0185706D02*
X0036550Y0185706D01*
X0036550Y0186305D02*
X0104636Y0186305D01*
X0104636Y0186903D02*
X0036109Y0186903D01*
X0035511Y0187502D02*
X0104636Y0187502D01*
X0104779Y0188100D02*
X0031680Y0188100D01*
X0031822Y0187757D02*
X0031228Y0189190D01*
X0030131Y0190287D01*
X0028698Y0190881D01*
X0021146Y0190881D01*
X0019713Y0190287D01*
X0018616Y0189190D01*
X0018022Y0187757D01*
X0018022Y0186205D01*
X0018616Y0184772D01*
X0019713Y0183675D01*
X0021146Y0183081D01*
X0028698Y0183081D01*
X0030131Y0183675D01*
X0031228Y0184772D01*
X0031822Y0186205D01*
X0031822Y0187757D01*
X0031822Y0187502D02*
X0033089Y0187502D01*
X0032491Y0186903D02*
X0031822Y0186903D01*
X0031822Y0186305D02*
X0032050Y0186305D01*
X0032050Y0185706D02*
X0031615Y0185706D01*
X0031367Y0185108D02*
X0032050Y0185108D01*
X0031582Y0184509D02*
X0030966Y0184509D01*
X0030983Y0183911D02*
X0030367Y0183911D01*
X0030385Y0183312D02*
X0029256Y0183312D01*
X0028586Y0182714D02*
X0017500Y0182714D01*
X0017500Y0183312D02*
X0020588Y0183312D01*
X0019477Y0183911D02*
X0017500Y0183911D01*
X0017500Y0184509D02*
X0018878Y0184509D01*
X0018477Y0185108D02*
X0017500Y0185108D01*
X0017500Y0185706D02*
X0018229Y0185706D01*
X0018022Y0186305D02*
X0017500Y0186305D01*
X0017500Y0186903D02*
X0018022Y0186903D01*
X0018022Y0187502D02*
X0017500Y0187502D01*
X0017500Y0188100D02*
X0018164Y0188100D01*
X0018412Y0188699D02*
X0017500Y0188699D01*
X0017500Y0189298D02*
X0018723Y0189298D01*
X0019322Y0189896D02*
X0017562Y0189896D01*
X0018161Y0190495D02*
X0020213Y0190495D01*
X0017161Y0192889D02*
X0016300Y0192889D01*
X0016300Y0193487D02*
X0017759Y0193487D01*
X0018358Y0194086D02*
X0016300Y0194086D01*
X0016300Y0194684D02*
X0018704Y0194684D01*
X0018404Y0195283D02*
X0016300Y0195283D01*
X0016300Y0195881D02*
X0018156Y0195881D01*
X0018022Y0196480D02*
X0016300Y0196480D01*
X0016300Y0197078D02*
X0018022Y0197078D01*
X0018022Y0197677D02*
X0016300Y0197677D01*
X0016300Y0198275D02*
X0018237Y0198275D01*
X0018485Y0198874D02*
X0016340Y0198874D01*
X0016939Y0199472D02*
X0018898Y0199472D01*
X0019496Y0200071D02*
X0017537Y0200071D01*
X0015100Y0199331D02*
X0015100Y0076931D01*
X0015518Y0076931D01*
X0033518Y0058931D01*
X0044114Y0058931D01*
X0048544Y0054501D01*
X0048544Y0054157D01*
X0048250Y0053863D01*
X0048250Y0051999D01*
X0049718Y0050531D01*
X0076300Y0050531D01*
X0082099Y0054632D02*
X0116041Y0054632D01*
X0115443Y0055231D02*
X0082697Y0055231D01*
X0085690Y0058224D02*
X0088828Y0058224D01*
X0088230Y0058822D02*
X0086288Y0058822D01*
X0086887Y0059421D02*
X0087631Y0059421D01*
X0087594Y0060019D02*
X0087485Y0060019D01*
X0089478Y0065406D02*
X0078472Y0065406D01*
X0079070Y0066004D02*
X0090076Y0066004D01*
X0090675Y0066603D02*
X0079669Y0066603D01*
X0080268Y0067201D02*
X0091273Y0067201D01*
X0091872Y0067800D02*
X0080866Y0067800D01*
X0081465Y0068398D02*
X0092470Y0068398D01*
X0093069Y0068997D02*
X0082063Y0068997D01*
X0082662Y0069595D02*
X0093667Y0069595D01*
X0094266Y0070194D02*
X0083260Y0070194D01*
X0083859Y0070792D02*
X0094865Y0070792D01*
X0095463Y0071391D02*
X0084457Y0071391D01*
X0071500Y0072731D02*
X0060100Y0061331D01*
X0056500Y0060131D02*
X0061300Y0055331D01*
X0060100Y0052931D02*
X0058900Y0054131D01*
X0055300Y0054131D01*
X0051700Y0051731D02*
X0050500Y0052931D01*
X0051700Y0051731D02*
X0063100Y0051731D01*
X0105100Y0093731D01*
X0105100Y0094331D01*
X0109900Y0099131D01*
X0111495Y0100718D02*
X0146990Y0100718D01*
X0147589Y0101316D02*
X0110896Y0101316D01*
X0112093Y0100119D02*
X0146392Y0100119D01*
X0145793Y0099521D02*
X0112150Y0099521D01*
X0112150Y0098922D02*
X0145195Y0098922D01*
X0144596Y0098324D02*
X0112150Y0098324D01*
X0111677Y0097725D02*
X0143998Y0097725D01*
X0143399Y0097127D02*
X0111078Y0097127D01*
X0108995Y0096528D02*
X0142801Y0096528D01*
X0142202Y0095930D02*
X0108396Y0095930D01*
X0107798Y0095331D02*
X0141603Y0095331D01*
X0141005Y0094733D02*
X0107199Y0094733D01*
X0106601Y0094134D02*
X0140406Y0094134D01*
X0139808Y0093536D02*
X0106300Y0093536D01*
X0106004Y0092937D02*
X0139209Y0092937D01*
X0138611Y0092339D02*
X0105405Y0092339D01*
X0104806Y0091740D02*
X0138012Y0091740D01*
X0137414Y0091142D02*
X0104208Y0091142D01*
X0103609Y0090543D02*
X0136815Y0090543D01*
X0136217Y0089945D02*
X0103011Y0089945D01*
X0102412Y0089346D02*
X0135618Y0089346D01*
X0135020Y0088748D02*
X0101814Y0088748D01*
X0101215Y0088149D02*
X0134421Y0088149D01*
X0133823Y0087551D02*
X0100617Y0087551D01*
X0100018Y0086952D02*
X0133224Y0086952D01*
X0132626Y0086354D02*
X0099420Y0086354D01*
X0103900Y0094331D02*
X0103900Y0105131D01*
X0105510Y0106703D02*
X0115226Y0106703D01*
X0115153Y0106104D02*
X0106108Y0106104D01*
X0106150Y0105506D02*
X0115153Y0105506D01*
X0115153Y0104907D02*
X0106150Y0104907D01*
X0106150Y0104309D02*
X0115578Y0104309D01*
X0116176Y0103710D02*
X0105662Y0103710D01*
X0105100Y0103112D02*
X0149384Y0103112D01*
X0149983Y0103710D02*
X0118707Y0103710D01*
X0119306Y0104309D02*
X0150581Y0104309D01*
X0151180Y0104907D02*
X0119731Y0104907D01*
X0119731Y0105506D02*
X0151778Y0105506D01*
X0152377Y0106104D02*
X0119731Y0106104D01*
X0119658Y0106703D02*
X0152975Y0106703D01*
X0153574Y0107301D02*
X0119059Y0107301D01*
X0118642Y0107900D02*
X0154172Y0107900D01*
X0154771Y0108498D02*
X0118642Y0108498D01*
X0118642Y0109097D02*
X0155369Y0109097D01*
X0155968Y0109695D02*
X0118642Y0109695D01*
X0118642Y0110294D02*
X0156566Y0110294D01*
X0156700Y0111731D02*
X0126100Y0111731D01*
X0118900Y0118931D01*
X0114100Y0118931D01*
X0061300Y0066131D01*
X0040300Y0066131D01*
X0042700Y0068531D02*
X0039700Y0071531D01*
X0039700Y0084731D01*
X0039700Y0092531D01*
X0058900Y0092531D01*
X0085900Y0119531D01*
X0097900Y0107531D01*
X0104766Y0107900D02*
X0116242Y0107900D01*
X0116242Y0108498D02*
X0105365Y0108498D01*
X0105963Y0109097D02*
X0116242Y0109097D01*
X0116242Y0109695D02*
X0106562Y0109695D01*
X0107160Y0110294D02*
X0116242Y0110294D01*
X0116242Y0110893D02*
X0107759Y0110893D01*
X0108357Y0111491D02*
X0116242Y0111491D01*
X0116247Y0112090D02*
X0108956Y0112090D01*
X0109554Y0112688D02*
X0116845Y0112688D01*
X0117121Y0113287D02*
X0110153Y0113287D01*
X0110751Y0113885D02*
X0117121Y0113885D01*
X0117121Y0114484D02*
X0111350Y0114484D01*
X0111948Y0115082D02*
X0117699Y0115082D01*
X0118298Y0115681D02*
X0112547Y0115681D01*
X0113145Y0116279D02*
X0119855Y0116279D01*
X0117771Y0116878D02*
X0113744Y0116878D01*
X0114342Y0117476D02*
X0117173Y0117476D01*
X0119410Y0113556D02*
X0117442Y0111587D01*
X0117442Y0105682D01*
X0115824Y0107301D02*
X0104911Y0107301D01*
X0105100Y0102513D02*
X0148786Y0102513D01*
X0148187Y0101915D02*
X0105100Y0101915D01*
X0105100Y0101316D02*
X0108904Y0101316D01*
X0108305Y0100718D02*
X0105100Y0100718D01*
X0105100Y0100119D02*
X0107707Y0100119D01*
X0107650Y0099521D02*
X0105100Y0099521D01*
X0105100Y0098922D02*
X0107650Y0098922D01*
X0107396Y0098324D02*
X0105100Y0098324D01*
X0105100Y0097725D02*
X0106798Y0097725D01*
X0106199Y0097127D02*
X0105100Y0097127D01*
X0105100Y0096528D02*
X0105601Y0096528D01*
X0103900Y0094331D02*
X0062500Y0052931D01*
X0060100Y0052931D01*
X0056500Y0060131D02*
X0037403Y0060131D01*
X0023003Y0074531D01*
X0021100Y0074531D01*
X0026553Y0077974D02*
X0030700Y0077974D01*
X0030700Y0077376D02*
X0027152Y0077376D01*
X0027750Y0076777D02*
X0030365Y0076777D01*
X0029766Y0076179D02*
X0028349Y0076179D01*
X0028947Y0075580D02*
X0029650Y0075580D01*
X0029650Y0074982D02*
X0029546Y0074982D01*
X0031900Y0075131D02*
X0031900Y0097931D01*
X0028900Y0100931D01*
X0025567Y0099888D02*
X0025456Y0097808D01*
X0020989Y0097808D01*
X0020985Y0097804D01*
X0020985Y0085997D01*
X0025046Y0080967D02*
X0030700Y0080967D01*
X0030700Y0080368D02*
X0025644Y0080368D01*
X0026243Y0079770D02*
X0030700Y0079770D01*
X0030700Y0079171D02*
X0026350Y0079171D01*
X0026350Y0078573D02*
X0030700Y0078573D01*
X0039700Y0092531D02*
X0039700Y0093731D01*
X0028900Y0104531D01*
X0026374Y0107301D02*
X0026168Y0107301D01*
X0026766Y0107900D02*
X0026972Y0107900D01*
X0027365Y0108498D02*
X0027571Y0108498D01*
X0027963Y0109097D02*
X0028169Y0109097D01*
X0028562Y0109695D02*
X0028768Y0109695D01*
X0029160Y0110294D02*
X0029366Y0110294D01*
X0029759Y0110893D02*
X0029965Y0110893D01*
X0030357Y0111491D02*
X0030563Y0111491D01*
X0030956Y0112090D02*
X0031162Y0112090D01*
X0031554Y0112688D02*
X0031760Y0112688D01*
X0032153Y0113287D02*
X0032359Y0113287D01*
X0032751Y0113885D02*
X0032957Y0113885D01*
X0033350Y0114484D02*
X0033556Y0114484D01*
X0033948Y0115082D02*
X0034154Y0115082D01*
X0034547Y0115681D02*
X0034753Y0115681D01*
X0035145Y0116279D02*
X0035351Y0116279D01*
X0035744Y0116878D02*
X0035950Y0116878D01*
X0036342Y0117476D02*
X0036548Y0117476D01*
X0036941Y0118075D02*
X0037147Y0118075D01*
X0037539Y0118673D02*
X0037745Y0118673D01*
X0038138Y0119272D02*
X0038344Y0119272D01*
X0038737Y0119870D02*
X0038942Y0119870D01*
X0039335Y0120469D02*
X0039541Y0120469D01*
X0039934Y0121067D02*
X0040139Y0121067D01*
X0040532Y0121666D02*
X0040738Y0121666D01*
X0041131Y0122264D02*
X0041336Y0122264D01*
X0041729Y0122863D02*
X0041935Y0122863D01*
X0042328Y0123461D02*
X0042534Y0123461D01*
X0042926Y0124060D02*
X0043132Y0124060D01*
X0043525Y0124658D02*
X0043731Y0124658D01*
X0044123Y0125257D02*
X0044329Y0125257D01*
X0044722Y0125855D02*
X0044928Y0125855D01*
X0045320Y0126454D02*
X0045526Y0126454D01*
X0045919Y0127052D02*
X0046125Y0127052D01*
X0046517Y0127651D02*
X0046723Y0127651D01*
X0047116Y0128249D02*
X0047322Y0128249D01*
X0047714Y0128848D02*
X0047920Y0128848D01*
X0048313Y0129446D02*
X0048519Y0129446D01*
X0048911Y0130045D02*
X0049117Y0130045D01*
X0049510Y0130643D02*
X0049716Y0130643D01*
X0050108Y0131242D02*
X0050314Y0131242D01*
X0050707Y0131840D02*
X0178113Y0131840D01*
X0178711Y0132439D02*
X0051305Y0132439D01*
X0051904Y0133037D02*
X0065611Y0133037D01*
X0065013Y0133636D02*
X0052502Y0133636D01*
X0052300Y0135131D02*
X0066700Y0135131D01*
X0068384Y0136629D02*
X0182050Y0136629D01*
X0182050Y0137227D02*
X0067786Y0137227D01*
X0068950Y0136030D02*
X0182050Y0136030D01*
X0181704Y0135431D02*
X0068950Y0135431D01*
X0068950Y0134833D02*
X0181105Y0134833D01*
X0180507Y0134234D02*
X0068950Y0134234D01*
X0068387Y0133636D02*
X0179908Y0133636D01*
X0179310Y0133037D02*
X0067789Y0133037D01*
X0065500Y0129131D02*
X0042700Y0106331D01*
X0042700Y0100331D01*
X0041102Y0101915D02*
X0039213Y0101915D01*
X0038614Y0102513D02*
X0041500Y0102513D01*
X0041500Y0102313D02*
X0040450Y0101263D01*
X0040450Y0100678D01*
X0034339Y0106788D01*
X0034750Y0107199D01*
X0034750Y0109063D01*
X0033432Y0110381D01*
X0032847Y0110381D01*
X0051597Y0129131D01*
X0063803Y0129131D01*
X0043253Y0108581D01*
X0041768Y0108581D01*
X0040450Y0107263D01*
X0040450Y0105399D01*
X0041500Y0104349D01*
X0041500Y0102313D01*
X0041500Y0103112D02*
X0038016Y0103112D01*
X0037417Y0103710D02*
X0041500Y0103710D01*
X0041500Y0104309D02*
X0036819Y0104309D01*
X0036220Y0104907D02*
X0040941Y0104907D01*
X0040450Y0105506D02*
X0035622Y0105506D01*
X0035023Y0106104D02*
X0040450Y0106104D01*
X0040450Y0106703D02*
X0034425Y0106703D01*
X0034750Y0107301D02*
X0040489Y0107301D01*
X0041087Y0107900D02*
X0034750Y0107900D01*
X0034750Y0108498D02*
X0041686Y0108498D01*
X0040411Y0109205D02*
X0037147Y0109205D01*
X0035542Y0110810D01*
X0034556Y0112090D02*
X0046762Y0112090D01*
X0047360Y0112688D02*
X0035154Y0112688D01*
X0035753Y0113287D02*
X0047959Y0113287D01*
X0048557Y0113885D02*
X0036351Y0113885D01*
X0036950Y0114484D02*
X0049156Y0114484D01*
X0049754Y0115082D02*
X0037548Y0115082D01*
X0038147Y0115681D02*
X0050353Y0115681D01*
X0050951Y0116279D02*
X0038745Y0116279D01*
X0039344Y0116878D02*
X0051550Y0116878D01*
X0052148Y0117476D02*
X0039942Y0117476D01*
X0040541Y0118075D02*
X0052747Y0118075D01*
X0053345Y0118673D02*
X0041139Y0118673D01*
X0041738Y0119272D02*
X0053944Y0119272D01*
X0054542Y0119870D02*
X0042337Y0119870D01*
X0042935Y0120469D02*
X0055141Y0120469D01*
X0055739Y0121067D02*
X0043534Y0121067D01*
X0044132Y0121666D02*
X0056338Y0121666D01*
X0056936Y0122264D02*
X0044731Y0122264D01*
X0045329Y0122863D02*
X0057535Y0122863D01*
X0058134Y0123461D02*
X0045928Y0123461D01*
X0046526Y0124060D02*
X0058732Y0124060D01*
X0059331Y0124658D02*
X0047125Y0124658D01*
X0047723Y0125257D02*
X0059929Y0125257D01*
X0060528Y0125855D02*
X0048322Y0125855D01*
X0048920Y0126454D02*
X0061126Y0126454D01*
X0061725Y0127052D02*
X0049519Y0127052D01*
X0050117Y0127651D02*
X0062323Y0127651D01*
X0062922Y0128249D02*
X0050716Y0128249D01*
X0051314Y0128848D02*
X0063520Y0128848D01*
X0065500Y0129131D02*
X0140500Y0129131D01*
X0155500Y0114131D01*
X0157132Y0115681D02*
X0157450Y0115681D01*
X0157466Y0116279D02*
X0156534Y0116279D01*
X0158065Y0116878D02*
X0154450Y0116878D01*
X0153852Y0117476D02*
X0158663Y0117476D01*
X0160737Y0117476D02*
X0163748Y0117476D01*
X0163150Y0116878D02*
X0161335Y0116878D01*
X0161934Y0116279D02*
X0162551Y0116279D01*
X0161953Y0115681D02*
X0161950Y0115681D01*
X0159700Y0115331D02*
X0157900Y0113531D01*
X0157900Y0112931D01*
X0156700Y0111731D01*
X0155389Y0097808D02*
X0152614Y0097808D01*
X0147823Y0093017D01*
X0121379Y0097808D02*
X0113505Y0097808D01*
X0118642Y0110893D02*
X0125241Y0110893D01*
X0124643Y0111491D02*
X0120582Y0111491D01*
X0121181Y0112090D02*
X0124044Y0112090D01*
X0123446Y0112688D02*
X0121699Y0112688D01*
X0121699Y0113287D02*
X0122847Y0113287D01*
X0122249Y0113885D02*
X0121699Y0113885D01*
X0126771Y0114242D02*
X0119832Y0121181D01*
X0101943Y0121181D01*
X0097757Y0125367D01*
X0093100Y0126731D02*
X0085900Y0119531D01*
X0065614Y0137227D02*
X0017500Y0137227D01*
X0017500Y0136629D02*
X0065016Y0136629D01*
X0065768Y0144881D02*
X0067632Y0144881D01*
X0068950Y0146199D01*
X0068950Y0148063D01*
X0067632Y0149381D01*
X0065768Y0149381D01*
X0064718Y0148331D01*
X0063882Y0148331D01*
X0062832Y0149381D01*
X0060968Y0149381D01*
X0059650Y0148063D01*
X0059650Y0146199D01*
X0060968Y0144881D01*
X0062832Y0144881D01*
X0063882Y0145931D01*
X0064718Y0145931D01*
X0065768Y0144881D01*
X0065641Y0145008D02*
X0062959Y0145008D01*
X0063557Y0145606D02*
X0065043Y0145606D01*
X0066700Y0147131D02*
X0061900Y0147131D01*
X0060243Y0145606D02*
X0017500Y0145606D01*
X0017500Y0145008D02*
X0060841Y0145008D01*
X0059650Y0146205D02*
X0017500Y0146205D01*
X0017500Y0146803D02*
X0059650Y0146803D01*
X0059650Y0147402D02*
X0017500Y0147402D01*
X0017500Y0148000D02*
X0059650Y0148000D01*
X0060186Y0148599D02*
X0034750Y0148599D01*
X0034632Y0148481D02*
X0035950Y0149799D01*
X0035950Y0151284D01*
X0045747Y0161081D01*
X0047232Y0161081D01*
X0048550Y0162399D01*
X0048550Y0164263D01*
X0047232Y0165581D01*
X0045368Y0165581D01*
X0044050Y0164263D01*
X0044050Y0162778D01*
X0034253Y0152981D01*
X0032768Y0152981D01*
X0031450Y0151663D01*
X0031450Y0149799D01*
X0032768Y0148481D01*
X0034632Y0148481D01*
X0035349Y0149197D02*
X0060785Y0149197D01*
X0063015Y0149197D02*
X0065585Y0149197D01*
X0064986Y0148599D02*
X0063614Y0148599D01*
X0067815Y0149197D02*
X0087977Y0149197D01*
X0087379Y0149796D02*
X0035947Y0149796D01*
X0035950Y0150394D02*
X0086780Y0150394D01*
X0086538Y0150637D02*
X0090651Y0146523D01*
X0090651Y0145121D01*
X0089562Y0144032D01*
X0089562Y0142135D01*
X0090903Y0140794D01*
X0092799Y0140794D01*
X0094140Y0142135D01*
X0094140Y0144032D01*
X0093051Y0145121D01*
X0093051Y0147518D01*
X0088235Y0152334D01*
X0088235Y0153874D01*
X0086894Y0155215D01*
X0084998Y0155215D01*
X0083657Y0153874D01*
X0083657Y0151978D01*
X0084998Y0150637D01*
X0086538Y0150637D01*
X0084642Y0150993D02*
X0035950Y0150993D01*
X0036258Y0151591D02*
X0084043Y0151591D01*
X0083657Y0152190D02*
X0036856Y0152190D01*
X0037455Y0152788D02*
X0083657Y0152788D01*
X0083657Y0153387D02*
X0038053Y0153387D01*
X0038652Y0153985D02*
X0083768Y0153985D01*
X0084366Y0154584D02*
X0039250Y0154584D01*
X0039849Y0155182D02*
X0084965Y0155182D01*
X0086926Y0155182D02*
X0168551Y0155182D01*
X0169150Y0154584D02*
X0087525Y0154584D01*
X0088123Y0153985D02*
X0169748Y0153985D01*
X0170347Y0153387D02*
X0088235Y0153387D01*
X0088235Y0152788D02*
X0170945Y0152788D01*
X0171544Y0152190D02*
X0088379Y0152190D01*
X0088977Y0151591D02*
X0172142Y0151591D01*
X0172741Y0150993D02*
X0089576Y0150993D01*
X0090174Y0150394D02*
X0173339Y0150394D01*
X0173938Y0149796D02*
X0090773Y0149796D01*
X0091371Y0149197D02*
X0174536Y0149197D01*
X0174014Y0148599D02*
X0175135Y0148599D01*
X0174612Y0148000D02*
X0175733Y0148000D01*
X0175150Y0147463D02*
X0173832Y0148781D01*
X0171968Y0148781D01*
X0170918Y0147731D01*
X0168882Y0147731D01*
X0167832Y0148781D01*
X0165968Y0148781D01*
X0164650Y0147463D01*
X0164650Y0145599D01*
X0165968Y0144281D01*
X0167832Y0144281D01*
X0168882Y0145331D01*
X0170918Y0145331D01*
X0171968Y0144281D01*
X0173832Y0144281D01*
X0175150Y0145599D01*
X0175150Y0147463D01*
X0175150Y0147402D02*
X0176332Y0147402D01*
X0176930Y0146803D02*
X0175150Y0146803D01*
X0175150Y0146205D02*
X0177529Y0146205D01*
X0178127Y0145606D02*
X0175150Y0145606D01*
X0174559Y0145008D02*
X0178726Y0145008D01*
X0179325Y0144409D02*
X0173960Y0144409D01*
X0171840Y0144409D02*
X0167960Y0144409D01*
X0168559Y0145008D02*
X0171241Y0145008D01*
X0172900Y0146531D02*
X0166900Y0146531D01*
X0165241Y0145008D02*
X0093164Y0145008D01*
X0093051Y0145606D02*
X0164650Y0145606D01*
X0164650Y0146205D02*
X0093051Y0146205D01*
X0093051Y0146803D02*
X0164650Y0146803D01*
X0164650Y0147402D02*
X0093051Y0147402D01*
X0092568Y0148000D02*
X0165188Y0148000D01*
X0165786Y0148599D02*
X0091970Y0148599D01*
X0091851Y0147020D02*
X0085946Y0152926D01*
X0088576Y0148599D02*
X0068414Y0148599D01*
X0068950Y0148000D02*
X0089174Y0148000D01*
X0089773Y0147402D02*
X0068950Y0147402D01*
X0068950Y0146803D02*
X0090371Y0146803D01*
X0090651Y0146205D02*
X0068950Y0146205D01*
X0068357Y0145606D02*
X0090651Y0145606D01*
X0090538Y0145008D02*
X0067759Y0145008D01*
X0052300Y0135131D02*
X0018700Y0101531D01*
X0018700Y0092531D01*
X0017500Y0094733D02*
X0017500Y0094733D01*
X0017500Y0095331D02*
X0017500Y0095331D01*
X0017500Y0095930D02*
X0017500Y0095930D01*
X0017500Y0096528D02*
X0017500Y0096528D01*
X0017500Y0097127D02*
X0017500Y0097127D01*
X0017500Y0097725D02*
X0017500Y0097725D01*
X0017500Y0098324D02*
X0017500Y0098324D01*
X0017500Y0098922D02*
X0017500Y0098922D01*
X0017500Y0099521D02*
X0017500Y0099521D01*
X0017500Y0100119D02*
X0017500Y0100119D01*
X0017500Y0100718D02*
X0017500Y0100718D01*
X0017500Y0101316D02*
X0017500Y0101316D01*
X0017500Y0101915D02*
X0017500Y0101915D01*
X0017500Y0102513D02*
X0017986Y0102513D01*
X0017500Y0103112D02*
X0018584Y0103112D01*
X0019183Y0103710D02*
X0017500Y0103710D01*
X0017500Y0104309D02*
X0019781Y0104309D01*
X0020380Y0104907D02*
X0017500Y0104907D01*
X0017500Y0105506D02*
X0020978Y0105506D01*
X0021577Y0106104D02*
X0017500Y0106104D01*
X0017500Y0106703D02*
X0022175Y0106703D01*
X0022774Y0107301D02*
X0017500Y0107301D01*
X0017500Y0107900D02*
X0023372Y0107900D01*
X0023971Y0108498D02*
X0017500Y0108498D01*
X0017500Y0109097D02*
X0024569Y0109097D01*
X0025168Y0109695D02*
X0017500Y0109695D01*
X0017500Y0110294D02*
X0025766Y0110294D01*
X0026365Y0110893D02*
X0017500Y0110893D01*
X0017500Y0111491D02*
X0026963Y0111491D01*
X0027562Y0112090D02*
X0017500Y0112090D01*
X0017500Y0112688D02*
X0028160Y0112688D01*
X0028759Y0113287D02*
X0017500Y0113287D01*
X0017500Y0113885D02*
X0029357Y0113885D01*
X0029956Y0114484D02*
X0017500Y0114484D01*
X0017500Y0115082D02*
X0030554Y0115082D01*
X0031153Y0115681D02*
X0017500Y0115681D01*
X0017500Y0116279D02*
X0031751Y0116279D01*
X0032350Y0116878D02*
X0017500Y0116878D01*
X0017500Y0117476D02*
X0032948Y0117476D01*
X0033547Y0118075D02*
X0017500Y0118075D01*
X0017500Y0118673D02*
X0034145Y0118673D01*
X0034744Y0119272D02*
X0017500Y0119272D01*
X0017500Y0119870D02*
X0035342Y0119870D01*
X0035941Y0120469D02*
X0017500Y0120469D01*
X0017500Y0121067D02*
X0036539Y0121067D01*
X0037138Y0121666D02*
X0017500Y0121666D01*
X0017500Y0122264D02*
X0037736Y0122264D01*
X0038335Y0122863D02*
X0017500Y0122863D01*
X0017500Y0123461D02*
X0038934Y0123461D01*
X0039532Y0124060D02*
X0017500Y0124060D01*
X0017500Y0124658D02*
X0040131Y0124658D01*
X0040729Y0125257D02*
X0017500Y0125257D01*
X0017500Y0125855D02*
X0041328Y0125855D01*
X0041926Y0126454D02*
X0017500Y0126454D01*
X0017500Y0127052D02*
X0042525Y0127052D01*
X0043123Y0127651D02*
X0017500Y0127651D01*
X0017500Y0128249D02*
X0043722Y0128249D01*
X0044320Y0128848D02*
X0017500Y0128848D01*
X0017500Y0129446D02*
X0044919Y0129446D01*
X0045517Y0130045D02*
X0017500Y0130045D01*
X0017500Y0130643D02*
X0046116Y0130643D01*
X0046714Y0131242D02*
X0017500Y0131242D01*
X0017500Y0131840D02*
X0047313Y0131840D01*
X0047911Y0132439D02*
X0017500Y0132439D01*
X0017500Y0133037D02*
X0048510Y0133037D01*
X0049108Y0133636D02*
X0017500Y0133636D01*
X0017500Y0134234D02*
X0049707Y0134234D01*
X0050305Y0134833D02*
X0017500Y0134833D01*
X0017500Y0135431D02*
X0050904Y0135431D01*
X0051502Y0136030D02*
X0017500Y0136030D01*
X0017500Y0137826D02*
X0182613Y0137826D01*
X0183211Y0138424D02*
X0017500Y0138424D01*
X0017500Y0139023D02*
X0184711Y0139023D01*
X0184113Y0139621D02*
X0017500Y0139621D01*
X0017500Y0140220D02*
X0183514Y0140220D01*
X0182916Y0140818D02*
X0092823Y0140818D01*
X0093421Y0141417D02*
X0182317Y0141417D01*
X0181719Y0142015D02*
X0094020Y0142015D01*
X0094140Y0142614D02*
X0181120Y0142614D01*
X0180522Y0143212D02*
X0094140Y0143212D01*
X0094140Y0143811D02*
X0179923Y0143811D01*
X0181522Y0145606D02*
X0286450Y0145606D01*
X0285852Y0146205D02*
X0180923Y0146205D01*
X0180325Y0146803D02*
X0285253Y0146803D01*
X0284655Y0147402D02*
X0179726Y0147402D01*
X0179128Y0148000D02*
X0284056Y0148000D01*
X0283458Y0148599D02*
X0178529Y0148599D01*
X0177930Y0149197D02*
X0282859Y0149197D01*
X0282261Y0149796D02*
X0177332Y0149796D01*
X0176733Y0150394D02*
X0281662Y0150394D01*
X0281064Y0150993D02*
X0176135Y0150993D01*
X0175536Y0151591D02*
X0280465Y0151591D01*
X0279867Y0152190D02*
X0174938Y0152190D01*
X0174339Y0152788D02*
X0279268Y0152788D01*
X0278670Y0153387D02*
X0173741Y0153387D01*
X0173142Y0153985D02*
X0278071Y0153985D01*
X0277482Y0154574D02*
X0289771Y0142286D01*
X0290474Y0141583D01*
X0302150Y0141583D01*
X0302150Y0139683D01*
X0304400Y0139683D01*
X0304400Y0139083D01*
X0302150Y0139083D01*
X0302150Y0136712D01*
X0302239Y0136381D01*
X0302410Y0136084D01*
X0302652Y0135842D01*
X0302948Y0135671D01*
X0303279Y0135583D01*
X0304400Y0135583D01*
X0304400Y0139083D01*
X0305000Y0139083D01*
X0305000Y0135583D01*
X0306121Y0135583D01*
X0306452Y0135671D01*
X0306748Y0135842D01*
X0306888Y0135983D01*
X0309523Y0135983D01*
X0310050Y0136510D01*
X0310050Y0142255D01*
X0309523Y0142783D01*
X0308020Y0142783D01*
X0307523Y0143280D01*
X0306820Y0143983D01*
X0291468Y0143983D01*
X0279180Y0156271D01*
X0279180Y0157811D01*
X0277839Y0159152D01*
X0275942Y0159152D01*
X0274602Y0157811D01*
X0274602Y0155915D01*
X0275942Y0154574D01*
X0277482Y0154574D01*
X0275933Y0154584D02*
X0172544Y0154584D01*
X0171945Y0155182D02*
X0275334Y0155182D01*
X0274736Y0155781D02*
X0171347Y0155781D01*
X0170748Y0156379D02*
X0274602Y0156379D01*
X0274602Y0156978D02*
X0170150Y0156978D01*
X0169551Y0157576D02*
X0274602Y0157576D01*
X0274965Y0158175D02*
X0168953Y0158175D01*
X0168354Y0158773D02*
X0275564Y0158773D01*
X0276891Y0156863D02*
X0290971Y0142783D01*
X0306323Y0142783D01*
X0306850Y0142255D01*
X0306850Y0140433D01*
X0307900Y0139383D01*
X0310050Y0139621D02*
X0341720Y0139621D01*
X0341720Y0139023D02*
X0310050Y0139023D01*
X0310050Y0138424D02*
X0323837Y0138424D01*
X0324065Y0138498D02*
X0323421Y0138289D01*
X0322818Y0137982D01*
X0322270Y0137584D01*
X0321792Y0137105D01*
X0321394Y0136558D01*
X0321087Y0135955D01*
X0320878Y0135311D01*
X0320772Y0134642D01*
X0320772Y0134604D01*
X0327772Y0134604D01*
X0327772Y0138604D01*
X0324733Y0138604D01*
X0324065Y0138498D01*
X0322603Y0137826D02*
X0310050Y0137826D01*
X0310050Y0137227D02*
X0321914Y0137227D01*
X0321445Y0136629D02*
X0310050Y0136629D01*
X0309570Y0136030D02*
X0321125Y0136030D01*
X0320917Y0135431D02*
X0191696Y0135431D01*
X0192295Y0134833D02*
X0320802Y0134833D01*
X0320772Y0134004D02*
X0320772Y0133966D01*
X0320878Y0133297D01*
X0321087Y0132653D01*
X0321394Y0132050D01*
X0321792Y0131503D01*
X0322270Y0131024D01*
X0322818Y0130626D01*
X0323421Y0130319D01*
X0324065Y0130110D01*
X0324733Y0130004D01*
X0327772Y0130004D01*
X0327772Y0134004D01*
X0328372Y0134004D01*
X0328372Y0134604D01*
X0335372Y0134604D01*
X0335372Y0134642D01*
X0335266Y0135311D01*
X0335057Y0135955D01*
X0334749Y0136558D01*
X0334352Y0137105D01*
X0333873Y0137584D01*
X0333325Y0137982D01*
X0332722Y0138289D01*
X0332079Y0138498D01*
X0331410Y0138604D01*
X0328372Y0138604D01*
X0328372Y0134604D01*
X0327772Y0134604D01*
X0327772Y0134004D01*
X0320772Y0134004D01*
X0320824Y0133636D02*
X0193492Y0133636D01*
X0194090Y0133037D02*
X0320962Y0133037D01*
X0321196Y0132439D02*
X0194689Y0132439D01*
X0195287Y0131840D02*
X0321546Y0131840D01*
X0322053Y0131242D02*
X0195886Y0131242D01*
X0196484Y0130643D02*
X0322794Y0130643D01*
X0324475Y0130045D02*
X0197083Y0130045D01*
X0197681Y0129446D02*
X0341720Y0129446D01*
X0341720Y0128848D02*
X0249726Y0128848D01*
X0248808Y0105506D02*
X0262683Y0105506D01*
X0263935Y0104907D02*
X0249406Y0104907D01*
X0245924Y0101915D02*
X0245293Y0101915D01*
X0244694Y0101316D02*
X0341720Y0101316D01*
X0341720Y0100718D02*
X0244096Y0100718D01*
X0243497Y0100119D02*
X0341720Y0100119D01*
X0341720Y0099521D02*
X0242899Y0099521D01*
X0242300Y0098922D02*
X0341720Y0098922D01*
X0341720Y0098324D02*
X0241702Y0098324D01*
X0241103Y0097725D02*
X0341720Y0097725D01*
X0341720Y0097127D02*
X0240505Y0097127D01*
X0239906Y0096528D02*
X0341720Y0096528D01*
X0341720Y0095930D02*
X0239308Y0095930D01*
X0231294Y0091740D02*
X0230753Y0091740D01*
X0231294Y0091142D02*
X0210451Y0091142D01*
X0211049Y0090543D02*
X0231706Y0090543D01*
X0236500Y0088931D02*
X0210965Y0088931D01*
X0204056Y0095839D01*
X0236500Y0088931D02*
X0236500Y0083531D01*
X0236494Y0083049D01*
X0240394Y0082762D02*
X0250394Y0082762D01*
X0250394Y0082164D02*
X0240394Y0082164D01*
X0240394Y0081565D02*
X0250394Y0081565D01*
X0250394Y0080967D02*
X0240394Y0080967D01*
X0240394Y0080368D02*
X0250394Y0080368D01*
X0250394Y0079770D02*
X0240394Y0079770D01*
X0240352Y0079171D02*
X0250437Y0079171D01*
X0250684Y0078573D02*
X0240104Y0078573D01*
X0239857Y0077974D02*
X0250932Y0077974D01*
X0251452Y0077376D02*
X0239337Y0077376D01*
X0238738Y0076777D02*
X0252050Y0076777D01*
X0253446Y0076179D02*
X0237343Y0076179D01*
X0240394Y0083361D02*
X0250394Y0083361D01*
X0250394Y0083960D02*
X0240394Y0083960D01*
X0240394Y0084558D02*
X0250394Y0084558D01*
X0250394Y0085157D02*
X0240394Y0085157D01*
X0240394Y0085755D02*
X0250394Y0085755D01*
X0250394Y0086354D02*
X0240394Y0086354D01*
X0240342Y0086952D02*
X0250447Y0086952D01*
X0250695Y0087551D02*
X0240094Y0087551D01*
X0239846Y0088149D02*
X0250943Y0088149D01*
X0251478Y0088748D02*
X0239311Y0088748D01*
X0238713Y0089346D02*
X0252076Y0089346D01*
X0258194Y0082762D02*
X0263561Y0082762D01*
X0262527Y0082164D02*
X0258194Y0082164D01*
X0258194Y0081565D02*
X0261929Y0081565D01*
X0261559Y0080967D02*
X0258194Y0080967D01*
X0258194Y0080368D02*
X0261311Y0080368D01*
X0261128Y0079770D02*
X0258194Y0079770D01*
X0258152Y0079171D02*
X0261128Y0079171D01*
X0261128Y0078573D02*
X0257904Y0078573D01*
X0257657Y0077974D02*
X0261293Y0077974D01*
X0261541Y0077376D02*
X0257137Y0077376D01*
X0256538Y0076777D02*
X0261884Y0076777D01*
X0262482Y0076179D02*
X0255143Y0076179D01*
X0263451Y0075580D02*
X0119284Y0075580D01*
X0115959Y0058224D02*
X0111479Y0058224D01*
X0126084Y0048647D02*
X0018693Y0048647D01*
X0019292Y0048049D02*
X0126084Y0048049D01*
X0055900Y0094931D02*
X0044500Y0094931D01*
X0032500Y0106931D01*
X0032500Y0108131D01*
X0034117Y0109695D02*
X0044368Y0109695D01*
X0043769Y0109097D02*
X0034716Y0109097D01*
X0033519Y0110294D02*
X0044966Y0110294D01*
X0045565Y0110893D02*
X0033359Y0110893D01*
X0033957Y0111491D02*
X0046163Y0111491D01*
X0040504Y0101316D02*
X0039811Y0101316D01*
X0040410Y0100718D02*
X0040450Y0100718D01*
X0024135Y0102513D02*
X0021380Y0102513D01*
X0021978Y0103112D02*
X0023537Y0103112D01*
X0023050Y0103710D02*
X0022577Y0103710D01*
X0028859Y0125367D02*
X0028926Y0125367D01*
X0021052Y0133241D01*
X0020985Y0133241D01*
X0017500Y0140818D02*
X0090879Y0140818D01*
X0090281Y0141417D02*
X0017500Y0141417D01*
X0017500Y0142015D02*
X0089682Y0142015D01*
X0089562Y0142614D02*
X0017500Y0142614D01*
X0017500Y0143212D02*
X0089562Y0143212D01*
X0089562Y0143811D02*
X0017500Y0143811D01*
X0017500Y0144409D02*
X0089940Y0144409D01*
X0091851Y0143083D02*
X0091851Y0147020D01*
X0093763Y0144409D02*
X0165840Y0144409D01*
X0168612Y0148000D02*
X0171188Y0148000D01*
X0171786Y0148599D02*
X0168014Y0148599D01*
X0167953Y0155781D02*
X0040447Y0155781D01*
X0041046Y0156379D02*
X0167354Y0156379D01*
X0166756Y0156978D02*
X0041644Y0156978D01*
X0042243Y0157576D02*
X0166157Y0157576D01*
X0165559Y0158175D02*
X0042841Y0158175D01*
X0043440Y0158773D02*
X0164960Y0158773D01*
X0164362Y0159372D02*
X0044038Y0159372D01*
X0044637Y0159970D02*
X0163763Y0159970D01*
X0163165Y0160569D02*
X0045235Y0160569D01*
X0047319Y0161167D02*
X0162566Y0161167D01*
X0161968Y0161766D02*
X0047917Y0161766D01*
X0048516Y0162364D02*
X0161369Y0162364D01*
X0160771Y0162963D02*
X0048550Y0162963D01*
X0048550Y0163562D02*
X0160172Y0163562D01*
X0159574Y0164160D02*
X0048550Y0164160D01*
X0048054Y0164759D02*
X0158975Y0164759D01*
X0158377Y0165357D02*
X0047456Y0165357D01*
X0045144Y0165357D02*
X0017500Y0165357D01*
X0017500Y0164759D02*
X0044546Y0164759D01*
X0044050Y0164160D02*
X0017500Y0164160D01*
X0017500Y0163562D02*
X0044050Y0163562D01*
X0044050Y0162963D02*
X0017500Y0162963D01*
X0017500Y0162364D02*
X0043637Y0162364D01*
X0043038Y0161766D02*
X0017500Y0161766D01*
X0017500Y0161167D02*
X0042440Y0161167D01*
X0041841Y0160569D02*
X0017500Y0160569D01*
X0017500Y0159970D02*
X0041243Y0159970D01*
X0040644Y0159372D02*
X0017500Y0159372D01*
X0017500Y0158773D02*
X0040046Y0158773D01*
X0039447Y0158175D02*
X0017500Y0158175D01*
X0017500Y0157576D02*
X0038849Y0157576D01*
X0038250Y0156978D02*
X0017500Y0156978D01*
X0017500Y0156379D02*
X0037652Y0156379D01*
X0037053Y0155781D02*
X0017500Y0155781D01*
X0017500Y0155182D02*
X0036455Y0155182D01*
X0035856Y0154584D02*
X0017500Y0154584D01*
X0017500Y0153985D02*
X0035258Y0153985D01*
X0034659Y0153387D02*
X0017500Y0153387D01*
X0017500Y0152788D02*
X0032576Y0152788D01*
X0031977Y0152190D02*
X0017500Y0152190D01*
X0017500Y0151591D02*
X0031450Y0151591D01*
X0031450Y0150993D02*
X0017500Y0150993D01*
X0017500Y0150394D02*
X0031450Y0150394D01*
X0031453Y0149796D02*
X0017500Y0149796D01*
X0017500Y0149197D02*
X0032051Y0149197D01*
X0032650Y0148599D02*
X0017500Y0148599D01*
X0033700Y0150731D02*
X0046300Y0163331D01*
X0027700Y0179531D02*
X0025300Y0177131D01*
X0024922Y0176981D01*
X0027700Y0179531D02*
X0027700Y0180131D01*
X0029500Y0181931D01*
X0030700Y0181931D01*
X0034300Y0185531D01*
X0033180Y0182714D02*
X0145900Y0182714D01*
X0145900Y0182115D02*
X0032582Y0182115D01*
X0031983Y0181517D02*
X0145900Y0181517D01*
X0144700Y0186731D02*
X0141100Y0190331D01*
X0143350Y0190495D02*
X0144954Y0190495D01*
X0144850Y0191093D02*
X0143350Y0191093D01*
X0142921Y0191692D02*
X0144850Y0191692D01*
X0144850Y0192290D02*
X0142323Y0192290D01*
X0143350Y0189896D02*
X0145553Y0189896D01*
X0145900Y0189298D02*
X0143830Y0189298D01*
X0136806Y0201268D02*
X0136660Y0201268D01*
X0136806Y0201866D02*
X0136062Y0201866D01*
X0135463Y0202465D02*
X0137189Y0202465D01*
X0137788Y0203063D02*
X0106664Y0203063D01*
X0106359Y0203662D02*
X0106066Y0203662D01*
X0105742Y0204260D02*
X0105467Y0204260D01*
X0105194Y0204859D02*
X0104869Y0204859D01*
X0104946Y0205457D02*
X0104270Y0205457D01*
X0104698Y0206056D02*
X0103672Y0206056D01*
X0103073Y0206654D02*
X0104636Y0206654D01*
X0104636Y0207253D02*
X0102475Y0207253D01*
X0101876Y0207851D02*
X0104675Y0207851D01*
X0104923Y0208450D02*
X0101278Y0208450D01*
X0100679Y0209048D02*
X0105171Y0209048D01*
X0105687Y0209647D02*
X0100081Y0209647D01*
X0099482Y0210245D02*
X0106285Y0210245D01*
X0107671Y0210844D02*
X0098884Y0210844D01*
X0098285Y0211442D02*
X0118515Y0211442D01*
X0117916Y0210844D02*
X0115402Y0210844D01*
X0116787Y0210245D02*
X0117318Y0210245D01*
X0119113Y0212041D02*
X0097687Y0212041D01*
X0097088Y0212639D02*
X0119712Y0212639D01*
X0120310Y0213238D02*
X0115691Y0213238D01*
X0115312Y0213081D02*
X0116745Y0213675D01*
X0117842Y0214772D01*
X0118436Y0216205D01*
X0118436Y0217757D01*
X0117842Y0219190D01*
X0116745Y0220287D01*
X0115312Y0220881D01*
X0107760Y0220881D01*
X0106327Y0220287D01*
X0105230Y0219190D01*
X0104636Y0217757D01*
X0104636Y0216205D01*
X0105230Y0214772D01*
X0106327Y0213675D01*
X0107760Y0213081D01*
X0115312Y0213081D01*
X0116907Y0213836D02*
X0120909Y0213836D01*
X0121507Y0214435D02*
X0117506Y0214435D01*
X0117951Y0215033D02*
X0122106Y0215033D01*
X0122704Y0215632D02*
X0118199Y0215632D01*
X0118436Y0216231D02*
X0123303Y0216231D01*
X0123901Y0216829D02*
X0118436Y0216829D01*
X0118436Y0217428D02*
X0124500Y0217428D01*
X0125098Y0218026D02*
X0118325Y0218026D01*
X0118077Y0218625D02*
X0125697Y0218625D01*
X0126295Y0219223D02*
X0117810Y0219223D01*
X0117211Y0219822D02*
X0126894Y0219822D01*
X0127492Y0220420D02*
X0116425Y0220420D01*
X0116112Y0223413D02*
X0130485Y0223413D01*
X0131083Y0224011D02*
X0117082Y0224011D01*
X0117680Y0224610D02*
X0131682Y0224610D01*
X0132280Y0225208D02*
X0118023Y0225208D01*
X0118271Y0225807D02*
X0132879Y0225807D01*
X0133477Y0226405D02*
X0118436Y0226405D01*
X0118436Y0227004D02*
X0134076Y0227004D01*
X0134674Y0227602D02*
X0118436Y0227602D01*
X0118252Y0228201D02*
X0135273Y0228201D01*
X0135872Y0228799D02*
X0118004Y0228799D01*
X0117635Y0229398D02*
X0136470Y0229398D01*
X0137500Y0228731D02*
X0115900Y0207131D01*
X0111700Y0207131D01*
X0111536Y0206981D01*
X0105664Y0200669D02*
X0029209Y0200669D01*
X0030348Y0200071D02*
X0106110Y0200071D01*
X0105512Y0199472D02*
X0030946Y0199472D01*
X0031359Y0198874D02*
X0105099Y0198874D01*
X0104851Y0198275D02*
X0031607Y0198275D01*
X0031822Y0197677D02*
X0104636Y0197677D01*
X0104636Y0197078D02*
X0031822Y0197078D01*
X0031822Y0196480D02*
X0104636Y0196480D01*
X0104771Y0195881D02*
X0031688Y0195881D01*
X0031440Y0195283D02*
X0105018Y0195283D01*
X0105318Y0194684D02*
X0031140Y0194684D01*
X0030542Y0194086D02*
X0105916Y0194086D01*
X0106780Y0193487D02*
X0029678Y0193487D01*
X0029631Y0190495D02*
X0106827Y0190495D01*
X0105936Y0189896D02*
X0030523Y0189896D01*
X0031121Y0189298D02*
X0105337Y0189298D01*
X0105026Y0188699D02*
X0031432Y0188699D01*
X0027988Y0182115D02*
X0017500Y0182115D01*
X0017500Y0181517D02*
X0027389Y0181517D01*
X0026791Y0180918D02*
X0017500Y0180918D01*
X0017500Y0180320D02*
X0019791Y0180320D01*
X0019147Y0179721D02*
X0017500Y0179721D01*
X0017500Y0179123D02*
X0018588Y0179123D01*
X0018340Y0178524D02*
X0017500Y0178524D01*
X0017500Y0177926D02*
X0018092Y0177926D01*
X0018022Y0177327D02*
X0017500Y0177327D01*
X0017500Y0176729D02*
X0018022Y0176729D01*
X0018053Y0176130D02*
X0017500Y0176130D01*
X0017500Y0175532D02*
X0018301Y0175532D01*
X0018549Y0174933D02*
X0017500Y0174933D01*
X0017500Y0174335D02*
X0019053Y0174335D01*
X0019652Y0173736D02*
X0017500Y0173736D01*
X0017500Y0173138D02*
X0021010Y0173138D01*
X0017500Y0172539D02*
X0151194Y0172539D01*
X0150596Y0173138D02*
X0116465Y0173138D01*
X0117372Y0173736D02*
X0149997Y0173736D01*
X0149399Y0174335D02*
X0117929Y0174335D01*
X0118319Y0174933D02*
X0148800Y0174933D01*
X0148202Y0175532D02*
X0118587Y0175532D01*
X0118755Y0176130D02*
X0147603Y0176130D01*
X0151793Y0171941D02*
X0017500Y0171941D01*
X0017500Y0171342D02*
X0152391Y0171342D01*
X0152990Y0170744D02*
X0017500Y0170744D01*
X0017500Y0170145D02*
X0153589Y0170145D01*
X0154187Y0169547D02*
X0017500Y0169547D01*
X0017500Y0168948D02*
X0154786Y0168948D01*
X0155384Y0168350D02*
X0017500Y0168350D01*
X0017500Y0167751D02*
X0155983Y0167751D01*
X0156581Y0167153D02*
X0017500Y0167153D01*
X0017500Y0166554D02*
X0157180Y0166554D01*
X0157778Y0165956D02*
X0017500Y0165956D01*
X0016562Y0192290D02*
X0016300Y0192290D01*
X0015100Y0199331D02*
X0022300Y0206531D01*
X0024700Y0206531D01*
X0024922Y0206981D01*
X0030100Y0203662D02*
X0102672Y0203662D01*
X0102073Y0204260D02*
X0030717Y0204260D01*
X0031264Y0204859D02*
X0101475Y0204859D01*
X0100876Y0205457D02*
X0031512Y0205457D01*
X0031760Y0206056D02*
X0100278Y0206056D01*
X0099679Y0206654D02*
X0031822Y0206654D01*
X0031822Y0207253D02*
X0099081Y0207253D01*
X0098482Y0207851D02*
X0031783Y0207851D01*
X0031535Y0208450D02*
X0097884Y0208450D01*
X0097285Y0209048D02*
X0031287Y0209048D01*
X0030772Y0209647D02*
X0096687Y0209647D01*
X0096088Y0210245D02*
X0030173Y0210245D01*
X0028788Y0210844D02*
X0095490Y0210844D01*
X0094891Y0211442D02*
X0057935Y0211442D01*
X0058086Y0212041D02*
X0094293Y0212041D01*
X0093694Y0212639D02*
X0058086Y0212639D01*
X0058086Y0213238D02*
X0093096Y0213238D01*
X0092497Y0213836D02*
X0058086Y0213836D01*
X0058086Y0214435D02*
X0091899Y0214435D01*
X0091300Y0215033D02*
X0058086Y0215033D01*
X0058086Y0215632D02*
X0090702Y0215632D01*
X0090103Y0216231D02*
X0058086Y0216231D01*
X0058086Y0216829D02*
X0089505Y0216829D01*
X0088906Y0217428D02*
X0058086Y0217428D01*
X0058086Y0218026D02*
X0088308Y0218026D01*
X0087709Y0218625D02*
X0055300Y0218625D01*
X0055300Y0219223D02*
X0087111Y0219223D01*
X0086512Y0219822D02*
X0055300Y0219822D01*
X0055108Y0220420D02*
X0085914Y0220420D01*
X0085315Y0221019D02*
X0054509Y0221019D01*
X0053911Y0221617D02*
X0084717Y0221617D01*
X0084118Y0222216D02*
X0053312Y0222216D01*
X0052714Y0222814D02*
X0083520Y0222814D01*
X0082921Y0223413D02*
X0052115Y0223413D01*
X0051517Y0224011D02*
X0082322Y0224011D01*
X0081724Y0224610D02*
X0050918Y0224610D01*
X0050320Y0225208D02*
X0081125Y0225208D01*
X0080527Y0225807D02*
X0049721Y0225807D01*
X0049123Y0226405D02*
X0079928Y0226405D01*
X0079330Y0227004D02*
X0048524Y0227004D01*
X0047926Y0227602D02*
X0078731Y0227602D01*
X0078133Y0228201D02*
X0047327Y0228201D01*
X0046728Y0228799D02*
X0077534Y0228799D01*
X0076936Y0229398D02*
X0046130Y0229398D01*
X0045531Y0229996D02*
X0076337Y0229996D01*
X0075739Y0230595D02*
X0044933Y0230595D01*
X0044334Y0231193D02*
X0046055Y0231193D01*
X0045457Y0231792D02*
X0043858Y0231792D01*
X0044457Y0232390D02*
X0045250Y0232390D01*
X0045250Y0232989D02*
X0045055Y0232989D01*
X0043457Y0234784D02*
X0040743Y0234784D01*
X0040145Y0235383D02*
X0044055Y0235383D01*
X0044654Y0235981D02*
X0039546Y0235981D01*
X0038948Y0236580D02*
X0045252Y0236580D01*
X0045851Y0237178D02*
X0038349Y0237178D01*
X0037751Y0237777D02*
X0046449Y0237777D01*
X0047048Y0238375D02*
X0037152Y0238375D01*
X0036554Y0238974D02*
X0047646Y0238974D01*
X0048245Y0239572D02*
X0035955Y0239572D01*
X0035357Y0240171D02*
X0048843Y0240171D01*
X0049442Y0240769D02*
X0034758Y0240769D01*
X0034160Y0241368D02*
X0050040Y0241368D01*
X0050639Y0241966D02*
X0033561Y0241966D01*
X0032963Y0242565D02*
X0051237Y0242565D01*
X0051836Y0243164D02*
X0032364Y0243164D01*
X0031766Y0243762D02*
X0052434Y0243762D01*
X0053033Y0244361D02*
X0031167Y0244361D01*
X0031306Y0244959D02*
X0053631Y0244959D01*
X0054230Y0245558D02*
X0031554Y0245558D01*
X0031802Y0246156D02*
X0054828Y0246156D01*
X0055427Y0246755D02*
X0031822Y0246755D01*
X0031822Y0247353D02*
X0056025Y0247353D01*
X0056624Y0247952D02*
X0031741Y0247952D01*
X0031493Y0248550D02*
X0057222Y0248550D01*
X0057821Y0249149D02*
X0031246Y0249149D01*
X0030671Y0249747D02*
X0058419Y0249747D01*
X0059018Y0250346D02*
X0029990Y0250346D01*
X0027100Y0246731D02*
X0025300Y0246731D01*
X0024922Y0246981D01*
X0027100Y0246731D02*
X0042100Y0231731D01*
X0060100Y0249731D01*
X0100300Y0249731D01*
X0101500Y0250931D01*
X0101500Y0255731D01*
X0100112Y0253937D02*
X0100025Y0253937D01*
X0100025Y0253338D02*
X0100300Y0253338D01*
X0100300Y0252740D02*
X0100025Y0252740D01*
X0100025Y0252141D02*
X0100300Y0252141D01*
X0100300Y0251543D02*
X0100025Y0251543D01*
X0099816Y0250944D02*
X0003400Y0250944D01*
X0003400Y0250346D02*
X0019854Y0250346D01*
X0019173Y0249747D02*
X0003400Y0249747D01*
X0003400Y0249149D02*
X0018599Y0249149D01*
X0018351Y0248550D02*
X0003400Y0248550D01*
X0003400Y0247952D02*
X0018103Y0247952D01*
X0018022Y0247353D02*
X0003400Y0247353D01*
X0003400Y0246755D02*
X0018022Y0246755D01*
X0018042Y0246156D02*
X0003400Y0246156D01*
X0003400Y0245558D02*
X0018290Y0245558D01*
X0018538Y0244959D02*
X0003400Y0244959D01*
X0003400Y0244361D02*
X0019027Y0244361D01*
X0019626Y0243762D02*
X0003400Y0243762D01*
X0003400Y0243164D02*
X0020947Y0243164D01*
X0021146Y0240881D02*
X0019713Y0240287D01*
X0018616Y0239190D01*
X0018022Y0237757D01*
X0018022Y0236205D01*
X0018616Y0234772D01*
X0019713Y0233675D01*
X0021146Y0233081D01*
X0028698Y0233081D01*
X0030131Y0233675D01*
X0031228Y0234772D01*
X0031822Y0236205D01*
X0031822Y0237757D01*
X0031228Y0239190D01*
X0030131Y0240287D01*
X0028698Y0240881D01*
X0021146Y0240881D01*
X0020877Y0240769D02*
X0003400Y0240769D01*
X0003400Y0240171D02*
X0019596Y0240171D01*
X0018998Y0239572D02*
X0003400Y0239572D01*
X0003400Y0238974D02*
X0018526Y0238974D01*
X0018278Y0238375D02*
X0003400Y0238375D01*
X0003400Y0237777D02*
X0018030Y0237777D01*
X0018022Y0237178D02*
X0003400Y0237178D01*
X0003400Y0236580D02*
X0018022Y0236580D01*
X0018115Y0235981D02*
X0003400Y0235981D01*
X0003400Y0235383D02*
X0018363Y0235383D01*
X0018611Y0234784D02*
X0003400Y0234784D01*
X0003400Y0234186D02*
X0019202Y0234186D01*
X0019924Y0233587D02*
X0003400Y0233587D01*
X0003400Y0232989D02*
X0039145Y0232989D01*
X0039743Y0232390D02*
X0003400Y0232390D01*
X0003400Y0231792D02*
X0040342Y0231792D01*
X0040940Y0231193D02*
X0003400Y0231193D01*
X0003400Y0230595D02*
X0020455Y0230595D01*
X0021146Y0230881D02*
X0019713Y0230287D01*
X0018616Y0229190D01*
X0018022Y0227757D01*
X0018022Y0226205D01*
X0018616Y0224772D01*
X0019713Y0223675D01*
X0021146Y0223081D01*
X0028698Y0223081D01*
X0030131Y0223675D01*
X0031228Y0224772D01*
X0031822Y0226205D01*
X0031822Y0227757D01*
X0031228Y0229190D01*
X0030131Y0230287D01*
X0028698Y0230881D01*
X0021146Y0230881D01*
X0019422Y0229996D02*
X0003400Y0229996D01*
X0003400Y0229398D02*
X0018823Y0229398D01*
X0018454Y0228799D02*
X0003400Y0228799D01*
X0003400Y0228201D02*
X0018206Y0228201D01*
X0018022Y0227602D02*
X0003400Y0227602D01*
X0003400Y0227004D02*
X0018022Y0227004D01*
X0018022Y0226405D02*
X0003400Y0226405D01*
X0003400Y0225807D02*
X0018187Y0225807D01*
X0018435Y0225208D02*
X0003400Y0225208D01*
X0003400Y0224610D02*
X0018778Y0224610D01*
X0019377Y0224011D02*
X0003400Y0224011D01*
X0003400Y0223413D02*
X0020346Y0223413D01*
X0020033Y0220420D02*
X0003400Y0220420D01*
X0003400Y0219822D02*
X0019247Y0219822D01*
X0018649Y0219223D02*
X0003400Y0219223D01*
X0003400Y0218625D02*
X0018381Y0218625D01*
X0018134Y0218026D02*
X0003400Y0218026D01*
X0003400Y0217428D02*
X0018022Y0217428D01*
X0018022Y0216829D02*
X0003400Y0216829D01*
X0003400Y0216231D02*
X0018022Y0216231D01*
X0018260Y0215632D02*
X0003400Y0215632D01*
X0003400Y0215033D02*
X0018507Y0215033D01*
X0018953Y0214435D02*
X0003400Y0214435D01*
X0003400Y0213836D02*
X0019551Y0213836D01*
X0020768Y0213238D02*
X0003400Y0213238D01*
X0003400Y0212639D02*
X0031294Y0212639D01*
X0031893Y0212041D02*
X0003400Y0212041D01*
X0003400Y0211442D02*
X0051436Y0211442D01*
X0051286Y0214435D02*
X0047950Y0214435D01*
X0047579Y0215033D02*
X0051286Y0215033D01*
X0051286Y0215632D02*
X0046981Y0215632D01*
X0045700Y0213731D02*
X0045700Y0213131D01*
X0054100Y0213131D01*
X0054686Y0213216D01*
X0054686Y0216416D02*
X0054100Y0216731D01*
X0054100Y0219731D01*
X0042100Y0231731D01*
X0041539Y0230595D02*
X0029389Y0230595D01*
X0030422Y0229996D02*
X0042137Y0229996D01*
X0042736Y0229398D02*
X0031021Y0229398D01*
X0031390Y0228799D02*
X0043334Y0228799D01*
X0043933Y0228201D02*
X0031638Y0228201D01*
X0031822Y0227602D02*
X0044531Y0227602D01*
X0045130Y0227004D02*
X0031822Y0227004D01*
X0031822Y0226405D02*
X0045728Y0226405D01*
X0046327Y0225807D02*
X0031657Y0225807D01*
X0031409Y0225208D02*
X0046925Y0225208D01*
X0047524Y0224610D02*
X0031066Y0224610D01*
X0030468Y0224011D02*
X0048122Y0224011D01*
X0048721Y0223413D02*
X0029498Y0223413D01*
X0029811Y0220420D02*
X0051714Y0220420D01*
X0052312Y0219822D02*
X0030597Y0219822D01*
X0031195Y0219223D02*
X0052900Y0219223D01*
X0052900Y0218625D02*
X0031463Y0218625D01*
X0031711Y0218026D02*
X0051286Y0218026D01*
X0051286Y0217428D02*
X0031822Y0217428D01*
X0031822Y0216829D02*
X0051286Y0216829D01*
X0051286Y0216231D02*
X0031822Y0216231D01*
X0031696Y0215632D02*
X0044419Y0215632D01*
X0043821Y0215033D02*
X0032294Y0215033D01*
X0032893Y0214435D02*
X0043450Y0214435D01*
X0045700Y0213131D02*
X0032500Y0213131D01*
X0028900Y0216731D01*
X0025300Y0216731D01*
X0024922Y0216981D01*
X0029076Y0213238D02*
X0030696Y0213238D01*
X0021057Y0210844D02*
X0003400Y0210844D01*
X0003400Y0210245D02*
X0019671Y0210245D01*
X0019072Y0209647D02*
X0003400Y0209647D01*
X0003400Y0209048D02*
X0018557Y0209048D01*
X0018309Y0208450D02*
X0003400Y0208450D01*
X0003400Y0207851D02*
X0018061Y0207851D01*
X0018022Y0207253D02*
X0003400Y0207253D01*
X0003400Y0206654D02*
X0018022Y0206654D01*
X0018084Y0206056D02*
X0003400Y0206056D01*
X0003400Y0205457D02*
X0018332Y0205457D01*
X0018580Y0204859D02*
X0003400Y0204859D01*
X0003400Y0221019D02*
X0051115Y0221019D01*
X0050517Y0221617D02*
X0003400Y0221617D01*
X0003400Y0222216D02*
X0049918Y0222216D01*
X0049320Y0222814D02*
X0003400Y0222814D01*
X0003400Y0241368D02*
X0030766Y0241368D01*
X0031364Y0240769D02*
X0028967Y0240769D01*
X0030248Y0240171D02*
X0031963Y0240171D01*
X0032561Y0239572D02*
X0030846Y0239572D01*
X0031318Y0238974D02*
X0033160Y0238974D01*
X0033758Y0238375D02*
X0031566Y0238375D01*
X0031814Y0237777D02*
X0034357Y0237777D01*
X0034955Y0237178D02*
X0031822Y0237178D01*
X0031822Y0236580D02*
X0035554Y0236580D01*
X0036152Y0235981D02*
X0031729Y0235981D01*
X0031481Y0235383D02*
X0036751Y0235383D01*
X0037349Y0234784D02*
X0031233Y0234784D01*
X0030642Y0234186D02*
X0037948Y0234186D01*
X0038546Y0233587D02*
X0029920Y0233587D01*
X0030167Y0241966D02*
X0003400Y0241966D01*
X0003400Y0242565D02*
X0029569Y0242565D01*
X0028970Y0243164D02*
X0028897Y0243164D01*
X0036433Y0251543D02*
X0003400Y0251543D01*
X0003406Y0252141D02*
X0036433Y0252141D01*
X0036433Y0252740D02*
X0003435Y0252740D01*
X0003464Y0253338D02*
X0036433Y0253338D01*
X0036433Y0253937D02*
X0003494Y0253937D01*
X0003535Y0254535D02*
X0036433Y0254535D01*
X0036433Y0255134D02*
X0003654Y0255134D01*
X0003773Y0255732D02*
X0036433Y0255732D01*
X0036433Y0256331D02*
X0003892Y0256331D01*
X0004011Y0256929D02*
X0036433Y0256929D01*
X0036433Y0257528D02*
X0004130Y0257528D01*
X0004249Y0258126D02*
X0036433Y0258126D01*
X0036433Y0258725D02*
X0004368Y0258725D01*
X0004510Y0259323D02*
X0036433Y0259323D01*
X0036433Y0259922D02*
X0004757Y0259922D01*
X0005005Y0260520D02*
X0036433Y0260520D01*
X0036433Y0261119D02*
X0005253Y0261119D01*
X0005501Y0261717D02*
X0036433Y0261717D01*
X0036433Y0262316D02*
X0005749Y0262316D01*
X0005997Y0262914D02*
X0036433Y0262914D01*
X0036433Y0263513D02*
X0006245Y0263513D01*
X0006595Y0264111D02*
X0036433Y0264111D01*
X0036433Y0264710D02*
X0006995Y0264710D01*
X0007395Y0265308D02*
X0036433Y0265308D01*
X0036433Y0265907D02*
X0007795Y0265907D01*
X0008195Y0266505D02*
X0036433Y0266505D01*
X0036433Y0267104D02*
X0008594Y0267104D01*
X0008994Y0267702D02*
X0036433Y0267702D01*
X0036433Y0268301D02*
X0009577Y0268301D01*
X0010176Y0268900D02*
X0036433Y0268900D01*
X0036433Y0269498D02*
X0010774Y0269498D01*
X0011373Y0270097D02*
X0036433Y0270097D01*
X0036433Y0270695D02*
X0011971Y0270695D01*
X0012624Y0271294D02*
X0036433Y0271294D01*
X0036433Y0271892D02*
X0013520Y0271892D01*
X0014416Y0272491D02*
X0036433Y0272491D01*
X0036433Y0273089D02*
X0015311Y0273089D01*
X0016207Y0273688D02*
X0036433Y0273688D01*
X0036433Y0274286D02*
X0017472Y0274286D01*
X0018917Y0274885D02*
X0036433Y0274885D01*
X0036433Y0275483D02*
X0020362Y0275483D01*
X0022691Y0276082D02*
X0036433Y0276082D01*
X0036433Y0276680D02*
X0025700Y0276680D01*
X0058821Y0246755D02*
X0104636Y0246755D01*
X0104636Y0247353D02*
X0059419Y0247353D01*
X0060018Y0247952D02*
X0104717Y0247952D01*
X0104965Y0248550D02*
X0100816Y0248550D01*
X0101415Y0249149D02*
X0105213Y0249149D01*
X0105787Y0249747D02*
X0102013Y0249747D01*
X0102612Y0250346D02*
X0106468Y0250346D01*
X0104657Y0246156D02*
X0058222Y0246156D01*
X0057624Y0245558D02*
X0104905Y0245558D01*
X0105152Y0244959D02*
X0057025Y0244959D01*
X0056427Y0244361D02*
X0105641Y0244361D01*
X0106240Y0243762D02*
X0055828Y0243762D01*
X0055230Y0243164D02*
X0107561Y0243164D01*
X0106036Y0229996D02*
X0079731Y0229996D01*
X0080330Y0229398D02*
X0105437Y0229398D01*
X0105068Y0228799D02*
X0080928Y0228799D01*
X0081527Y0228201D02*
X0104820Y0228201D01*
X0104636Y0227602D02*
X0082126Y0227602D01*
X0082724Y0227004D02*
X0104636Y0227004D01*
X0104636Y0226405D02*
X0083323Y0226405D01*
X0083921Y0225807D02*
X0104801Y0225807D01*
X0105049Y0225208D02*
X0084520Y0225208D01*
X0085118Y0224610D02*
X0105392Y0224610D01*
X0105991Y0224011D02*
X0085717Y0224011D01*
X0086315Y0223413D02*
X0106960Y0223413D01*
X0106648Y0220420D02*
X0089308Y0220420D01*
X0089906Y0219822D02*
X0105861Y0219822D01*
X0105263Y0219223D02*
X0090505Y0219223D01*
X0091103Y0218625D02*
X0104996Y0218625D01*
X0104748Y0218026D02*
X0091702Y0218026D01*
X0092300Y0217428D02*
X0104636Y0217428D01*
X0104636Y0216829D02*
X0092899Y0216829D01*
X0093497Y0216231D02*
X0104636Y0216231D01*
X0104874Y0215632D02*
X0094096Y0215632D01*
X0094694Y0215033D02*
X0105122Y0215033D01*
X0105567Y0214435D02*
X0095293Y0214435D01*
X0095891Y0213836D02*
X0106165Y0213836D01*
X0107382Y0213238D02*
X0096490Y0213238D01*
X0088709Y0221019D02*
X0128091Y0221019D01*
X0128689Y0221617D02*
X0088111Y0221617D01*
X0087512Y0222216D02*
X0129288Y0222216D01*
X0129886Y0222814D02*
X0086914Y0222814D01*
X0075140Y0231193D02*
X0048945Y0231193D01*
X0042858Y0234186D02*
X0041342Y0234186D01*
X0041940Y0233587D02*
X0042260Y0233587D01*
X0054033Y0241966D02*
X0241900Y0241966D01*
X0241900Y0242565D02*
X0054631Y0242565D01*
X0111236Y0180918D02*
X0111836Y0180918D01*
X0111836Y0180320D02*
X0111236Y0180320D01*
X0111236Y0179721D02*
X0111836Y0179721D01*
X0111836Y0179123D02*
X0111236Y0179123D01*
X0111236Y0178524D02*
X0111836Y0178524D01*
X0111836Y0177926D02*
X0111236Y0177926D01*
X0111236Y0176130D02*
X0111836Y0176130D01*
X0111836Y0175532D02*
X0111236Y0175532D01*
X0111236Y0174933D02*
X0111836Y0174933D01*
X0111836Y0174335D02*
X0111236Y0174335D01*
X0111236Y0173736D02*
X0111836Y0173736D01*
X0111836Y0173138D02*
X0111236Y0173138D01*
X0111536Y0145052D02*
X0111536Y0141115D01*
X0111589Y0141115D01*
X0146071Y0125257D02*
X0150792Y0125257D01*
X0131221Y0114242D02*
X0126771Y0114242D01*
X0182120Y0145008D02*
X0287049Y0145008D01*
X0287647Y0144409D02*
X0182719Y0144409D01*
X0183317Y0143811D02*
X0288246Y0143811D01*
X0288844Y0143212D02*
X0183916Y0143212D01*
X0184514Y0142614D02*
X0289443Y0142614D01*
X0290041Y0142015D02*
X0185113Y0142015D01*
X0185711Y0141417D02*
X0302150Y0141417D01*
X0302150Y0140818D02*
X0186310Y0140818D01*
X0186908Y0140220D02*
X0302150Y0140220D01*
X0302150Y0139023D02*
X0188105Y0139023D01*
X0187507Y0139621D02*
X0304400Y0139621D01*
X0304400Y0139023D02*
X0305000Y0139023D01*
X0305000Y0138424D02*
X0304400Y0138424D01*
X0304400Y0137826D02*
X0305000Y0137826D01*
X0305000Y0137227D02*
X0304400Y0137227D01*
X0304400Y0136629D02*
X0305000Y0136629D01*
X0305000Y0136030D02*
X0304400Y0136030D01*
X0302464Y0136030D02*
X0191098Y0136030D01*
X0190499Y0136629D02*
X0302172Y0136629D01*
X0302150Y0137227D02*
X0189901Y0137227D01*
X0189302Y0137826D02*
X0302150Y0137826D01*
X0302150Y0138424D02*
X0188704Y0138424D01*
X0192893Y0134234D02*
X0327772Y0134234D01*
X0327772Y0133636D02*
X0328372Y0133636D01*
X0328372Y0134004D02*
X0328372Y0130004D01*
X0331410Y0130004D01*
X0332079Y0130110D01*
X0332722Y0130319D01*
X0333325Y0130626D01*
X0333873Y0131024D01*
X0334352Y0131503D01*
X0334749Y0132050D01*
X0335057Y0132653D01*
X0335266Y0133297D01*
X0335372Y0133966D01*
X0335372Y0134004D01*
X0328372Y0134004D01*
X0328372Y0134234D02*
X0341720Y0134234D01*
X0341720Y0133636D02*
X0335319Y0133636D01*
X0335181Y0133037D02*
X0341720Y0133037D01*
X0341720Y0132439D02*
X0334947Y0132439D01*
X0334597Y0131840D02*
X0341720Y0131840D01*
X0341720Y0131242D02*
X0334091Y0131242D01*
X0333349Y0130643D02*
X0341720Y0130643D01*
X0341720Y0130045D02*
X0331669Y0130045D01*
X0328372Y0130045D02*
X0327772Y0130045D01*
X0327772Y0130643D02*
X0328372Y0130643D01*
X0328372Y0131242D02*
X0327772Y0131242D01*
X0327772Y0131840D02*
X0328372Y0131840D01*
X0328372Y0132439D02*
X0327772Y0132439D01*
X0327772Y0133037D02*
X0328372Y0133037D01*
X0328372Y0134833D02*
X0327772Y0134833D01*
X0327772Y0135431D02*
X0328372Y0135431D01*
X0328372Y0136030D02*
X0327772Y0136030D01*
X0327772Y0136629D02*
X0328372Y0136629D01*
X0328372Y0137227D02*
X0327772Y0137227D01*
X0327772Y0137826D02*
X0328372Y0137826D01*
X0328372Y0138424D02*
X0327772Y0138424D01*
X0332306Y0138424D02*
X0341720Y0138424D01*
X0341720Y0137826D02*
X0333540Y0137826D01*
X0334230Y0137227D02*
X0341720Y0137227D01*
X0341720Y0136629D02*
X0334698Y0136629D01*
X0335018Y0136030D02*
X0341720Y0136030D01*
X0341720Y0135431D02*
X0335227Y0135431D01*
X0335341Y0134833D02*
X0341720Y0134833D01*
X0341720Y0140220D02*
X0310050Y0140220D01*
X0310050Y0140818D02*
X0341720Y0140818D01*
X0341720Y0141417D02*
X0310050Y0141417D01*
X0310050Y0142015D02*
X0341720Y0142015D01*
X0341720Y0142614D02*
X0309692Y0142614D01*
X0307590Y0143212D02*
X0341720Y0143212D01*
X0341720Y0143811D02*
X0306992Y0143811D01*
X0291041Y0144409D02*
X0341720Y0144409D01*
X0341720Y0145008D02*
X0290443Y0145008D01*
X0289844Y0145606D02*
X0341720Y0145606D01*
X0341720Y0146205D02*
X0289246Y0146205D01*
X0288647Y0146803D02*
X0341720Y0146803D01*
X0341720Y0147402D02*
X0288049Y0147402D01*
X0287450Y0148000D02*
X0341720Y0148000D01*
X0341720Y0148599D02*
X0286852Y0148599D01*
X0286253Y0149197D02*
X0341720Y0149197D01*
X0341720Y0149796D02*
X0285655Y0149796D01*
X0285056Y0150394D02*
X0341720Y0150394D01*
X0341720Y0150993D02*
X0284458Y0150993D01*
X0283859Y0151591D02*
X0341720Y0151591D01*
X0341720Y0152190D02*
X0283261Y0152190D01*
X0282662Y0152788D02*
X0341720Y0152788D01*
X0341720Y0153387D02*
X0282064Y0153387D01*
X0281465Y0153985D02*
X0341720Y0153985D01*
X0341720Y0154584D02*
X0280867Y0154584D01*
X0280268Y0155182D02*
X0341720Y0155182D01*
X0341720Y0155781D02*
X0279670Y0155781D01*
X0279180Y0156379D02*
X0341720Y0156379D01*
X0341720Y0156978D02*
X0279180Y0156978D01*
X0279180Y0157576D02*
X0341720Y0157576D01*
X0341720Y0158175D02*
X0278816Y0158175D01*
X0278217Y0158773D02*
X0341720Y0158773D01*
X0341720Y0159372D02*
X0167756Y0159372D01*
X0167157Y0159970D02*
X0341720Y0159970D01*
X0341720Y0160569D02*
X0166559Y0160569D01*
X0165960Y0161167D02*
X0341720Y0161167D01*
X0341720Y0161766D02*
X0165362Y0161766D01*
X0186073Y0168941D02*
X0186930Y0169797D01*
X0186930Y0177138D01*
X0217835Y0176548D02*
X0217835Y0171842D01*
X0217835Y0176548D02*
X0221772Y0176548D01*
X0247667Y0182115D02*
X0258618Y0182115D01*
X0260217Y0183911D02*
X0341720Y0183911D01*
X0341720Y0184509D02*
X0259618Y0184509D01*
X0260815Y0183312D02*
X0341720Y0183312D01*
X0341720Y0182714D02*
X0261414Y0182714D01*
X0262012Y0182115D02*
X0341720Y0182115D01*
X0341720Y0181517D02*
X0262611Y0181517D01*
X0263209Y0180918D02*
X0341720Y0180918D01*
X0341720Y0180320D02*
X0263808Y0180320D01*
X0264406Y0179721D02*
X0341720Y0179721D01*
X0341720Y0179123D02*
X0265005Y0179123D01*
X0265603Y0178524D02*
X0341720Y0178524D01*
X0341720Y0177926D02*
X0266202Y0177926D01*
X0266800Y0177327D02*
X0341720Y0177327D01*
X0341720Y0176729D02*
X0267399Y0176729D01*
X0267997Y0176130D02*
X0341720Y0176130D01*
X0341720Y0175532D02*
X0268596Y0175532D01*
X0269195Y0174933D02*
X0341720Y0174933D01*
X0341720Y0174335D02*
X0269793Y0174335D01*
X0270392Y0173736D02*
X0295324Y0173736D01*
X0295568Y0173981D02*
X0294250Y0172663D01*
X0294250Y0170799D01*
X0295300Y0169749D01*
X0295300Y0166513D01*
X0294250Y0165463D01*
X0294250Y0163599D01*
X0295568Y0162281D01*
X0297432Y0162281D01*
X0298750Y0163599D01*
X0298750Y0165463D01*
X0297700Y0166513D01*
X0297700Y0169749D01*
X0298750Y0170799D01*
X0298750Y0172663D01*
X0297432Y0173981D01*
X0295568Y0173981D01*
X0294725Y0173138D02*
X0270990Y0173138D01*
X0271589Y0172539D02*
X0294250Y0172539D01*
X0294250Y0171941D02*
X0272187Y0171941D01*
X0272786Y0171342D02*
X0294250Y0171342D01*
X0294305Y0170744D02*
X0273384Y0170744D01*
X0273983Y0170145D02*
X0294904Y0170145D01*
X0295300Y0169547D02*
X0274581Y0169547D01*
X0275180Y0168948D02*
X0295300Y0168948D01*
X0295300Y0168350D02*
X0275778Y0168350D01*
X0276377Y0167751D02*
X0295300Y0167751D01*
X0295300Y0167153D02*
X0276975Y0167153D01*
X0279059Y0166554D02*
X0289941Y0166554D01*
X0289343Y0165956D02*
X0279657Y0165956D01*
X0277900Y0164531D02*
X0291100Y0164531D01*
X0292714Y0162963D02*
X0294886Y0162963D01*
X0295484Y0162364D02*
X0292116Y0162364D01*
X0293313Y0163562D02*
X0294287Y0163562D01*
X0294250Y0164160D02*
X0293350Y0164160D01*
X0293350Y0164759D02*
X0294250Y0164759D01*
X0294250Y0165357D02*
X0293350Y0165357D01*
X0292857Y0165956D02*
X0294743Y0165956D01*
X0295300Y0166554D02*
X0292259Y0166554D01*
X0296500Y0164531D02*
X0296500Y0171731D01*
X0298096Y0170145D02*
X0341720Y0170145D01*
X0341720Y0169547D02*
X0297700Y0169547D01*
X0297700Y0168948D02*
X0341720Y0168948D01*
X0341720Y0168350D02*
X0297700Y0168350D01*
X0297700Y0167751D02*
X0341720Y0167751D01*
X0341720Y0167153D02*
X0297700Y0167153D01*
X0297700Y0166554D02*
X0341720Y0166554D01*
X0341720Y0165956D02*
X0298257Y0165956D01*
X0298750Y0165357D02*
X0341720Y0165357D01*
X0341720Y0164759D02*
X0298750Y0164759D01*
X0298750Y0164160D02*
X0341720Y0164160D01*
X0341720Y0163562D02*
X0298713Y0163562D01*
X0298114Y0162963D02*
X0341720Y0162963D01*
X0341720Y0162364D02*
X0297516Y0162364D01*
X0298695Y0170744D02*
X0341720Y0170744D01*
X0341720Y0171342D02*
X0298750Y0171342D01*
X0298750Y0171941D02*
X0341720Y0171941D01*
X0341720Y0172539D02*
X0298750Y0172539D01*
X0298275Y0173138D02*
X0341720Y0173138D01*
X0341720Y0173736D02*
X0297676Y0173736D01*
X0261143Y0176548D02*
X0257206Y0176548D01*
X0253269Y0172611D01*
X0253269Y0200170D02*
X0245394Y0200170D01*
X0233583Y0200170D02*
X0233583Y0208220D01*
X0186339Y0204107D02*
X0170591Y0204107D01*
X0233579Y0259922D02*
X0241900Y0259922D01*
X0240969Y0260520D02*
X0234910Y0260520D01*
X0235621Y0261119D02*
X0239985Y0261119D01*
X0239387Y0261717D02*
X0236105Y0261717D01*
X0236438Y0262316D02*
X0239038Y0262316D01*
X0238790Y0262914D02*
X0236657Y0262914D01*
X0236781Y0263513D02*
X0238620Y0263513D01*
X0238620Y0264111D02*
X0236820Y0264111D01*
X0236820Y0264710D02*
X0238620Y0264710D01*
X0238620Y0265308D02*
X0236820Y0265308D01*
X0236820Y0265907D02*
X0238620Y0265907D01*
X0238620Y0266505D02*
X0236820Y0266505D01*
X0236820Y0267702D02*
X0238620Y0267702D01*
X0238620Y0268301D02*
X0236820Y0268301D01*
X0236820Y0268900D02*
X0238620Y0268900D01*
X0238620Y0269498D02*
X0236820Y0269498D01*
X0236820Y0270097D02*
X0238620Y0270097D01*
X0238620Y0270695D02*
X0236780Y0270695D01*
X0236654Y0271294D02*
X0238794Y0271294D01*
X0239042Y0271892D02*
X0236433Y0271892D01*
X0236098Y0272491D02*
X0239396Y0272491D01*
X0239995Y0273089D02*
X0235612Y0273089D01*
X0234897Y0273688D02*
X0240992Y0273688D01*
X0244049Y0273688D02*
X0249349Y0273688D01*
X0249011Y0274286D02*
X0233550Y0274286D01*
X0232820Y0274286D02*
X0232220Y0274286D01*
X0232220Y0273688D02*
X0232820Y0273688D01*
X0232820Y0273089D02*
X0232220Y0273089D01*
X0232220Y0272491D02*
X0232820Y0272491D01*
X0232820Y0271892D02*
X0232220Y0271892D01*
X0232220Y0271294D02*
X0232820Y0271294D01*
X0232820Y0270695D02*
X0232220Y0270695D01*
X0232220Y0270097D02*
X0232820Y0270097D01*
X0232820Y0269498D02*
X0232220Y0269498D01*
X0232220Y0268900D02*
X0232820Y0268900D01*
X0232820Y0268301D02*
X0232220Y0268301D01*
X0245046Y0273089D02*
X0249947Y0273089D01*
X0303124Y0267104D02*
X0303724Y0267104D01*
X0303724Y0266505D02*
X0303124Y0266505D01*
X0303124Y0265907D02*
X0303724Y0265907D01*
X0303724Y0265308D02*
X0303124Y0265308D01*
X0303124Y0264710D02*
X0303724Y0264710D01*
X0303724Y0264111D02*
X0303124Y0264111D01*
X0303124Y0263513D02*
X0303724Y0263513D01*
X0303724Y0262914D02*
X0303124Y0262914D01*
X0303124Y0262316D02*
X0303724Y0262316D01*
X0303724Y0261717D02*
X0303124Y0261717D01*
X0303124Y0261119D02*
X0303724Y0261119D01*
X0303724Y0260520D02*
X0303124Y0260520D01*
X0325124Y0234784D02*
X0341720Y0234784D01*
X0341720Y0234186D02*
X0325124Y0234186D01*
X0325124Y0233587D02*
X0341720Y0233587D01*
X0341720Y0232989D02*
X0325124Y0232989D01*
X0325124Y0232390D02*
X0341720Y0232390D01*
X0341720Y0231792D02*
X0325124Y0231792D01*
X0325124Y0231193D02*
X0341720Y0231193D01*
X0341720Y0230595D02*
X0325023Y0230595D01*
X0324775Y0229996D02*
X0341720Y0229996D01*
X0341720Y0229398D02*
X0324523Y0229398D01*
X0323924Y0228799D02*
X0341720Y0228799D01*
X0341720Y0228201D02*
X0323174Y0228201D01*
X0308387Y0219855D02*
X0302481Y0211981D01*
X0311261Y0082762D02*
X0321261Y0082762D01*
X0321261Y0082164D02*
X0311261Y0082164D01*
X0311261Y0081565D02*
X0321261Y0081565D01*
X0321261Y0080967D02*
X0311261Y0080967D01*
X0311261Y0080368D02*
X0321261Y0080368D01*
X0321261Y0079770D02*
X0311261Y0079770D01*
X0311219Y0079171D02*
X0321303Y0079171D01*
X0321551Y0078573D02*
X0310971Y0078573D01*
X0310723Y0077974D02*
X0321799Y0077974D01*
X0322318Y0077376D02*
X0310203Y0077376D01*
X0309605Y0076777D02*
X0322917Y0076777D01*
X0324312Y0076179D02*
X0308209Y0076179D01*
X0040670Y0055220D02*
X0040670Y0050564D01*
X0025189Y0050564D01*
X0025189Y0060279D01*
X0017048Y0060279D01*
X0017048Y0058438D01*
X0028926Y0125367D02*
X0036733Y0125367D01*
D14*
X0036733Y0125367D03*
X0028859Y0125367D03*
X0020985Y0133241D03*
X0035542Y0110810D03*
X0040411Y0109205D03*
X0025567Y0099888D03*
X0020989Y0097808D03*
X0020985Y0085997D03*
X0025189Y0060279D03*
X0015080Y0052532D03*
X0031151Y0043014D03*
X0040670Y0050564D03*
X0040670Y0055220D03*
X0072166Y0054501D03*
X0089883Y0060406D03*
X0117442Y0056469D03*
X0127284Y0052532D03*
X0127284Y0038753D03*
X0117442Y0074186D03*
X0147823Y0093017D03*
X0155389Y0097808D03*
X0170591Y0105682D03*
X0173720Y0117620D03*
X0131221Y0114242D03*
X0119410Y0113556D03*
X0117442Y0105682D03*
X0121379Y0097808D03*
X0113505Y0097808D03*
X0097757Y0125367D03*
X0111589Y0141115D03*
X0091851Y0143083D03*
X0085946Y0152926D03*
X0076103Y0144842D03*
X0139095Y0201134D03*
X0170591Y0204107D03*
X0186339Y0204107D03*
X0170591Y0223792D03*
X0170591Y0233635D03*
X0170554Y0243440D03*
X0188308Y0247414D03*
X0177131Y0269702D03*
X0219804Y0253320D03*
X0227678Y0245446D03*
X0251300Y0274973D03*
X0308387Y0219855D03*
X0302481Y0211981D03*
X0261143Y0176548D03*
X0253269Y0172611D03*
X0276891Y0156863D03*
X0248342Y0126994D03*
X0247363Y0103713D03*
X0233583Y0091902D03*
X0229646Y0093871D03*
X0190276Y0074186D03*
X0170591Y0078123D03*
X0186073Y0168941D03*
X0186930Y0177138D03*
X0217835Y0171842D03*
X0221772Y0176548D03*
X0233583Y0200170D03*
X0233583Y0208220D03*
X0245394Y0200170D03*
X0253269Y0200170D03*
D15*
X0246100Y0183731D03*
X0277900Y0164531D03*
X0291100Y0164531D03*
X0296500Y0164531D03*
X0296500Y0171731D03*
X0229900Y0225731D03*
X0158500Y0200531D03*
X0147100Y0191531D03*
X0141100Y0190331D03*
X0144700Y0186731D03*
X0166900Y0146531D03*
X0172900Y0146531D03*
X0184300Y0136331D03*
X0166900Y0115331D03*
X0159700Y0115331D03*
X0155500Y0114131D03*
X0151900Y0127331D03*
X0118900Y0118931D03*
X0103900Y0105131D03*
X0097900Y0107531D03*
X0109900Y0099131D03*
X0100900Y0083531D03*
X0100900Y0079931D03*
X0099700Y0073931D03*
X0103300Y0070331D03*
X0099700Y0064931D03*
X0106900Y0057731D03*
X0090700Y0045131D03*
X0098500Y0042731D03*
X0105700Y0042731D03*
X0102100Y0033731D03*
X0061300Y0055331D03*
X0055300Y0054131D03*
X0050500Y0052931D03*
X0058900Y0063731D03*
X0071500Y0072731D03*
X0042700Y0068531D03*
X0040300Y0066131D03*
X0031900Y0075131D03*
X0024100Y0078731D03*
X0021100Y0074531D03*
X0039700Y0084731D03*
X0055900Y0094931D03*
X0042700Y0100331D03*
X0042700Y0106331D03*
X0032500Y0108131D03*
X0028900Y0104531D03*
X0025300Y0104531D03*
X0028900Y0100931D03*
X0018700Y0092531D03*
X0066700Y0135131D03*
X0066700Y0147131D03*
X0061900Y0147131D03*
X0046300Y0163331D03*
X0033700Y0150731D03*
X0034300Y0185531D03*
X0045700Y0213731D03*
X0047500Y0232931D03*
X0101500Y0255731D03*
X0093100Y0126731D03*
X0085900Y0119531D03*
M02*
