%
M48
M72
T01C0.0130
T02C0.0138
T03C0.0400
%
T01
X5050Y5293
X5530Y5413
X6130Y5533
X5890Y6373
X7150Y7273
X9970Y7393
X10330Y7033
X9970Y6493
X10690Y5773
X9070Y4513
X9850Y4273
X10570Y4273
X10210Y3373
X4270Y6853
X4030Y6613
X3190Y7513
X2410Y7873
X2110Y7453
X3970Y8473
X5590Y9493
X4270Y10033
X4270Y10633
X3250Y10813
X2890Y10453
X2890Y10093
X2530Y10453
X1870Y9253
X6670Y13513
X6670Y14713
X6190Y14713
X4630Y16333
X3370Y15073
X3430Y18553
X4570Y21373
X4750Y23293
X10150Y25573
X15850Y20053
X14710Y19153
X14110Y19033
X14470Y18673
X16690Y14653
X17290Y14653
X18430Y13633
X16690Y11533
X15970Y11533
X15550Y11413
X15190Y12733
X11890Y11893
X10390Y10513
X9790Y10753
X10990Y9913
X10090Y8353
X10090Y7993
X8590Y11953
X9310Y12673
X22990Y22573
X24610Y18373
X27790Y16453
X29110Y16453
X29650Y16453
X29650Y17173
T02
X3115Y4301
X4067Y5056
X4067Y5522
X2519Y6028
X1508Y5253
X2099Y8600
X2099Y9781
X2557Y9989
X3554Y11081
X4041Y10920
X3673Y12537
X2886Y12537
X2099Y13324
X7610Y14484
X8595Y15293
X9185Y14308
X11159Y14111
X9776Y12537
X11941Y11356
X11744Y10568
X11350Y9781
X12138Y9781
X13122Y11424
X15539Y9781
X14782Y9302
X17059Y10568
X17372Y11762
X22965Y9387
X23358Y9190
X24736Y10371
X24834Y12699
X27689Y15686
X25327Y17261
X26114Y17655
X25327Y20017
X24539Y20017
X23358Y20017
X23358Y20822
X22177Y17655
X21784Y17184
X18693Y17714
X18607Y16894
X18634Y20411
X17059Y20411
X17059Y22379
X17059Y23363
X17055Y24344
X18831Y24741
X17713Y26970
X21980Y25332
X22768Y24545
X25130Y27497
X30839Y21986
X30248Y21198
X13910Y20113
X17059Y7812
X19028Y7419
X12728Y5253
X11744Y5647
X11744Y7419
X8988Y6041
X7217Y5450
X12728Y3875
T03
X23744Y3123
X24744Y3123
X26803Y2985
X29363Y2985
X29363Y4765
X29363Y6135
X30736Y5745
X32516Y5745
X29363Y7915
X29363Y9088
X30736Y8305
X32516Y8305
X29363Y10868
X26803Y10868
X26803Y9088
X25429Y8305
X26803Y7915
X26803Y6135
X25429Y5745
X26803Y4765
X23649Y5745
X23649Y8305
X32807Y12430
X32807Y13430
X32122Y23461
X30342Y23461
X28973Y23461
X27193Y23461
X27193Y26021
X28973Y26021
X30342Y26021
X32122Y26021
X24252Y26710
X23252Y26710
X16661Y25938
X15661Y25938
X14661Y25938
X13661Y25938
X11154Y24698
X11154Y23698
X11154Y22698
X11154Y21698
X11154Y20698
X11154Y19698
X11154Y18698
X11154Y17698
X2492Y17698
X2492Y18698
X2492Y19698
X2492Y20698
X2492Y21698
X2492Y22698
X2492Y23698
X2492Y24698
M30
