G75*
%MOIN*%
%OFA0B0*%
%FSLAX25Y25*%
%IPPOS*%
%LPD*%
%AMOC8*
5,1,8,0,0,1.08239X$1,22.5*
%
%ADD10C,0.00600*%
D10*
X0007448Y0058800D02*
X0007464Y0060122D01*
X0007513Y0061442D01*
X0007594Y0062762D01*
X0007707Y0064078D01*
X0007853Y0065392D01*
X0008031Y0066702D01*
X0008241Y0068007D01*
X0008483Y0069306D01*
X0008756Y0070599D01*
X0009062Y0071885D01*
X0009399Y0073163D01*
X0009767Y0074432D01*
X0010166Y0075692D01*
X0010596Y0076942D01*
X0011056Y0078181D01*
X0011547Y0079408D01*
X0012068Y0080623D01*
X0012618Y0081825D01*
X0013198Y0083012D01*
X0013807Y0084186D01*
X0014444Y0085344D01*
X0015110Y0086485D01*
X0015803Y0087611D01*
X0016524Y0088719D01*
X0017271Y0089808D01*
X0018046Y0090880D01*
X0018846Y0091931D01*
X0019672Y0092963D01*
X0020523Y0093975D01*
X0021398Y0094965D01*
X0022298Y0095933D01*
X0023221Y0096879D01*
X0024167Y0097802D01*
X0025135Y0098702D01*
X0026125Y0099577D01*
X0027137Y0100428D01*
X0028169Y0101254D01*
X0029220Y0102054D01*
X0030292Y0102829D01*
X0031381Y0103576D01*
X0032489Y0104297D01*
X0033615Y0104990D01*
X0034756Y0105656D01*
X0035914Y0106293D01*
X0037088Y0106902D01*
X0038275Y0107482D01*
X0039477Y0108032D01*
X0040692Y0108553D01*
X0041919Y0109044D01*
X0043158Y0109504D01*
X0044408Y0109934D01*
X0045668Y0110333D01*
X0046937Y0110701D01*
X0048215Y0111038D01*
X0049501Y0111344D01*
X0050794Y0111617D01*
X0052093Y0111859D01*
X0053398Y0112069D01*
X0054708Y0112247D01*
X0056022Y0112393D01*
X0057338Y0112506D01*
X0058658Y0112587D01*
X0059978Y0112636D01*
X0061300Y0112652D01*
X0062622Y0112636D01*
X0063942Y0112587D01*
X0065262Y0112506D01*
X0066578Y0112393D01*
X0067892Y0112247D01*
X0069202Y0112069D01*
X0070507Y0111859D01*
X0071806Y0111617D01*
X0073099Y0111344D01*
X0074385Y0111038D01*
X0075663Y0110701D01*
X0076932Y0110333D01*
X0078192Y0109934D01*
X0079442Y0109504D01*
X0080681Y0109044D01*
X0081908Y0108553D01*
X0083123Y0108032D01*
X0084325Y0107482D01*
X0085512Y0106902D01*
X0086686Y0106293D01*
X0087844Y0105656D01*
X0088985Y0104990D01*
X0090111Y0104297D01*
X0091219Y0103576D01*
X0092308Y0102829D01*
X0093380Y0102054D01*
X0094431Y0101254D01*
X0095463Y0100428D01*
X0096475Y0099577D01*
X0097465Y0098702D01*
X0098433Y0097802D01*
X0099379Y0096879D01*
X0100302Y0095933D01*
X0101202Y0094965D01*
X0102077Y0093975D01*
X0102928Y0092963D01*
X0103754Y0091931D01*
X0104554Y0090880D01*
X0105329Y0089808D01*
X0106076Y0088719D01*
X0106797Y0087611D01*
X0107490Y0086485D01*
X0108156Y0085344D01*
X0108793Y0084186D01*
X0109402Y0083012D01*
X0109982Y0081825D01*
X0110532Y0080623D01*
X0111053Y0079408D01*
X0111544Y0078181D01*
X0112004Y0076942D01*
X0112434Y0075692D01*
X0112833Y0074432D01*
X0113201Y0073163D01*
X0113538Y0071885D01*
X0113844Y0070599D01*
X0114117Y0069306D01*
X0114359Y0068007D01*
X0114569Y0066702D01*
X0114747Y0065392D01*
X0114893Y0064078D01*
X0115006Y0062762D01*
X0115087Y0061442D01*
X0115136Y0060122D01*
X0115152Y0058800D01*
X0115136Y0057478D01*
X0115087Y0056158D01*
X0115006Y0054838D01*
X0114893Y0053522D01*
X0114747Y0052208D01*
X0114569Y0050898D01*
X0114359Y0049593D01*
X0114117Y0048294D01*
X0113844Y0047001D01*
X0113538Y0045715D01*
X0113201Y0044437D01*
X0112833Y0043168D01*
X0112434Y0041908D01*
X0112004Y0040658D01*
X0111544Y0039419D01*
X0111053Y0038192D01*
X0110532Y0036977D01*
X0109982Y0035775D01*
X0109402Y0034588D01*
X0108793Y0033414D01*
X0108156Y0032256D01*
X0107490Y0031115D01*
X0106797Y0029989D01*
X0106076Y0028881D01*
X0105329Y0027792D01*
X0104554Y0026720D01*
X0103754Y0025669D01*
X0102928Y0024637D01*
X0102077Y0023625D01*
X0101202Y0022635D01*
X0100302Y0021667D01*
X0099379Y0020721D01*
X0098433Y0019798D01*
X0097465Y0018898D01*
X0096475Y0018023D01*
X0095463Y0017172D01*
X0094431Y0016346D01*
X0093380Y0015546D01*
X0092308Y0014771D01*
X0091219Y0014024D01*
X0090111Y0013303D01*
X0088985Y0012610D01*
X0087844Y0011944D01*
X0086686Y0011307D01*
X0085512Y0010698D01*
X0084325Y0010118D01*
X0083123Y0009568D01*
X0081908Y0009047D01*
X0080681Y0008556D01*
X0079442Y0008096D01*
X0078192Y0007666D01*
X0076932Y0007267D01*
X0075663Y0006899D01*
X0074385Y0006562D01*
X0073099Y0006256D01*
X0071806Y0005983D01*
X0070507Y0005741D01*
X0069202Y0005531D01*
X0067892Y0005353D01*
X0066578Y0005207D01*
X0065262Y0005094D01*
X0063942Y0005013D01*
X0062622Y0004964D01*
X0061300Y0004948D01*
X0059978Y0004964D01*
X0058658Y0005013D01*
X0057338Y0005094D01*
X0056022Y0005207D01*
X0054708Y0005353D01*
X0053398Y0005531D01*
X0052093Y0005741D01*
X0050794Y0005983D01*
X0049501Y0006256D01*
X0048215Y0006562D01*
X0046937Y0006899D01*
X0045668Y0007267D01*
X0044408Y0007666D01*
X0043158Y0008096D01*
X0041919Y0008556D01*
X0040692Y0009047D01*
X0039477Y0009568D01*
X0038275Y0010118D01*
X0037088Y0010698D01*
X0035914Y0011307D01*
X0034756Y0011944D01*
X0033615Y0012610D01*
X0032489Y0013303D01*
X0031381Y0014024D01*
X0030292Y0014771D01*
X0029220Y0015546D01*
X0028169Y0016346D01*
X0027137Y0017172D01*
X0026125Y0018023D01*
X0025135Y0018898D01*
X0024167Y0019798D01*
X0023221Y0020721D01*
X0022298Y0021667D01*
X0021398Y0022635D01*
X0020523Y0023625D01*
X0019672Y0024637D01*
X0018846Y0025669D01*
X0018046Y0026720D01*
X0017271Y0027792D01*
X0016524Y0028881D01*
X0015803Y0029989D01*
X0015110Y0031115D01*
X0014444Y0032256D01*
X0013807Y0033414D01*
X0013198Y0034588D01*
X0012618Y0035775D01*
X0012068Y0036977D01*
X0011547Y0038192D01*
X0011056Y0039419D01*
X0010596Y0040658D01*
X0010166Y0041908D01*
X0009767Y0043168D01*
X0009399Y0044437D01*
X0009062Y0045715D01*
X0008756Y0047001D01*
X0008483Y0048294D01*
X0008241Y0049593D01*
X0008031Y0050898D01*
X0007853Y0052208D01*
X0007707Y0053522D01*
X0007594Y0054838D01*
X0007513Y0056158D01*
X0007464Y0057478D01*
X0007448Y0058800D01*
M02*
