G75*
%MOIN*%
%OFA0B0*%
%FSLAX25Y25*%
%IPPOS*%
%LPD*%
%AMOC8*
5,1,8,0,0,1.08239X$1,22.5*
%
%ADD10R,0.05118X0.05906*%
%ADD11C,0.06000*%
%ADD12R,0.04000X0.12000*%
%ADD13C,0.00600*%
%ADD14C,0.02978*%
D10*
X0030060Y0023800D03*
X0037540Y0023800D03*
X0037540Y0031300D03*
X0030060Y0031300D03*
X0085060Y0031300D03*
X0092540Y0031300D03*
X0092540Y0023800D03*
X0085060Y0023800D03*
X0087560Y0083800D03*
X0095040Y0083800D03*
X0032540Y0083800D03*
X0025060Y0083800D03*
D11*
X0017400Y0074600D02*
X0017400Y0068600D01*
X0035200Y0068600D02*
X0035200Y0074600D01*
X0045500Y0079900D02*
X0051500Y0079900D01*
X0051500Y0067700D02*
X0045500Y0067700D01*
X0045500Y0049900D02*
X0051500Y0049900D01*
X0051500Y0037700D02*
X0045500Y0037700D01*
X0035200Y0043000D02*
X0035200Y0049000D01*
X0017400Y0049000D02*
X0017400Y0043000D01*
X0045500Y0019900D02*
X0051500Y0019900D01*
X0071100Y0019900D02*
X0077100Y0019900D01*
X0077100Y0037700D02*
X0071100Y0037700D01*
X0071100Y0049900D02*
X0077100Y0049900D01*
X0087400Y0049000D02*
X0087400Y0043000D01*
X0105200Y0043000D02*
X0105200Y0049000D01*
X0105200Y0068600D02*
X0105200Y0074600D01*
X0087400Y0074600D02*
X0087400Y0068600D01*
X0077100Y0067700D02*
X0071100Y0067700D01*
X0071100Y0079900D02*
X0077100Y0079900D01*
X0077100Y0097700D02*
X0071100Y0097700D01*
X0051500Y0097700D02*
X0045500Y0097700D01*
D12*
X0056300Y0109800D03*
X0066300Y0109800D03*
D13*
X0025100Y0027500D02*
X0028700Y0023900D01*
X0029900Y0023900D01*
X0030060Y0023800D01*
X0025100Y0027500D02*
X0025100Y0035900D01*
X0035200Y0046000D01*
X0034700Y0046100D01*
X0034700Y0071300D01*
X0035200Y0071600D01*
X0027438Y0077735D02*
X0019781Y0077735D01*
X0019609Y0077906D02*
X0018176Y0078500D01*
X0016624Y0078500D01*
X0016078Y0078274D01*
X0019673Y0085123D01*
X0021339Y0087340D01*
X0021289Y0087255D01*
X0021201Y0086924D01*
X0021201Y0084100D01*
X0024760Y0084100D01*
X0024760Y0088053D01*
X0022330Y0088053D01*
X0021999Y0087964D01*
X0021703Y0087793D01*
X0021608Y0087699D01*
X0024435Y0091460D01*
X0030151Y0096951D01*
X0036674Y0101453D01*
X0042539Y0104236D01*
X0031340Y0093037D01*
X0031340Y0092043D01*
X0031340Y0087653D01*
X0029608Y0087653D01*
X0029081Y0087126D01*
X0029081Y0080474D01*
X0029608Y0079947D01*
X0029650Y0079947D01*
X0024603Y0074900D01*
X0021300Y0074900D01*
X0021300Y0075376D01*
X0020706Y0076809D01*
X0019609Y0077906D01*
X0020379Y0077136D02*
X0026839Y0077136D01*
X0026241Y0076538D02*
X0020819Y0076538D01*
X0021067Y0075939D02*
X0025642Y0075939D01*
X0025044Y0075341D02*
X0021300Y0075341D01*
X0019700Y0073700D02*
X0017900Y0071900D01*
X0017400Y0071600D01*
X0017900Y0071300D01*
X0017900Y0065300D01*
X0019100Y0064100D01*
X0019100Y0053900D01*
X0017900Y0052700D01*
X0017900Y0046100D01*
X0017400Y0046000D01*
X0030060Y0031300D02*
X0029900Y0031100D01*
X0037100Y0023900D01*
X0037540Y0023800D01*
X0037700Y0023300D01*
X0037700Y0020300D01*
X0043700Y0014300D01*
X0078500Y0014300D01*
X0079100Y0014900D01*
X0080300Y0014900D01*
X0083900Y0018500D01*
X0089300Y0018500D01*
X0091100Y0020300D01*
X0090500Y0020900D01*
X0090500Y0021500D01*
X0092300Y0023300D01*
X0092540Y0023800D01*
X0092900Y0023900D01*
X0092900Y0031100D01*
X0092540Y0031300D01*
X0092300Y0031700D01*
X0092300Y0034100D01*
X0095300Y0037100D01*
X0095300Y0083300D01*
X0095040Y0083800D01*
X0091100Y0080900D02*
X0091100Y0086900D01*
X0093500Y0089300D01*
X0097700Y0089300D01*
X0100100Y0086900D01*
X0100100Y0080900D01*
X0104900Y0076100D01*
X0104900Y0071900D01*
X0105200Y0071600D01*
X0105500Y0071300D01*
X0105500Y0065300D01*
X0106700Y0064100D01*
X0106700Y0053300D01*
X0105500Y0052100D01*
X0105500Y0046100D01*
X0105200Y0046000D01*
X0092900Y0040700D02*
X0092900Y0079100D01*
X0091100Y0080900D01*
X0087560Y0083800D02*
X0087500Y0083900D01*
X0085100Y0083900D01*
X0074300Y0094700D01*
X0074300Y0097700D01*
X0074100Y0097700D01*
X0068300Y0097700D01*
X0066500Y0099500D01*
X0056300Y0099500D01*
X0055100Y0098300D01*
X0054500Y0098300D01*
X0053900Y0097700D01*
X0048500Y0097700D01*
X0053800Y0101300D02*
X0057800Y0101300D01*
X0066300Y0109800D01*
X0053800Y0101300D02*
X0051300Y0103800D01*
X0043800Y0103800D01*
X0032540Y0092540D01*
X0032540Y0083800D01*
X0032300Y0083300D01*
X0032300Y0080900D01*
X0025100Y0073700D01*
X0019700Y0073700D01*
X0018578Y0078333D02*
X0028036Y0078333D01*
X0028635Y0078932D02*
X0016423Y0078932D01*
X0016222Y0078333D02*
X0016109Y0078333D01*
X0016738Y0079530D02*
X0029233Y0079530D01*
X0029427Y0080129D02*
X0028705Y0080129D01*
X0028659Y0080049D02*
X0028830Y0080345D01*
X0028919Y0080676D01*
X0028919Y0083500D01*
X0025360Y0083500D01*
X0025360Y0084100D01*
X0028919Y0084100D01*
X0028919Y0086924D01*
X0028830Y0087255D01*
X0028659Y0087551D01*
X0028417Y0087793D01*
X0028121Y0087964D01*
X0027790Y0088053D01*
X0025360Y0088053D01*
X0025360Y0084100D01*
X0024760Y0084100D01*
X0024760Y0083500D01*
X0025360Y0083500D01*
X0025360Y0079547D01*
X0027790Y0079547D01*
X0028121Y0079636D01*
X0028417Y0079807D01*
X0028659Y0080049D01*
X0028919Y0080727D02*
X0029081Y0080727D01*
X0029081Y0081326D02*
X0028919Y0081326D01*
X0028919Y0081924D02*
X0029081Y0081924D01*
X0029081Y0082523D02*
X0028919Y0082523D01*
X0028919Y0083121D02*
X0029081Y0083121D01*
X0029081Y0083720D02*
X0025360Y0083720D01*
X0025060Y0083800D02*
X0025060Y0087560D01*
X0028800Y0091300D01*
X0026346Y0093296D02*
X0031599Y0093296D01*
X0031340Y0092698D02*
X0025723Y0092698D01*
X0025100Y0092099D02*
X0031340Y0092099D01*
X0031340Y0091501D02*
X0024477Y0091501D01*
X0024015Y0090902D02*
X0031340Y0090902D01*
X0031340Y0090303D02*
X0023566Y0090303D01*
X0023116Y0089705D02*
X0031340Y0089705D01*
X0031340Y0089106D02*
X0022666Y0089106D01*
X0022216Y0088508D02*
X0031340Y0088508D01*
X0031340Y0087909D02*
X0028215Y0087909D01*
X0028798Y0087311D02*
X0029266Y0087311D01*
X0029081Y0086712D02*
X0028919Y0086712D01*
X0028919Y0086114D02*
X0029081Y0086114D01*
X0029081Y0085515D02*
X0028919Y0085515D01*
X0028919Y0084917D02*
X0029081Y0084917D01*
X0029081Y0084318D02*
X0028919Y0084318D01*
X0025360Y0084318D02*
X0024760Y0084318D01*
X0024760Y0083720D02*
X0018936Y0083720D01*
X0018622Y0083121D02*
X0021201Y0083121D01*
X0021201Y0083500D02*
X0021201Y0080676D01*
X0021289Y0080345D01*
X0021461Y0080049D01*
X0021703Y0079807D01*
X0021999Y0079636D01*
X0022330Y0079547D01*
X0024760Y0079547D01*
X0024760Y0083500D01*
X0021201Y0083500D01*
X0021201Y0084318D02*
X0019251Y0084318D01*
X0019565Y0084917D02*
X0021201Y0084917D01*
X0021201Y0085515D02*
X0019968Y0085515D01*
X0020417Y0086114D02*
X0021201Y0086114D01*
X0021201Y0086712D02*
X0020867Y0086712D01*
X0021317Y0087311D02*
X0021322Y0087311D01*
X0021767Y0087909D02*
X0021904Y0087909D01*
X0024760Y0087909D02*
X0025360Y0087909D01*
X0025360Y0087311D02*
X0024760Y0087311D01*
X0024760Y0086712D02*
X0025360Y0086712D01*
X0025360Y0086114D02*
X0024760Y0086114D01*
X0024760Y0085515D02*
X0025360Y0085515D01*
X0025360Y0084917D02*
X0024760Y0084917D01*
X0024760Y0083121D02*
X0025360Y0083121D01*
X0025360Y0082523D02*
X0024760Y0082523D01*
X0024760Y0081924D02*
X0025360Y0081924D01*
X0025360Y0081326D02*
X0024760Y0081326D01*
X0024760Y0080727D02*
X0025360Y0080727D01*
X0025360Y0080129D02*
X0024760Y0080129D01*
X0021414Y0080129D02*
X0017052Y0080129D01*
X0017366Y0080727D02*
X0021201Y0080727D01*
X0021201Y0081326D02*
X0017680Y0081326D01*
X0017994Y0081924D02*
X0021201Y0081924D01*
X0021201Y0082523D02*
X0018308Y0082523D01*
X0032540Y0083800D02*
X0032900Y0083900D01*
X0040100Y0083900D01*
X0043700Y0080300D01*
X0048500Y0080300D01*
X0048500Y0079900D01*
X0048500Y0079700D01*
X0054500Y0079700D01*
X0056300Y0077900D01*
X0065900Y0077900D01*
X0067100Y0079100D01*
X0067700Y0079100D01*
X0068300Y0079700D01*
X0073700Y0079700D01*
X0074100Y0079900D01*
X0074300Y0079700D01*
X0076100Y0079700D01*
X0084500Y0071300D01*
X0085100Y0071300D01*
X0087400Y0071600D01*
X0086900Y0071300D01*
X0085100Y0071300D01*
X0085100Y0067100D01*
X0076100Y0058100D01*
X0076100Y0049700D01*
X0074100Y0049900D01*
X0074300Y0049700D01*
X0076100Y0049700D01*
X0079700Y0049700D01*
X0080300Y0049100D01*
X0080900Y0049100D01*
X0083900Y0046100D01*
X0086900Y0046100D01*
X0087400Y0046000D01*
X0092900Y0040700D02*
X0089900Y0037700D01*
X0088700Y0037700D01*
X0085100Y0034100D01*
X0085100Y0031700D01*
X0085060Y0031300D01*
X0082700Y0023900D02*
X0076700Y0029900D01*
X0076700Y0035300D01*
X0074300Y0037700D01*
X0074100Y0037700D01*
X0068300Y0037700D01*
X0066500Y0039500D01*
X0056300Y0039500D01*
X0055100Y0038300D01*
X0054500Y0038300D01*
X0053900Y0037700D01*
X0048500Y0037700D01*
X0041900Y0040100D02*
X0041900Y0041900D01*
X0044300Y0044300D01*
X0044900Y0044300D01*
X0048500Y0047900D01*
X0048500Y0049700D01*
X0048500Y0049900D01*
X0048500Y0049700D02*
X0054500Y0049700D01*
X0056300Y0047900D01*
X0065900Y0047900D01*
X0067100Y0049100D01*
X0067700Y0049100D01*
X0068300Y0049700D01*
X0073700Y0049700D01*
X0074100Y0049900D01*
X0074100Y0067700D02*
X0068300Y0067700D01*
X0066500Y0069500D01*
X0056300Y0069500D01*
X0055100Y0068300D01*
X0049100Y0068300D01*
X0048500Y0067700D01*
X0048500Y0065300D01*
X0040100Y0056900D01*
X0040100Y0050900D01*
X0040700Y0050300D01*
X0040700Y0040700D01*
X0037700Y0037700D01*
X0037700Y0031700D01*
X0037540Y0031300D01*
X0041300Y0034100D02*
X0041300Y0034700D01*
X0040100Y0035900D01*
X0040100Y0038300D01*
X0041900Y0040100D01*
X0041300Y0034100D02*
X0048500Y0026900D01*
X0048500Y0019900D01*
X0048500Y0019700D01*
X0054500Y0019700D01*
X0056300Y0017900D01*
X0065900Y0017900D01*
X0067100Y0019100D01*
X0067700Y0019100D01*
X0068300Y0019700D01*
X0073700Y0019700D01*
X0074100Y0019900D01*
X0082700Y0023900D02*
X0084500Y0023900D01*
X0085060Y0023800D01*
X0032198Y0093895D02*
X0026969Y0093895D01*
X0027593Y0094493D02*
X0032796Y0094493D01*
X0033395Y0095092D02*
X0028216Y0095092D01*
X0028839Y0095690D02*
X0033993Y0095690D01*
X0034592Y0096289D02*
X0029462Y0096289D01*
X0030085Y0096887D02*
X0035190Y0096887D01*
X0035789Y0097486D02*
X0030926Y0097486D01*
X0031793Y0098084D02*
X0036387Y0098084D01*
X0036986Y0098683D02*
X0032660Y0098683D01*
X0033527Y0099281D02*
X0037584Y0099281D01*
X0038183Y0099880D02*
X0034395Y0099880D01*
X0035262Y0100478D02*
X0038781Y0100478D01*
X0039380Y0101077D02*
X0036129Y0101077D01*
X0037142Y0101675D02*
X0039978Y0101675D01*
X0040577Y0102274D02*
X0038403Y0102274D01*
X0039665Y0102872D02*
X0041175Y0102872D01*
X0040926Y0103471D02*
X0041774Y0103471D01*
X0042187Y0104069D02*
X0042372Y0104069D01*
D14*
X0028800Y0091300D03*
M02*
