G75*
%MOIN*%
%OFA0B0*%
%FSLAX25Y25*%
%IPPOS*%
%LPD*%
%AMOC8*
5,1,8,0,0,1.08239X$1,22.5*
%
%ADD10R,0.05918X0.06706*%
%ADD11C,0.06800*%
%ADD12R,0.04800X0.12800*%
%ADD13C,0.03778*%
D10*
X0030060Y0023800D03*
X0037540Y0023800D03*
X0037540Y0031300D03*
X0030060Y0031300D03*
X0085060Y0031300D03*
X0092540Y0031300D03*
X0092540Y0023800D03*
X0085060Y0023800D03*
X0087560Y0083800D03*
X0095040Y0083800D03*
X0032540Y0083800D03*
X0025060Y0083800D03*
D11*
X0017400Y0074600D02*
X0017400Y0068600D01*
X0035200Y0068600D02*
X0035200Y0074600D01*
X0045500Y0079900D02*
X0051500Y0079900D01*
X0051500Y0067700D02*
X0045500Y0067700D01*
X0045500Y0049900D02*
X0051500Y0049900D01*
X0051500Y0037700D02*
X0045500Y0037700D01*
X0035200Y0043000D02*
X0035200Y0049000D01*
X0017400Y0049000D02*
X0017400Y0043000D01*
X0045500Y0019900D02*
X0051500Y0019900D01*
X0071100Y0019900D02*
X0077100Y0019900D01*
X0077100Y0037700D02*
X0071100Y0037700D01*
X0071100Y0049900D02*
X0077100Y0049900D01*
X0087400Y0049000D02*
X0087400Y0043000D01*
X0105200Y0043000D02*
X0105200Y0049000D01*
X0105200Y0068600D02*
X0105200Y0074600D01*
X0087400Y0074600D02*
X0087400Y0068600D01*
X0077100Y0067700D02*
X0071100Y0067700D01*
X0071100Y0079900D02*
X0077100Y0079900D01*
X0077100Y0097700D02*
X0071100Y0097700D01*
X0051500Y0097700D02*
X0045500Y0097700D01*
D12*
X0056300Y0109800D03*
X0066300Y0109800D03*
D13*
X0028800Y0091300D03*
M02*
